<?xml version="1.0" encoding="UTF-8" standalone="no"?>
<svg xmlns:rdf="http://www.w3.org/1999/02/22-rdf-syntax-ns#" xmlns="http://www.w3.org/2000/svg" height="299.6114" width="299.61142" version="1.1" xmlns:cc="http://creativecommons.org/ns#" xmlns:dc="http://purl.org/dc/elements/1.1/" viewBox="0 0 299.61142 299.6114"><path d="M149.88061,0A149.98872,149.98872,0,0,1,299.61142,149.8057c0,82.61783-67.18789,149.8057-149.73081,149.8057A149.78308,149.78308,0,0,1,43.89307,43.89307,148.83042,148.83042,0,0,1,149.88061,0" fill="#ffc627"/><path d="M149.88061,287.70185c75.95148,0,137.74633-61.79485,137.74633-137.89615,0-75.95149-61.79485-137.82124-137.74633-137.82124C73.77931,11.90955,11.98446,73.77931,11.98446,149.73079c0,76.1013,61.79485,137.97106,137.89615,137.97106" fill="#8b2332"/><path d="M22.17124,149.73079c0-70.33377,57.30068-127.55955,127.63446-127.55955a127.597,127.597,0,0,1,0,255.194c-70.33377.07491-127.63445-57.22577-127.63445-127.63445" fill="#0d2240"/><path d="M250.32533,96.32507l2.8463-1.573-9.13815-14.23154-2.5467,1.87257c-15.57978-19.69945-43.29384-41.646-69.65965-44.94171,19.84926,9.06324,42.1703,32.20823,55.80263,50.03511L213.32331,97.898l1.72275,2.6216L150.33,142.54014,85.61394,100.51963l1.72277-2.6216L72.95536,87.48654c13.70722-17.82688,35.95337-40.97186,55.87752-50.03511C102.542,40.74716,74.82793,62.69369,59.323,82.31824l-2.6965-1.94747L47.48838,94.52741l2.84631,1.64786-.0749.1498c-11.38524,22.396-19.77436,56.92617-11.60994,82.24333-.22471-21.87163,11.535-51.90768,22.09634-71.90674l15.43,8.68874,1.573-2.4718,60.07209,37.751L58.574,202.16279l-.14981-.14982-10.6362,2.8463.1498.29961c-.52432,1.94748.44942,5.61771,2.69651,9.13815,2.24708,3.59533,5.09339,5.91733,7.26557,6.36675l.1498.2996,7.04087-8.53892-.0749-.14981L222.836,113.02837l1.573,2.4718,15.5049-8.68874c10.56131,19.99906,22.321,50.11,22.17125,71.90674,8.0895-25.392-.37454-59.99715-11.75976-82.3931" fill="#ffc627"/><path d="M242.1609,202.013l-.14981.14982-72.88048-47.3386-12.73348,7.56519,79.17231,49.81041-.07491.14981,7.04087,8.53893.22469-.29961c2.09728-.37452,4.9436-2.77142,7.26559-6.36674,2.17218-3.52045,3.22081-7.11577,2.69651-9.13816l.14981-.29961L242.1609,202.013Z" fill="#ffc627"/><polygon points="162.764 50.185 157.296 57.376 149.731 39.249 149.731 122.916 175.198 90.258 200.815 96.924 162.764 50.185" fill="#ffc627"/><polygon points="162.764 69.809 162.764 50.185 157.296 57.376 162.764 69.809" fill="#fff"/><polygon points="149.731 39.249 103.516 95.651 123.889 90.408 149.731 122.916 149.731 39.249" fill="#fff"/><path d="M122.616,250.17552a40.00346,40.00346,0,0,1,23.894-11.01073V226.656H111.97976a37.84241,37.84241,0,0,0,10.6362,23.51951" fill="#ffc627"/><path d="M146.43507,261.78546V246.9547a32.628,32.628,0,0,0-17.97668,8.23932,39.01068,39.01068,0,0,0,17.97668,6.59144" fill="#ffc627"/><path d="M154.15007,185.01v14.75587a31.67833,31.67833,0,0,0,17.90177-8.23931A39.16293,39.16293,0,0,0,154.15007,185.01" fill="#fff"/><path d="M177.96918,196.62a39.71022,39.71022,0,0,1-23.81911,10.93582V218.941h34.45531A39.07179,39.07179,0,0,0,177.96918,196.62" fill="#fff"/><path d="M146.43507,199.76591V185.01a38.12132,38.12132,0,0,0-17.90178,6.59145,32.30829,32.30829,0,0,0,17.90178,8.16442" fill="#fff"/><path d="M154.15007,226.656v12.50878a39.18362,39.18362,0,0,1,23.81911,11.01073,37.52749,37.52749,0,0,0,10.71111-23.51949H154.15007Z" fill="#ffc627"/><path d="M111.97976,218.941h34.45531V207.55578a40.31076,40.31076,0,0,1-23.894-10.93582A38.98088,38.98088,0,0,0,111.97976,218.941" fill="#fff"/><path d="M154.15007,261.78546a38.12133,38.12133,0,0,0,17.90177-6.59144,31.90465,31.90465,0,0,0-17.90177-8.23932v14.83076Z" fill="#ffc627"/></svg>