<?xml version="1.0" encoding="UTF-8" standalone="no"?><svg xmlns:rdf="http://www.w3.org/1999/02/22-rdf-syntax-ns#" xmlns="http://www.w3.org/2000/svg" height="302.81132" width="302.81132" version="1.1" xmlns:cc="http://creativecommons.org/ns#" xmlns:dc="http://purl.org/dc/elements/1.1/" viewBox="0 0 302.81132 302.81132"><defs><style>.cls-1{fill:#fff;}.cls-2{fill:#bd1b21;}</style></defs><title>Toronto Raptors logo</title><path class="cls-1" d="M302.81132,151.40566A151.40566,151.40566,0,1,1,151.40566,0,151.46091,151.46091,0,0,1,302.81132,151.40566"/><path d="M151.40566,294.93824A143.60667,143.60667,0,0,1,48.85355,50.97324,142.84828,142.84828,0,0,1,149.8916,7.77216h1.615a143.60665,143.60665,0,0,1,102.55211,243.965,142.84829,142.84829,0,0,1-101.038,43.20107c-.60563,0-1.11031,0-1.615,0"/><path class="cls-1" d="M165.53686,52.89105l-4.94592,5.04685H146.56069l-5.04685-5.04685V25.13334l5.04685-5.04685H160.49l5.04686,5.04685ZM151.00192,28.26239l-1.51406,1.51406V48.04606l1.51406,1.51406h5.1478l1.514-1.51406V29.77645l-1.514-1.51406Z"/><path class="cls-1" d="M246.48843,118.19736l-6.66186-2.32156-6.05622-12.61714,2.32154-6.66185L261.12428,84.5853l6.66185,2.32156L273.84236,99.524l-2.32154,6.66186Zm15.94805-23.72022-2.01874-.70656-16.45274,7.8731-.70657,2.01874,2.22063,4.64311,2.01874.70656,16.55368-7.8731.70657-2.01874Z"/><path class="cls-1" d="M91.34808,73.785l.10095,7.06561-9.7909,9.99277-7.0656.10094-19.88462-19.279-.10094-7.0656,9.69-9.99278,7.0656-.10093Zm-27.7577-6.66184v2.11967L76.7122,81.96093h2.11969l3.5328-3.63374V76.20752L69.24286,63.48944H67.12318Z"/><polygon class="cls-1" points="216.914 36.135 202.278 70.858 196.222 68.233 194.607 43.605 186.027 63.893 179.365 61.168 194.102 26.446 202.278 29.877 202.379 51.478 210.151 33.208 216.914 36.135"/><path class="cls-1" d="M119.91329,44.00858l-1.71593,5.85435,10.49745,10.39653-7.36841,3.23-9.7909-9.38715-3.5328,1.615,4.94592,11.4059-6.76279,2.92717L91.34808,35.328l16.14994-7.0656,6.86373,2.7253Zm-15.44338,3.43186,5.95528-2.62436a15.52927,15.52927,0,0,0,.8075-1.91781l-2.01874-4.744-2.01875-.8075-5.95528,2.62436Z"/><polygon class="cls-1" points="246.488 69.949 241.542 65.104 220.749 86.2 215.198 80.649 235.991 59.553 231.045 54.708 236.698 48.954 252.141 64.095 246.488 69.949"/><polygon class="cls-1" points="45.22 91.449 42.394 97.707 69.445 109.82 66.215 117.087 39.164 104.975 36.337 111.233 28.868 107.902 37.75 88.118 45.22 91.449"/><path class="cls-1" d="M252.04,187.743l-3.73469,7.0656-2.62437-1.41312-.70657,1.41312-2.32154,4.44122.60563,2.01875,3.73468,1.91779-.50468-.30281,2.01874-.60563,4.44123-8.47871,6.96465-2.11969,11.305,5.95529,2.11968,6.76278-6.46,12.41525s-6.86372,2.11969-6.86372,2.01874l-5.65248-3.02811,3.73469-7.0656,2.82622,1.51406,3.02812-5.85435-.60563-2.01875-3.02812-1.615-2.01874.60563-4.34028,8.27684-7.0656,2.11969h0l-11.305-5.95529-2.22063-6.96465,6.46-12.41527,6.86371-2.01874Z"/><path class="cls-1" d="M58.13977,213.78478l-5.95529-1.31217-9.589,11.204-3.73467-7.0656,8.68059-10.39653-1.81688-3.43185-11.10308,5.75341-3.43186-6.46,33.51112-17.36118,8.1759,15.64525L70.555,207.32483ZM53.5976,198.64423l3.02812,5.75341,2.01874.60563,4.54217-2.42248.60562-2.01875-3.02811-5.75341Z"/><path class="cls-1" d="M107.498,259.40836l-5.4506,13.02089-6.56091-2.72532,14.53494-34.92424,15.94806,6.66185,2.62437,6.86371-5.24872,12.71808-5.24873,2.82623Zm2.82624-6.76279,5.34967,2.22062,1.9178-.80748,2.01874-4.74406-.8075-1.91779-5.34967-2.22063Z"/><polygon class="cls-1" points="164.729 252.847 157.866 252.948 158.168 282.624 150.295 282.725 149.993 253.049 143.129 253.15 143.028 244.974 164.729 244.772 164.729 252.847"/><path class="cls-1" d="M208.637,265.2627l-2.82624,6.46L192.689,276.66859l-6.46-2.92717-9.7909-25.94085,2.92717-6.46,13.02088-4.94591,6.46,2.92717Zm-22.3071-17.86584-.90843,1.91779,6.46,17.15931,1.9178.90843,4.744-1.81686.90842-1.91779-6.46-17.05837-1.9178-.90843Z"/><path class="cls-1" d="M236.29377,228.72349l.101,6.05623,13.12182,6.86371-6.05623,5.1478-12.11245-6.15717-2.92717,2.52342,8.075,9.48809-5.55154,4.744-24.42678-28.76707L219.942,217.21667l7.3684.70657Zm-13.72745,7.67123,4.94591-4.23937.20189-2.11969-3.33091-3.93654-2.11969-.20189-4.94591,4.23937Z"/><path class="cls-1" d="M76.30845,259.71116l-5.85435-5.45059,2.72529-5.55154-8.075-7.46934-5.34967,3.23-5.95529-5.4506,34.11674-20.49022,5.95528,5.45059Zm.20188-17.96679,5.1478-10.49745-9.99278,5.95528Z"/><path class="cls-2" d="M180.77836,227.31038q.15143.30282.30282.3028a9.09583,9.09583,0,0,0,1.31218-.20189l.8075-.40374,2.42249-.90843,5.95528-2.82623,1.00937-.50468.50469-.20189.60563-.40374,1.00937-.60563,1.21124-.70657,1.615-1.00937,2.82624-2.01875,1.41312-1.11031,1.91779-1.41311,1.81688-1.31217.8075-.60563,1.21124-1.11032,1.21126-1.21125,2.01874-2.11969,2.32154-2.22061,2.62437-3.02812,1.41311-1.91779.50469-.70656,1.615-1.9178,3.02811-4.44123.80749-1.41311,2.01874-4.03748,1.11031-2.22062,2.01874-4.03748,1.11032-2.42249,1.21126-3.73467s1.41311-4.94591,2.11968-7.57028a.76192.76192,0,0,0-.10094-.8075c-.40374-.60563-.70657-1.31218-1.11032-2.01874-.20188-.30282-.50468-.70656-.70657-1.00937s-.70657-.90843-.90843-1.21124l-.70657-.70656c-.60563-.60563-1.21125-1.21124-1.71594-1.615a1.81076,1.81076,0,0,1-.70657-.50469,23.2821,23.2821,0,0,0-5.24874-3.12905q-1.21123-.45423-2.42249-.90843a16.1377,16.1377,0,0,0-2.11968-.50469.98106.98106,0,0,0-.90843.101c-.3028.20187-.3028.60563-.3028,1.00937-.10094,1.00937-.10094,2.11968-.20189,3.23s-.20188,2.11969-.3028,3.23c-.10094,1.00937-.10094,1.9178-.20188,2.92717a25.24222,25.24222,0,0,1-.60563,3.83561c-.40374,2.32156-.90843,4.744-1.41312,7.0656a6.74914,6.74914,0,0,1-.50468,1.9178,15.9792,15.9792,0,0,0-.90843,3.12905,36.82818,36.82818,0,0,1-2.01874,6.46,24.78085,24.78085,0,0,1-2.22061,5.04686.37078.37078,0,0,0-.101.30281c-.50468,1.11032-.90843,2.22061-1.41311,3.23a18.81972,18.81972,0,0,0-1.00937,2.01874,20.31827,20.31827,0,0,1-1.41311,2.52342c-.8075,1.31219-1.71593,2.52343-2.42249,3.83562a23.47916,23.47916,0,0,1-1.71593,2.62435,1.62688,1.62688,0,0,0-.40374.70658,16.08775,16.08775,0,0,1-1.51406,2.11968c-1.00937,1.31217-2.11968,2.62437-3.23,3.93654-.70656.80749-1.41311,1.51406-2.11969,2.32154-.60562.70658-1.31218,1.41312-2.01874,2.11969a2.20189,2.20189,0,0,1-.50468.40374,10.69062,10.69062,0,0,0-1.21125,1.00937,15.0644,15.0644,0,0,1-2.72529,2.32154c-.40375.3028-.90843.60563-1.31219.90843a16.9462,16.9462,0,0,1-3.43186,2.11972"/><path class="cls-2" d="M233.87129,163.82093a.35246.35246,0,0,0,.10094-.20187,3.569,3.569,0,0,1,.101-.60563l.60562-5.1478.3028-4.845v-5.45059l-.60563-5.4506s-.70657-4.94591-1.21125-7.36841a2.45068,2.45068,0,0,0-1.41312-1.71593,6.95539,6.95539,0,0,0-.80748-.30281c-.50469-.20188-1.11032-.40375-1.615-.60563-1.21126-.30282-2.42249-.70656-3.63374-.90843-1.51406-.20187-2.92717-.40374-4.44123-.50469-1.21126-.10094-2.42248-.20187-3.63374-.20187H215.097c-.50468,0-1.11031,0-1.31217.30282a2.52581,2.52581,0,0,0,0,1.514c.20189,1.21125.40374,1.81687.60563,2.92717a74.5822,74.5822,0,0,1,1.31217,10.49746c.10094,1.615.20189,3.23.20189,4.744v1.21124a1.90151,1.90151,0,0,0,.20188.8075.71946.71946,0,0,0,.60563.30281c.3028.101.60563.101.90843.20187s.90843.20188,1.21126.30282c1.41311.50468,2.92717,1.00937,4.23937,1.51406a24.59558,24.59558,0,0,1,2.82622,1.41311c.101.10094.20189.10094.3028.20187.50469.40374,1.11032.8075,1.615,1.21124a15.31649,15.31649,0,0,1,3.63375,3.12906c.20188.20187.40374.50468.60562.70656.40375.30281,1.00938,1.615,1.51406,2.11968.20183.10094.20183.20189.30277.20189"/><path class="cls-2" d="M197.433,105.78209a5.33227,5.33227,0,0,0,1.31218-.10094c.30282,0,.50469,0,.70656-.30282a.75534.75534,0,0,0-.20187-.70655c-.10094-.20187-1.00937-1.9178-1.00937-1.9178l-.90843-1.41312-3.83561-5.55154-.8075-.90842-.70656-1.00938-1.21124-1.41311-3.12906-3.43185-1.31218-1.31219-4.845-4.44123L177.54838,80.245l-1.41311-.70656-4.64312-2.82624-3.23-1.71593-.60563-.30281-2.62437-1.00937L161.09563,72.271l-.30282-.10094-1.21124-.30281-.30281-.10094-1.11032-.30281-2.32155-.40375h-1.11032l-2.11968-.40375-2.52343-.20187-.90843-.10094H147.671l-2.62438.10094-2.52342.30281h-2.01875l-1.71592.20187-1.81687.40375-1.41312.40375-2.22061.40375h-.50469l-2.11968.70656-1.21124.30281-.70656.40375-1.81687.50469-.90843.50468-1.11031.40375-2.7253,1.11031L118.803,77.4188l-1.11031.50468-2.42249,1.31218-2.11968,1.41311-1.9178,1.00937-.70656.40375-2.11968,1.11031-.30282.20187-2.42248,1.9178-2.01874,1.31219-.40375.30281-2.22061,1.81687-.8075.70656s-1.21124,1.00937-1.21124,1.21124l.8075-.30281s1.51405-.60563,1.615-.60563h.30281l2.22062-.90843h.30281l2.42248-1.00937,1.31219-.40374,1.31219-.50469,1.81687-.60563,4.44122-1.71593h.40375l2.22061-.8075,1.81687-.70655.20187.20187,3.43186.10094,2.22061.20187h.10094l4.44123.30282h0l6.15717.30281v.101l2.22061,1.91779h.20187L141.211,88.32l.20187-.10094L144.441,88.32l.10094-.10094,7.67123.40374v.20187l3.43186,2.01874h.10094l6.05623,2.92717v.30282l3.43185-1.31219,5.04686,1.71593.8075,1.41311,1.81687.10094,1.81687,2.01875h.20187l1.41311,1.615v.10094h.20187l3.93654.90843,1.51406,2.22061,3.63374,1.31219a56.49833,56.49833,0,0,0,5.95529,1.21124,17.72764,17.72764,0,0,0,5.85437.40374"/><path class="cls-2" d="M231.7516,129.09855a17.21683,17.21683,0,0,0-.50468-1.81687l-.20189-.60563-.20188-.8075-.60563-1.9178-.60563-1.71592-1.9178-4.23936-.80749-2.01874-1.11031-2.42248-1.31217-2.11969-.3028-.60563-.90843-1.71593-.80748-1.31218-.3028-.40374-5.55154-7.46934s-.50469-.60563-.80749-.90843q-.15141-.3028-.3028-.30282h0s-1.71594,2.7253-2.42248,3.5328-2.11968,2.11969-2.11968,2.11969-1.21126,1.00937-1.41312,1.11031a9.10012,9.10012,0,0,1-1.11031.70656l-1.21124.70656s-.90843.40374-1.11032.50468-.30281.10094-.40374.20187-.10094.20187-.10094.40374.10094.30282.20187.50469c.50468,1.11031,1.00937,2.11969,1.514,3.23a40.8276,40.8276,0,0,1,2.01875,4.845,10.50722,10.50722,0,0,1,.60562,1.615c.50469,1.41311.90843,2.82624,1.31217,4.23935.20189.60563.40375,1.21125.60563,1.9178.20189.60563.3028,1.31219.50469,1.9178a.76755.76755,0,0,0,.80748.60563h1.21126c1.51406,0,2.92717-.10094,4.44123-.10094.40374,0,3.33091.30281,3.33091.30281s1.00937.10094,1.51406.20187c1.11031.20187,2.22062.50469,3.33091.70656a12.35276,12.35276,0,0,1,2.72531.90843,6.5285,6.5285,0,0,0,1.31217.40374,2.28926,2.28926,0,0,1,.40374.10094q.30279-.15136.3028-.3028"/><path class="cls-2" d="M212.47261,96.294a2.95947,2.95947,0,0,0-.40374-.8075l-.3028-.50468-.80749-.90843-.50468-.8075-1.00937-1.00937-.3028-.30281c-1.71593-1.41312-5.24873-4.23936-5.24873-4.23936l-1.00937-.8075-1.81687-1.615-9.08434-5.4506-7.16654-3.43186-3.83561-1.51406-1.41312-.50468-4.744-1.615-3.33093-.8075-3.23-.70655h-.50469l-.30281.30281.10094.10094a1.24187,1.24187,0,0,0,.50469.20187l3.02811,1.21124a15.53044,15.53044,0,0,0,1.9178.8075,5.07088,5.07088,0,0,1,1.31219.50469l4.54217,2.7253a15.1376,15.1376,0,0,1,2.52342,1.9178,8.546,8.546,0,0,0,1.9178,1.41312c.30282.20187.60563.50468.90843.70655.20187.101.30282.30282.50469.40374a27.72165,27.72165,0,0,1,2.62437,2.22062,32.19314,32.19314,0,0,0,2.62437,2.62437,20.17538,20.17538,0,0,1,2.42248,2.62437,20.18324,20.18324,0,0,0,1.9178,2.22061c1.31219,1.31219,2.32156,2.82625,3.5328,4.23936a2.112,2.112,0,0,0,.40374.60563c.8075,1.21124,1.51406,2.52342,2.42249,3.63374a22.16027,22.16027,0,0,1,1.71592,2.52343,14.1367,14.1367,0,0,0,1.00938,1.615.87461.87461,0,0,0,.70655.40374,1.24187,1.24187,0,0,0,.50469-.20187l.60563-.30282s.8075-.40374,1.11031-.50468a6.02875,6.02875,0,0,0,1.11032-.60563c.20187-.20187,1.11031-.8075,1.514-1.21124a12.82905,12.82905,0,0,0,1.41312-1.615l.70657-.90843,1.21126-2.01874a2.03558,2.03558,0,0,0,.20182-.60562"/><path class="cls-2" d="M208.637,126.57513c-.50468-1.51406-.90843-2.92717-1.41311-4.44123a38.5187,38.5187,0,0,0-1.31219-3.63374c-.30281-.70656-.50468-1.51406-.8075-2.22062-.10094-.40374-.30281-.70655-.40374-1.11031a50.14072,50.14072,0,0,0-2.52343-5.24873c0-.10094-.10094-.20187-.20187-.30281a.788.788,0,0,0-.40374-.40374c-.20187-.10095-.40374,0-.8075,0-.8075.10094-1.71593.20187-2.11969.20187s-1.91779.10094-3.12905.20187l-.30282-.10094h-1.514l-3.93654-.50469c-1.41312-.20187-4.744-1.00937-4.744-1.00937l-2.42249-.8075-2.92717-1.00937-.20187.10094-4.64311-.40374-.101.10094-2.62437-2.01874H171.795l-1.615-1.51406-.10094-.30281-1.81688-.30282-.20187.10095-1.514-.50469-.20187-.20187-3.43186.20187-3.12906-1.21124-10.69934.60563-.20187-.10094-2.01874.10094-.20187.20187-5.24873.40374-.10094-.10094-7.46934,4.3403-.10094.30281-.30282.30282-.20187-.10095-3.73467-.40374-.20187.10094h-6.66186l-.10094-.10094-1.9178-.10094-.60563-.30282-6.96465,5.4506v.10094l-2.42248,1.9178-2.7253-1.31218-.20187.10094-1.00938-.30281s-5.04685,1.31218-4.94591,1.31218l-4.744-.70655-.30281-.30282-.90843.90843-1.9178.90843v.20187l-3.73467,2.82624L84.7872,120.317,78.731,124.75824,76.00568,126.777l-.10094,1.11032-1.11031,2.62437-.50468,2.22061-.70656,4.54217-.40375,2.01874-.20187,2.42249-.60562,4.94591-.30282,10.90121.30282.60563.20187,3.02811s0,.50469.20187.50469h0l13.3237-13.72746,4.34029-1.71592,3.63375-.20187,2.22061-2.52343.20187-.50469.30282.10095,5.95528-.70656.30281-.20187h2.22062l.30281.10094.70656-.90843,2.7253-1.615,2.82624-2.01874,8.075.10094.10094.20188,3.12906.30281,2.42248-.50469L130.108,133.237h.10094l3.63375-3.43185,5.34967-.70656.20187-.10094.20187.20187,2.82624,1.31218.20187-.20187,2.52343-.30281.10094-.101,2.32156-.40374.20187-.10094,2.52343,2.11968.10094-.20187,5.24873-.10094.40374-.30282,4.13843.20188.20187.10094.60563-.20187.10094-.20187,1.71593-.70656h.20187l1.9178-.90843.20187-.20187,2.01874-.8075.10094-.20187,5.65249-2.22061v-.101l1.00937-.30281.20187-.20187.30282.30281,1.615.8075h.50468l1.81687,1.00937.10095-.20187.60562-.30281h.10095l.90842-.40374v-.10095l1.31219-.30281,3.43186.90843.70655-.20188.60563.40375,2.52343.40374,2.42248.90843,1.41312-.10095.50468.30282.40374-.20187s4.845-.60563,7.26747-.8075c1.615-.101,3.12906-.30282,4.744-.40375.90843-.10094,1.81688-.20187,2.62438-.30281.60556.50469.80742.30281.60556-.30281"/><path class="cls-2" d="M212.16981,151.30472c0-.30282-.10094-.50469-.10094-.90843a25.51677,25.51677,0,0,1-.101-2.82624c0-.30282-.10094-.60563-.10094-.90843-.10094-1.11031-.10094-2.32156-.20189-3.43186-.10094-1.514-.40374-2.92717-.60562-4.34029q-.30283-1.66548-.60563-3.33093c-.20189-1.21124-.40375-2.22062-.70657-3.43186s-.50469-1.31218-1.71595-1.21124a.3708.3708,0,0,0-.30281.10094c-.40374.101-1.11032.101-1.51406.20187-2.32156.30282-4.54217.40375-6.96465.70656l-6.76279,2.32156-9.79089-.30282-1.11032-.30281v.20187l-2.92717,2.11969h-.40374l-2.32156,2.11968-.10094.30282-5.85435.8075-5.34967,4.13842h-.60563l-2.82624,1.71593-1.11032.10094-1.11031.90843-.30282-.20187-5.4506-.40374-.90842,1.11031v.20187l-4.744,5.1478-.10095.30282h-.20187l-6.05623,6.86372h-1.615l-.10094.20187-4.94591.8075h-.40374l-.101.20188-8.17591,4.54216-3.63374-.40374-.8075.30282-3.63374-.20187-3.63374,3.93654-2.11969.40374-1.21124-.10094-1.31219.50468-.8075-.10094v.20187l-4.44122,3.43185-.40375.101-6.96465,5.4506.10094.30281-4.3403,10.49745.20188.40375-7.16654.60562-2.32156,2.01875-.20187.8075,3.23,4.44122,2.32156,3.63374,2.01874,2.62438,3.33093,3.63374a.49837.49837,0,0,0,.10094.30281c.10094,0,.40374,0,.40374.101l2.01875.70657,2.42248.80748a.09887.09887,0,0,0,.10094.10095H99.322l4.03749,1.615h.30281l.20187.30279h.40375l.90842.60563,1.71593-.90842h.10095l.8075-.50469,6.15717,1.51406,4.54216-2.32155,9.99277-1.00937,4.13843-6.56091,1.81687-1.81687H134.65l1.41312-1.31218v-.20188l2.52342-2.32155,1.21125-1.21124.30281-.20188,1.41311-1.41311,1.11032-1.11031.30281-.101-.30281-1.00937,1.11031-4.23935,2.22061-.70656.101-.10094.70655-.101v-.40374l3.02812-4.845.30281-.101,1.21124-2.42248,2.01875-1.11031.30281-.30282.40374.10094,1.21125-.70655h.10094l2.22061-1.00937.20187-.30282L165.133,171.795h.40374l.10094-.40374.30282-.20187.70655-2.52343,2.32156-1.00937,2.7253-.30281,2.42248-1.71593,3.43186.10094.30281.30282.20187-.20187,4.845-2.11969v-.60563l1.21124-2.22061,2.42248-.60563.10095-.20187,3.23-.70656,1.21124-1.514h.20187a5.76976,5.76976,0,0,1,.8075-.70656l2.22062.30281.10094.10095,1.21124.20187.8075.10094s3.33093-1.51406,4.64312-2.11968c.60562-.20188,1.11031-.40375,1.71592-.60563.8075-.30282,1.51406-.50469,2.32156-.8075.40374-.101.8075-.20187,1.11031-.30282l1.51406-.30281,1.81686-.30282,1.11031-.10094a5.69125,5.69125,0,0,1,.70657-.10094.961.961,0,0,0,.70658-.20187c.20188-.20187.20188-.40375.30279-.60563a3.11,3.11,0,0,1-.20176-1.11036"/><path class="cls-2" d="M212.06887,157.7647a1.35689,1.35689,0,0,0-.20189-.90843,1.11088,1.11088,0,0,0-.60563-.30281c-.20188,0-1.00937.10094-1.00937.10094l-1.41311.20187a.90987.90987,0,0,0-.50469.101c-.8075.20187-1.71593.40374-2.52343.60563a21.56522,21.56522,0,0,0-2.72529.90842c-.90843.40375-2.01875.70656-2.92717,1.21125-.30282.20187-3.5328,1.71592-4.94592,2.42248l-1.81687,1.9178-.10094.40374-.20187-.10094-1.11032.10094-.10094.10094-3.73467,1.21125v.40374l-.40374.40376v.20187l-1.71593,3.02811h-.20187v.30282a13.08437,13.08437,0,0,0-.70656,1.21124l-7.87309,5.04685h-.20188l-1.21124,1.00937-.8075,3.33093-.8075.70656-3.02811,11.40589.40374,1.31219-4.54217,2.22061h-.70655l-.90843,3.93654-.101.101-1.11031,3.63374.10094.20187-.50468,3.12906-.20187.20187.10094.30281-4.3403,6.96467-.30281.10095-1.11032,1.71594v.3028l-3.73467,5.24874-3.93654,2.32154.20187.3028-.20187,1.615.30282.60563-.60563.20188-2.82625,1.71595-.30281-.101-4.23935,2.52343-.50469.80749a8.83427,8.83427,0,0,0,1.615.20188l2.7253.20189,1.81687.10094h6.35906l5.85435-.70657,3.5328-.60563,2.62437-.70657,2.82624-.80748,3.63374-1.41312.30282-.20188,1.00937-.60563a38.8154,38.8154,0,0,0,4.23936-2.52343c2.22061-1.71594,4.54217-3.43186,6.66185-5.34966.70656-.70657,1.41311-1.31217,2.11969-2.01874.70655-.60563,1.31218-1.31217,2.01874-2.01874.10094-.10094.30281-.20189.30281-.40374a4.16327,4.16327,0,0,1,1.00937-1.31217,6.52958,6.52958,0,0,0,.8075-.90843,9.67111,9.67111,0,0,1,1.71593-1.81686,17.547,17.547,0,0,0,1.31219-1.514c.70655-1.00937,1.31218-2.01874,2.01874-3.02811.90843-1.31219,1.81687-2.62438,2.62437-4.03749.8075-1.51406,1.615-3.02811,2.42248-4.44123.70656-1.21124,1.41312-2.52342,2.01875-3.83561.90842-2.22061,1.9178-4.3403,2.7253-6.66185a55.28243,55.28243,0,0,0,2.22062-7.26747c.50469-1.81687.80749-3.73467,1.41312-5.4506.10094-.20187.10094-.50469.20188-.70656.3028-1.514.50469-3.02811.70658-4.44122s.40374-2.82625.60562-4.23936c.101-1.00937.3028-1.9178.40375-2.92717.10094-1.31218.20188-2.7253.20188-4.03748v-.40375a2.05317,2.05317,0,0,1-.101-.50479"/></svg>