<svg xmlns="http://www.w3.org/2000/svg" height="269.54" width="242.52"><path d="M75 256.56c2.28 2.64 6.72 6.6 9.96 8.04a15.18 15.18 0 0 0 8.28 1.56c2.4-.24 1.92.72 0 1.08-1.8.24-6.12.24-8.88-1.2-2.76-1.56-7.32-4.32-10.08-8.4-.6-.96 0-1.92.72-1.08Z" fill="#fff"/><path d="M241.8 126.72A120.4 120.4 0 0 0 134.28 6.84a10.35 10.35 0 0 0-2.16-1.68c-9.72-6.24-17.64-1.56-23.28 1.08a16.09 16.09 0 0 1-1.44.72 119.09 119.09 0 0 0-30.12 7.44 35.61 35.61 0 0 0-3.96-4.68 30.48 30.48 0 0 0-21.84-9 30.83 30.83 0 0 0-30.84 30.84 30.39 30.39 0 0 0 6.84 19.32A120.83 120.83 0 0 0 36 212.04a123.27 123.27 0 0 0 38.16 25.8c-.72 6.36.24 10.68 1.44 12.36-1.8 1.56-2.52 2.4-2.76 4.2-2.76 3.84 3.96 8.64 6.84 10.8 5.76 4.44 8.76 3.6 13.2 3.48 5.52-.24 10.68-6.72 13.68-10.92 6-.84 7.08.12 7.32.84a32 32 0 0 0 7.92-2.28c8.04-3.36 5.88-7.56 5.04-8.28a5.08 5.08 0 0 1-.6-.84A119.34 119.34 0 0 0 180 232.08a11.22 11.22 0 0 1 1.68 2.28c1.8 2.64 2.76 11.04 3.12 15.48.36 4.32 1.08 7.32 3.24 14.16 2.16 6.96 3 1.92 3 0 .12-1.8.48-8.52.24-13.32-.36-4.92-.48-11.88.48-14.88.84-3-.72-3.72-1.2-4.32-.48-.48 0-.72-1.2-4.56a1.52 1.52 0 0 1-.12-.72 122.22 122.22 0 0 0 17.28-14.4 118.94 118.94 0 0 0 35.28-85.08Z" fill="#fff"/><path d="M241.8 126.72A120.4 120.4 0 0 0 134.28 6.84a10.35 10.35 0 0 0-2.16-1.68c-9.72-6.24-17.64-1.56-23.28 1.08a16.09 16.09 0 0 1-1.44.72 119.09 119.09 0 0 0-30.12 7.44 35.61 35.61 0 0 0-3.96-4.68 30.48 30.48 0 0 0-21.84-9 30.83 30.83 0 0 0-30.84 30.84 30.39 30.39 0 0 0 6.84 19.32A120.83 120.83 0 0 0 36 212.04a123.27 123.27 0 0 0 38.16 25.8c-.72 6.36.24 10.68 1.44 12.36-1.8 1.56-2.52 2.4-2.76 4.2-2.76 3.84 3.96 8.64 6.84 10.8 5.76 4.44 8.76 3.6 13.2 3.48 5.52-.24 10.68-6.72 13.68-10.92 6-.84 7.08.12 7.32.84a32 32 0 0 0 7.92-2.28c8.04-3.36 5.88-7.56 5.04-8.28a5.08 5.08 0 0 1-.6-.84A119.34 119.34 0 0 0 180 232.08a11.22 11.22 0 0 1 1.68 2.28c1.8 2.64 2.76 11.04 3.12 15.48.36 4.32 1.08 7.32 3.24 14.16 2.16 6.96 3 1.92 3 0 .12-1.8.48-8.52.24-13.32-.36-4.92-.48-11.88.48-14.88.84-3-.72-3.72-1.2-4.32-.48-.48 0-.72-1.2-4.56a1.52 1.52 0 0 1-.12-.72 122.22 122.22 0 0 0 17.28-14.4 118.94 118.94 0 0 0 35.28-85.08Z" fill="none" stroke="#fff" stroke-width="1.44"/><path d="M241.8 126.72A120.4 120.4 0 0 0 134.28 6.84a10.35 10.35 0 0 0-2.16-1.68c-9.72-6.24-17.64-1.56-23.28 1.08a16.09 16.09 0 0 1-1.44.72 119.09 119.09 0 0 0-30.12 7.44 35.61 35.61 0 0 0-3.96-4.68 30.48 30.48 0 0 0-21.84-9 30.83 30.83 0 0 0-30.84 30.84 30.39 30.39 0 0 0 6.84 19.32A120.83 120.83 0 0 0 36 212.04a123.27 123.27 0 0 0 38.16 25.8c-.72 6.36.24 10.68 1.44 12.36-1.8 1.56-2.52 2.4-2.76 4.2-2.76 3.84 3.96 8.64 6.84 10.8 5.76 4.44 8.76 3.6 13.2 3.48 5.52-.24 10.68-6.72 13.68-10.92 6-.84 7.08.12 7.32.84a32 32 0 0 0 7.92-2.28c8.04-3.36 5.88-7.56 5.04-8.28a5.08 5.08 0 0 1-.6-.84A119.34 119.34 0 0 0 180 232.08a11.22 11.22 0 0 1 1.68 2.28c1.8 2.64 2.76 11.04 3.12 15.48.36 4.32 1.08 7.32 3.24 14.16 2.16 6.96 3 1.92 3 0 .12-1.8.48-8.52.24-13.32-.36-4.92-.48-11.88.48-14.88.84-3-.72-3.72-1.2-4.32-.48-.48 0-.72-1.2-4.56a1.52 1.52 0 0 1-.12-.72 122.22 122.22 0 0 0 17.28-14.4 118.94 118.94 0 0 0 35.28-85.08Z"/><path d="M92.76 239.28a50.69 50.69 0 0 0 13.56-2.88c.36.12.96.48 1.92.84.36-3-1.56-9.12-2.64-12-.6-1.8-1.32-3.12-2.16-5.04a41.11 41.11 0 0 1-7.92-2.76c0 1.8.36 6.36.72 9.36a31 31 0 0 1-3.84.24 107.32 107.32 0 0 1 .36 12.24Z" fill="#008248"/><path d="M92.76 239.28a50.69 50.69 0 0 0 13.56-2.88c.36.12.96.48 1.92.84.36-3-1.56-9.12-2.64-12-.6-1.8-1.32-3.12-2.16-5.04a41.11 41.11 0 0 1-7.92-2.76c0 1.8.36 6.36.72 9.36a31 31 0 0 1-3.84.24 107.32 107.32 0 0 1 .36 12.24Z" fill="none" stroke="#008248" stroke-width=".36"/><path d="M177.12 229.32c-.84-.84 1.08-3.48 1.92-8.28.84-4.92.84-12.96-2.64-17.64a15.9 15.9 0 0 1-2.88-4.56 87.62 87.62 0 0 1-37.08 15.6 6.88 6.88 0 0 0-.48.84 31.93 31.93 0 0 1-8.52 7.56 49.7 49.7 0 0 1-7.8 3.24c-.36 3-.84 9.6-.12 11.88.36.84 3.72 2.88 4.92 5.04.24.24.24.48.36.72a115.04 115.04 0 0 0 52.68-14.28c-.24 0-.24 0-.36-.12Z" fill="#008248"/><path d="M177.12 229.32c-.84-.84 1.08-3.48 1.92-8.28.84-4.92.84-12.96-2.64-17.64a15.9 15.9 0 0 1-2.88-4.56 87.62 87.62 0 0 1-37.08 15.6 6.88 6.88 0 0 0-.48.84 31.93 31.93 0 0 1-8.52 7.56 49.7 49.7 0 0 1-7.8 3.24c-.36 3-.84 9.6-.12 11.88.36.84 3.72 2.88 4.92 5.04.24.24.24.48.36.72a115.04 115.04 0 0 0 52.68-14.28c-.24 0-.24 0-.36-.12Z" fill="none" stroke="#008248" stroke-width=".36"/><path d="M204.12 43.8a115.95 115.95 0 0 0-67.08-33.12c2.04 3.96 2.28 8.52 2.52 11.52 3.6-1.56 6.48-2.4 7.92-4.92 1.56-2.4 3.6-1.92 4.92-.12 1.2 1.8 1.2 3.96-2.16 6.12a70.43 70.43 0 0 1-6.84 3.6c-.72.36 0 .96.84 2.4.84 1.32 3 4.8 3.36 12.12v.24a87.36 87.36 0 0 1 36.6 22.08 88.97 88.97 0 0 1 17.28 101.76c.72.36 1.8 3.12 2.16 6.72a12.68 12.68 0 0 1-.36 5.28c-.6 1.2-5.04 7.8-7.2 9.84a2.65 2.65 0 0 1-3.6-.48c-.84-1.2-.96-.6-1.68 0-.6.72-2.76 3.96-3.36 4.8s-2.4 1.56-1.2 5.04c1.2 3.36 2.64 5.76 2.16 7.68s-.72 2.4 1.8 4.56c2.64 2.16 2.4 4.68 1.32 6.48a20.38 20.38 0 0 0-2.28 6.72A117.2 117.2 0 0 0 204.12 43.8Z" fill="#008248"/><path d="M204.12 43.8a115.95 115.95 0 0 0-67.08-33.12c2.04 3.96 2.28 8.52 2.52 11.52 3.6-1.56 6.48-2.4 7.92-4.92 1.56-2.4 3.6-1.92 4.92-.12 1.2 1.8 1.2 3.96-2.16 6.12a70.43 70.43 0 0 1-6.84 3.6c-.72.36 0 .96.84 2.4.84 1.32 3 4.8 3.36 12.12v.24a87.36 87.36 0 0 1 36.6 22.08 88.97 88.97 0 0 1 17.28 101.76c.72.36 1.8 3.12 2.16 6.72a12.68 12.68 0 0 1-.36 5.28c-.6 1.2-5.04 7.8-7.2 9.84a2.65 2.65 0 0 1-3.6-.48c-.84-1.2-.96-.6-1.68 0-.6.72-2.76 3.96-3.36 4.8s-2.4 1.56-1.2 5.04c1.2 3.36 2.64 5.76 2.16 7.68s-.72 2.4 1.8 4.56c2.64 2.16 2.4 4.68 1.32 6.48a20.38 20.38 0 0 0-2.28 6.72A117.2 117.2 0 0 0 204.12 43.8Z" fill="none" stroke="#008248" stroke-width=".36"/><path d="M69.6 213.24c-.36-3.24-.84-8.88 1.44-12.96a81.41 81.41 0 0 1-12.72-10.56 89 89 0 0 1 1.92-127.68 2.61 2.61 0 0 1 .6-.96 33.52 33.52 0 0 1-9.12 1.32 30.4 30.4 0 0 1-21.72-9 117.22 117.22 0 0 0 8.4 156.12 118.65 118.65 0 0 0 36.24 24.72 67.14 67.14 0 0 1 2.4-8.16c1.08-2.76-.48-9-3.12-12.24a18.7 18.7 0 0 0-4.32-.6Z" fill="#008248"/><path d="M69.6 213.24c-.36-3.24-.84-8.88 1.44-12.96a81.41 81.41 0 0 1-12.72-10.56 89 89 0 0 1 1.92-127.68 2.61 2.61 0 0 1 .6-.96 33.52 33.52 0 0 1-9.12 1.32 30.4 30.4 0 0 1-21.72-9 117.22 117.22 0 0 0 8.4 156.12 118.65 118.65 0 0 0 36.24 24.72 67.14 67.14 0 0 1 2.4-8.16c1.08-2.76-.48-9-3.12-12.24a18.7 18.7 0 0 0-4.32-.6Z" fill="none" stroke="#008248" stroke-width=".36"/><path d="M100.68 11.4a102.98 102.98 0 0 0-21.6 6 30.15 30.15 0 0 1 3.48 14.16 31.48 31.48 0 0 1-5.88 18.24 87.57 87.57 0 0 1 20.64-8.76l1.44-1.44C96 35.16 92.4 28.08 95.64 18.24a14.24 14.24 0 0 1 5.04-6.84Z" fill="#008248"/><path d="M100.68 11.4a102.98 102.98 0 0 0-21.6 6 30.15 30.15 0 0 1 3.48 14.16 31.48 31.48 0 0 1-5.88 18.24 87.57 87.57 0 0 1 20.64-8.76l1.44-1.44C96 35.16 92.4 28.08 95.64 18.24a14.24 14.24 0 0 1 5.04-6.84Z" fill="none" stroke="#008248" stroke-width=".36"/><path d="M147.48 46.68a7.81 7.81 0 0 1 4.32 9.36c-.36 2.16-2.16 4.2-2.4 5.04-.24 1.44-3.12 3.72-4.08 5.64-.84 1.92-1.08 3.48-.84 4.2a24.13 24.13 0 0 0 6.72 3.96c1.44.48 1.32.84.72 1.8 1.08.12 1.56.72 2.52 1.92 1.08 1.2 3.84.48 5.4-.36 1.68-.84 3.84-1.2 5.52.84a34.33 34.33 0 0 1 5.4 9.36 40.86 40.86 0 0 0 2.88 6.96c.36.6-1.32 10.8-1.8 15a78.11 78.11 0 0 1-.96 6.48c0 .72 2.64-2.28 2.76 1.2 0 2.88 1.44 11.88 2.88 18.6a31 31 0 0 0 1.2 4.56c1.08.12 2.04 2.4 2.76 5.76.6 3.48 1.92 5.64 2.16 7.32 0 1.68.48 1.92 1.08 2.28.48.24.36 1.08-1.32 3a13.14 13.14 0 0 1 1.32 1.2 21.6 21.6 0 0 0 1.8-1.92s5.16 2.04 6.24 2.4 2.52-2.4 5.76-.84a6.25 6.25 0 0 1 2.64 2.88 85.7 85.7 0 0 0 8.16-36.72 86.69 86.69 0 0 0-60.72-82.92c0 1.32-.12 2.52-.12 3Zm27 146.52c-1.32-.6-2.28.36-2.88-4.8a7.56 7.56 0 0 0-2.28-4.32 4.28 4.28 0 0 1-.48-4.2 21.58 21.58 0 0 0 .84-6.36c-.12-1.92.24-4.2 2.76-5.28a7.65 7.65 0 0 1-1.56-3.36c-3.84-1.32-4.68-1.44-5.4-3.24a53.77 53.77 0 0 1-2.4-10.2 37.7 37.7 0 0 1-.48-3.36c-1.2-2.28-3.96-7.44-6-11.28-.72-1.44-1.56-2.76-1.92-3.6-1.92-3.24 0-7.56.84-10.08.96-2.52 1.68-4.68.84-7.32a26 26 0 0 1-1.08-4.08c-.12-1.08-1.08-2.28-2.16 1.2s-3.24 8.76-4.44 14.16a37.17 37.17 0 0 0-1.08 9.72 21.04 21.04 0 0 0 1.68 7.08c2.4 4.92 5.4 9.6 4.92 12.36a9.63 9.63 0 0 1-.96 3.36c-.48 5.4-2.76 15.84-3.96 18.84s-6 13.8-7.08 18.36a105.68 105.68 0 0 1-4.8 15.48 87.35 87.35 0 0 0 37.56-17.04c.24-.84.24-1.56-.48-2.04ZM70.8 71.04A11.83 11.83 0 0 0 75 74.4c4.56 2.4 5.4 4.08 5.4 8.04s.84 12.24 2.04 13.56a10.81 10.81 0 0 0 2.04-2.4c1.2 2.4 3.84 6.96 8.04 9.72.36.12.12 1.2.84 1.44 1.44.36 10.44 1.8 10.68 3.6 1.92-1.92 4.92-6.48 5.4-8.16a49.96 49.96 0 0 1 6.24-9.36 7.5 7.5 0 0 1 .12-2.04c-.72.6-1.68 2.04-3.12 2.64-1.56.72-6.72 3-10.44 4.8-1.32.6-3.6 1.44-4.56-5.4s0-10.44.6-12c.72-1.56 1.92-3 4.2-2.28 2.4.72 6.12 2.04 7.08 2.04.12-.72.84-2.16-1.68-2.4-1.8-.24-6.48-1.56-9-5.16a10.22 10.22 0 0 1-1.92-5.64c-5.28.84-17.52 2.4-20.28 3.12-2.64.72-5.04 1.2-5.88-4.92-.36-2.64-.96-6.24.84-4.92a8.83 8.83 0 0 1 7.2-1.92 2.85 2.85 0 0 1 1.8 1.2c.24.84-.24 2.4-.6 3.72-.84 2.52-2.4 4.32 2.64 3.12 5.4-1.2 12.12-2.16 13.8-2.52.24-1.8 1.8-4.68 3.6-6.72a9.54 9.54 0 0 0 2.16-4.32c0-.72-.6-.84-1.44 0-1.08.84-4.2 2.76-6.96 2.04-1.2-.36-2.64-2.4-3.24-3.6a27.52 27.52 0 0 1 4.08-5.76A84.73 84.73 0 0 0 67.2 58.68a18.41 18.41 0 0 0 .72 6 19.48 19.48 0 0 0 2.88 6.36Zm6.48 127.2c3.84-1.44 6.84-1.44 9.72 2.64.84 1.08 1.56 4.32 8.76 1.44-3.84-4.56-6.12-9.96-8.16-17.28-3.36-11.4-10.8-24.48-8.04-30.36-1.56-1.56-3.48-7.32-5.4-6.6-1.32.36-3.12.36-1.68-3.96a27.77 27.77 0 0 1 3.96-7.2c2.52-3.48 6.6-7.68 13.08-12.72.48-.48.72-.84.36-1.2a9.15 9.15 0 0 0-2.04-1.8 1.36 1.36 0 0 0-1.8.36c-.6.48-1.56 1.2-2.04 1.56-.6.36-5.04-3.96-7.32-7.2a14.74 14.74 0 0 0-5.52-4.56c.84-1.08 3-3.24 2.28-3-1.44.48-3.84.72-6.36-1.92-3.12-3.24-1.92-4.92-2.64-5.4-.6-.36-3.96.36-6.48-3.6-2.52-3.84-3.48-5.64-1.56-8.4 1.08-1.44 1.44-2.04 1.2-3.84-.36-1.8 0-2.88 2.28-5.04 2.4-2.28 3.72-4.32 4.8-4.08.72.12-1.68-2.88-3-5.04a5.06 5.06 0 0 1-.84-1.56 20.1 20.1 0 0 1-1.2-4.2 86.91 86.91 0 0 0 .12 123 112.65 112.65 0 0 0 12.36 10.32 3.44 3.44 0 0 1 5.16-.36Z" fill="#fff"/><path d="M27.84 14.52c7.56 1.92 13.32 8.16 15.84 11.52.72.96 1.32.84 1.56.12a30.41 30.41 0 0 0 1.68-9.36c0-7.8 1.08-10.92 3-14.52a29.22 29.22 0 0 0-22.08 12.24Z" fill="#a63732"/><path d="M27.84 14.52c7.56 1.92 13.32 8.16 15.84 11.52.72.96 1.32.84 1.56.12a30.41 30.41 0 0 0 1.68-9.36c0-7.8 1.08-10.92 3-14.52a29.22 29.22 0 0 0-22.08 12.24Z" fill="none" stroke="#a63732" stroke-width=".36"/><path d="M23.16 38.52c14.4 1.32 18.84-6.72 19.8-7.92.84-1.2-.12-1.92-.72-2.64-2.4-3.48-8.04-9.6-15.6-11.52a28.48 28.48 0 0 0-4.32 15.12 33.46 33.46 0 0 0 .84 6.96Z" fill="#a63732"/><path d="M23.16 38.52c14.4 1.32 18.84-6.72 19.8-7.92.84-1.2-.12-1.92-.72-2.64-2.4-3.48-8.04-9.6-15.6-11.52a28.48 28.48 0 0 0-4.32 15.12 33.46 33.46 0 0 0 .84 6.96Z" fill="none" stroke="#a63732" stroke-width=".36"/><path d="M80.16 37.92c-6.12-2.52-13.32-.24-18.36 4.32-5.16 4.44-7.8 7.8-9.6 18.48h-.6a28.83 28.83 0 0 1-19.68-7.68C40.68 50.88 48 46.8 56.4 39c8.28-7.8 12.36-16.92 13.44-21.24 1.2-4.32-.36-1.8-1.2.12a63.64 63.64 0 0 1-14.16 19.2c-8.4 7.92-15 11.76-23.88 14.76a30.13 30.13 0 0 1-6.6-10.8c3 .24 12.36-.84 17.04-4.68 6.24-5.16 6.96-11.16 7.8-19.68s2.04-11.04 4.08-14.4a29.36 29.36 0 0 1 27.96 29.16 28.22 28.22 0 0 1-.72 6.48Z" fill="#a63732"/><path d="M80.16 37.92c-6.12-2.52-13.32-.24-18.36 4.32-5.16 4.44-7.8 7.8-9.6 18.48h-.6a28.83 28.83 0 0 1-19.68-7.68C40.68 50.88 48 46.8 56.4 39c8.28-7.8 12.36-16.92 13.44-21.24 1.2-4.32-.36-1.8-1.2.12a63.64 63.64 0 0 1-14.16 19.2c-8.4 7.92-15 11.76-23.88 14.76a30.13 30.13 0 0 1-6.6-10.8c3 .24 12.36-.84 17.04-4.68 6.24-5.16 6.96-11.16 7.8-19.68s2.04-11.04 4.08-14.4a29.36 29.36 0 0 1 27.96 29.16 28.22 28.22 0 0 1-.72 6.48Z" fill="none" stroke="#a63732" stroke-width=".36"/><path d="M79.32 40.8c-1.44-1.92-6.36-2.88-14.28 2.04-.84.48-1.32.84-.36 1.68a32.98 32.98 0 0 1 6 9.12 29.75 29.75 0 0 0 8.64-12.84Z" fill="#a63732"/><path d="M79.32 40.8c-1.44-1.92-6.36-2.88-14.28 2.04-.84.48-1.32.84-.36 1.68a32.98 32.98 0 0 1 6 9.12 29.75 29.75 0 0 0 8.64-12.84Z" fill="none" stroke="#a63732" stroke-width=".36"/><path d="M68.28 55.56c-1.68-4.08-3-7.08-4.68-9.12-.72-1.2-.96-1.56-2.52-.24-4.44 3.84-6.12 9.72-7.08 14.4a28.05 28.05 0 0 0 14.28-5.04Z" fill="#a63732"/><path d="M68.28 55.56c-1.68-4.08-3-7.08-4.68-9.12-.72-1.2-.96-1.56-2.52-.24-4.44 3.84-6.12 9.72-7.08 14.4a28.05 28.05 0 0 0 14.28-5.04Z" fill="none" stroke="#a63732" stroke-width=".36"/><path d="M104.28 238.8c.6-.24 1.32-.6 1.8-.36.36.36 2.52 1.92 3.96 3.12s1.8 1.56.72 2.28c-1.08.6-2.16 1.2-1.92.72a2.15 2.15 0 0 0-.36-2.16 37.34 37.34 0 0 0-3.36-2.76l-.84-.84Z" fill="#ba9653"/><path d="M104.28 238.8c.6-.24 1.32-.6 1.8-.36.36.36 2.52 1.92 3.96 3.12s1.8 1.56.72 2.28c-1.08.6-2.16 1.2-1.92.72a2.15 2.15 0 0 0-.36-2.16 37.34 37.34 0 0 0-3.36-2.76l-.84-.84Z" fill="none" stroke="#ba9653" stroke-width=".36"/><path d="M98.88 240.36a1.16 1.16 0 0 0 0 1.68c.6.48 3.72 3.12 4.2 3.6a2.35 2.35 0 0 0 2.16.6c.84-.24-.96.96-1.68 1.2a2.42 2.42 0 0 1-2.28-.6c-.72-.6-4.92-4.56-5.76-5.4s.24-.84.96-.96a17.76 17.76 0 0 0 2.4-.12Z" fill="#ba9653"/><path d="M98.88 240.36a1.16 1.16 0 0 0 0 1.68c.6.48 3.72 3.12 4.2 3.6a2.35 2.35 0 0 0 2.16.6c.84-.24-.96.96-1.68 1.2a2.42 2.42 0 0 1-2.28-.6c-.72-.6-4.92-4.56-5.76-5.4s.24-.84.96-.96a17.76 17.76 0 0 0 2.4-.12Z" fill="none" stroke="#ba9653" stroke-width=".36"/><path d="M93.72 216.48c.36.84.36 1.68-.84 1.44-1.32-.12-6.84-.72-8.4-.72-.48 0-.24-.84-.84-.48s-.36 1.2-.36 2.16v2.16c0 .96.6 2.4 3.12 2.52s4.8-.12 5.64-.72c.72-.48-.12-1.32-.84-1.32-.6 0-4.8.36-5.76 0-.84-.24-1.44-1.32-.84-1.8.84-.48 2.28.12 3.6.12 1.44 0 3-.36 3.48-.12.36.24.84.12.84 1.92 0 .36.96.48 1.32.48s.6.72.48 1.68c-.12.84.12 1.08-1.68 1.08h-9.96c-.48 0-.48-.36-.48-1.2-.12-.84-.36-6.72-.48-7.2s1.08-.48 2.16-.24a25.94 25.94 0 0 0 3.72.36c1.56.12 3.96.36 3.96.36s1.2.12 1.32-.24c.36-.36.72-.48.84-.24Z" fill="#ba9653"/><path d="M93.72 216.48c.36.84.36 1.68-.84 1.44-1.32-.12-6.84-.72-8.4-.72-.48 0-.24-.84-.84-.48s-.36 1.2-.36 2.16v2.16c0 .96.6 2.4 3.12 2.52s4.8-.12 5.64-.72c.72-.48-.12-1.32-.84-1.32-.6 0-4.8.36-5.76 0-.84-.24-1.44-1.32-.84-1.8.84-.48 2.28.12 3.6.12 1.44 0 3-.36 3.48-.12.36.24.84.12.84 1.92 0 .36.96.48 1.32.48s.6.72.48 1.68c-.12.84.12 1.08-1.68 1.08h-9.96c-.48 0-.48-.36-.48-1.2-.12-.84-.36-6.72-.48-7.2s1.08-.48 2.16-.24a25.94 25.94 0 0 0 3.72.36c1.56.12 3.96.36 3.96.36s1.2.12 1.32-.24c.36-.36.72-.48.84-.24Z" fill="none" stroke="#ba9653" stroke-width=".36"/><path d="M60.24 88.2c-1.2-.36-2.16 1.08-2.64 2.28-.6 1.08-1.2 2.28.48 4.8 1.8 2.52 2.88 4.08 6 3.84a4.84 4.84 0 0 0 3.24-1.92c.48-.6.48.48-.12 1.68-.72 1.08-1.32 3.72 0 5.4 1.44 1.8 4.32 3.24 8.16 1.08a16.47 16.47 0 0 0 6.12-6.12c.6-1.2.6-1.8 0-2.64-.72-.72-2.88-4.2-3.24-11.16-.36-4.2.36-6.96-2.16-8.4-2.64-1.56-8.64-5.04-9.36-12-.24-2.64-.12-6.6-2.64-4.44a6.56 6.56 0 0 0-2.88 5.28c-.36 1.56 1.08 3.72 2.16 5.16 1.08 1.56 2.4 4.8 3.48 5.64.96.84 1.56 1.56 2.52 1.56.84.12 4.2.12 5.04.36.84.36 1.2 1.32-.72 1.32a46.18 46.18 0 0 0-6.6.72c-1.44.24-2.76.36-3.48 3.12-.6 2.76-1.56 6.12-1.56 7.08-.12.96-.72 1.56-.72 2.16 0 .48 1.08 3.24 3.6.48a18.82 18.82 0 0 0 3.96-6.6c.48-1.32 1.08-1.2.6.84s-.6 7.2.36 8.88c.96 1.92 3.12 3.84 5.76 2.64a3.95 3.95 0 0 1 2.28-.72c.72.12-.12 1.44-.84 1.92-.6.6-2.76 3-6.6-.36a9.87 9.87 0 0 1-2.52-5.04.83.83 0 0 0-1.56-.36c-.48.6-3 3-4.68 1.2-1.8-1.68-2.52-2.64-1.56-6.12.24-.72.6-1.32.12-1.56Z" fill="#f9b282"/><path d="M60.24 88.2c-1.2-.36-2.16 1.08-2.64 2.28-.6 1.08-1.2 2.28.48 4.8 1.8 2.52 2.88 4.08 6 3.84a4.84 4.84 0 0 0 3.24-1.92c.48-.6.48.48-.12 1.68-.72 1.08-1.32 3.72 0 5.4 1.44 1.8 4.32 3.24 8.16 1.08a16.47 16.47 0 0 0 6.12-6.12c.6-1.2.6-1.8 0-2.64-.72-.72-2.88-4.2-3.24-11.16-.36-4.2.36-6.96-2.16-8.4-2.64-1.56-8.64-5.04-9.36-12-.24-2.64-.12-6.6-2.64-4.44a6.56 6.56 0 0 0-2.88 5.28c-.36 1.56 1.08 3.72 2.16 5.16 1.08 1.56 2.4 4.8 3.48 5.64.96.84 1.56 1.56 2.52 1.56.84.12 4.2.12 5.04.36.84.36 1.2 1.32-.72 1.32a46.18 46.18 0 0 0-6.6.72c-1.44.24-2.76.36-3.48 3.12-.6 2.76-1.56 6.12-1.56 7.08-.12.96-.72 1.56-.72 2.16 0 .48 1.08 3.24 3.6.48a18.82 18.82 0 0 0 3.96-6.6c.48-1.32 1.08-1.2.6.84s-.6 7.2.36 8.88c.96 1.92 3.12 3.84 5.76 2.64a3.95 3.95 0 0 1 2.28-.72c.72.12-.12 1.44-.84 1.92-.6.6-2.76 3-6.6-.36a9.87 9.87 0 0 1-2.52-5.04.83.83 0 0 0-1.56-.36c-.48.6-3 3-4.68 1.2-1.8-1.68-2.52-2.64-1.56-6.12.24-.72.6-1.32.12-1.56Z" fill="none" stroke="#f9b282" stroke-linecap="round" stroke-width=".36"/><path d="M62.16 83.04c-.36 1.2-.72 2.76-.96 3.36-.12.48-.96 1.8-1.8.12a3.22 3.22 0 0 1 .48-3.96c.36-.36.96-1.08 1.32-.72s1.08.96.96 1.2Z" fill="#f9b282"/><path d="M62.16 83.04c-.36 1.2-.72 2.76-.96 3.36-.12.48-.96 1.8-1.8.12a3.22 3.22 0 0 1 .48-3.96c.36-.36.96-1.08 1.32-.72s1.08.96.96 1.2Z" fill="none" stroke="#f9b282" stroke-linecap="round" stroke-width=".36"/><path d="M66.36 78.72c-.72.36-2.4.36-3 1.68-.36.84-1.92-.12-1.08-1.2.72-.96 1.2-.84 1.8-1.2.36-.24.6-1.08 1.56-.6.84.48.96 1.2.72 1.32Z" fill="#f9b282"/><path d="M66.36 78.72c-.72.36-2.4.36-3 1.68-.36.84-1.92-.12-1.08-1.2.72-.96 1.2-.84 1.8-1.2.36-.24.6-1.08 1.56-.6.84.48.96 1.2.72 1.32Z" fill="none" stroke="#f9b282" stroke-linecap="round" stroke-width=".36"/><path d="M127.68 32.64c-2.64.24-5.04 1.8-7.44 3.48s-11.16 9.12-13.2 10.56c2.16 1.08 2.76 3.36 2.04 6.96-.24.84 0 1.2.48.6s3.12-3.36 3.12-5.64a7.4 7.4 0 0 0-1.32-3.84c-.12-.36.72-1.44 1.8.84 1.08 2.4.72 5.64-2.28 9.24-3.12 3.6-5.52 3.6-6.84 4.2-1.32.72-2.64 1.68-1.44 3.6 1.2 2.04 3.48 1.2 4.44.6.96-.72 2.28-1.44 5.28-1.2 3 .36 3.96-1.56 1.92-3.6-.6-.6-2.28-2.16-.24-2.16 1.2 0 2.64 2.76 3.48 3.48s2.76 1.08 5.28 1.2 6.48 1.08 6.48 3.48c0 1.56-.84 2.04-1.92.84-.48-.48-1.08.24-1.44.72-1.68 1.56-5.64 5.88-8.64 6.6-2.88.72-3.96-.12-7.8-2.16s-7.32-4.2-8.4-4.8c-.96-.6-3.12-2.16-2.16.84 1.08 3 3.6 6.12 8.52 7.8 5.04 1.56 5.88 2.16 6.96 2.76 1.08.48.48 1.08-1.08.84-1.2-.12-2.64-1.2-1.56 1.2 1.08 2.52 2.76 5.28 7.92 4.56 5.16-.6 5.28-1.68 8.52-6.96.48-.96 1.08-.36.72 2.16a37.1 37.1 0 0 1 5.4-2.04 11.82 11.82 0 0 0 7.92-6.36c1.32-2.4 2.04-3.24 1.8-5.76 0-.96 1.32-2.88 2.76-4.2 1.44-1.2 5.28-6.24 3.24-9.72-1.92-3.48-5.28-1.8-6.84.84s-3.36 5.4-3.48 9.96a2.34 2.34 0 0 0-2.76.84c-.24.48-4.32 0-5.76.36s-1.92-.48-.36-2.4c1.44-1.92 6.72-9.12 6.48-14.28a7.96 7.96 0 0 1 .36-3.12c.24-1.56.36-1.56-1.44-2.64-1.32-.72-1.32-2.64-1.56-4.08-.24-1.56-.48-1.56-2.28-1.2-1.44.6-3.6-.72-4.68-2.4Z" fill="#f9b282"/><path d="M127.68 32.64c-2.64.24-5.04 1.8-7.44 3.48s-11.16 9.12-13.2 10.56c2.16 1.08 2.76 3.36 2.04 6.96-.24.84 0 1.2.48.6s3.12-3.36 3.12-5.64a7.4 7.4 0 0 0-1.32-3.84c-.12-.36.72-1.44 1.8.84 1.08 2.4.72 5.64-2.28 9.24-3.12 3.6-5.52 3.6-6.84 4.2-1.32.72-2.64 1.68-1.44 3.6 1.2 2.04 3.48 1.2 4.44.6.96-.72 2.28-1.44 5.28-1.2 3 .36 3.96-1.56 1.92-3.6-.6-.6-2.28-2.16-.24-2.16 1.2 0 2.64 2.76 3.48 3.48s2.76 1.08 5.28 1.2 6.48 1.08 6.48 3.48c0 1.56-.84 2.04-1.92.84-.48-.48-1.08.24-1.44.72-1.68 1.56-5.64 5.88-8.64 6.6-2.88.72-3.96-.12-7.8-2.16s-7.32-4.2-8.4-4.8c-.96-.6-3.12-2.16-2.16.84 1.08 3 3.6 6.12 8.52 7.8 5.04 1.56 5.88 2.16 6.96 2.76 1.08.48.48 1.08-1.08.84-1.2-.12-2.64-1.2-1.56 1.2 1.08 2.52 2.76 5.28 7.92 4.56 5.16-.6 5.28-1.68 8.52-6.96.48-.96 1.08-.36.72 2.16a37.1 37.1 0 0 1 5.4-2.04 11.82 11.82 0 0 0 7.92-6.36c1.32-2.4 2.04-3.24 1.8-5.76 0-.96 1.32-2.88 2.76-4.2 1.44-1.2 5.28-6.24 3.24-9.72-1.92-3.48-5.28-1.8-6.84.84s-3.36 5.4-3.48 9.96a2.34 2.34 0 0 0-2.76.84c-.24.48-4.32 0-5.76.36s-1.92-.48-.36-2.4c1.44-1.92 6.72-9.12 6.48-14.28a7.96 7.96 0 0 1 .36-3.12c.24-1.56.36-1.56-1.44-2.64-1.32-.72-1.32-2.64-1.56-4.08-.24-1.56-.48-1.56-2.28-1.2-1.44.6-3.6-.72-4.68-2.4Z" fill="none" stroke="#f9b282" stroke-width=".36"/><path d="M116.88 61.8c-.6 1.2-2.04 2.28-5.28 1.8-1.56-.12-3.12-.12-3.48 1.08-.12.96-.84.84-1.92.84-1.08-.12-2.28-.24-2.28.12-.12.36 4.56 3.12 6.12 3.84 1.44.6 3.72 2.4 5.64 2.16 2.4-.24 4.44-1.44 8.04-5.28 1.56-1.56 2.64-2.4 1.32-3a7.1 7.1 0 0 0-3.24-.48c-1.2 0-3.96-.24-4.92-1.08Z" fill="#f9b282"/><path d="M116.88 61.8c-.6 1.2-2.04 2.28-5.28 1.8-1.56-.12-3.12-.12-3.48 1.08-.12.96-.84.84-1.92.84-1.08-.12-2.28-.24-2.28.12-.12.36 4.56 3.12 6.12 3.84 1.44.6 3.72 2.4 5.64 2.16 2.4-.24 4.44-1.44 8.04-5.28 1.56-1.56 2.64-2.4 1.32-3a7.1 7.1 0 0 0-3.24-.48c-1.2 0-3.96-.24-4.92-1.08Z" fill="none" stroke="#f9b282" stroke-width=".36"/><path d="M99.48 61.8c-1.32 0-1.44-.96-.6-2.4a13.6 13.6 0 0 1 2.76-3.48 3.37 3.37 0 0 0 1.2 1.68 4.06 4.06 0 0 0-1.56 3.72Z" fill="#f9b282"/><path d="M99.48 61.8c-1.32 0-1.44-.96-.6-2.4a13.6 13.6 0 0 1 2.76-3.48 3.37 3.37 0 0 0 1.2 1.68 4.06 4.06 0 0 0-1.56 3.72Z" fill="none" stroke="#f9b282" stroke-width=".36"/><path d="M120.36 48c.24-1.2.12-2.4-1.92-.72-1.8-1.32-3.36-2.88-3.84-3.24a.86.86 0 0 1-.12-1.56c.6-.72 1.8.48 1.56-1.44-.12-.72 1.44-.24 1.8-.48.36-.12-.24-1.08 1.56-.72.48.24.24-.84 1.44-.72 1.08.12 1.56.6 1.8-.24.24-.96.6-1.44 1.92-.6.96.6 1.32.24 1.44-.24 0-.36.96-.12 1.8.36a16.82 16.82 0 0 1 5.04 4.08c.6.72.84 1.32.48 1.44s-.84 0-.84.72c-.12.84-.48 1.44-.96.6s-.48.12-.84-.84c-.24-.84-.72.36-.96-.24-.24-.72-.6.12-.84-.48-.24-.36-1.08.36-1.32-.12-.36-.48-.96.48-1.32-.12-.48-.6-.48.72-1.2.36-.84-.24-.48.72-1.2.48-.84-.36-.6.84-1.2.72-.72-.12-.72.12-.84.84-.12.84-.48 3.96-.48 4.56 0 .72 1.56.6 3.96.24a18.95 18.95 0 0 0 8.52-3.36c.84-.6 1.56-.6 1.68-.48.12.24-.24 1.08-.84 1.56a11.23 11.23 0 0 1-5.76 2.88c-3.6.6-6.6 1.2-7.2 1.08s.24.96 1.32.72c.6-.24 1.8 2.04 3.72 2.04 1.56 0 3.96-1.8 4.56-2.28.72-.48 3-1.56 1.44 0-1.56 1.68-3.24 3.36-4.92 3.48a11.58 11.58 0 0 1-6-1.8c-1.8-1.2-2.4-1.8-2.16-3.72a14.92 14.92 0 0 0 .72-2.76Z"/><path d="M120.36 48c.24-1.2.12-2.4-1.92-.72-1.8-1.32-3.36-2.88-3.84-3.24a.86.86 0 0 1-.12-1.56c.6-.72 1.8.48 1.56-1.44-.12-.72 1.44-.24 1.8-.48.36-.12-.24-1.08 1.56-.72.48.24.24-.84 1.44-.72 1.08.12 1.56.6 1.8-.24.24-.96.6-1.44 1.92-.6.96.6 1.32.24 1.44-.24 0-.36.96-.12 1.8.36a16.82 16.82 0 0 1 5.04 4.08c.6.72.84 1.32.48 1.44s-.84 0-.84.72c-.12.84-.48 1.44-.96.6s-.48.12-.84-.84c-.24-.84-.72.36-.96-.24-.24-.72-.6.12-.84-.48-.24-.36-1.08.36-1.32-.12-.36-.48-.96.48-1.32-.12-.48-.6-.48.72-1.2.36-.84-.24-.48.72-1.2.48-.84-.36-.6.84-1.2.72-.72-.12-.72.12-.84.84-.12.84-.48 3.96-.48 4.56 0 .72 1.56.6 3.96.24a18.95 18.95 0 0 0 8.52-3.36c.84-.6 1.56-.6 1.68-.48.12.24-.24 1.08-.84 1.56a11.23 11.23 0 0 1-5.76 2.88c-3.6.6-6.6 1.2-7.2 1.08s.24.96 1.32.72c.6-.24 1.8 2.04 3.72 2.04 1.56 0 3.96-1.8 4.56-2.28.72-.48 3-1.56 1.44 0-1.56 1.68-3.24 3.36-4.92 3.48a11.58 11.58 0 0 1-6-1.8c-1.8-1.2-2.4-1.8-2.16-3.72a14.92 14.92 0 0 0 .72-2.76Z" fill="none" stroke="#f9b282" stroke-width=".36"/><path d="M147.48 54c-1.08.72-1.68 1.08-1.8 2.28 0 1.32-.36 3.6-.84 3.72-.6.24-.48-1.2-.72-.72-.24.72-1.08.36-1.32-.24 0-.24-2.4-.24-.6-2.88 1.8-2.52 3-3.72 4.2-4.32s3.24.6 1.08 2.16Z"/><path d="M147.48 54c-1.08.72-1.68 1.08-1.8 2.28 0 1.32-.36 3.6-.84 3.72-.6.24-.48-1.2-.72-.72-.24.72-1.08.36-1.32-.24 0-.24-2.4-.24-.6-2.88 1.8-2.52 3-3.72 4.2-4.32s3.24.6 1.08 2.16Z" fill="none" stroke="#f9b282" stroke-width=".36"/><path d="M193.08 164.64c-.48-1.08.36-2.88 2.64-1.56 2.28 1.2 4.08 2.4 2.4 7.56-1.68 5.04-2.88 8.04-3.48 10.2-.72 2.16-3.24 4.92-2.4 1.2.84-3.6 1.32-8.04.96-10.2-.72-4.2.6-3.84.24-5.76-.12-.6-.24-.96-.36-1.44Z" fill="#f9b282"/><path d="M193.08 164.64c-.48-1.08.36-2.88 2.64-1.56 2.28 1.2 4.08 2.4 2.4 7.56-1.68 5.04-2.88 8.04-3.48 10.2-.72 2.16-3.24 4.92-2.4 1.2.84-3.6 1.32-8.04.96-10.2-.72-4.2.6-3.84.24-5.76-.12-.6-.24-.96-.36-1.44Z" fill="none" stroke="#f9b282" stroke-linecap="round" stroke-width=".36"/><path d="M201.84 169.08c.72 2.04 1.44 6.6.36 8.52-1.2 1.8-4.56 6.96-5.88 8.28s-2.28.72-1.44-.6c.72-1.44 1.92-3.36 1.92-3.96 0-.72-.12-1.44 1.08-3.48 1.08-2.16 3-9.36 3.12-9.96.24-.48.72.72.84 1.2Z" fill="#f9b282"/><path d="M201.84 169.08c.72 2.04 1.44 6.6.36 8.52-1.2 1.8-4.56 6.96-5.88 8.28s-2.28.72-1.44-.6c.72-1.44 1.92-3.36 1.92-3.96 0-.72-.12-1.44 1.08-3.48 1.08-2.16 3-9.36 3.12-9.96.24-.48.72.72.84 1.2Z" fill="none" stroke="#f9b282" stroke-linecap="round" stroke-width=".36"/><path d="M177.84 186.36c-.48-1.68-.84-4.08-1.8-5.52.84-2.04 3.24-7.56 7.44-9.24.36-.12.72-.6.48-.96-.12-.36.48-.72.84.6a44.1 44.1 0 0 1 1.08 5.04 7.31 7.31 0 0 1-.36 2.64c-.24 1.08-.72 3.6-.36 4.92.24 1.32.72 2.28 3.36 1.68 1.32-.24 1.2-.72 1.56-1.8s1.44-4.32 1.8-6.12a23.45 23.45 0 0 0-.24-7.2c-.36-1.08.12-4.8-.24-5.52-.24-.84-.36-1.92-2.76-2.64-2.28-.84-3-.96-4.56.6s-2.16 2.28-2.88 3c-.72.84-2.52.12-.96-1.44 1.56-1.44 3-3 3.48-3.36l-.48-1.2h-.84a17 17 0 0 1-8.04 4.44c-.84.12-2.4.36-1.32 1.8.36.36.36 1.44 1.08 1.08s1.68-2.04 2.64-1.32c.84.84-.12 2.64-1.32 3.36-1.08.84-2.28 1.68-3.12 2.28-.84.36-1.32.84-1.2 2.4a14.2 14.2 0 0 1-.72 6.12c-.72 2.04-.36 2.64.48 4.08.72 1.32 1.92 2.52 2.28 4.8s.48 2.76 2.04 2.64a3.13 3.13 0 0 0 2.64-1.8Z" fill="#f9b282"/><path d="M177.84 186.36c-.48-1.68-.84-4.08-1.8-5.52.84-2.04 3.24-7.56 7.44-9.24.36-.12.72-.6.48-.96-.12-.36.48-.72.84.6a44.1 44.1 0 0 1 1.08 5.04 7.31 7.31 0 0 1-.36 2.64c-.24 1.08-.72 3.6-.36 4.92.24 1.32.72 2.28 3.36 1.68 1.32-.24 1.2-.72 1.56-1.8s1.44-4.32 1.8-6.12a23.45 23.45 0 0 0-.24-7.2c-.36-1.08.12-4.8-.24-5.52-.24-.84-.36-1.92-2.76-2.64-2.28-.84-3-.96-4.56.6s-2.16 2.28-2.88 3c-.72.84-2.52.12-.96-1.44 1.56-1.44 3-3 3.48-3.36l-.48-1.2h-.84a17 17 0 0 1-8.04 4.44c-.84.12-2.4.36-1.32 1.8.36.36.36 1.44 1.08 1.08s1.68-2.04 2.64-1.32c.84.84-.12 2.64-1.32 3.36-1.08.84-2.28 1.68-3.12 2.28-.84.36-1.32.84-1.2 2.4a14.2 14.2 0 0 1-.72 6.12c-.72 2.04-.36 2.64.48 4.08.72 1.32 1.92 2.52 2.28 4.8s.48 2.76 2.04 2.64a3.13 3.13 0 0 0 2.64-1.8Z" fill="none" stroke="#f9b282" stroke-linecap="round" stroke-width=".36"/><path d="M178.44 190.68a9.18 9.18 0 0 0-1.8 4.44c0 1.56-1.56 3.24-1.44 3.96s2.28 2.76 3.48 4.8a18.23 18.23 0 0 1 2.76 10.2 65.17 65.17 0 0 1-1.92 13.08c-.12.84-.72 1.68.72 3s3.6 3.72 4.56 9.24c.84 5.4 1.44 8.4 1.8 8.64.36.36.24.84.24 1.8 0 1.08.96 6.96 1.56 8.04.72 1.2.6-6.24.48-8.4 0-2.28.12-12.48.48-13.92.36-1.56.72-3.12-.48-5.04-1.32-1.92-3.6-5.04-1.92-10.44s4.32-5.4 3.48-7.44a17.65 17.65 0 0 0-3.36-4.92c-1.2-1.2-.24-4.08-.36-5.28-.12-2.28-1.92-2.64-2.04-5.16-.24-2.52-.36-4.56 1.56-7.08 1.8-2.52-.72-2.4-1.56-3.96s-1.2-3.6-.48-6.96c.36-1.68.12-2.16-.36-2.28-.36-.12-2.4-.6-2.4-.6l-2.76 5.88a14.22 14.22 0 0 1 .6 3.84Z" fill="#a63732"/><path d="M178.44 190.68a9.18 9.18 0 0 0-1.8 4.44c0 1.56-1.56 3.24-1.44 3.96s2.28 2.76 3.48 4.8a18.23 18.23 0 0 1 2.76 10.2 65.17 65.17 0 0 1-1.92 13.08c-.12.84-.72 1.68.72 3s3.6 3.72 4.56 9.24c.84 5.4 1.44 8.4 1.8 8.64.36.36.24.84.24 1.8 0 1.08.96 6.96 1.56 8.04.72 1.2.6-6.24.48-8.4 0-2.28.12-12.48.48-13.92.36-1.56.72-3.12-.48-5.04-1.32-1.92-3.6-5.04-1.92-10.44s4.32-5.4 3.48-7.44a17.65 17.65 0 0 0-3.36-4.92c-1.2-1.2-.24-4.08-.36-5.28-.12-2.28-1.92-2.64-2.04-5.16-.24-2.52-.36-4.56 1.56-7.08 1.8-2.52-.72-2.4-1.56-3.96s-1.2-3.6-.48-6.96c.36-1.68.12-2.16-.36-2.28-.36-.12-2.4-.6-2.4-.6l-2.76 5.88a14.22 14.22 0 0 1 .6 3.84Z" fill="none" stroke="#a63732" stroke-width=".36"/><path d="M151.44 77.28c-2.28 3-5.76 10.8-7.56 15.6-1.68 4.92-5.4 16.44-2.76 24.12 2.76 7.68 8.04 2.76 9.24-.12s3.12-7.8 3.72-9.12c.48-1.32.72-2.04 1.8 1.08a80.08 80.08 0 0 1 2.52 11.04c0 .72-.96 2.52-2.16 5.4-1.08 3-1.8 4.92-.6 6.72 1.08 1.8 5.4 9.24 6.84 12.6.84 1.92 1.56 2.28 3.84 1.8a92.01 92.01 0 0 0 9.24-3.12c1.56-.84.84-2.04.36-3.6-.72-2.4-3.48-15.84-3.48-17.64s.36-4.2-1.92-1.56c-.84.96-1.92 0-1.68-1.2.36-1.32 3.12-19.56 3.24-21.72-1.56-3.48-6.24-14.28-7.56-16.32-1.32-1.92-1.8-2.04-3.72-.96-1.92.96-6.36 2.52-7.92-1.2-.36-.6-.84-2.16.36-2.28l-.84-.36c0-.12-.6.36-.96.84Zm24.48 66.96c-1.68.96-7.68 3.6-10.08 3.96s-1.8 1.08-1.44 2.88c.48 1.92 1.92 7.44 2.64 9.48.84 1.92 1.8 1.92 3.84 1.92a19.12 19.12 0 0 0 11.52-4.8c-.96-1.2-2.76-7.08-3.36-9.48-.6-2.76-.6-5.4-3.12-3.96Zm-53.4-53.76a2.52 2.52 0 0 1-2.28 1.56c-1.56 0-2.76-.48-3.72.84-.84 1.2-6.12 7.56-7.2 11.4 1.08 2.28 2.64 6.48 3.72 9.48 3.6-3.12 15.24-14.4 17.4-16.56.84-.84.96-1.56-.24-2.4s-5.76-3.72-6.48-4.2-1.08-.48-1.2-.12Zm-29.4 16.32a47.52 47.52 0 0 1-4.44 11.88c.84 1.56 1.56 2.76 2.76 3.36a67.47 67.47 0 0 0 8.88-8.16c1.44-1.68 3.12-4.2 3.12-4.68 0-.6-.6-.72-1.44-.6-.84.24-4.32-1.2-7.68-1.8-.84-.36-1.08-.36-1.2 0Zm-2.04-2.76c-1.08-.24-4.56-3.96-5.76-6s-1.44-1.92-1.92-.36a24.58 24.58 0 0 1-3.36 6.24c-1.2 1.56-4.44 5.76-5.28 6.6-.84.96 0 1.32.72 2.04s4.56 5.4 5.4 6.48c.84.96 1.8 2.88 3.96.84a24.27 24.27 0 0 0 6.24-9.6c1.2-3.84 1.2-5.88 2.28-5.64l.12-.84-.36-.48-.48-.48a.94.94 0 0 1-.12.96c-.24.6-.96.36-1.44.24Zm57-85.68c-2.52 3-7.56 5.64-16.08 7.68-8.4 2.16-16.56 8.16-19.92 11.04-3.48 3-12.12 9.96-16.2 11.76-1.2.48-3.6 2.04-.48 2.4 2.28.36 3.84-.96 8.64-4.56 4.92-3.48 8.64-6 12.36-9.6 3.48-3.48 9.6-6.6 16.44-8.4 6.72-1.92 15.48-4.8 18-7.68 1.2-1.2 1.32-1.92.24-3-1.2-1.2-1.92-.84-3 .36Zm-42.72 29.28c-.72.36-1.08.84-1.92 3.6-.84 2.64-.72 4.2 0 4.92a2.15 2.15 0 0 0 1.56.48c.36 0 .6.12.6-.6-.12-.84-.12-4.2 2.4-5.76.48-.24-.12-2.28-1.8-1.92-.48.12.12-1.2-.84-.72Zm-28.8 10.68c1.32 0 2.16 0 2.04 1.56-.12 1.44-.72 3.48-.84 4.92s-.12 1.92.72 1.92-1.2.84-2.28 1.08c-1.2.12-2.88.84-3.72-3.96-.36-1.44-.24-3.84-.48-4.32a9.93 9.93 0 0 1 4.56-1.2Zm24.72 3.96c.36 1.92.84 1.92.48 2.16s-.72-.72-2.28-.48c-1.44.24-13.2 2.04-14.04 2.16-2.64.36-2.76-.12-.24-.72 2.4-.48 11.28-2.04 13.92-2.52ZM87.24 204.84c1.2.72 4.08 1.56 9-.48 5.04-2.04 10.44-.72 11.28 2.88.84 3.48.96 8.04-.72 9.96-1.2 1.68-2.52 1.56-3.96 1.08-2.64-.84-8.88-3.72-10.68-4.56a18.62 18.62 0 0 0-6.96-1.8c-.72-1.8-.72-4.92-.12-6s.6-2.28 1.08-1.92a9.14 9.14 0 0 0 1.08.84Zm19.56 16.44a4.27 4.27 0 0 1 4.08 2.76c.6 1.8 4.2 2.16 5.76 2.16 1.56-.12 1.32.72 1.2 1.68 0 .84-.36 3.72-.36 4.8 0 1.2.36 5.04.48 5.76.24.84-.48 1.2-1.32 1.56s-3.84 1.2-5.76-.12c-1.08-.72-2.28-1.8-1.08-1.8 1.2-.12-1.56-10.68-2.28-12.48-.72-1.92-2.88-4.32-.72-4.32Zm-32.16-21.96c.6.12.84.72 1.2 1.32a1.31 1.31 0 0 1-.12 1.8c-1.08 1.2-2.28 6.24-2.04 9.96a10.23 10.23 0 0 0-2.76-.36c-.24-2.04-.12-8.4.84-10.44.84-2.16 1.8-2.64 2.88-2.28Zm.24 56.88c2.4 2.64 6.72 6.6 9.96 8.04a15.4 15.4 0 0 0 8.4 1.56c2.28-.24 1.8.72 0 1.08-1.92.24-6.24.24-9-1.2-2.76-1.56-7.2-4.32-9.96-8.4-.84-.96-.12-1.92.6-1.08Zm48.6-6.6a44.11 44.11 0 0 1-8.88 3.48 9.27 9.27 0 0 1 .48 2.88c2.04 0 6-1.44 9.24-3.48.72-.48 1.08-1.08.72-1.68-.24-.6-.6-1.68-1.56-1.2Zm-22.08-7.56c-.48-.48 2.16-1.08 2.76-1.08a12.75 12.75 0 0 1 2.28 1.92c.36.24.24.36-.12.6a19.47 19.47 0 0 1-2.64.72 21.51 21.51 0 0 1-2.28-2.16Zm4.92-38.76c-.72-.6-.72-.84-.24-1.44a3.6 3.6 0 0 1 1.08-1.2c.36-.12.84-.24 1.56.72a86.69 86.69 0 0 1 4.92 8.4c.84 1.56 1.68.48 1.32-.36a17.64 17.64 0 0 0-1.44-3 40.58 40.58 0 0 0 2.04-11.16 19.06 19.06 0 0 0-1.32-7.44c2.64 0 8.04 0 10.2-.72 2.16-.6.36-.84-.48-.72a70.45 70.45 0 0 1-11.28-.48c-7.68-.84-15.12-5.28-17.52-8.16-.36-.48-2.64-.24-.72 1.2 1.8 1.56 6.6 5.88 13.56 7.2 1.56.36 4.08.72 4.44 6.48a67.09 67.09 0 0 1-.12 10.08c0 .6-.36.72-.84.12a14.7 14.7 0 0 0-2.88-3.24 1.8 1.8 0 0 0-2.16.12 14.73 14.73 0 0 0-2.4 2.28ZM91.2 221.4c-.6 0-4.8.36-5.76 0-.84-.24-1.44-1.32-.84-1.8.84-.48 2.28.24 3.6.24 1.44 0 3-.36 3.48-.24.36.24.84.24.84 1.92Zm-10.08 25.68c-1.2-.84-2.64-4.2-2.88-11.16a24.56 24.56 0 0 1 1.56-8.04c.72-1.92-.48-1.2-.72-.48a23.97 23.97 0 0 0-1.56 5.28 27.3 27.3 0 0 0 0 9 45 45 0 0 0 1.32 6.24Z" fill="#fff"/><path d="M119.28 18.24a7.34 7.34 0 0 1 .6-1.44c-.72.48-1.44.72-2.04 1.08.36.6.96 1.56 1.44.36Z" fill="#ba9653"/><path d="M119.28 18.24a7.34 7.34 0 0 1 .6-1.44c-.72.48-1.44.72-2.04 1.08.36.6.96 1.56 1.44.36Z" fill="none" stroke="#ba9653" stroke-width=".36"/><path d="M136.08 19.08c-.24-.96-1.2.6-2.28 1.92-1.2 1.44-2.88.6-3-.12a9.92 9.92 0 0 0-1.56-2.88c-1.08-1.32.96-3.12 1.8-3.36a11.15 11.15 0 0 0 2.16-.72c.24-.24-.12-1.56-.36-2.64a69.5 69.5 0 0 0-11.04 4.56c1.08.36.72 2.52.6 2.76-.12.36-.48 2.28.36 1.08a4.6 4.6 0 0 1 2.04-1.8c.84-.24 1.8-.24 1.8 1.08.12 1.32-.48 1.2-.72 2.04-.12.84 0 .84.48.96s.72.72.36 1.68c-.24.84-1.68.96-3 .84-1.32-.24-1.44 0-.96.36a3.62 3.62 0 0 1 .96 1.92 45.74 45.74 0 0 1 12.36-3.84 13.69 13.69 0 0 0 0-3.84Z" fill="#ba9653"/><path d="M136.08 19.08c-.24-.96-1.2.6-2.28 1.92-1.2 1.44-2.88.6-3-.12a9.92 9.92 0 0 0-1.56-2.88c-1.08-1.32.96-3.12 1.8-3.36a11.15 11.15 0 0 0 2.16-.72c.24-.24-.12-1.56-.36-2.64a69.5 69.5 0 0 0-11.04 4.56c1.08.36.72 2.52.6 2.76-.12.36-.48 2.28.36 1.08a4.6 4.6 0 0 1 2.04-1.8c.84-.24 1.8-.24 1.8 1.08.12 1.32-.48 1.2-.72 2.04-.12.84 0 .84.48.96s.72.72.36 1.68c-.24.84-1.68.96-3 .84-1.32-.24-1.44 0-.96.36a3.62 3.62 0 0 1 .96 1.92 45.74 45.74 0 0 1 12.36-3.84 13.69 13.69 0 0 0 0-3.84Z" fill="none" stroke="#ba9653" stroke-width=".36"/><path d="M106.68 37.44c-.48-.84-1.08-.96-1.32-.24-.24.6-.72 2.88-2.16 3.48-.48.12-.84.24-1.2.36.6.48 1.08.96 1.8 1.44a41.25 41.25 0 0 1 3.24-3.24 4.82 4.82 0 0 0-.36-1.8Z" fill="#ba9653"/><path d="M106.68 37.44c-.48-.84-1.08-.96-1.32-.24-.24.6-.72 2.88-2.16 3.48-.48.12-.84.24-1.2.36.6.48 1.08.96 1.8 1.44a41.25 41.25 0 0 1 3.24-3.24 4.82 4.82 0 0 0-.36-1.8Z" fill="none" stroke="#ba9653" stroke-width=".36"/><path d="M120.6 26.4c-.6-.12-.96.6-1.32 1.08A2.12 2.12 0 0 1 117 28.8c-1.2-.12-1.44-.48-1.8-1.56a1.73 1.73 0 0 0-1.92-1.32c-.84 0-1.44-1.08-.48-2.16.84-1.08 1.8-.6 2.64-.6.72 0 1.08-.84.48-1.2a4.23 4.23 0 0 1-1.44-2.04 81.54 81.54 0 0 0-9.84 7.44 15.63 15.63 0 0 1 1.56.36 1.49 1.49 0 0 1 1.08 1.56c0 .84.12 1.08.72.48.48-.48-.12-2.28 1.68-2.88 1.68-.72 1.92.6 1.8 1.44 0 .96 0 1.68.96 2.16.84.36 1.8 1.8-.12 2.52a24.16 24.16 0 0 1-3.84 1.32c-.84.24-.6 1.08.12 1.56.36.24.6.6.84.72a84.06 84.06 0 0 1 7.44-5.88 40.39 40.39 0 0 1 4.2-2.64c.12-.6.24-1.44-.48-1.68Z" fill="#ba9653"/><path d="M120.6 26.4c-.6-.12-.96.6-1.32 1.08A2.12 2.12 0 0 1 117 28.8c-1.2-.12-1.44-.48-1.8-1.56a1.73 1.73 0 0 0-1.92-1.32c-.84 0-1.44-1.08-.48-2.16.84-1.08 1.8-.6 2.64-.6.72 0 1.08-.84.48-1.2a4.23 4.23 0 0 1-1.44-2.04 81.54 81.54 0 0 0-9.84 7.44 15.63 15.63 0 0 1 1.56.36 1.49 1.49 0 0 1 1.08 1.56c0 .84.12 1.08.72.48.48-.48-.12-2.28 1.68-2.88 1.68-.72 1.92.6 1.8 1.44 0 .96 0 1.68.96 2.16.84.36 1.8 1.8-.12 2.52a24.16 24.16 0 0 1-3.84 1.32c-.84.24-.6 1.08.12 1.56.36.24.6.6.84.72a84.06 84.06 0 0 1 7.44-5.88 40.39 40.39 0 0 1 4.2-2.64c.12-.6.24-1.44-.48-1.68Z" fill="none" stroke="#ba9653" stroke-width=".36"/><path d="M102.36 35.04c.12-.84-.72-1.2-1.08-1.44-.48 0-1.08-.72-1.32-1.32a6.45 6.45 0 0 0-1.2 1.92c.24.6.36 1.2.6 1.68 1.08 0 2.88 0 3-.84Z" fill="#ba9653"/><path d="M102.36 35.04c.12-.84-.72-1.2-1.08-1.44-.48 0-1.08-.72-1.32-1.32a6.45 6.45 0 0 0-1.2 1.92c.24.6.36 1.2.6 1.68 1.08 0 2.88 0 3-.84Z" fill="none" stroke="#ba9653" stroke-width=".36"/><path d="M141.72 78.6a25.44 25.44 0 0 0-10.08 1.68c.6.36 1.2 1.2 2.4.72 1.8-.6 2.4 1.32 1.56 1.8-.72.6-1.08 1.8.48.84s3 .48 2.4 1.44c-.72 1.08-1.56.24-1.32 1.68.12 1.44-.12 2.76-1.44 3s-1.56-1.68-2.16-1.56.12 3.48-.12 3.48a4.41 4.41 0 0 0-2.28 1.44.12.12 0 0 1 .12.12c5.04 3.6 6.36 1.56 7.2-.12a72.95 72.95 0 0 0 2.88-9.72 34.87 34.87 0 0 0 .36-4.8Z" fill="#ba9653"/><path d="M141.72 78.6a25.44 25.44 0 0 0-10.08 1.68c.6.36 1.2 1.2 2.4.72 1.8-.6 2.4 1.32 1.56 1.8-.72.6-1.08 1.8.48.84s3 .48 2.4 1.44c-.72 1.08-1.56.24-1.32 1.68.12 1.44-.12 2.76-1.44 3s-1.56-1.68-2.16-1.56.12 3.48-.12 3.48a4.41 4.41 0 0 0-2.28 1.44.12.12 0 0 1 .12.12c5.04 3.6 6.36 1.56 7.2-.12a72.95 72.95 0 0 0 2.88-9.72 34.87 34.87 0 0 0 .36-4.8Z" fill="none" stroke="#ba9653" stroke-width=".36"/><path d="M130.56 88.68c.24-.6-.48-1.2-1.32-.84-.84.6-1.92 1.32-2.76 0-.84-1.44.96-1.56.96-2.16.12-.72-.48-.84-.24-1.8.36-1.08 1.56-.84 2.4-.24.96.6.6-.96.48-1.56a4 4 0 0 1 0-1.2 14.25 14.25 0 0 0-3 1.56c-4.8 2.88-4.92 5.4-3.84 6.36.96.84 3.12 1.2 6.6 3.48a12.64 12.64 0 0 1 .72-3.6Z" fill="#ba9653"/><path d="M130.56 88.68c.24-.6-.48-1.2-1.32-.84-.84.6-1.92 1.32-2.76 0-.84-1.44.96-1.56.96-2.16.12-.72-.48-.84-.24-1.8.36-1.08 1.56-.84 2.4-.24.96.6.6-.96.48-1.56a4 4 0 0 1 0-1.2 14.25 14.25 0 0 0-3 1.56c-4.8 2.88-4.92 5.4-3.84 6.36.96.84 3.12 1.2 6.6 3.48a12.64 12.64 0 0 1 .72-3.6Z" fill="none" stroke="#ba9653" stroke-width=".36"/><path d="M115.32 85.92a14.23 14.23 0 0 1-5.28-5.64s.12-.48-.36-.48a20.11 20.11 0 0 1-6.12-1.32c-3.48-1.2-3.96-.48-4.32.96a35.58 35.58 0 0 0-.96 8.76c0 4.44 1.92 7.2 3.12 6.84.6-.24 2.04-.96 3.72-1.8 0-.96.12-2.4.12-3.24.24-.96-.96-.6-1.44 0-.36.48-1.32 1.44-2.16 1.32s-1.44-1.68-1.2-3c.12-1.44-1.56-1.92-.48-3.84 1.08-1.8 1.92.48 2.76.36.96-.24.48-.72 0-2.16s1.32-1.8 2.4-.84c.72.72 1.08-.84 2.04-.6 1.08.24 1.68.96 1.08 2.04-.48.72-.84 2.52 0 1.56.96-.96 1.8-1.56 2.64-.84.84.6.36 2.04.12 2.64-.24.72 1.44 1.56.24 2.4s-2.52-.6-3.24-.36c-.6.12-.72.96.12 1.56a6.34 6.34 0 0 0 1.68.96 24.97 24.97 0 0 0 5.04-2.4l1.2.12c0-1.68-.24-2.64-.72-3Z" fill="#ba9653"/><path d="M115.32 85.92a14.23 14.23 0 0 1-5.28-5.64s.12-.48-.36-.48a20.11 20.11 0 0 1-6.12-1.32c-3.48-1.2-3.96-.48-4.32.96a35.58 35.58 0 0 0-.96 8.76c0 4.44 1.92 7.2 3.12 6.84.6-.24 2.04-.96 3.72-1.8 0-.96.12-2.4.12-3.24.24-.96-.96-.6-1.44 0-.36.48-1.32 1.44-2.16 1.32s-1.44-1.68-1.2-3c.12-1.44-1.56-1.92-.48-3.84 1.08-1.8 1.92.48 2.76.36.96-.24.48-.72 0-2.16s1.32-1.8 2.4-.84c.72.72 1.08-.84 2.04-.6 1.08.24 1.68.96 1.08 2.04-.48.72-.84 2.52 0 1.56.96-.96 1.8-1.56 2.64-.84.84.6.36 2.04.12 2.64-.24.72 1.44 1.56.24 2.4s-2.52-.6-3.24-.36c-.6.12-.72.96.12 1.56a6.34 6.34 0 0 0 1.68.96 24.97 24.97 0 0 0 5.04-2.4l1.2.12c0-1.68-.24-2.64-.72-3Z" fill="none" stroke="#ba9653" stroke-width=".36"/><path d="M108.48 106.44c-.84-1.68-1.08-.36-3.12 2.76a75.95 75.95 0 0 1-6.96 8.28c2.28.36 7.2 1.56 4.2 4.08-3.12 2.64-1.8 2.4-.36 2.28 1.44-.24 3.84.6 2.04 3.84-1.8 3.12-3 5.4-4.68 6.36-1.68 1.08-4.2.96-4.68-1.44s-2.16 0-2.28 1.56a38.48 38.48 0 0 0 0 5.28l-3.6-.24a45.3 45.3 0 0 1 .24-5.76c.24-1.44.12-3.12-2.04-2.4a3.67 3.67 0 0 1-2.76-.24c-4.2 3.6-6.36 6.24-7.68 8.52a4.36 4.36 0 0 0 4.56.96c2.04-.84 5.4.12 3.36 3.36-2.04 3.12-1.92 4.68.12 2.76s5.28-5.4 6.36-1.8c.6 2.28-1.56 3-1.44 4.92s1.92 3.72-.72 6-3.72-1.56-5.4-1.08a1.88 1.88 0 0 0-1.2 2.16c2.28 3.36 5.64 8.04 6.84 9.96 1.92 3.12 1.92 6.84 2.64 6.24s2.52-2.28 3.12-2.76a1.88 1.88 0 0 0 .84-2.04 34.1 34.1 0 0 1-1.08-10.32c.36-4.32 2.4-9.12 3.84-11.88a739.5 739.5 0 0 0 6.84-13.32c1.08-2.28 3-4.92 3.36-6.96.48-2.04 2.28-6.84 3-9.12a47.08 47.08 0 0 0-3.36-9.96Z" fill="#ba9653"/><path d="M108.48 106.44c-.84-1.68-1.08-.36-3.12 2.76a75.95 75.95 0 0 1-6.96 8.28c2.28.36 7.2 1.56 4.2 4.08-3.12 2.64-1.8 2.4-.36 2.28 1.44-.24 3.84.6 2.04 3.84-1.8 3.12-3 5.4-4.68 6.36-1.68 1.08-4.2.96-4.68-1.44s-2.16 0-2.28 1.56a38.48 38.48 0 0 0 0 5.28l-3.6-.24a45.3 45.3 0 0 1 .24-5.76c.24-1.44.12-3.12-2.04-2.4a3.67 3.67 0 0 1-2.76-.24c-4.2 3.6-6.36 6.24-7.68 8.52a4.36 4.36 0 0 0 4.56.96c2.04-.84 5.4.12 3.36 3.36-2.04 3.12-1.92 4.68.12 2.76s5.28-5.4 6.36-1.8c.6 2.28-1.56 3-1.44 4.92s1.92 3.72-.72 6-3.72-1.56-5.4-1.08a1.88 1.88 0 0 0-1.2 2.16c2.28 3.36 5.64 8.04 6.84 9.96 1.92 3.12 1.92 6.84 2.64 6.24s2.52-2.28 3.12-2.76a1.88 1.88 0 0 0 .84-2.04 34.1 34.1 0 0 1-1.08-10.32c.36-4.32 2.4-9.12 3.84-11.88a739.5 739.5 0 0 0 6.84-13.32c1.08-2.28 3-4.92 3.36-6.96.48-2.04 2.28-6.84 3-9.12a47.08 47.08 0 0 0-3.36-9.96Z" fill="none" stroke="#ba9653" stroke-width=".36"/><path d="M149.04 147.84c-2.4-3.96-2.88-5.64-3.24-9.72a49.45 49.45 0 0 1 .48-9.12c-.84-.12-1.68 0-1.8 1.2a16.96 16.96 0 0 1-1.44 5.64c-.6 1.2-2.4 1.2-3.6 1.2-1.08.12-1.08-.6-.36-2.28s1.08-2.4.84-3.96c-.24-1.44-.84-.12-1.56 1.2-.72 1.2-2.52 3.84-4.68 3.6-2.16-.36-1.56-3.6-1.44-4.68.24-1.08-.36-1.32-1.2-1.44-.84-.24-2.64-.6-1.56-3.36.84-2.64 1.92-2.4 3.12-1.92 1.32.48 1.56-.36.36-.84s-2.52-1.56-2.4-2.76c.24-3.48 2.4-3.12 4.08-2.76a5.6 5.6 0 0 0 4.56-1.92v-.24c-2.52-9.48 2.28-21.12 3.48-24.36a153.43 153.43 0 0 1 8.16-15.24l-4.8-2.4c-1.32-.6-2.04-1.08-2.4-.48-.36.48-.84.84-1.56 1.68-1.2 1.92-.12 1.56.12 1.56.48 0 2.04 2.04 2.28 2.64.36.36 0 .72-.6 2.28-.84 1.92-1.44 6.48-2.28 9.12-2.16 8.16-5.76 7.32-7.32 6.36-1.56-1.08-2.04.48-3.6 2.76-.48.48-1.44 1.56-2.64 2.76 1.56.72 3.6 2.64 1.2 4.56-3 2.28-3.48 3.48-2.04 3.12 1.44-.24 2.76-2.4 4.32-.84 1.56 1.44-.48 3.12-1.44 3.6-.84.48-2.52 1.32-2.04 3.12s.84 4.2-1.56 4.68c-2.28.6-3.24-.36-3.84-1.56-.72-1.2-1.32-.36-1.56 1.08a16.15 16.15 0 0 0-.48 3.12c0 .6-1.68-.24-2.4-.96-.72-.84-1.68 1.2-2.52.24-.84-1.08.96-4.2 1.56-5.28s.36-2.64-3.36-.84c-1.2 2.04-2.16 4.92-3.6 9.48a102.46 102.46 0 0 1-8.64 17.76c-5.04 8.16-6 15.72-5.16 20.52.72 4.68 1.32 4.32 2.4 4.32.96 0 3.48 3.12 5.16 5.16 1.68 1.92 2.4 1.08 3.24.36a89.36 89.36 0 0 1 15.72-9.12 87.64 87.64 0 0 1 11.88-4.68 28.25 28.25 0 0 1 .6-4.56c.12-.96-.72-1.2-1.68 0-.84 1.2-3.36 4.2-5.04 3.36-1.68-.72-3.12-2.52-2.16-4.2.84-1.56-.36-1.92-1.08-2.76s-.72-4.2 1.44-4.44c2.04-.24 2.64 1.56 4.08 2.04 1.44.36 2.64.36.84-1.56-1.8-2.04-3.96-1.2-2.88-3.96 1.2-2.64 2.76-2.52 4.68-1.92 1.8.48 2.76-.48 3.96-1.32s3.6-1.92 5.28 0-1.2 3.72-1.92 4.32c-1.2 1.32-1.44 3.6 0 2.28s3.72-6.48 5.4-2.28c.84 2.4-.84 3.48-.6 4.92.36 1.56 2.88 3.48.84 5.4s-5.04.36-6.24-.84c-1.2-1.08-2.52-1.68-1.92.36a14.49 14.49 0 0 1 .6 4.08c4.08-1.08 7.68-1.8 9.48-1.68 2.64.24 4.68 1.08 4.56-1.44-.36-2.52-1.68-4.2-4.08-8.16Z" fill="#ba9653"/><path d="M149.04 147.84c-2.4-3.96-2.88-5.64-3.24-9.72a49.45 49.45 0 0 1 .48-9.12c-.84-.12-1.68 0-1.8 1.2a16.96 16.96 0 0 1-1.44 5.64c-.6 1.2-2.4 1.2-3.6 1.2-1.08.12-1.08-.6-.36-2.28s1.08-2.4.84-3.96c-.24-1.44-.84-.12-1.56 1.2-.72 1.2-2.52 3.84-4.68 3.6-2.16-.36-1.56-3.6-1.44-4.68.24-1.08-.36-1.32-1.2-1.44-.84-.24-2.64-.6-1.56-3.36.84-2.64 1.92-2.4 3.12-1.92 1.32.48 1.56-.36.36-.84s-2.52-1.56-2.4-2.76c.24-3.48 2.4-3.12 4.08-2.76a5.6 5.6 0 0 0 4.56-1.92v-.24c-2.52-9.48 2.28-21.12 3.48-24.36a153.43 153.43 0 0 1 8.16-15.24l-4.8-2.4c-1.32-.6-2.04-1.08-2.4-.48-.36.48-.84.84-1.56 1.68-1.2 1.92-.12 1.56.12 1.56.48 0 2.04 2.04 2.28 2.64.36.36 0 .72-.6 2.28-.84 1.92-1.44 6.48-2.28 9.12-2.16 8.16-5.76 7.32-7.32 6.36-1.56-1.08-2.04.48-3.6 2.76-.48.48-1.44 1.56-2.64 2.76 1.56.72 3.6 2.64 1.2 4.56-3 2.28-3.48 3.48-2.04 3.12 1.44-.24 2.76-2.4 4.32-.84 1.56 1.44-.48 3.12-1.44 3.6-.84.48-2.52 1.32-2.04 3.12s.84 4.2-1.56 4.68c-2.28.6-3.24-.36-3.84-1.56-.72-1.2-1.32-.36-1.56 1.08a16.15 16.15 0 0 0-.48 3.12c0 .6-1.68-.24-2.4-.96-.72-.84-1.68 1.2-2.52.24-.84-1.08.96-4.2 1.56-5.28s.36-2.64-3.36-.84c-1.2 2.04-2.16 4.92-3.6 9.48a102.46 102.46 0 0 1-8.64 17.76c-5.04 8.16-6 15.72-5.16 20.52.72 4.68 1.32 4.32 2.4 4.32.96 0 3.48 3.12 5.16 5.16 1.68 1.92 2.4 1.08 3.24.36a89.36 89.36 0 0 1 15.72-9.12 87.64 87.64 0 0 1 11.88-4.68 28.25 28.25 0 0 1 .6-4.56c.12-.96-.72-1.2-1.68 0-.84 1.2-3.36 4.2-5.04 3.36-1.68-.72-3.12-2.52-2.16-4.2.84-1.56-.36-1.92-1.08-2.76s-.72-4.2 1.44-4.44c2.04-.24 2.64 1.56 4.08 2.04 1.44.36 2.64.36.84-1.56-1.8-2.04-3.96-1.2-2.88-3.96 1.2-2.64 2.76-2.52 4.68-1.92 1.8.48 2.76-.48 3.96-1.32s3.6-1.92 5.28 0-1.2 3.72-1.92 4.32c-1.2 1.32-1.44 3.6 0 2.28s3.72-6.48 5.4-2.28c.84 2.4-.84 3.48-.6 4.92.36 1.56 2.88 3.48.84 5.4s-5.04.36-6.24-.84c-1.2-1.08-2.52-1.68-1.92.36a14.49 14.49 0 0 1 .6 4.08c4.08-1.08 7.68-1.8 9.48-1.68 2.64.24 4.68 1.08 4.56-1.44-.36-2.52-1.68-4.2-4.08-8.16Z" fill="none" stroke="#ba9653" stroke-width=".36"/><path d="M116.04 164.4c-2.28.72-2.64-.36-4.2-.84-1.44-.48-1.56.72-.48 2.28s2.16 3.12.84 3.12c-1.2 0-2.16.12-2.28 1.08s-2.16-.12-2.64-2.16c-.48-1.92-.84-5.64-1.92-3.84-1.08 1.92-1.92 5.04-4.56 3.6s-.84-3.24-2.16-4.56-2.64-3-1.2-5.4c1.2-2.28 2.4-.36 3.6-.36s1.44-1.08.36-1.92c-1.2-.84-2.52-4.92 2.64-4.56a10.2 10.2 0 0 0 5.76-1.8c1.68-1.2 6-.6 4.2 2.52s-1.2 3.72-.12 2.64c1.08-1.2 2.4-3.12 4.32-2.64s1.08 2.04-.12 3.72-.48 2.76.48 3.48c.84.72 2.64 4.2-2.52 5.64Z" fill="#ba9653"/><path d="M116.04 164.4c-2.28.72-2.64-.36-4.2-.84-1.44-.48-1.56.72-.48 2.28s2.16 3.12.84 3.12c-1.2 0-2.16.12-2.28 1.08s-2.16-.12-2.64-2.16c-.48-1.92-.84-5.64-1.92-3.84-1.08 1.92-1.92 5.04-4.56 3.6s-.84-3.24-2.16-4.56-2.64-3-1.2-5.4c1.2-2.28 2.4-.36 3.6-.36s1.44-1.08.36-1.92c-1.2-.84-2.52-4.92 2.64-4.56a10.2 10.2 0 0 0 5.76-1.8c1.68-1.2 6-.6 4.2 2.52s-1.2 3.72-.12 2.64c1.08-1.2 2.4-3.12 4.32-2.64s1.08 2.04-.12 3.72-.48 2.76.48 3.48c.84.72 2.64 4.2-2.52 5.64Z" fill="none" stroke="#ba9653" stroke-width=".36"/><path d="M125.4 142.44a15.67 15.67 0 0 1-3.72-.36c-.12 1.8-1.8 4.32-3.6 6.96-.12.24-1.2.24-1.68-.12-.36-.36-1.8-1.08-.72-2.16s2.76-3.48 2.4-4.56c-.24-.96-1.08-1.92-2.16-.48s-2.88 4.32-4.92 4.32c-1.92.12-3.84-1.56-3-3.36.96-1.8 1.2-2.76 0-4.32-1.32-1.56-.84-3.6 1.92-4.92a3.78 3.78 0 0 1 3.36.84c1.08.84 1.56 0 .12-.84-1.32-.84-2.52-1.8-2.64-3.72-.12-1.8.84-3.6 3.36-2.64a4.43 4.43 0 0 0 4.92-.6c1.08-.84 5.4-1.92 4.8 1.92-.48 2.76-1.8 2.88-2.16 4.32-.48 1.56.72.48 1.32-.48.72-1.2 2.28-5.76 5.28-2.28.72.84.48 2.28-.48 3.84-.84 1.56-.12 2.52.48 3.36.6.96 1.8 5.04-2.88 5.28Z" fill="#ba9653"/><path d="M125.4 142.44a15.67 15.67 0 0 1-3.72-.36c-.12 1.8-1.8 4.32-3.6 6.96-.12.24-1.2.24-1.68-.12-.36-.36-1.8-1.08-.72-2.16s2.76-3.48 2.4-4.56c-.24-.96-1.08-1.92-2.16-.48s-2.88 4.32-4.92 4.32c-1.92.12-3.84-1.56-3-3.36.96-1.8 1.2-2.76 0-4.32-1.32-1.56-.84-3.6 1.92-4.92a3.78 3.78 0 0 1 3.36.84c1.08.84 1.56 0 .12-.84-1.32-.84-2.52-1.8-2.64-3.72-.12-1.8.84-3.6 3.36-2.64a4.43 4.43 0 0 0 4.92-.6c1.08-.84 5.4-1.92 4.8 1.92-.48 2.76-1.8 2.88-2.16 4.32-.48 1.56.72.48 1.32-.48.72-1.2 2.28-5.76 5.28-2.28.72.84.48 2.28-.48 3.84-.84 1.56-.12 2.52.48 3.36.6.96 1.8 5.04-2.88 5.28Z" fill="none" stroke="#ba9653" stroke-width=".36"/><path d="M123.72 24.48c1.32.12 2.64.12 3-.84.36-.84.12-1.44-.36-1.56-.48-.24-.6-.24-.48-1.08.12-.72.84-.72.72-1.92 0-1.32-.96-1.44-1.8-1.08-.96.24-1.2.6-2.04 1.8-.84 1.08-.48-.72-.36-1.08.24-.24.48-2.52-.6-2.88-.72.36-1.32.72-1.92.96a6.77 6.77 0 0 0-.48 1.44c-.48 1.2-1.08.24-1.44-.36a29.7 29.7 0 0 0-3.12 1.92c-.12 0-.24.12-.36.12a3.78 3.78 0 0 0 1.56 2.04c.6.48.24 1.2-.6 1.2-.72 0-1.56-.48-2.64.6-.84 1.08-.24 2.16.6 2.16a1.81 1.81 0 0 1 1.92 1.32c.36 1.08.6 1.44 1.8 1.56a2.22 2.22 0 0 0 2.28-1.32c.24-.48.72-1.32 1.2-1.2.84.36.72 1.08.48 1.92.96-.48 1.8-.96 2.76-1.44a5.72 5.72 0 0 0-.96-1.92c-.48-.24-.36-.48.84-.36Z" fill="#008248"/><path d="M123.72 24.48c1.32.12 2.64.12 3-.84.36-.84.12-1.44-.36-1.56-.48-.24-.6-.24-.48-1.08.12-.72.84-.72.72-1.92 0-1.32-.96-1.44-1.8-1.08-.96.24-1.2.6-2.04 1.8-.84 1.08-.48-.72-.36-1.08.24-.24.48-2.52-.6-2.88-.72.36-1.32.72-1.92.96a6.77 6.77 0 0 0-.48 1.44c-.48 1.2-1.08.24-1.44-.36a29.7 29.7 0 0 0-3.12 1.92c-.12 0-.24.12-.36.12a3.78 3.78 0 0 0 1.56 2.04c.6.48.24 1.2-.6 1.2-.72 0-1.56-.48-2.64.6-.84 1.08-.24 2.16.6 2.16a1.81 1.81 0 0 1 1.92 1.32c.36 1.08.6 1.44 1.8 1.56a2.22 2.22 0 0 0 2.28-1.32c.24-.48.72-1.32 1.2-1.2.84.36.72 1.08.48 1.92.96-.48 1.8-.96 2.76-1.44a5.72 5.72 0 0 0-.96-1.92c-.48-.24-.36-.48.84-.36Z" fill="none" stroke="#00a55c" stroke-width=".36"/><path d="M134.16 11.04a4.25 4.25 0 0 0-1.32.36c.24 1.08.6 2.4.36 2.64a10.07 10.07 0 0 1-2.16.6c-.84.24-2.76 2.16-1.8 3.48A6.2 6.2 0 0 1 130.8 21a1.81 1.81 0 0 0 3 .12c1.2-1.44 2.04-2.88 2.4-1.92a13.69 13.69 0 0 1 0 3.84 1.52 1.52 0 0 0 .72-.12c.36-5.28-.84-9.12-2.76-11.88Z" fill="#008248"/><path d="M134.16 11.04a4.25 4.25 0 0 0-1.32.36c.24 1.08.6 2.4.36 2.64a10.07 10.07 0 0 1-2.16.6c-.84.24-2.76 2.16-1.8 3.48A6.2 6.2 0 0 1 130.8 21a1.81 1.81 0 0 0 3 .12c1.2-1.44 2.04-2.88 2.4-1.92a13.69 13.69 0 0 1 0 3.84 1.52 1.52 0 0 0 .72-.12c.36-5.28-.84-9.12-2.76-11.88Z" fill="none" stroke="#00a55c" stroke-width=".36"/><path d="M108.6 36c-.72-.48-.84-1.2-.12-1.56a20.49 20.49 0 0 0 3.84-1.2c1.92-.84.96-2.28.12-2.64-.96-.36-.96-1.2-.96-2.16.12-.84-.12-2.16-1.8-1.44-1.8.6-1.2 2.28-1.68 2.88-.6.6-.84.36-.72-.48.12-.72-.6-1.32-1.08-1.56a10.28 10.28 0 0 0-1.56-.36 35.36 35.36 0 0 0-4.68 4.92 3.1 3.1 0 0 0 1.32 1.44 1.27 1.27 0 0 1 1.08 1.44c0 .72-1.8.72-3 .84a14.92 14.92 0 0 0 2.88 5.16 7.08 7.08 0 0 0 .96-.48c1.44-.6 1.92-2.76 2.28-3.36.12-.72.72-.6 1.2.24a5.15 5.15 0 0 1 .48 1.68c.84-.84 1.68-1.56 2.4-2.28a8.72 8.72 0 0 0-.96-1.08Z" fill="#008248"/><path d="M108.6 36c-.72-.48-.84-1.2-.12-1.56a20.49 20.49 0 0 0 3.84-1.2c1.92-.84.96-2.28.12-2.64-.96-.36-.96-1.2-.96-2.16.12-.84-.12-2.16-1.8-1.44-1.8.6-1.2 2.28-1.68 2.88-.6.6-.84.36-.72-.48.12-.72-.6-1.32-1.08-1.56a10.28 10.28 0 0 0-1.56-.36 35.36 35.36 0 0 0-4.68 4.92 3.1 3.1 0 0 0 1.32 1.44 1.27 1.27 0 0 1 1.08 1.44c0 .72-1.8.72-3 .84a14.92 14.92 0 0 0 2.88 5.16 7.08 7.08 0 0 0 .96-.48c1.44-.6 1.92-2.76 2.28-3.36.12-.72.72-.6 1.2.24a5.15 5.15 0 0 1 .48 1.68c.84-.84 1.68-1.56 2.4-2.28a8.72 8.72 0 0 0-.96-1.08Z" fill="none" stroke="#00a55c" stroke-width=".36"/><path d="M133.32 91.68c.36 0-.48-3.36.12-3.48s.96 1.8 2.16 1.56c1.32-.24 1.68-1.56 1.44-3-.12-1.44.72-.72 1.32-1.68.72-1.08-.72-2.4-2.28-1.44-1.68.96-1.32-.24-.48-.84.84-.48.24-2.4-1.56-1.8-1.32.48-2.04-.36-2.64-.72a6.43 6.43 0 0 0-1.32.6 4.84 4.84 0 0 0 0 1.32c.12.6.48 2.16-.48 1.44-.84-.6-2.04-.84-2.4.24-.24 1.08.36 1.2.24 1.8 0 .72-1.8.84-.96 2.16.84 1.44 1.92.6 2.76.12s1.56.12 1.32.84a11.79 11.79 0 0 0-.72 3.6 7.29 7.29 0 0 1 1.2.84 3.93 3.93 0 0 1 2.28-1.56Z" fill="#008248"/><path d="M133.32 91.68c.36 0-.48-3.36.12-3.48s.96 1.8 2.16 1.56c1.32-.24 1.68-1.56 1.44-3-.12-1.44.72-.72 1.32-1.68.72-1.08-.72-2.4-2.28-1.44-1.68.96-1.32-.24-.48-.84.84-.48.24-2.4-1.56-1.8-1.32.48-2.04-.36-2.64-.72a6.43 6.43 0 0 0-1.32.6 4.84 4.84 0 0 0 0 1.32c.12.6.48 2.16-.48 1.44-.84-.6-2.04-.84-2.4.24-.24 1.08.36 1.2.24 1.8 0 .72-1.8.84-.96 2.16.84 1.44 1.92.6 2.76.12s1.56.12 1.32.84a11.79 11.79 0 0 0-.72 3.6 7.29 7.29 0 0 1 1.2.84 3.93 3.93 0 0 1 2.28-1.56Z" fill="none" stroke="#00a55c" stroke-width=".36"/><path d="M107.88 88.44c.72-.12 2.04 1.32 3.24.48s-.48-1.68-.24-2.4c.12-.72.72-2.04-.12-2.64-.84-.72-1.68-.12-2.64.84-.84.96-.6-.84-.12-1.68.6-.96 0-1.68-.96-1.8-1.08-.24-1.44 1.2-2.04.6-1.2-1.08-2.88-.6-2.4.84.48 1.32.84 1.8 0 2.04-.96.12-1.8-2.16-2.76-.24-1.08 1.8.6 2.4.36 3.72-.12 1.44.48 3 1.32 3 .84.24 1.68-.72 2.16-1.32.48-.48 1.56-.96 1.44.12a26.1 26.1 0 0 0-.12 3.12 42.57 42.57 0 0 1 4.56-2.04h.12c-.48-.24-1.08-.6-1.68-.96-.96-.6-.72-1.44-.12-1.68Z" fill="#008248"/><path d="M107.88 88.44c.72-.12 2.04 1.32 3.24.48s-.48-1.68-.24-2.4c.12-.72.72-2.04-.12-2.64-.84-.72-1.68-.12-2.64.84-.84.96-.6-.84-.12-1.68.6-.96 0-1.68-.96-1.8-1.08-.24-1.44 1.2-2.04.6-1.2-1.08-2.88-.6-2.4.84.48 1.32.84 1.8 0 2.04-.96.12-1.8-2.16-2.76-.24-1.08 1.8.6 2.4.36 3.72-.12 1.44.48 3 1.32 3 .84.24 1.68-.72 2.16-1.32.48-.48 1.56-.96 1.44.12a26.1 26.1 0 0 0-.12 3.12 42.57 42.57 0 0 1 4.56-2.04h.12c-.48-.24-1.08-.6-1.68-.96-.96-.6-.72-1.44-.12-1.68Z" fill="none" stroke="#00a55c" stroke-width=".36"/><path d="M87.24 130.92c2.16-.72 2.28 1.08 2.04 2.4a23.91 23.91 0 0 0-.24 5.88l3.6.12a38.22 38.22 0 0 1 0-5.28c.12-1.56 1.68-3.96 2.28-1.56.48 2.4 3 2.52 4.68 1.56 1.68-1.08 2.88-3.24 4.68-6.48 1.8-3.12-.6-3.96-2.04-3.84s-2.76.36.36-2.28c3-2.4-1.92-3.6-4.2-4.08a166.18 166.18 0 0 1-12.48 11.88c-.48.48-1.08.96-1.44 1.32.36.48 1.32.84 2.76.36Z" fill="#008248"/><path d="M87.24 130.92c2.16-.72 2.28 1.08 2.04 2.4a23.91 23.91 0 0 0-.24 5.88l3.6.12a38.22 38.22 0 0 1 0-5.28c.12-1.56 1.68-3.96 2.28-1.56.48 2.4 3 2.52 4.68 1.56 1.68-1.08 2.88-3.24 4.68-6.48 1.8-3.12-.6-3.96-2.04-3.84s-2.76.36.36-2.28c3-2.4-1.92-3.6-4.2-4.08a166.18 166.18 0 0 1-12.48 11.88c-.48.48-1.08.96-1.44 1.32.36.48 1.32.84 2.76.36Z" fill="none" stroke="#00a55c" stroke-width=".36"/><path d="M83.52 154.44c1.8-.6 2.88 3.24 5.52.96 2.64-2.16.72-4.08.6-6 0-1.8 2.04-2.52 1.44-4.92-.96-3.48-4.2-.12-6.24 1.8s-2.16.36-.12-2.76-1.32-4.2-3.36-3.36a4.36 4.36 0 0 1-4.56-.96c-.72 1.32-1.32 2.4-1.92 3.6-1.8 3.72-.6 3.84.72 3.84 1.2 0 4.08 5.4 4.44 6.48.24.36 1.2 1.68 2.4 3.48a1.75 1.75 0 0 1 1.08-2.16Z" fill="#008248"/><path d="M83.52 154.44c1.8-.6 2.88 3.24 5.52.96 2.64-2.16.72-4.08.6-6 0-1.8 2.04-2.52 1.44-4.92-.96-3.48-4.2-.12-6.24 1.8s-2.16.36-.12-2.76-1.32-4.2-3.36-3.36a4.36 4.36 0 0 1-4.56-.96c-.72 1.32-1.32 2.4-1.92 3.6-1.8 3.72-.6 3.84.72 3.84 1.2 0 4.08 5.4 4.44 6.48.24.36 1.2 1.68 2.4 3.48a1.75 1.75 0 0 1 1.08-2.16Z" fill="none" stroke="#00a55c" stroke-width=".36"/><path d="M110.88 129.84c-.24-1.8.84-3.6 3.36-2.64a4.26 4.26 0 0 0 4.92-.72c1.08-.84 5.4-1.8 4.68 1.92-.36 2.88-1.8 3-2.16 4.44s.72.48 1.44-.6 2.16-5.64 5.28-2.16c.72.72.48 2.16-.48 3.72a3.12 3.12 0 0 0 .36 3.48c.6.72 1.92 4.92-2.76 5.16a14.78 14.78 0 0 1-3.72-.36c-.12 1.8-1.92 4.32-3.6 6.96-.12.24-1.2.24-1.68-.12s-1.8-1.08-.72-2.16 2.64-3.48 2.4-4.56c-.36-.96-1.08-1.92-2.16-.48-1.2 1.44-3 4.32-4.92 4.32-1.92.12-3.84-1.56-3-3.36.96-1.8 1.2-2.76-.12-4.32-1.2-1.56-.72-3.6 2.04-4.92a3.78 3.78 0 0 1 3.36.84c1.08.84 1.56 0 .12-.84a4.43 4.43 0 0 1-2.64-3.6Z" fill="#008248"/><path d="M110.88 129.84c-.24-1.8.84-3.6 3.36-2.64a4.26 4.26 0 0 0 4.92-.72c1.08-.84 5.4-1.8 4.68 1.92-.36 2.88-1.8 3-2.16 4.44s.72.48 1.44-.6 2.16-5.64 5.28-2.16c.72.72.48 2.16-.48 3.72a3.12 3.12 0 0 0 .36 3.48c.6.72 1.92 4.92-2.76 5.16a14.78 14.78 0 0 1-3.72-.36c-.12 1.8-1.92 4.32-3.6 6.96-.12.24-1.2.24-1.68-.12s-1.8-1.08-.72-2.16 2.64-3.48 2.4-4.56c-.36-.96-1.08-1.92-2.16-.48-1.2 1.44-3 4.32-4.92 4.32-1.92.12-3.84-1.56-3-3.36.96-1.8 1.2-2.76-.12-4.32-1.2-1.56-.72-3.6 2.04-4.92a3.78 3.78 0 0 1 3.36.84c1.08.84 1.56 0 .12-.84a4.43 4.43 0 0 1-2.64-3.6Z" fill="none" stroke="#00a55c" stroke-width=".36"/><path d="M134.52 117.6c-1.68-.36-3.84-.6-4.08 2.88-.12 1.2 1.2 2.28 2.4 2.76 1.2.36.96 1.2-.36.84-1.2-.48-2.28-.84-3.24 1.92-.84 2.64.84 3 1.56 3.24.84.12 1.56.36 1.32 1.44-.12 1.2-.72 4.32 1.44 4.68 2.16.24 3.96-2.28 4.68-3.6.6-1.32 1.44-2.64 1.56-1.08.24 1.44-.12 2.16-.84 3.84s-.72 2.4.36 2.28c1.08 0 3 0 3.48-1.2a19.4 19.4 0 0 0 1.56-5.64c.12-1.08 1.08-1.2 1.68-1.2.24-1.92.6-3.72.84-5.28-3.72.48-6.84-3.96-7.92-7.8-1.08 1.44-3 2.4-4.44 1.92Z" fill="#008248"/><path d="M134.52 117.6c-1.68-.36-3.84-.6-4.08 2.88-.12 1.2 1.2 2.28 2.4 2.76 1.2.36.96 1.2-.36.84-1.2-.48-2.28-.84-3.24 1.92-.84 2.64.84 3 1.56 3.24.84.12 1.56.36 1.32 1.44-.12 1.2-.72 4.32 1.44 4.68 2.16.24 3.96-2.28 4.68-3.6.6-1.32 1.44-2.64 1.56-1.08.24 1.44-.12 2.16-.84 3.84s-.72 2.4.36 2.28c1.08 0 3 0 3.48-1.2a19.4 19.4 0 0 0 1.56-5.64c.12-1.08 1.08-1.2 1.68-1.2.24-1.92.6-3.72.84-5.28-3.72.48-6.84-3.96-7.92-7.8-1.08 1.44-3 2.4-4.44 1.92Z" fill="none" stroke="#00a55c" stroke-width=".36"/><path d="M117.12 117c-.72 1.2-2.52 4.32-1.68 5.4s1.8-1.08 2.64-.36c.72.84 2.4 1.56 2.4 1.08a24.23 24.23 0 0 1 .36-3.12c.36-1.56.96-2.4 1.56-1.2a3.11 3.11 0 0 0 3.96 1.68c2.28-.48 2.04-3 1.56-4.68-.48-1.8 1.2-2.64 2.04-3.12s3-2.16 1.44-3.6-3 .72-4.32.96c-1.44.24-.84-.96 1.92-3.24 2.52-1.92.48-3.72-1.08-4.44-3.96 4.08-11.04 10.56-12.72 12.12a13.31 13.31 0 0 0-1.44 1.92c3.72-1.92 3.96-.36 3.36.6Z" fill="#008248"/><path d="M117.12 117c-.72 1.2-2.52 4.32-1.68 5.4s1.8-1.08 2.64-.36c.72.84 2.4 1.56 2.4 1.08a24.23 24.23 0 0 1 .36-3.12c.36-1.56.96-2.4 1.56-1.2a3.11 3.11 0 0 0 3.96 1.68c2.28-.48 2.04-3 1.56-4.68-.48-1.8 1.2-2.64 2.04-3.12s3-2.16 1.44-3.6-3 .72-4.32.96c-1.44.24-.84-.96 1.92-3.24 2.52-1.92.48-3.72-1.08-4.44-3.96 4.08-11.04 10.56-12.72 12.12a13.31 13.31 0 0 0-1.44 1.92c3.72-1.92 3.96-.36 3.36.6Z" fill="none" stroke="#00a55c" stroke-width=".36"/><path d="M140.28 154.44c1.2 1.2 4.08 2.76 6.12.84 2.04-1.8-.48-3.84-.72-5.4-.36-1.44 1.44-2.4.48-4.8-1.68-4.2-3.96.72-5.4 2.16s-1.2-.96.12-2.16c.6-.72 3.48-2.4 1.8-4.44-1.68-1.92-4.08-.84-5.28 0s-2.16 1.92-3.96 1.32c-1.92-.48-3.48-.72-4.56 1.92-1.2 2.76.96 1.92 2.76 3.96 1.8 1.92.6 2.04-.84 1.56-1.32-.48-1.92-2.28-4.08-1.92-2.04.24-2.04 3.48-1.44 4.32.72.84 1.92 1.2 1.08 2.88-.96 1.56.48 3.48 2.16 4.2s4.2-2.28 5.16-3.48c.84-1.2 1.8-.84 1.56 0a32.35 32.35 0 0 0-.6 4.68c1.44-.48 2.76-.84 4.2-1.2a18.61 18.61 0 0 0-.6-4.08c-.6-1.92.84-1.44 2.04-.36Z" fill="#008248"/><path d="M140.28 154.44c1.2 1.2 4.08 2.76 6.12.84 2.04-1.8-.48-3.84-.72-5.4-.36-1.44 1.44-2.4.48-4.8-1.68-4.2-3.96.72-5.4 2.16s-1.2-.96.12-2.16c.6-.72 3.48-2.4 1.8-4.44-1.68-1.92-4.08-.84-5.28 0s-2.16 1.92-3.96 1.32c-1.92-.48-3.48-.72-4.56 1.92-1.2 2.76.96 1.92 2.76 3.96 1.8 1.92.6 2.04-.84 1.56-1.32-.48-1.92-2.28-4.08-1.92-2.04.24-2.04 3.48-1.44 4.32.72.84 1.92 1.2 1.08 2.88-.96 1.56.48 3.48 2.16 4.2s4.2-2.28 5.16-3.48c.84-1.2 1.8-.84 1.56 0a32.35 32.35 0 0 0-.6 4.68c1.44-.48 2.76-.84 4.2-1.2a18.61 18.61 0 0 0-.6-4.08c-.6-1.92.84-1.44 2.04-.36Z" fill="none" stroke="#00a55c" stroke-width=".36"/><path d="M103.92 150.84a8.66 8.66 0 0 0 5.76-1.8c1.68-1.2 6.12-.48 4.32 2.64-1.8 3-1.2 3.72-.12 2.52.96-1.08 2.28-3.12 4.2-2.52 1.92.48 1.2 1.92 0 3.72a2.29 2.29 0 0 0 .36 3.48c.96.6 2.64 4.2-2.52 5.64-2.28.72-2.64-.36-4.08-.84-1.56-.6-1.56.72-.6 2.28 1.08 1.56 2.16 3.12.96 3.12s-2.16.12-2.4 1.08c-.12.84-2.16-.12-2.52-2.16-.48-1.92-.96-5.76-2.04-3.84-.96 1.92-1.92 4.92-4.56 3.48s-.84-3.24-2.16-4.56c-1.32-1.2-2.52-3-1.2-5.28 1.32-2.4 2.4-.36 3.6-.36s1.44-1.2.36-2.04-2.4-4.8 2.64-4.56Z" fill="#008248"/><path d="M103.92 150.84a8.66 8.66 0 0 0 5.76-1.8c1.68-1.2 6.12-.48 4.32 2.64-1.8 3-1.2 3.72-.12 2.52.96-1.08 2.28-3.12 4.2-2.52 1.92.48 1.2 1.92 0 3.72a2.29 2.29 0 0 0 .36 3.48c.96.6 2.64 4.2-2.52 5.64-2.28.72-2.64-.36-4.08-.84-1.56-.6-1.56.72-.6 2.28 1.08 1.56 2.16 3.12.96 3.12s-2.16.12-2.4 1.08c-.12.84-2.16-.12-2.52-2.16-.48-1.92-.96-5.76-2.04-3.84-.96 1.92-1.92 4.92-4.56 3.48s-.84-3.24-2.16-4.56c-1.32-1.2-2.52-3-1.2-5.28 1.32-2.4 2.4-.36 3.6-.36s1.44-1.2.36-2.04-2.4-4.8 2.64-4.56Z" fill="none" stroke="#00a55c" stroke-width=".36"/><path d="M122.4 85.68c-.6 1.44-1.32 3.36-1.68 4.2-.36.96-2.04.6-1.92 0 .24-1.44-1.8-.48-1.56-1.68.24-.84-.12-2.4.84-2.4 1.08 0 3-.12 4.32-.12Z" fill="#ba9653"/><path d="M122.4 85.68c-.6 1.44-1.32 3.36-1.68 4.2-.36.96-2.04.6-1.92 0 .24-1.44-1.8-.48-1.56-1.68.24-.84-.12-2.4.84-2.4 1.08 0 3-.12 4.32-.12Z" fill="none" stroke="#ba9653" stroke-width=".36"/><path d="M119.28 18.24a7.34 7.34 0 0 1 .6-1.44c-.72.48-1.44.72-2.04 1.08.36.6.96 1.56 1.44.36Zm16.8.84c-.24-.96-1.2.6-2.28 1.92-1.2 1.44-2.88.6-3-.12a9.92 9.92 0 0 0-1.56-2.88c-1.08-1.32.96-3.12 1.8-3.36a11.15 11.15 0 0 0 2.16-.72c.24-.24-.12-1.56-.36-2.64a69.5 69.5 0 0 0-11.04 4.56c1.08.36.72 2.52.6 2.76-.12.36-.48 2.28.36 1.08a4.6 4.6 0 0 1 2.04-1.8c.84-.24 1.8-.24 1.8 1.08.12 1.32-.48 1.2-.72 2.04-.12.84 0 .84.48.96s.72.72.36 1.68c-.24.84-1.68.96-3 .84-1.32-.24-1.44 0-.96.36a3.62 3.62 0 0 1 .96 1.92 45.74 45.74 0 0 1 12.36-3.84 13.69 13.69 0 0 0 0-3.84Zm-29.4 18.36c-.48-.84-1.08-.96-1.32-.24-.24.6-.72 2.88-2.16 3.48-.48.12-.84.24-1.2.36.6.48 1.08.96 1.8 1.44a41.25 41.25 0 0 1 3.24-3.24 4.82 4.82 0 0 0-.36-1.8ZM120.6 26.4c-.6-.12-.96.6-1.32 1.08A2.12 2.12 0 0 1 117 28.8c-1.2-.12-1.44-.48-1.8-1.56a1.73 1.73 0 0 0-1.92-1.32c-.84 0-1.44-1.08-.48-2.16.84-1.08 1.8-.6 2.64-.6.72 0 1.08-.84.48-1.2a4.23 4.23 0 0 1-1.44-2.04 81.54 81.54 0 0 0-9.84 7.44 15.63 15.63 0 0 1 1.56.36 1.49 1.49 0 0 1 1.08 1.56c0 .84.12 1.08.72.48.48-.48-.12-2.28 1.68-2.88 1.68-.72 1.92.6 1.8 1.44 0 .96 0 1.68.96 2.16.84.36 1.8 1.8-.12 2.52a24.16 24.16 0 0 1-3.84 1.32c-.84.24-.6 1.08.12 1.56.36.24.6.6.84.72a84.06 84.06 0 0 1 7.44-5.88 40.39 40.39 0 0 1 4.2-2.64c.12-.6.24-1.44-.48-1.68Zm-18.24 8.64c.12-.84-.72-1.2-1.08-1.44-.48 0-1.08-.72-1.32-1.32a6.45 6.45 0 0 0-1.2 1.92c.24.6.36 1.2.6 1.68 1.08 0 2.88 0 3-.84Zm39.36 43.56a25.44 25.44 0 0 0-10.08 1.68c.6.36 1.2 1.2 2.4.72 1.8-.6 2.4 1.32 1.56 1.8-.72.6-1.08 1.8.48.84s3 .48 2.4 1.44c-.72 1.08-1.56.24-1.32 1.68.12 1.44-.12 2.76-1.44 3s-1.56-1.68-2.16-1.56.12 3.48-.12 3.48a4.41 4.41 0 0 0-2.28 1.44.12.12 0 0 1 .12.12c5.04 3.6 6.36 1.56 7.2-.12a72.95 72.95 0 0 0 2.88-9.72 34.87 34.87 0 0 0 .36-4.8Zm-11.16 10.08c.24-.6-.48-1.2-1.32-.84-.84.6-1.92 1.32-2.76 0-.84-1.44.96-1.56.96-2.16.12-.72-.48-.84-.24-1.8.36-1.08 1.56-.84 2.4-.24.96.6.6-.96.48-1.56a4 4 0 0 1 0-1.2 14.25 14.25 0 0 0-3 1.56c-4.8 2.88-4.92 5.4-3.84 6.36.96.84 3.12 1.2 6.6 3.48a12.64 12.64 0 0 1 .72-3.6Zm-15.24-2.76a14.23 14.23 0 0 1-5.28-5.64s.12-.48-.36-.48a20.11 20.11 0 0 1-6.12-1.32c-3.48-1.2-3.96-.48-4.32.96a35.58 35.58 0 0 0-.96 8.76c0 4.44 1.92 7.2 3.12 6.84.6-.24 2.04-.96 3.72-1.8 0-.96.12-2.4.12-3.24.24-.96-.96-.6-1.44 0-.36.48-1.32 1.44-2.16 1.32s-1.44-1.68-1.2-3c.12-1.44-1.56-1.92-.48-3.84 1.08-1.8 1.92.48 2.76.36.96-.24.48-.72 0-2.16s1.32-1.8 2.4-.84c.72.72 1.08-.84 2.04-.6 1.08.24 1.68.96 1.08 2.04-.48.72-.84 2.52 0 1.56.96-.96 1.8-1.56 2.64-.84.84.6.36 2.04.12 2.64-.24.72 1.44 1.56.24 2.4s-2.52-.6-3.24-.36c-.6.12-.72.96.12 1.56a6.34 6.34 0 0 0 1.68.96 24.97 24.97 0 0 0 5.04-2.4l1.2.12c0-1.68-.24-2.64-.72-3Zm-6.84 20.52c-.84-1.68-1.08-.36-3.12 2.76a75.95 75.95 0 0 1-6.96 8.28c2.28.36 7.2 1.56 4.2 4.08-3.12 2.64-1.8 2.4-.36 2.28 1.44-.24 3.84.6 2.04 3.84-1.8 3.12-3 5.4-4.68 6.36-1.68 1.08-4.2.96-4.68-1.44s-2.16 0-2.28 1.56a38.48 38.48 0 0 0 0 5.28l-3.6-.24a45.3 45.3 0 0 1 .24-5.76c.24-1.44.12-3.12-2.04-2.4a3.67 3.67 0 0 1-2.76-.24c-4.2 3.6-6.36 6.24-7.68 8.52a4.36 4.36 0 0 0 4.56.96c2.04-.84 5.4.12 3.36 3.36-2.04 3.12-1.92 4.68.12 2.76s5.28-5.4 6.36-1.8c.6 2.28-1.56 3-1.44 4.92s1.92 3.72-.72 6-3.72-1.56-5.4-1.08a1.88 1.88 0 0 0-1.2 2.16c2.28 3.36 5.64 8.04 6.84 9.96 1.92 3.12 1.92 6.84 2.64 6.24s2.52-2.28 3.12-2.76a1.88 1.88 0 0 0 .84-2.04 34.1 34.1 0 0 1-1.08-10.32c.36-4.32 2.4-9.12 3.84-11.88a739.5 739.5 0 0 0 6.84-13.32c1.08-2.28 3-4.92 3.36-6.96.48-2.04 2.28-6.84 3-9.12a47.08 47.08 0 0 0-3.36-9.96Z" fill="#ba9653"/><path d="M149.04 147.84c-2.4-3.96-2.88-5.64-3.24-9.72a49.45 49.45 0 0 1 .48-9.12c-.84-.12-1.68 0-1.8 1.2a16.96 16.96 0 0 1-1.44 5.64c-.6 1.2-2.4 1.2-3.6 1.2-1.08.12-1.08-.6-.36-2.28s1.08-2.4.84-3.96c-.24-1.44-.84-.12-1.56 1.2-.72 1.2-2.52 3.84-4.68 3.6-2.16-.36-1.56-3.6-1.44-4.68.24-1.08-.36-1.32-1.2-1.44-.84-.24-2.64-.6-1.56-3.36.84-2.64 1.92-2.4 3.12-1.92 1.32.48 1.56-.36.36-.84s-2.52-1.56-2.4-2.76c.24-3.48 2.4-3.12 4.08-2.76a5.6 5.6 0 0 0 4.56-1.92v-.24c-2.52-9.48 2.28-21.12 3.48-24.36a153.43 153.43 0 0 1 8.16-15.24l-4.8-2.4c-1.32-.6-2.04-1.08-2.4-.48-.36.48-.84.84-1.56 1.68-1.2 1.92-.12 1.56.12 1.56.48 0 2.04 2.04 2.28 2.64.36.36 0 .72-.6 2.28-.84 1.92-1.44 6.48-2.28 9.12-2.16 8.16-5.76 7.32-7.32 6.36-1.56-1.08-2.04.48-3.6 2.76-.48.48-1.44 1.56-2.64 2.76 1.56.72 3.6 2.64 1.2 4.56-3 2.28-3.48 3.48-2.04 3.12 1.44-.24 2.76-2.4 4.32-.84 1.56 1.44-.48 3.12-1.44 3.6-.84.48-2.52 1.32-2.04 3.12s.84 4.2-1.56 4.68c-2.28.6-3.24-.36-3.84-1.56-.72-1.2-1.32-.36-1.56 1.08a16.15 16.15 0 0 0-.48 3.12c0 .6-1.68-.24-2.4-.96-.72-.84-1.68 1.2-2.52.24-.84-1.08.96-4.2 1.56-5.28s.36-2.64-3.36-.84c-1.2 2.04-2.16 4.92-3.6 9.48a102.46 102.46 0 0 1-8.64 17.76c-5.04 8.16-6 15.72-5.16 20.52.72 4.68 1.32 4.32 2.4 4.32.96 0 3.48 3.12 5.16 5.16 1.68 1.92 2.4 1.08 3.24.36a89.36 89.36 0 0 1 15.72-9.12 87.64 87.64 0 0 1 11.88-4.68 28.25 28.25 0 0 1 .6-4.56c.12-.96-.72-1.2-1.68 0-.84 1.2-3.36 4.2-5.04 3.36-1.68-.72-3.12-2.52-2.16-4.2.84-1.56-.36-1.92-1.08-2.76s-.72-4.2 1.44-4.44c2.04-.24 2.64 1.56 4.08 2.04 1.44.36 2.64.36.84-1.56-1.8-2.04-3.96-1.2-2.88-3.96 1.2-2.64 2.76-2.52 4.68-1.92 1.8.48 2.76-.48 3.96-1.32s3.6-1.92 5.28 0-1.2 3.72-1.92 4.32c-1.2 1.32-1.44 3.6 0 2.28s3.72-6.48 5.4-2.28c.84 2.4-.84 3.48-.6 4.92.36 1.56 2.88 3.48.84 5.4s-5.04.36-6.24-.84c-1.2-1.08-2.52-1.68-1.92.36a14.49 14.49 0 0 1 .6 4.08c4.08-1.08 7.68-1.8 9.48-1.68 2.64.24 4.68 1.08 4.56-1.44-.36-2.52-1.68-4.2-4.08-8.16Z" fill="#ba9653"/><path d="M116.04 164.4c-2.28.72-2.64-.36-4.2-.84-1.44-.48-1.56.72-.48 2.28s2.16 3.12.84 3.12c-1.2 0-2.16.12-2.28 1.08s-2.16-.12-2.64-2.16c-.48-1.92-.84-5.64-1.92-3.84-1.08 1.92-1.92 5.04-4.56 3.6s-.84-3.24-2.16-4.56-2.64-3-1.2-5.4c1.2-2.28 2.4-.36 3.6-.36s1.44-1.08.36-1.92c-1.2-.84-2.52-4.92 2.64-4.56a10.2 10.2 0 0 0 5.76-1.8c1.68-1.2 6-.6 4.2 2.52s-1.2 3.72-.12 2.64c1.08-1.2 2.4-3.12 4.32-2.64s1.08 2.04-.12 3.72-.48 2.76.48 3.48c.84.72 2.64 4.2-2.52 5.64Zm9.36-21.96a15.67 15.67 0 0 1-3.72-.36c-.12 1.8-1.8 4.32-3.6 6.96-.12.24-1.2.24-1.68-.12-.36-.36-1.8-1.08-.72-2.16s2.76-3.48 2.4-4.56c-.24-.96-1.08-1.92-2.16-.48s-2.88 4.32-4.92 4.32c-1.92.12-3.84-1.56-3-3.36.96-1.8 1.2-2.76 0-4.32-1.32-1.56-.84-3.6 1.92-4.92a3.78 3.78 0 0 1 3.36.84c1.08.84 1.56 0 .12-.84-1.32-.84-2.52-1.8-2.64-3.72-.12-1.8.84-3.6 3.36-2.64a4.43 4.43 0 0 0 4.92-.6c1.08-.84 5.4-1.92 4.8 1.92-.48 2.76-1.8 2.88-2.16 4.32-.48 1.56.72.48 1.32-.48.72-1.2 2.28-5.76 5.28-2.28.72.84.48 2.28-.48 3.84-.84 1.56-.12 2.52.48 3.36.6.96 1.8 5.04-2.88 5.28Z" fill="#008348"/><path fill="#fff" d="m202.32 68.4 2.88-2.04 6.12 9.12 3.72-2.52-6.36-9 2.76-1.92 6.72 9.36 3.72-2.52-10.08-14.04-16.56 11.76 9.12 12.84 3.72-2.52-5.76-8.52zm11.88 31.8 5.4-2.52-3.6-8.04 12.6-5.28-2.28-5.16-17.88 7.8 5.76 13.2zm3.24 8.52.6 4.92 12-1.32.48 5.16 5.28-.36-1.32-17.52-5.4.48.36 7.2-12 1.44zm.6 17.04.12 5.88h17.64l-.12-6-17.64.12zm8.4 14.28a11.93 11.93 0 0 0-9 1.8 9.49 9.49 0 0 0-3.84 6.36 16.39 16.39 0 0 0 .6 6.72l4.68-1.56a6.54 6.54 0 0 1-.12-4.32c.96-3.24 3.48-4.68 6.72-4.2 3.36.6 5.16 3.6 4.56 7.2a5.43 5.43 0 0 1-2.64 3.84l2.88 3.36a10.28 10.28 0 0 0 4.56-6.24c.6-3.36-.24-5.64-1.8-8.4a9.53 9.53 0 0 0-6.6-4.56Zm-3.24 24.6c-2.52-.6-5.88 2.16-7.44 3.6-.96.96-4.2 4.2-5.76 3.72-1.32-.48-.84-2.52-.36-3.84a8.16 8.16 0 0 1 3.24-4.68l-3-1.2a11.13 11.13 0 0 0-3.6 5.04 13.91 13.91 0 0 0-.84 6.36c.36 2.16 1.2 3.6 3.6 3.36 1.8-.12 6.48-3.24 9.24-5.76 1.32-1.2 2.52-1.44 3.12-1.08.96.48.84 2.28.6 3.24-.48 1.44-1.2 3.6-2.28 4.44l3.96 2.64a12.54 12.54 0 0 0 3-6.36c1.08-5.64-1.92-9.12-3.48-9.48Zm-22.2-117a13.46 13.46 0 0 0-3.36-7.2 9.66 9.66 0 0 0-8.16-2.16 11.07 11.07 0 0 0-7.44 4.56A11.88 11.88 0 0 0 180 51.6c.6 2.76 1.8 4.32 4.32 6.12a16.66 16.66 0 0 0 6.36 2.28l.48-4.92a6.25 6.25 0 0 1-4.08-1.68 5.85 5.85 0 0 1-1.08-7.8c2.04-2.76 5.52-3.24 8.64-1.2 1.2.84 1.68 2.04 1.92 4.08ZM20.76 149.28c.12-1.44.12-3.84 1.44-4.08 1.44-.36 2.4 1.08 2.64 2.4.48 2.04.96 3.6.24 5.4l3.72-.36a11.75 11.75 0 0 0 0-6.12 9.36 9.36 0 0 0-3-5.4c-1.56-1.44-2.76-1.8-5.16-1.32-1.44.24-4.08 2.88-4.2 8.04 0 .96-.24 2.88-1.08 3-1.08 0-1.92-1.32-2.16-2.4a12.07 12.07 0 0 1 .6-5.88H9.96a18.47 18.47 0 0 0-.36 7.68c1.08 5.04 4.2 6.72 6.6 6.36 2.76-.36 4.2-3.12 4.56-7.32Zm-7.92-21.48 14.04-.12-.12-4.32-13.92.12v-5.88H8.28l.24 16.68 4.44-.12-.12-6.36zm25.2-43.56L27.24 78h.12l14.16-.24 3.36-5.28-17.4-10.08-2.76 4.08 12 7.56-16.32.36-2.28 4.44L35.4 88.8l2.64-4.56zm-17.4 10.2a5.58 5.58 0 1 1 0 11.16 5.58 5.58 0 1 1 0-11.16Zm0 16.32a10.8 10.8 0 1 0-10.8-10.8 10.83 10.83 0 0 0 10.8 10.8Zm6.96 65.64a5.58 5.58 0 1 1 5.64-5.52 5.69 5.69 0 0 1-5.64 5.52Zm10.8-5.52a10.8 10.8 0 1 0-10.8 10.8 10.91 10.91 0 0 0 10.8-10.8Zm9.48 25.08-.48-.48c-1.2-1.44-5.16-5.64-3.48-7.2 1.56-1.44 5.28 3.48 6.36 4.8l.48.48Zm-6.72 6c-1.44-1.68-5.76-5.04-3.84-6.72 1.68-1.68 6 3.48 6.48 4.2Zm-.6-18.84a6.08 6.08 0 0 0-.96 7.32c-1.68-.84-5.04-1.2-6.6.24-3.96 3.36.84 8.16 4.68 12l5.4 5.4 14.28-11.88-5.76-6.72c-2.16-2.52-7.8-9.24-11.04-6.36Z"/></svg>