<svg height="316.227766" viewBox="0 0 214.89 214.89001" width="316.227766" xmlns="http://www.w3.org/2000/svg"><path d="m112.197 179.067c3.054 0 12.419-.025 20.224-6.678 6.919-6.273 7.628-13.66 7.831-21.973l-.051-23.418c0-7.324 0-16.3-7.654-22.632a21.18921 21.18921 0 0 0 -5.766-3.4 18.219 18.219 0 0 0 7.312-9.77 32.484 32.484 0 0 0 1.115-10.011l-.063-20.845c-.19-5.766-.824-12.342-5.487-17.665-4.117-4.532-10.314-6.885-18.168-6.885h-.152l-28.271.076a3.315 3.315 0 0 0 -2.281.95 3.015 3.015 0 0 0 -.925 2.23l.241 136.869a3.136 3.136 0 0 0 1.546 2.724 3.38394 3.38394 0 0 0 1.787.507l28.765-.076zm10.911-60.559a26.4855 26.4855 0 0 1 1 8.262l.051 19.4c0 8.845-.545 13-3.928 15.612-2.015 1.445-4.486 2.294-10.8 2.509 0 0-10.835.025-11.671.025-.976 0-1.356-.6-1.356-1.521 0-7.983-.114-51.968-.114-52.335a.843.843 0 0 1 .938-.963 104.05189 104.05189 0 0 1 11.417.38c3.307.355 6.83.95 9.681 2.762a11.164 11.164 0 0 1 4.765 5.854zm-26.142-68.124h7.793c10.15 0 14.522 1.5 14.522 11.874v17.562c-.127 4.22-.2 11.367-8.554 13.876-2.332.659-3.447.862-8.528 1.039h-5.031a.68277.68277 0 0 1 -.1.013c-.786 0-1-.418-1-1.052 0-.406-.051-42.147-.051-42.147 0-.684.241-1.077.95-1.153zm10.48-50.384a107.445 107.445 0 1 0 107.444 107.446v-.001a107.572 107.572 0 0 0 -107.445-107.445zm97.27 81.214a100.254 100.254 0 0 1 3.345 21.225c-2.965 5.88-8.794 10.72-13.039 13.1-.367-2.775-.849-5.918-1.5-8.807q-.988-4.448-2.154-8.731a31.368 31.368 0 0 0 8.68-7.882 31.74367 31.74367 0 0 0 4.663-8.908zm-97.27-74.511a100.8 100.8 0 0 1 89.058 53.7 24.08 24.08 0 0 1 -1.229 24.875c-.19.279-.38.545-.6.824a24.21385 24.21385 0 0 1 -5.31 5.17c-5.449-17.234-13.179-32.275-23.1-44.821a113.21985 113.21985 0 0 0 -37.471-30.831 118.02645 118.02645 0 0 0 -23.177-8.9c.608 0 1.2-.025 1.812-.025zm-65.464 177.243a100.593 100.593 0 0 1 -35.253-74.042 104.84488 104.84488 0 0 0 20.516 16.575 124.88316 124.88316 0 0 0 46.088 16.9v-6.8a117.961 117.961 0 0 1 -42.236-15.6c-13.888-8.6-21.682-17.88-24.127-21.073a99.95393 99.95393 0 0 1 14.32-44.656c4.27-1.609 24.026-7.692 48.99 5.956.95.52 1.926 1.064 2.915 1.622v-7.68c-19.6-10.606-36.28-10.226-46.126-8.389a101.524 101.524 0 0 1 37.821-30.64 54.881 54.881 0 0 1 35.824-3.713 110.949 110.949 0 0 1 25.027 9.162 106.57915 106.57915 0 0 1 35.268 29.022c9.656 12.216 17.145 26.979 22.366 43.972a44.32415 44.32415 0 0 1 -11.075 2.9c-9.542 1.318-20.351-1.039-31.5-5.31a20.30044 20.30044 0 0 1 -2.572 6.171c9.833 3.776 19.553 6.209 28.639 6.209a47.70256 47.70256 0 0 0 6.349-.418 52.0143 52.0143 0 0 0 12.026-3.054q.931 3.5 1.736 7.109a98.01011 98.01011 0 0 1 1.749 10.644c-9.821 5.069-23.861 10.188-41.792 14.04v6.8c16.321-3.421 30.907-8.1 42.286-13.584a88.91625 88.91625 0 0 1 -1.242 17.513 120.16771 120.16771 0 0 0 -16.98 12.963c-15.967 14.1-31.452 26.51-59.368 35.443-14.041 4.5-28.182 5.005-38.687 4.41a52.041 52.041 0 0 1 -30.962-12.478zm138.884-17.323c-1.128 2.5-2.306 4.8-3.472 6.919a59.07107 59.07107 0 0 1 -25.762 24.419 100.682 100.682 0 0 1 -75.094 5.373c1.1.025 2.23.051 3.4.051a111.30822 111.30822 0 0 0 33.733-4.98c29.107-9.327 45.822-22.733 61.763-36.8 4.055-3.573 7.476-6.323 10.378-8.44a96.379 96.379 0 0 1 -4.942 13.47zm6.285 2.344a100.815 100.815 0 0 0 6.741-20.921c4.042-2.015 5.854-1.863 6.463-1.7a101.26189 101.26189 0 0 1 -13.2 22.619zm15.916-29.817a6.02312 6.02312 0 0 0 -2.4-.177 22.54626 22.54626 0 0 0 -5.487 1.166 97.38937 97.38937 0 0 0 .545-17.487 70.50843 70.50843 0 0 0 6.057-3.9 50.64309 50.64309 0 0 0 6.2-5.246 100.41229 100.41229 0 0 1 -4.929 25.648z"/><g fill="#fff"><path d="m97.031 95.204h5.1c5.135-.18 6.265-.4 8.639-1.065 8.46-2.529 8.55-9.782 8.665-14.057v-17.791c0-10.527-4.429-12.028-14.711-12.028h-7.898c-.719.077-.963.475-.963 1.168 0 0 .051 42.3.051 42.7 0 .642.218 1.065 1.014 1.065h.1z"/><path d="m123.267 118.088a11.25 11.25 0 0 0 -4.827-5.931c-2.888-1.849-6.457-2.439-9.808-2.8a108.69937 108.69937 0 0 0 -11.566-.385.854.854 0 0 0 -.95.976c0 .372.116 44.93.116 53.018 0 .937.385 1.54 1.374 1.54.847 0 11.823-.026 11.823-.026 6.393-.218 8.9-1.065 10.937-2.542 3.428-2.657 3.98-6.855 3.98-15.815l-.051-19.654a27.17 27.17 0 0 0 -1.014-8.37z"/><path d="m188.883 126.005c-11.353 5.476-25.9 10.142-42.176 13.556v-6.791c17.877-3.857 31.885-8.966 41.683-14.012a94.83941 94.83941 0 0 0 -1.745-10.623c-.531-2.4-1.125-4.768-1.732-7.094a51.71668 51.71668 0 0 1 -12 3.048 45.5495 45.5495 0 0 1 -6.334.417c-9.077 0-18.762-2.415-28.572-6.2a19.94742 19.94742 0 0 0 2.566-6.159c11.125 4.262 21.91 6.614 31.43 5.3a44.06685 44.06685 0 0 0 11.05-2.9c-5.209-16.971-12.681-31.691-22.314-43.881a106.21187 106.21187 0 0 0 -35.184-28.959 110.06151 110.06151 0 0 0 -24.969-9.143 54.741 54.741 0 0 0 -35.739 3.713 101.09994 101.09994 0 0 0 -37.739 30.578c9.823-1.821 26.461-2.213 46.006 8.372v7.663c-.973-.556-1.947-1.1-2.9-1.619-24.906-13.62-44.6-7.55-48.876-5.944a99.767 99.767 0 0 0 -14.281 44.565c2.44 3.187 10.2 12.444 24.072 21.03a117.44874 117.44874 0 0 0 42.125 15.567v6.791a124.5 124.5 0 0 1 -45.969-16.87 104.221 104.221 0 0 1 -20.468-16.541 100.352 100.352 0 0 0 35.172 73.89 51.993 51.993 0 0 0 30.886 12.456c10.481.582 24.59.089 38.6-4.4 27.852-8.915 43.3-21.3 59.231-35.371a120.86578 120.86578 0 0 1 16.941-12.937 88.89336 88.89336 0 0 0 1.239-17.477zm-56.664 46.2c-7.788 6.639-17.131 6.664-20.178 6.664l-28.7.076a3.375 3.375 0 0 1 -1.783-.506 3.145 3.145 0 0 1 -1.542-2.719l-.24-136.589a3.009 3.009 0 0 1 .923-2.226 3.307 3.307 0 0 1 2.276-.948l28.206-.076h.152c7.838 0 14.021 2.352 18.13 6.879 4.652 5.311 5.285 11.875 5.474 17.628l.063 20.8a32.38993 32.38993 0 0 1 -1.113 9.99 18.181 18.181 0 0 1 -7.295 9.75 21.13792 21.13792 0 0 1 5.752 3.389c7.636 6.323 7.636 15.264 7.636 22.586l.051 23.37c-.2 8.3-.91 15.668-7.813 21.928z"/><path d="m174.916 160.897c-16.136 14.262-33.069 27.844-62.569 37.279a112.76037 112.76037 0 0 1 -34.173 5.045c-1.181 0-2.324-.013-3.44-.051a102 102 0 0 0 76.073-5.443 59.7 59.7 0 0 0 26.1-24.737c1.181-2.144 2.375-4.493 3.517-7.009a98.22048 98.22048 0 0 0 5.007-13.646c-2.94 2.144-6.406 4.929-10.514 8.55z"/><path d="m204.583 81.024a31.567 31.567 0 0 1 -13.518 17.009q1.175 4.333 2.182 8.845c.655 2.927 1.143 6.111 1.515 8.922 4.3-2.413 10.206-7.317 13.21-13.274a101.42915 101.42915 0 0 0 -3.389-21.5z"/><path d="m193.632 147.789a102.90006 102.90006 0 0 1 -6.829 21.194 101.60954 101.60954 0 0 0 13.376-22.914c-.616-.167-2.465-.321-6.547 1.72z"/><path d="m165.647 47.048c10.052 12.709 17.882 27.947 23.4 45.405a24.52881 24.52881 0 0 0 5.379-5.238c.205-.27.411-.552.6-.834a24.423 24.423 0 0 0 1.245-25.2 102.154 102.154 0 0 0 -90.22-54.4c-.616 0-1.22 0-1.836.026a118.76136 118.76136 0 0 1 23.479 9.012 114.54106 114.54106 0 0 1 37.96 31.233z"/><path d="m202.914 139.254a101.27688 101.27688 0 0 0 4.994-25.983 53.501 53.501 0 0 1 -6.277 5.315 71.42608 71.42608 0 0 1 -6.136 3.954 99.90726 99.90726 0 0 1 -.552 17.715 22.67142 22.67142 0 0 1 5.559-1.181 6.146 6.146 0 0 1 2.426.18z"/></g></svg>