<?xml version="1.0" encoding="UTF-8"?>
<svg xmlns="http://www.w3.org/2000/svg" viewBox="0 0 85.39 73.48">
  <defs>
    <style>.cls-1{fill:#b4975a;}.cls-2{fill:#72253d;}</style>
  </defs>
  <g id="Layer_2" data-name="Layer 2">
    <g id="Layer_1-2" data-name="Layer 1">
      <path class="cls-1" d="M85.39,14.63V8.36L83.86,6.81C64.17-11.92,22,12.67,7.69,24.52l-7.07,11,8.79-2.18C-4.1,50.25.73,61.36,1.3,62.51c1.42,4,4.67,7.2,9.93,9.3,4,1.6,8.53,1.79,12.42,1.61C40.44,72.64,60.29,62.17,73.11,51l.3-.26L76,37.9l-5,2.77a310.41,310.41,0,0,1-31.21,11.8c-9.11,2.84-13.29,3.3-16.27,2.61L23.13,55a1.46,1.46,0,0,1-1-1.26c-.14-5.7,9.66-18,14.6-23.25,4.6-4.94,11.83-10.36,17.95-12.94,4.1-1.72,6.74-2.41,8-2.28a26.36,26.36,0,0,1-1.7,4s-4.76,9.39-6.34,12.49a.32.32,0,0,0,.44.42Z"></path>
      <path class="cls-2" d="M46.51,13.71c-5.65,3-12.12,9-14.15,11.13C15.85,42.43,4.28,65.93,40.44,54.67a310.14,310.14,0,0,0,31.5-11.92C22.55,84.47-24.07,67,21.81,23.16c-4.18.95-8.39,1.86-12.52,3C24,14,64.27-8.66,82.26,8.46L63,20.24c8.25-16.17-6.61-12.37-16.53-6.53"></path>
    </g>
  </g>
</svg>
