<?xml version="1.0" encoding="UTF-8" standalone="no"?>
<svg xmlns:rdf="http://www.w3.org/1999/02/22-rdf-syntax-ns#" xmlns="http://www.w3.org/2000/svg" height="283.77039" width="283.77039" version="1.1" xmlns:cc="http://creativecommons.org/ns#" xmlns:dc="http://purl.org/dc/elements/1.1/" viewBox="0 0 283.77039 283.77039"><path d="M283.77039,141.88521A141.88519,141.88519,0,1,1,141.8852,0,141.8587,141.8587,0,0,1,283.77039,141.88521" fill="#b5b3b3"/><path d="M279.68132,141.88521A137.79615,137.79615,0,1,1,141.88517,4.08908,137.7798,137.7798,0,0,1,279.68132,141.88521" fill="#1d428a"/><path d="M259.38388,141.88521a117.52332,117.52332,0,1,1-117.548-117.49868,117.51124,117.51124,0,0,1,117.548,117.49868" fill="#c8102e"/><path d="M141.88518,24.38653A117.49868,117.49868,0,1,0,259.38388,141.8852,117.63768,117.63768,0,0,0,141.88518,24.38653m-110.7,120.94728H52.81281v-6.8972H31.18517c.09853-2.61107.19706-5.22216.49266-7.784,7.63618-38.575,54.143-68.38079,110.20735-68.38079s102.52191,29.75647,110.20735,68.38078c.24633,2.56182.39412,5.17289.49266,7.784H230.95755v6.8972h21.57838c-.09853,2.61107-.19707,5.22216-.49265,7.784-7.68544,38.575-54.143,68.38078-110.20737,68.38078S39.314,191.74207,31.62856,153.11777c-.24633-2.56179-.39412-5.12361-.44339-7.784m110.7-114.19788a110.91737,110.91737,0,0,1,103.21165,70.647C225.39055,74.8346,186.51992,56.4585,141.8852,56.4585S58.33058,74.8346,38.67357,101.78293a110.86731,110.86731,0,0,1,103.21161-70.647m0,221.54782a110.91735,110.91735,0,0,1-103.21163-70.647c19.70628,26.94834,58.57691,45.32444,103.21163,45.32444s83.55462-18.3761,103.21165-45.32444a110.96743,110.96743,0,0,1-103.21165,70.647" fill="#fff"/><polygon points="92.225 182.283 100.502 182.283 100.502 144.989 92.225 144.989 92.225 182.283" fill="#fff"/><path d="M124.051,144.989h-.24633c-2.31549,0-10.83845-.04927-12.46421,0h-.44339c-2.51255,0-4.089,1.18237-4.48318,3.35006a5.07254,5.07254,0,0,0-.04927.64044c0,.09854-.59119,7.09426.09853,9.06489,1.13311,3.20227,3.69492,4.38464,6.10895,5.12363.09854,0,.14779.04927.24633.04927l.44339.14779a.99133.99133,0,0,1,.54192.44339l.04927,13.44952h-6.84793l.04927,4.97584H116.07c3.153-.14779,5.27143-1.52724,6.10894-3.892.24633-1.82284.24633-14.33632.09854-16.9474a3.27757,3.27757,0,0,0-1.4287-2.51255,12.38133,12.38133,0,0,0-1.33018-.88678c-.49266-.24633-1.03459-.54193-1.52724-.739-1.97063-.936-4.13832-2.01989-4.13832-4.53245v-2.11841h6.50308a3.41983,3.41983,0,0,0,3.10373-1.87209,5.49307,5.49307,0,0,0,.68972-1.97063,8.35227,8.35227,0,0,0,0-1.57651Z" fill="#fff"/><path d="M162.03485,144.93968a20.544,20.544,0,0,0-5.37.49265c-4.08905.98532-6.05967,3.69493-6.05967,8.3259v22.21883c0,5.66556,4.089,6.84793,10.198,6.84793,7.38985,0,11.62671-2.61107,11.62671-7.19279V152.47732c0-7.53764-4.77878-7.53764-10.39508-7.53764m-2.70962,8.42443a12.773,12.773,0,0,1,.24633-2.31549l.14779-.14779a8.82459,8.82459,0,0,1,1.18238-.09854h.14779c2.80815.04927,2.90667.88678,2.90667,5.96115v15.568a13.37461,13.37461,0,0,1-.04927,1.37943,5.37055,5.37055,0,0,1-.14779,1.28091l-.14779.14779c-.49266.04927-.98531.09854-1.478.09854a3.0578,3.0578,0,0,1-2.217-.68972c-.64044-.68972-.68971-1.82284-.64044-3.153v-15.765c0,.09854,0-1.675.04926-2.26623" fill="#fff"/><path d="M191.6928,160.8525c-3.99052-14.38558-10.34579-15.96208-12.95687-15.96208a6.41025,6.41025,0,0,0-1.1331.09854l-.19706.04927v37.29412h8.42443v-15.026l5.86262,15.026H200.265V144.989h-8.523V160.8525Z" fill="#fff"/><path d="M82.07663,144.93968l-20.98719.04927h-.24632v.24632a5.47981,5.47981,0,0,0,4.72951,5.4685v31.62858h8.62149V166.46879h7.24206c3.84272,0,6.01041-2.51255,6.01041-6.8972v-1.33018c0-10.64137-.44339-12.75981-5.37-13.30173m-3.35007,16.60254H74.04632V150.70377s2.56182-.04927,2.90668,0c.936.09854,1.77356.49266,1.77356,1.57651.04927.34485,0,9.26194,0,9.26194" fill="#fff"/><path d="M148.04339,144.989H128.58345v5.86261h5.567v31.48077h8.57223v-31.53h.2956a4.60762,4.60762,0,0,0,3.59639-1.37943,6.04759,6.04759,0,0,0,1.4287-4.18759Z" fill="#fff"/><path d="M222.878,144.989h-.24633c-2.31549,0-10.83845-.04927-12.46421,0h-.44339c-2.51256,0-4.08905,1.18237-4.48318,3.35006a5.07254,5.07254,0,0,0-.04927.64044c0,.09854-.5912,7.09426.09854,9.06489,1.1331,3.20227,3.69492,4.38464,6.10894,5.12363.09854,0,.14779.04927.24633.04927l.44339.14779a.99133.99133,0,0,1,.54192.44339l.04927,13.44952h-6.84793l.04927,4.97584H214.897c3.153-.14779,5.27143-1.52724,6.10894-3.892.24633-1.82284.24633-14.33632.09854-16.9474a3.27755,3.27755,0,0,0-1.42871-2.51255,12.37931,12.37931,0,0,0-1.33018-.88678c-.49265-.24633-1.03458-.54193-1.52723-.739-1.97063-.936-4.13832-2.01989-4.13832-4.53245v-2.11841h6.50308a3.41983,3.41983,0,0,0,3.10373-1.87209,5.49307,5.49307,0,0,0,.68972-1.97063,8.35227,8.35227,0,0,0,0-1.57651Z" fill="#fff"/><path d="M146.56542,121.93261h1.42871c1.37943.04927,3.69492.44338,3.69492,2.95594,0,1.18237.09854,4.92657.14779,6.306v.54193a21.8121,21.8121,0,0,0,.19706,2.36474c.5912,2.16769,2.26623,3.49787,4.92657,3.7442h2.414V124.54368a7.19025,7.19025,0,0,0-1.52724-3.892l-.19706-.24633a7.19254,7.19254,0,0,0,1.87209-5.32069v-1.28091c0-10.29653-.39412-12.36569-5.22217-12.90761H138.23952v36.45662h8.3259Zm.04927-15.22311h1.675c2.16769.04927,3.00521.04927,2.90668,3.892,0,3.05448,0,3.25154-.04927,4.77878v.29559a2.07755,2.07755,0,0,1-.44339,1.23164.97268.97268,0,0,1-.68972.2956h-3.39933Z" fill="#fff"/><polygon points="198.147 100.945 190.018 100.945 190.018 137.402 198.147 137.402 198.147 100.945" fill="#fff"/><path d="M120.35608,137.4513h8.3259V106.66024h.2956a4.718,4.718,0,0,0,3.54714-1.33017,5.90816,5.90816,0,0,0,1.37943-4.089v-.24633H114.93686v5.71482h5.41922Z" fill="#fff"/><path d="M207.80269,137.4513h8.3259V106.66024h.2956a4.56823,4.56823,0,0,0,3.54713-1.37944,5.90819,5.90819,0,0,0,1.37944-4.089v-.24633h-18.9673v5.71482h5.41923Z" fill="#fff"/><polygon points="110.552 131.539 101.832 131.539 101.832 122.672 107.843 122.672 107.843 114.789 101.832 114.789 101.832 106.562 110.552 106.562 110.552 100.945 93.753 100.945 93.703 137.402 110.552 137.402 110.552 131.539" fill="#fff"/><path d="M83.16048,100.94542H62.37036l-.04927.24633a5.50746,5.50746,0,0,0,1.08384,3.79345,5.14333,5.14333,0,0,0,3.892,1.675v30.69253H82.76634c3.54713,0,5.91189-3.00521,5.91189-7.43912V113.01551c0-9.36048,0-11.873-5.51775-12.07009m-2.90668,30.594h-4.631V106.66024a12.1332,12.1332,0,0,1,3.49787.1478c1.08384.44339,1.03458,2.414,1.03458,2.46329.34485,2.90666.14779,20.00186.09852,22.26809" fill="#fff"/><path d="M175.28733,100.94542a20.75,20.75,0,0,0-5.37.49266c-4.03979.936-6.01042,3.64565-6.01042,8.12883v21.72618c0,5.567,4.0398,6.70014,10.09947,6.70014,7.34059,0,11.57744-2.56183,11.57744-6.99574V108.33527c0-7.38985-4.77878-7.38985-10.29653-7.38985m-2.75888,8.27663a12.15911,12.15911,0,0,1,.24633-2.26623l.14779-.14779a8.1736,8.1736,0,0,1,1.18237-.09853h.14779c2.80815.04926,2.85741.88678,2.85741,5.86261v15.27236a12.00458,12.00458,0,0,1-.04927,1.33018,4.96385,4.96385,0,0,1-.14779,1.23165l-.14779.14779c-.49266.04927-.98532.09854-1.478.09854a2.73537,2.73537,0,0,1-2.16769-.68972c-.64045-.68972-.68972-1.77357-.64045-3.05448V111.48827c.04927,0,.04927-1.675.04927-2.26622" fill="#fff"/></svg>