<?xml version="1.0" encoding="UTF-8" standalone="no"?>
<svg xmlns:rdf="http://www.w3.org/1999/02/22-rdf-syntax-ns#" xmlns="http://www.w3.org/2000/svg" height="277.65002" width="229.97374" version="1.1" xmlns:cc="http://creativecommons.org/ns#" xmlns:dc="http://purl.org/dc/elements/1.1/" viewBox="0 0 229.97374 277.65002"><polygon points="117.933 11.133 109.547 0 106.173 0 105.161 0 103.812 0 103.812 1.06 105.161 2.024 105.161 18.362 109.547 18.362 109.547 7.326 117.981 18.362 122.318 18.362 122.318 0 117.933 0 117.933 11.133" fill="#1d428a"/><polygon points="87.233 21.157 99.811 18.941 99.185 15.181 91.136 16.579 90.51 13.061 97.064 11.904 96.775 10.265 96.39 8.145 89.835 9.302 89.257 5.976 96.582 4.723 96.92 0.771 85.016 2.892 84.052 3.036 82.75 3.277 82.943 4.338 84.389 5.06 87.233 21.157" fill="#1d428a"/><path d="M66.316,28.00115l6.45809-2.36154c5.97615-2.16876,8.2895-7.08463,6.4581-12.14508s-6.74727-7.3256-12.77161-5.15684l-5.687,2.07238-.72292.241-1.44584.53014.38556,1.01209,1.8314.53014Zm-.62654-15.27773,2.31335-.81931c2.36154-.86751,5.5424-.53015,6.89186,3.22905,1.34945,3.711-.86751,6.02434-3.22905,6.89185l-2.31335.81931Z" fill="#1d428a"/><polygon points="49.737 37.11 61.111 30.507 60.002 26.507 51.713 31.278 44.58 18.892 41.592 20.579 40.58 21.206 39.568 21.784 40.098 22.7 41.544 22.844 49.737 37.11" fill="#1d428a"/><path d="M38.5558,32.96522c-3.42183-3.952-9.2052-4.6267-13.7355-.67473s-4.67489,9.73534-1.25307,13.68731,9.2052,4.67489,13.73551.72292c4.57851-3.952,4.72309-9.78354,1.25306-13.7355m-11.374,9.92812c-2.12056-2.45794-2.12056-5.49421.28918-7.56658,2.36154-2.07238,5.446-1.68682,7.56657.77112,2.12057,2.40973,2.12057,5.54239-.28917,7.61477s-5.4942,1.59042-7.56658-.81931" fill="#1d428a"/><path d="M19.95263,48.53212,16.338,53.15882l-.96389,1.20487-1.54223,1.976,2.89168,2.26515,2.89169-3.6628a4.98177,4.98177,0,0,1-.62653,5.34962h0c-1.976,2.50612-5.06045,2.65071-7.56658.67472-2.55432-1.976-3.13266-5.01225-1.15667-7.51839a6.69665,6.69665,0,0,1,1.01208-1.01209,4.89806,4.89806,0,0,1,1.735-.86751l1.494-1.92779,1.8796-2.40973.09639-.09639c-.09639,0-.19278-.0482-.28917-.0482A9.46907,9.46907,0,0,0,7.56658,50.5081a5.12142,5.12142,0,0,0-.43376.53015c-3.711,4.72308-2.7471,10.45826,1.39765,13.68731s9.92812,2.79529,13.63912-1.92779c.14458-.14459.241-.33737.38556-.48195a9.40171,9.40171,0,0,0,.67472-10.36188,8.38207,8.38207,0,0,0-.53015-.8675,12.67391,12.67391,0,0,0-1.92779-2.02418c-.33735-.19278-.57833-.38555-.8193-.53014h0" fill="#1d428a"/><path d="M144.48789,13.88009l1.59042,1.494c1.34945,1.25306,2.02419,1.8796,1.735,2.84349-.19278.77112-1.15667,1.15668-2.50614.77112a8.824,8.824,0,0,1-4.5303-3.66281l-1.34945,4.6267a11.91625,11.91625,0,0,0,5.205,2.84349c3.51821,1.01209,6.94-.241,7.95214-3.6628.77112-2.6989-.67473-4.53031-2.65072-6.36171l-1.83139-1.7832c-.8675-.81931-1.06029-1.34946-.8675-1.976.19278-.77111,1.10847-1.06028,2.26516-.77111a9.11065,9.11065,0,0,1,4.38573,3.13266L155.09075,7.181a11.65318,11.65318,0,0,0-4.72308-2.60252c-3.80738-1.10848-6.89184.57834-7.71116,3.51822-.72295,2.07237-.09641,4.00016,1.83138,5.78337" fill="#1d428a"/><polygon points="159.717 28.242 163.959 30.218 170.079 17.013 175.333 19.471 176.923 16.001 162.224 9.157 160.633 12.627 165.886 15.037 159.717 28.242" fill="#1d428a"/><path d="M171.57334,31.664l-1.10848,1.63862,3.18086,2.12057,1.34945-1.494,2.02419-1.01209,2.84348,1.8796,2.84349,1.87959-.19278,2.26516-.8675,1.7832,3.18086,2.16877,1.10848-1.63863,4.19295-16.91636-2.16877-1.494-1.735-1.15668-.48195-.33736-1.44584-.9639-.62653.91571.48195,1.25306Zm13.7355-4.96406L183.622,33.01341l-1.78321-1.20487-1.78322-1.20487Z" fill="#1d428a"/><polygon points="195.719 33.206 199.96 37.206 190.032 47.857 193.454 51.038 203.382 40.387 207.623 44.291 210.226 41.544 198.321 30.459 195.719 33.206" fill="#1d428a"/><polygon points="209.117 57.255 213.214 62.509 216.202 60.195 212.105 54.942 214.756 52.87 219.334 58.749 222.949 57.207 215.431 47.568 215.479 47.52 214.033 45.689 213.214 46.363 213.262 48.147 200.442 58.219 208.298 68.292 211.286 65.93 206.274 59.472 209.117 57.255" fill="#1d428a"/><path d="M223.33451,133.83685A110.26961,110.26961,0,1,1,113.0649,23.56724,110.27747,110.27747,0,0,1,223.33451,133.83685" fill="#1d428a"/><path d="M185.16427,61.68929A101.9639,101.9639,0,1,0,40.96554,205.888,101.9639,101.9639,0,1,0,185.16427,61.68929M44.86932,65.59307a96.48891,96.48891,0,0,1,156.1992,107.76348c-11.71132-3.952-23.22988-8.38588-34.50745-13.39813-1.494-.67473-2.98808-1.30127-4.43392-1.976l-4.38573-2.07237-2.217-1.06029-2.16876-1.06029-4.33753-2.16877c-1.44585-.72292-2.89169-1.494-4.28933-2.26515l-2.16877-1.15668c-.72292-.38555-1.39764-.77112-2.12056-1.15667l-4.24114-2.36154-4.193-2.45793a274.0094,274.0094,0,0,1-32.14589-21.92862c-5.06045-4.04836-10.02451-8.24131-14.6994-12.72341-2.36154-2.217-4.6267-4.53031-6.84366-6.89185-.53014-.57834-1.10848-1.15668-1.63862-1.78321-.53014-.57833-1.06028-1.20487-1.59042-1.8314s-1.06029-1.20487-1.54224-1.8314c0-.0482-.04819-.0482-.04819-.09639-.19278-7.08463-.28918-11.32577-.28918-11.32577L68.38835,82.654v6.45809H64.29179V82.31665L59.135,83.56972l.04819,2.45793-2.40973,1.30126c.04819,2.02418.09638,4.67489.14458,7.80755-1.976,3.42183-23.32627,40.339-39.32692,51.713a99.45667,99.45667,0,0,1-.9157-13.15717,95.34344,95.34344,0,0,1,28.19394-68.0992m126.704,115.52283-9.92812.33737-8.09672-20.96472,1.59042.77112,4.43393,2.217c1.494.72292,2.98808,1.39764,4.4821,2.12056.43375.19278.8675.38556,1.25307.57835Zm-2.40974-13.15716c4.00016,1.83139,8.04853,3.5664,12.09689,5.25322l3.32543,7.422-9.97632.33737Zm-10.60285,13.59092-10.16909.33737L137.837,151.90989q1.01208.57833,2.02418,1.15667l2.16877,1.20487c1.44584.81931,2.89168,1.59042,4.33753,2.40973l3.32543,1.78322Zm-13.109.43375-9.06061.28917-13.20536-39.4233c2.02418,1.30126,4.04835,2.60251,6.12074,3.85558l4.24113,2.60251.57834.33737Zm-12.09689.43375-9.49437.33737-15.6633-50.26713c3.61461,2.69891,7.32561,5.30143,11.0366,7.85574Zm-12.48244.43375-9.157.28917L93.06408,120.34232c1.30126,1.15667,2.65071,2.26516,4.00016,3.37363,2.36154,1.976,4.72308,3.85558,7.181,5.73518Zm-12.09689.38557-10.1209.33737-22.266-79.47317c1.92779,2.16876,3.952,4.24113,6.02434,6.31352,2.16877,2.16876,4.38573,4.24113,6.60269,6.31351Zm-13.06078.43375-8.77145.28917L74.70187,137.30688c-.38556-12.04869-.72292-23.13348-.96389-32.09771Zm-11.71132.38555-7.56658.241c-.48194-11.0848-.91569-22.74794-1.30125-34.07369Zm106.99237,6.69907c-.67473.8675-1.30127,1.78321-2.02419,2.65071l-112.1492-2.217-.0482-1.06029Zm-3.32545-10.16908-2.55432-5.78337c4.24113,1.735,8.53048,3.37363,12.81981,4.91587-.0964.14458-.19278.33737-.28917.482ZM68.34017,110.02863v5.92795H63.85805v5.4942h4.48212v5.928H63.85805v5.4942h4.48212v11.133H63.85805v5.4942h4.48212v11.47035H63.85805v5.4942h4.48212V184.4895l-4.14476.14458V100.727H68.292v3.711H63.80985v5.4942h4.53032Zm-43.2789,63.37611,12.57884-42.36319A218.65277,218.65277,0,0,0,54.2191,105.161L31.664,185.64622a93.75965,93.75965,0,0,1-6.60268-12.24148M23.27807,169.26a94.42884,94.42884,0,0,1-5.01226-17.49469A102.60676,102.60676,0,0,0,32.82063,137.1141Zm33.59174-62.99056c0,8.53048-.14458,18.796-.33736,29.73618L43.56806,185.40524l-8.96423.28918Zm-.62652,42.12222c-.33737,12.24147-.77112,24.8685-1.39765,36.628l-8.2895.28917ZM39.03775,195.71892l15.18135.53014c-.28917,4.6749-.62653,9.10881-1.01209,13.25356a101.1011,101.1011,0,0,1-8.38589-7.47018c-2.02418-2.02419-3.952-4.14476-5.78337-6.31352m74.02715,34.55563a96.03681,96.03681,0,0,1-34.60383-6.36171c-.43375-6.60269-.86751-14.50663-1.30126-23.13349l-8.81964-2.98808v21.54307c-1.39765-.72292-2.7953-1.494-4.14476-2.31335V196.58642l4.14476.14458v.14458h4.48211l8.14491.28917,101.54635,3.6146c-.38555.43375-.81932.81932-1.20487,1.25307a95.95578,95.95578,0,0,1-68.24377,28.24213" fill="#fdb927"/><polygon points="145.886 251.287 144.777 245.6 138.656 246.805 131.716 248.155 125.596 249.36 126.704 254.998 132.777 253.842 135.909 269.842 129.837 271.047 130.897 276.686 137.066 275.529 144.006 274.18 150.078 272.975 148.97 267.288 142.897 268.493 139.765 252.492 145.886 251.287" fill="#1d428a"/><path d="M181.30869,244.54022c3.37363,7.22921.72292,15.6633-7.51839,19.47069-8.24131,3.85558-16.38622.43377-19.75985-6.79545s-.72292-15.61511,7.51838-19.47069c8.24131-3.8074,16.38622-.43376,19.75986,6.79545m-6.5063,3.03626c-2.07237-4.43392-6.36171-6.3135-10.69924-4.28934-4.38573,2.02418-5.63879,6.50629-3.56641,10.94021,2.07237,4.38572,6.31352,6.36172,10.69924,4.33753,4.33753-2.02418,5.63878-6.60269,3.56641-10.9884" fill="#1d428a"/><path d="M201.45409,221.64769c-3.47-4.04835-8.916-3.75918-13.01259-.241l-7.71116,6.60269-1.20487,1.01209-1.44584,1.25305,1.06029,1.20487,2.36154-.19279,16.14525,18.94054,5.34962-4.57851-6.60269-7.71116,1.54224-1.30126L209.84,239.81708l6.45811-5.49421-13.7837-3.22906a8.76157,8.76157,0,0,0-1.06029-9.44612m-6.26532,9.87994-2.50613,2.12059-4.09656-4.77128,2.60252-2.217c1.494-1.25307,3.37363-1.54224,4.72308.04819,1.39766,1.54221.86753,3.4218-.72291,4.81946" fill="#1d428a"/><path d="M227.52746,220.58742a17.45992,17.45992,0,0,1-6.84367,5.83157l-5.83155-4.38573a13.20371,13.20371,0,0,0,7.663-4.43392c1.30126-1.735,1.20487-3.27724.28916-4.00016-1.20487-.9157-2.45792-.33737-4.96406.9157l-2.98808,1.39764c-3.61461,1.735-6.69908,1.59042-9.30158-.38555-3.711-2.79529-4.38573-8.04853-.77112-12.868a17.63417,17.63417,0,0,1,6.26533-5.30142l5.30143,4.00016a14.75487,14.75487,0,0,0-6.79545,4.4821c-1.06029,1.39765-1.10848,2.84349-.14458,3.56641.7711.57835,1.63863.57835,3.27724-.19277l3.51821-1.68682c3.66279-1.78321,7.08463-2.84349,10.45827-.28917,4.3375,3.37365,4.19292,8.96424.86747,13.35" fill="#1d428a"/><path d="M118.89647,258.27573c.19278-5.34961-4.04835-8.77146-9.44617-8.96422l-10.1691-.33737L97.739,248.926l-1.92779-.04818-.0482,1.63863,1.8796,1.44584-.8675,24.86849,7.03643.241.33737-10.16908,2.02419.04818,6.65087,10.41006,8.48228.28915-8.00033-11.66313a8.804,8.804,0,0,0,5.59059-7.71116M107.6189,261.312l-3.27724-.0964.241-6.26531,3.42183.09639c1.976.04818,3.51821,1.10847,3.47,3.22906-.09641,2.07236-1.735,3.08444-3.8556,3.03626" fill="#1d428a"/><path d="M87.56988,255.76959c1.494-5.10863-1.735-9.54255-6.89185-11.03661l-9.73534-2.89169-1.494-.43376-1.83141-.53013-.48194,1.54224,1.44584,1.87961-7.08463,23.8564,6.74727,1.976,2.89168-9.73534,1.976.57834,3.80738,11.71132,8.14492,2.40974-4.81948-13.30174a8.65933,8.65933,0,0,0,7.32561-6.02435m-11.66314.14458-3.13266-.91571,1.78321-6.02435,3.27724.9639c1.87959.57834,3.13266,1.976,2.55433,4.00016-.62654,1.976-2.45793,2.55434-4.48212,1.976" fill="#1d428a"/><path d="M54.41188,233.40721,51.954,231.96137,50.99,231.383l-2.02418-1.20487-.8193,1.39766.67472,1.54224L30.55547,248.15483l-1.54223,2.60252,5.01225,2.93987,1.87959-2.40973,2.98808-1.735,4.43391,2.60252,4.43392,2.60253-.09639,3.42182-1.15667,2.79529,5.01225,2.93987,1.54223-2.60253,4.81948-26.02517Zm-8.28949,14.07288-2.7953-1.63864,7.56657-6.45811-1.976,9.73535Z" fill="#1d428a"/><polygon points="37.736 222.612 37.736 222.612 36.001 220.732 34.797 221.84 35.038 223.816 20.001 230.323 29.736 213.888 26.7 210.563 9.591 218.949 18.748 201.936 13.495 196.153 13.495 196.153 12.82 195.43 11.615 196.49 11.952 199.189 0 222.708 4.819 227.961 16.29 223.19 10.555 234.178 15.326 239.432 42.942 228.347 37.736 222.612" fill="#1d428a"/></svg>