<?xml version="1.0" encoding="UTF-8" standalone="no"?>
<svg xmlns:rdf="http://www.w3.org/1999/02/22-rdf-syntax-ns#" xmlns="http://www.w3.org/2000/svg" height="296.60268" width="223.73455" version="1.1" xmlns:cc="http://creativecommons.org/ns#" xmlns:dc="http://purl.org/dc/elements/1.1/" viewBox="0 0 223.73455 296.60268"><path d="M150.242,137.715l.31518-26.54c-.02781-12.45888-12.978-14.54462-22.53535-14.387,6.41485-2.12284,14.12746-5.74741,19.71726-11.78217a28.26836,28.26836,0,0,0,9.31634-23.73119c-1.22365-18.00233-23.73119-26.96641-61.04292-23.35112-.61182.05562-1.22365.12052-1.82619.1854A192.90137,192.90137,0,0,0,85.56519.01852L83.72047,1.854c-4.95946,15.3882-7.92584,27.65239-9.65007,39.036a296.08814,296.08814,0,0,0-37.86793,8.94553L34.367,51.67091s18.01161-1.63151,38.53536-1.34415c-2.28041,23.33258.04634,45.49715-.02781,87.3697-33.15877-.93628-62.248,4.57938-69.36736,13.43221-2.336,1.92815-3.57822,4.0417-3.50406,6.31286.36153,10.15066,30.50755,19.467,72.8807,23.02667l1.80766,57.54811,1.84472-1.84472,2.97566-39.02668a6.886,6.886,0,0,1,.20394-1.64078c.88991.12051,1.73349,1.2607,1.73349,3.2445l1.30707,51.39285L84.6011,248.306l3.16107-41.82621a8.1546,8.1546,0,0,1,.26884-2.3175c.89919.1576,1.7242,1.47392,1.65934,3.82851L91.155,261.57137l1.83547-1.83547,2.53072-77.97919q7.30012.2364,14.89689.241c5.35805,0,10.63268-.09271,15.79608-.25956l2.55852,81.29783,1.83547-1.83547,2.18771-42.54926a8.54727,8.54727,0,0,1,.25956-2.14137c.83429.19466,1.60371,1.43684,1.60371,3.63385l2.197,59.671,1.83547-1.83547,2.22479-51.55043a7.012,7.012,0,0,1,.29665-1.87252c1.05679-.00928,2.13208,1.25145,2.17845,3.71727l1.83547,68.32912,1.83547-1.84472,2.679-114.41953c36.2086-3.16107,63.7034-10.46583,70.51685-18.85516,2.26188-1.90034,3.47625-3.8656,3.47625-5.8679-.53773-11.16105-34.03022-19.7636-73.4926-17.90035M72.49452,168.37089c-29.02435-2.79952-48.63038-8.686-48.63038-16.12978a2.95937,2.95937,0,0,1,.4635-1.56663c6.80417-4.78332,27.65238-7.80535,48.53767-10.93858-.02781,8.18539-.14832,17.10315-.41716,26.92007Zm59.1333-99.92126c1.10313,8.21322-1.25146,14.41485-5.48785,19.09618-7.5736,6.86907-19.44846,9.993-29.10778,11.41136.16686-15.49943-.05561-31.58287-1.39977-47.36967,18.63269,1.99305,34.62343,6.693,35.9954,16.86213m-5.4322,101.49717q-6.82737.1947-13.96061.20394c-5.59909,0-11.0591-.0927-16.35229-.27808l.21322-6.61879c-.50058-16.76014.54693-37.77523.88066-60.21788,13.58982,1.57591,29.98844,5.45076,29.70107,15.00813Zm72.17616-12.93165c-6.75784,5.33025-24.7509,9.45541-48.49134,11.569l.343-28.54232c27.17963,3.54115,49.23293,7.518,49.23293,14.03479a4.84618,4.84618,0,0,1-1.08457,2.93857" fill="#9ea2a2"/><path d="M223.70666,155.59684c-.50984-11.14252-34.00233-19.74507-73.46471-17.89107l.31518-26.54c-.04634-16.42643-22.53535-14.82271-30.1182-13.82157,8.85283-1.60372,38.44267-8.9919,36.61648-36.08808C155.83176,43.2538,133.32421,34.28971,96.01249,37.905c-.61182.05561-1.22365.12051-1.82619.18539A192.9024,192.9024,0,0,0,85.56522,0c-5.19121,16.09271-8.204,28.77406-9.8911,40.60258A298.74507,298.74507,0,0,0,36.19322,49.817s18.01159-1.63151,38.53537-1.34414c-2.3175,23.68483.11124,46.15529-.02781,89.26076-39.22134-1.38122-73.27,6.25725-72.86216,17.84474.35227,10.15066,30.50756,19.47627,72.88069,23.03594l1.79838,57.53886,2.97566-39.02668c.09271-4.83893,3.78215-4.394,3.78215-.241l1.31635,51.39285L87.75292,206.452c-.04634-5.64542,3.90266-5.37658,3.76362-.32445l1.45539,53.58055,2.58634-79.861c5.4322.19466,11.00348.29665,16.67671.29665,5.35805,0,10.63268-.09271,15.79608-.25956l2.55852,81.28858,2.18771-42.54927c.02781-5.42295,3.69872-5.14483,3.68947-.343l2.197,59.67094,2.23407-51.55042c.16686-5.06141,4.21784-4.83894,4.31054,0l1.83547,68.32912,2.7161-116.02325v-.07415c42.84592-3.53189,73.94674-12.86678,73.94674-23.036M133.46329,66.61418c3.03128,22.51682-19.93049,29.92354-36.42182,32.343A488.433,488.433,0,0,0,95.46556,49.5481c19.47627,1.86328,36.57942,6.53536,37.99773,17.06608M23.86414,152.24111c0-6.87835,25.39978-10.51217,50.83664-14.3314-.02781,8.17614-.14832,17.10315-.41716,26.91079l.12051,3.7358c-30.07184-2.72538-50.54-8.71378-50.54-16.31519m72.01858,17.63152.21322-6.61879c-.51911-17.26073.61183-39.04521.91772-62.25729,13.89572,1.42759,31.80535,5.20974,31.5087,15.20279l-.50983,53.68254c-5.117.16685-10.39166.25956-15.77752.25956-5.59909.0093-11.05913-.0834-16.35229-.26881m53.99772-1.28852.36154-30.61879c28.00465,3.6153,51.04059,7.61994,51.04059,14.28507.00925,7.61993-20.96875,13.62687-51.40213,16.33372" fill="#ce1141"/></svg>