<?xml version="1.0" encoding="UTF-8"?>
<svg xmlns="http://www.w3.org/2000/svg" xmlns:xlink="http://www.w3.org/1999/xlink" version="1.1" id="Layer_1" height="316" width="316" viewBox="0 0 400 400" style="enable-background:new 0 0 400 400;" xml:space="preserve">
<style type="text/css">
	.st0{fill:#CE0E2D;}
	.st1{fill:#0A2240;}
	.st2{fill:#3A8DDE;}
	.st3{fill:#FFFFFF;}
</style>
<g>
	<g>
		<g id="XMLID_00000112615531847960329120000002242714481339554209_">
			<g>
				<g>
					<g>
						<circle class="st0" cx="200" cy="200" r="200"/>
					</g>
					<g>
						<circle class="st1" cx="200" cy="200" r="190"/>
					</g>
					<g>
						<circle class="st2" cx="200" cy="200" r="138.7"/>
					</g>
					<g>
						<circle class="st3" cx="200" cy="200" r="133.2"/>
					</g>
					<g>
						<g>
							<path class="st3" d="M68.2,299c6.1-5.3,13.2-3.7,17.9,1.8c1.9,2.2,3.2,4.9,3.5,7.1l-3.3,2.8l-0.2-0.2c0.2-2.6-0.6-5-2.2-6.8         c-2.5-2.9-5.9-3.6-8.7-1.2l-4.3,3.7c-3,2.5-3,5.9-0.4,9c1.6,1.9,3.8,3,6.7,3.4l0.2,0.2l-3.3,2.9c-2.4-0.6-4.8-2.3-6.8-4.6         C62.4,311.4,62,304.2,68.2,299z"/>
							<path class="st3" d="M103.4,323.1c0.4-0.9,0.6-2,0.6-3.7l0.2-0.3l6.9,4.9l-11.6,16.3l9.1,6.4l-3,2.4l-13.6-9.7l10.5-14.8         C102.9,324.2,103.2,323.6,103.4,323.1z"/>
							<path class="st3" d="M135.5,342.5c0.2-1,0.1-2.1-0.2-3.7l0.1-0.3l7.8,3.3l-9.3,21.8l-6.1-2.6l7.1-16.7         C135.2,343.6,135.4,343,135.5,342.5z"/>
							<path class="st3" d="M162.5,352.1c0-1-0.3-2.1-1-3.6l0.1-0.3l13.4,2.4c5.9,1.1,8.9,4.7,7.9,9.9c-0.9,5.2-5,7.7-10.9,6.6         l-5.1-0.9l-1.2,6.9l-6.5-1.2l3.2-17.8C162.5,353.3,162.5,352.7,162.5,352.1z M171.6,363.4c2.2,0.4,3.7-0.4,4.1-2.7l0.5-2.9         c0.4-2.3-0.7-3.5-2.9-3.9l-4.1-0.7l-1.7,9.4L171.6,363.4z"/>
							<path class="st3" d="M203.5,356.6c-0.3-1-0.9-1.9-1.9-3.2l0-0.3l13.6-1.1c6-0.5,9.8,2.3,10.2,7.5c0.4,5.3-2.8,8.7-8.8,9.2         l-5.2,0.4l0.6,7l-6.6,0.6l-1.5-18.1C203.8,357.7,203.7,357.1,203.5,356.6z M215.3,365.1c2.2-0.2,3.4-1.3,3.2-3.6l-0.2-2.9         c-0.2-2.3-1.6-3.2-3.8-3l-4.1,0.4l0.8,9.5L215.3,365.1z"/>
							<path class="st3" d="M244.4,350.2c-0.5-0.9-1.3-1.6-2.7-2.6l-0.1-0.3l17.7-6.3l2.2,3.1l-10.7,3.8l2,5.6l8.2-2.9l0.3,3.7         l-7.3,2.6l2.3,6.5l11.3-4l0.2,3.8l-16.5,5.9l-6.1-17.1C244.9,351.2,244.7,350.7,244.4,350.2z"/>
							<path class="st3" d="M280.2,334.6c-0.8-0.7-1.7-1.2-3.3-1.8l-0.2-0.3l11.8-8.2c4.7-3.2,9-2.9,11.6,0.8c2.1,3,1.7,6.3-0.9,9.1         l10.8,4l-6.6,4.6l-9.9-4l-1.5,1l5.1,7.3l-5.4,3.8l-10.3-14.9C281,335.4,280.6,335,280.2,334.6z M294.3,334.2         c1.5-1,1.9-2.4,0.8-4l-1.2-1.8c-1.1-1.6-2.6-1.7-4.1-0.6l-4.1,2.8l4.5,6.4L294.3,334.2z"/>
							<path class="st3" d="M326.2,321.1l-3.4-2.9l0.2-0.2c3.2-0.4,6-2.2,8-4.5c2-2.3,2.6-4.4,1.1-5.7c-1-0.8-2.1-0.9-3.7,0.2         l-4.6,3c-3.5,2.2-6.5,2.6-9,0.5c-3.3-2.8-3.2-7.8,1-12.7c2-2.3,4.4-4.1,6.7-4.8l3.2,2.8l-0.2,0.2c-2.6,0.2-5.2,1.9-7,4         c-1.7,2-2.3,4-1.1,5.1c0.9,0.7,2.1,0.5,3.5-0.4l4.7-3c3.7-2.4,6.9-2.8,9.7-0.4c3.8,3.3,2.8,8.6-1.3,13.4         C331.7,318.2,328.7,320.5,326.2,321.1z"/>
						</g>
					</g>
					<g>
						<g>
							<path class="st3" d="M36.9,142.6c-1-0.2-2.1-0.1-3.7,0.3l-0.3-0.1l3.2-7.8l18.6,7.5l4.2-10.3l3.1,2.4L55.6,150l-16.8-6.8         C38.1,142.9,37.5,142.7,36.9,142.6z"/>
							<path class="st3" d="M58.8,114.7c-6.1-4.4-7.1-11.4-2.6-17.7s11.5-7.6,17.6-3.2c6.1,4.4,7.1,11.4,2.6,17.7         S64.9,119.1,58.8,114.7z M73.4,109.4c2.1-2.9,1.6-5.9-1.4-8l-4.9-3.5c-3-2.1-6-1.6-8,1.3c-2.1,2.9-1.6,5.9,1.4,8l4.9,3.5         C68.4,112.8,71.4,112.2,73.4,109.4z"/>
							<path class="st3" d="M92.6,88.7l-2.8-3.4l0.2-0.2c3.2,0.2,6.2-1.2,8.6-3.2c2.3-2,3.3-4,2-5.5c-0.8-1-2-1.2-3.7-0.4l-5,2.2         c-3.8,1.7-6.8,1.5-8.9-1c-2.8-3.3-1.9-8.2,3-12.4c2.3-2,5-3.3,7.4-3.7l2.8,3.3l-0.2,0.2c-2.6-0.2-5.5,1.1-7.5,2.8         c-2,1.7-2.9,3.6-1.9,4.8c0.8,0.9,2,0.9,3.5,0.2l5.1-2.2c4-1.8,7.3-1.6,9.6,1.2c3.2,3.9,1.4,8.9-3.4,13         C98.5,86.7,95.2,88.5,92.6,88.7z"/>
							<path class="st3" d="M147.6,31.8l-0.1-0.3l9.1-2.5l16,20.2l-6.9,1.9l-3.2-4.1l-11.2,3.1l-0.7,5.2l-4.1,1.1L149,38         C149.5,34.5,149.4,33.7,147.6,31.8z M160,44l-6.9-8.7l-1.4,11L160,44z"/>
							<path class="st3" d="M188.5,27.4c-0.2-1-0.7-2-1.6-3.4l0-0.3l8.6,0l11.9,14.7l0.1-14.6l4.3,0l-0.1,23.7l-5.4,0l-13.2-16.4         l-0.1,16.3l-4.3,0l0.1-18.1C188.6,28.6,188.6,28,188.5,27.4z"/>
							<path class="st3" d="M230.7,38.1c1.9-7.2,8-10.8,16.3-8.6c2.5,0.7,5.2,1.8,7,3.8l-1.1,4.2l-0.3-0.1c-1.2-2.3-3.7-3.7-6-4.3         c-4.1-1.1-7.1,0.3-8.1,4.1l-1.4,5.3c-1.1,4,0.8,6.6,4.5,7.6c1.1,0.3,2.2,0.4,3.1,0.3l1.8-6.8l-4.1-1.1l1.9-3.2l9.7,2.6         l-3,11.4c-3.3,1.2-6.8,1.3-10.4,0.3C232.2,51.2,228.8,45.2,230.7,38.1z"/>
							<path class="st3" d="M275.1,44.2c0.3-1,0.3-2.1,0.2-3.7l0.2-0.3l16.5,9l-0.8,3.7l-10-5.5l-2.9,5.2l7.7,4.2l-2.6,2.7l-6.8-3.7         l-3.3,6.1l10.5,5.7l-2.7,2.7l-15.4-8.4l8.7-15.9C274.7,45.3,274.9,44.8,275.1,44.2z"/>
							<path class="st3" d="M308.7,65.6c0.5-0.9,0.8-1.9,1-3.6l0.2-0.2l6.3,5.6l-13.3,15l8.3,7.4l-3.3,2.1l-12.5-11.1l12-13.6         C308.1,66.6,308.4,66.1,308.7,65.6z"/>
							<path class="st3" d="M335.4,92.5c0.7-0.8,1.2-1.7,1.8-3.3l0.3-0.2l10.9,15.3l-2.3,3l-6.6-9.3l-4.8,3.5l5.1,7.1l-3.5,1.3         l-4.5-6.3l-5.6,4l7,9.7l-3.6,1.3l-10.2-14.2l14.7-10.5C334.6,93.4,335,93,335.4,92.5z"/>
							<path class="st3" d="M338.9,131.9l4.1-1.7l0.1,0.3c-1.1,3-0.8,6.3,0.4,9.1c1.2,2.8,2.8,4.3,4.6,3.6c1.2-0.5,1.7-1.5,1.5-3.4         l-0.5-5.5c-0.4-4.1,0.7-7,3.7-8.2c4-1.6,8.4,0.7,10.9,6.7c1.2,2.8,1.6,5.8,1.2,8.1l-3.9,1.6l-0.1-0.3c1-2.4,0.6-5.5-0.4-8         c-1-2.4-2.5-3.9-4-3.3c-1.1,0.5-1.4,1.6-1.3,3.3l0.5,5.5c0.4,4.4-0.7,7.4-4.1,8.8c-4.7,1.9-8.9-1.4-11.4-7.2         C339,138.1,338.4,134.4,338.9,131.9z"/>
						</g>
					</g>
				</g>
			</g>
		</g>
	</g>
	<g>
		<path class="st1" d="M110.5,191.8l-23.8,3.7c2.4-60.5,52.2-108.9,113.3-108.9l0,0v0.6V124h0v11l0,0v6h0v6.2l0.6,0.2l1.7-6.4h29.7    l0.2,0.7c-0.3,2.2-0.1,8.6,10.7,13.3l0.3,0.9l-43.1-1.1l-43.1,1.1l0.3-0.9c10.9-4.7,11-11.1,10.7-13.3l0.2-0.7h29.7l-1.5-5.9    l-21.6,0.7l0.2-0.6c6.4-3.6,6.6-8.7,6.5-10.6l0.2-0.7h11.8l-3.5-13.3C147.8,115.4,114.4,149.3,110.5,191.8z M276.6,152.9    l-3.5,10.5l0.7,1.6h31.4l1.3-3.9c-15.4-42.1-55-72.5-101.9-74.3l3.7,23.8C237.3,113.1,262.2,129.4,276.6,152.9z M273.9,235    l-0.7,1.6l3.5,10.5c-14.4,23.4-39.3,39.7-68.1,42.4l-3.7,23.8c46.9-1.9,86.4-32.3,101.8-74.3l-1.3-3.9H273.9z M245.2,161.9    l-0.3-0.9h-44.9h-44.9l-0.3,0.9c-0.1,2.7-1.3,11.2-13.1,22.9l-0.3,1c6.6-2.8,12.5-5.2,18-7.3c6.8-2.5,13.2-4.6,19.4-6.2    c3.4-0.9,6.8-1.7,10.1-2.4c3.5-0.7,6.9-1.3,10.3-1.8l0.7-0.1l0.7,0.1c2.9,0.4,5.8,0.9,8.8,1.5c2.8,0.6,5.7,1.2,8.7,2    c5.4,1.4,10.9,3.1,16.9,5.2c8.1,2.9,16,6.1,23.7,9.4l-0.4-1.4C246.6,173.2,245.3,164.6,245.2,161.9z M225.2,135.3    c-6.4-3.6-6.6-8.7-6.5-10.6l-0.2-0.7h-11.8l-2.9,11.1l21.6,0.7L225.2,135.3z M220.1,253.1c0.1,0.1,0.2,0.2,0.3,0.4l0,0l0,0    c0.2,0.3,0.6,0.6,1,0.9c0.4,0.3,0.9,0.6,1.5,0.8l0,0l0,0c1,0.5,2.4,0.9,4.1,1.3c3.1,0.8,6.6,1.2,9.7,1.5c0.9,0.1,1.7,0.2,2.6,0.2    c1.4-4,3.1-8,5.1-12c-3.6,1.6-7.5,3-11.6,4.2C227.6,251.9,223.2,252.7,220.1,253.1z M173.1,256.5c1.7-0.4,3-0.8,4.1-1.3l0,0    c0.6-0.2,1.1-0.6,1.5-0.8c0.4-0.3,0.8-0.6,1-0.9l0,0l0,0c0.1-0.1,0.2-0.3,0.3-0.4c-3-0.4-7.5-1.2-12.7-2.6    c-4.1-1.2-8-2.6-11.6-4.2c2,4,3.7,7.9,5.1,12c0.9-0.1,1.7-0.1,2.6-0.2C166.4,257.7,170,257.3,173.1,256.5z M313.3,200L313.3,200    v4.5l-23.8,3.7l-24.9,3.9c-5.3,8.6-11,17.2-16,25.9c-0.6,0.4-1.2,0.7-1.8,1.1c-7.9,4.5-16.7,7.2-26.4,8c0.9-2.1,2.2-4.1,3.5-6.1    c0.7-1.1,1.5-2.2,2.5-3.6c0.8-1.1,1.7-2.3,2.7-3.6c2.5-3.2,5.1-6.5,7.6-9.6c1.2-1.5,2.5-3.1,3.8-4.7l2.9-3.6    c0.1-0.2,0.2-0.3,0.4-0.5c0.8-1.1,1.6-2.2,2.4-3.2c0.9-1.2,1.8-2.5,2.7-3.8c0.3-0.4,0.5-0.8,0.8-1.2c0.1-0.2,0.3-0.5,0.5-0.7l0,0    c0,0,0,0,0,0l-4.8-1.4c0,0,0,0.1-0.1,0.1c-0.2,0.4-0.5,0.8-0.7,1.2c-0.7,1.1-1.5,2.2-2.6,3.6c-1.4,1.9-3.3,4.3-5.4,6.6    c-0.1,0.1-0.2,0.3-0.3,0.4l0,0c-2.5,2.9-5.3,5.9-7.9,8.7c-1.5,1.6-3.1,3.3-4.6,5c-1.9,2.1-4.1,4.6-6.1,7.2c-1,1.3-1.9,2.6-2.8,3.9    c-0.7,1.1-1.6,2.7-2.3,4.4c-0.5,1.2-1.1,3.1-1,5.3c0,2.1,0.9,4.3,2.4,5.9c0.8,0.9,1.7,1.6,2.6,2.2l0,0l0,0c1,0.6,2,1.1,2.9,1.5    c1.7,0.7,3.6,1.2,5.8,1.6c1.9,0.4,3.8,0.6,5.6,0.7c1.9,0.2,3.9,0.2,5.5,0.2c0.1,0,0.2,0,0.2,0c0.4,0,0.7,0,1.1,0    c-0.3,1.1-0.5,2.2-0.8,3.3l0,0l0,0c0,0,0,0,0,0c0,0,0,0,0,0l-16.6,6l-10.3,3.8l-7.2-74l-0.7-6.7l-1.3-13.6l-0.8,0.3l0,13.3l0,3.9    l0,1.8l0,81.1l0,0v30.1v0.6c-62.6,0-113.4-50.7-113.4-113.3l0,0l0-0.1h25h41.8h6.6l0.2-0.7l-10.9-3l-10.2-2.8l0.4-1.1    c18.7-8.3,39-16.2,60.5-19.2c21.1,2.8,41.4,11.2,60.6,19.5l0.3,0.8l-10.2,2.8l-10.8,3l0.2,0.7h6.6h41.8H313.3z M191.8,289.5l-2-13    l-9.8-3.7l-16.6-6c0,0,0,0-0.1,0c0,0,0,0,0,0l0,0l0,0c-0.2-1.1-0.5-2.2-0.8-3.3c0.4,0,0.7,0,1.1,0c0.1,0,0.2,0,0.2,0    c1.7,0,3.6,0,5.5-0.2c1.8-0.1,3.7-0.3,5.6-0.7c2.2-0.4,4-0.9,5.8-1.6c0.9-0.4,1.9-0.8,2.9-1.5l0,0l0,0c0.8-0.6,1.8-1.3,2.6-2.2    c1.5-1.6,2.3-3.8,2.4-5.9c0-1,0-2.7-1-5.3c-0.7-1.7-1.6-3.3-2.3-4.4c-0.8-1.3-1.8-2.7-2.8-3.9c-2-2.6-4.2-5.1-6.1-7.2    c-1.5-1.7-3.1-3.4-4.6-5c-2.7-2.8-5.4-5.8-7.9-8.7l0,0c-0.1-0.1-0.2-0.2-0.3-0.4c-2.1-2.4-4-4.8-5.4-6.7c-1-1.4-1.8-2.5-2.6-3.6    c-0.3-0.4-0.5-0.8-0.7-1.2c0,0,0-0.1-0.1-0.1l-4.8,1.4c0,0,0,0,0,0l0,0c0.2,0.2,0.3,0.5,0.5,0.7c0.3,0.4,0.5,0.8,0.8,1.2    c0.9,1.3,1.8,2.6,2.7,3.8c0.8,1.1,1.6,2.2,2.4,3.3c0.1,0.1,0.2,0.3,0.3,0.4l2.9,3.6c1.3,1.6,2.5,3.2,3.8,4.7    c2.5,3.2,5.2,6.4,7.6,9.6c1,1.3,1.9,2.4,2.7,3.6c1,1.4,1.8,2.5,2.5,3.6c1.3,2,2.6,4,3.5,6.1c-9.6-0.9-18.5-3.6-26.3-8    c-0.6-0.3-1.2-0.7-1.8-1.1c-4.9-8.7-10.6-17.3-16-25.9l-24.9-3.9C114.5,251.3,148.7,285.6,191.8,289.5z M200.1,282.7L200.1,282.7    L200.1,282.7L200.1,282.7z"/>
	</g>
</g>
</svg>
