<?xml version="1.0" encoding="UTF-8" standalone="no"?>
<svg xmlns:rdf="http://www.w3.org/1999/02/22-rdf-syntax-ns#" xmlns="http://www.w3.org/2000/svg" height="215.68096" width="283.70001" version="1.1" xmlns:cc="http://creativecommons.org/ns#" xmlns:dc="http://purl.org/dc/elements/1.1/" viewBox="0 0 283.70001 215.68096"><path d="M4.088,93.43384A12.57415,12.57415,0,0,0,0,103.08752v71.122a12.59162,12.59162,0,0,0,14.13575,12.95366c6.3537-.54179,12.75665-1.03433,19.11034-1.4776v-13.4462c-6.35369.34478-12.75665.68955-19.11034,1.08359V103.97409c6.35369.394,12.75665.7388,19.11034,1.08358V91.61148c-6.35369-.44328-12.75665-.93581-19.11034-1.4776a12.16892,12.16892,0,0,0-10.04771,3.3" fill="#061922"/><path d="M50.33705,92.695c-4.72833-.29552-9.45667-.591-14.185-.93581v93.72937q15.51484-1.1082,31.02968-1.82238V170.81105c-5.61489.197-11.22979.394-16.84468.64029Z" fill="#061922"/><path d="M69.98919,183.51844q7.24026-.36941,14.48052-.591V94.36963l-14.48052-.591Z" fill="#061922"/><path d="M111.2636,95.10845c-7.97906-.14775-15.95812-.394-23.93719-.64029v88.36073c4.72834-.14775,9.50592-.29552,14.23425-.44328V144.90372c3.25073,0,6.45221,0,9.65368-.04926a14.95122,14.95122,0,0,0,10.04771-3.5955,11.12006,11.12006,0,0,0,4.2358-8.81637V107.71734a11.30922,11.30922,0,0,0-4.2358-8.76711,14.93,14.93,0,0,0-9.99845-3.84178m0,37.33414c-3.25073,0-6.45221,0-9.65368-.04925V107.42182c3.25073.04926,6.4522.09851,9.65368.14775Z" fill="#061922"/><path d="M237.00773,141.40672a12.149,12.149,0,0,0,4.23578-9.40742V105.45168a11.24352,11.24352,0,0,0-4.23578-9.06263,13.33009,13.33009,0,0,0-9.99845-3.34923c-7.97907.44327-15.90887.83731-23.88794,1.13282V183.0259c4.72834.197,9.50592.394,14.23425.64029v-38.2207q5.91042,19.135,11.82084,38.861c4.72833.24627,9.45665.54179,14.23425.88656-4.13731-13.791-8.27458-27.28642-12.41188-40.58486a13.22971,13.22971,0,0,0,6.00893-3.20146m-19.65215-34.97c3.20147-.09851,6.45221-.24627,9.65368-.34478v26.05508c-3.20147.04926-6.45221.04926-9.65368.04926Z" fill="#061922"/><path d="M152.341,95.404q-11.9686.07388-23.93719,0v86.53835c4.7776-.04925,9.50592-.04925,14.28351-.04925V144.85447h9.70294a14.91345,14.91345,0,0,0,10.04771-3.54625,11.12006,11.12006,0,0,0,4.2358-8.81637V107.6681a10.90779,10.90779,0,0,0-4.2358-8.66861A14.45438,14.45438,0,0,0,152.341,95.404m0,37.03861h-9.70294v-24.676c3.25074,0,6.45221,0,9.70294-.04926Z" fill="#061922"/><path d="M169.4812,182.09009c10.39248.197,20.73571.49253,31.1282.88655V170.3185c-5.6149-.14776-11.22979-.29553-16.8447-.394V144.90372c3.20148,0,8.96414.04925,12.21486.04925V132.34408c-3.20148,0-8.96414.04926-12.21486.04926V107.37258c5.6149-.09851,11.22979-.24627,16.8447-.394V94.32041q-15.51485.591-31.1282.88655v86.88313" fill="#061922"/><path d="M283.7,117.32177V103.08752a12.85878,12.85878,0,0,0-14.13575-12.95367c-3.98952.34478-7.97907.64029-11.96859.93581a15.1141,15.1141,0,0,0-10.097,4.72834,13.1254,13.1254,0,0,0-4.088,9.60442V131.9993a12.52472,12.52472,0,0,0,4.088,9.45667,14.38987,14.38987,0,0,0,10.097,3.98954l11.96859.14775V173.323c-3.98952-.24627-7.97907-.44328-11.96859-.68954v-13.594l-14.185-.44327v13.29843a13.37441,13.37441,0,0,0,4.088,9.70294,15.40822,15.40822,0,0,0,10.097,4.58057c3.98952.29552,7.97907.64029,11.96859.93581a12.564,12.564,0,0,0,9.94921-3.20147A12.39055,12.39055,0,0,0,283.7,174.16028V145.69177a13.35208,13.35208,0,0,0-4.18654-9.99844,13.05415,13.05415,0,0,0-9.94921-4.088q-5.98428.07389-11.96859.14776V104.56512c3.98952-.197,7.97907-.44327,11.96859-.68954v13.88948c4.72832-.09851,9.45667-.29553,14.13575-.44329" fill="#061922"/><path d="M14.97306,91.66071c5.61489.49253,11.47605.93581,17.38647,1.37909v-.591c-6.05818-.44328-12.21486-.93581-18.22378-1.42835a12.00349,12.00349,0,0,0-1.32985-.04925,11.23472,11.23472,0,0,0-8.02831,3.103,11.68,11.68,0,0,0-3.79252,8.96414v71.122a12.02328,12.02328,0,0,0,2.46267,7.63429,12.42285,12.42285,0,0,1-1.82238-6.797V103.92482a11.79463,11.79463,0,0,1,3.84177-9.11189,11.41781,11.41781,0,0,1,8.17608-3.15222,11.93948,11.93948,0,0,1,1.32985,0" fill="#bec0c2"/><path d="M49.40123,94.17264v-.591c-4.088-.24627-8.22532-.49253-12.31336-.78806v91.71l.64029-.04926V93.43384h.09851c3.74326.24626,7.63429.49253,11.57456.7388" fill="#bec0c2"/><path d="M83.53389,95.84725v-.591c-4.13729-.14776-8.37309-.34478-12.60889-.54179v87.81893l.6403-.04925V95.35472h.0985c3.891.197,7.88056.34478,11.87009.49253" fill="#bec0c2"/><path d="M112.1009,96.68457a14.29142,14.29142,0,0,1,7.63429,2.21641,14.36568,14.36568,0,0,0-8.4716-2.8567c-7.63429-.14775-15.36709-.34478-22.95213-.64029v86.43983h.6403V96.09352h.09851c7.6343.24627,15.41635.44328,23.05063.591" fill="#bec0c2"/><path d="M228.83163,94.61592a12.15977,12.15977,0,0,1,6.797,1.87162,12.02336,12.02336,0,0,0-7.63428-2.46267,6.27924,6.27924,0,0,0-.93582.04926c-7.53577.44327-15.26857.788-23.00137,1.08358V182.1886l.64028.04926V95.74876h.09852c7.782-.29553,15.5641-.68955,23.09987-1.13283h.93583" fill="#bec0c2"/><path d="M142.73657,97.02933c3.497,0,7.04324,0,10.491-.04925h.14775a14.24031,14.24031,0,0,1,7.68355,2.06865,13.559,13.559,0,0,0-8.52085-2.70894h-.14775c-3.497,0-7.04324.04926-10.491.04926-4.088,0-8.32384,0-12.51038-.04926v84.61747h.64029V96.98009h.09851c4.18653,0,8.42233.04924,12.60888.04924" fill="#bec0c2"/><path d="M199.67358,95.30546c-9.65368.34478-19.50437.64029-29.2073.83732v85.06075h.64029V96.73383h.09851c9.40742-.197,19.01185-.44328,28.51776-.78806v-.64031Z" fill="#bec0c2"/><path d="M270.45082,91.66071a11.13074,11.13074,0,0,1,1.28057-.04926,11.49457,11.49457,0,0,1,6.20593,1.67462,11.01658,11.01658,0,0,0-7.04324-2.31492,10.29576,10.29576,0,0,0-1.23134.04925c-3.98952.34478-7.97907.64029-11.96859.93582a14.25539,14.25539,0,0,0-9.45667,4.43281,12.31242,12.31242,0,0,0-3.84176,8.96414V131.95a11.16413,11.16413,0,0,0,2.46267,7.28951,11.606,11.606,0,0,1-1.82238-6.45221V106.19047a12.49577,12.49577,0,0,1,3.891-9.11189,14.54482,14.54482,0,0,1,9.60443-4.48207c3.94028-.24626,7.92983-.591,11.91935-.9358" fill="#bec0c2"/><path d="M0,202.57952a1148.73271,1148.73271,0,0,1,283.7,0v-4.92535a1236.44357,1236.44357,0,0,0-283.7,0v4.92535Z" fill="#1d428a"/><path d="M34.23116,215.681a426.0652,426.0652,0,0,1,215.23769,0v-4.62984a437.39566,437.39566,0,0,0-215.23768,0c0,1.52688,0,3.103,0,4.62984" fill="#c8102e"/><path d="M113.677,81.46525A1138.26725,1138.26725,0,0,1,0,72.99365V77.919c40.09233,4.62983,80.48017,7.28951,120.91728,7.97907a49.0844,49.0844,0,0,1-7.24026-4.43281" fill="#1d428a"/><path d="M170.023,81.46525a49.0845,49.0845,0,0,1-7.24027,4.43281c40.43711-.68954,80.825-3.34923,120.91726-7.97907V72.99365a1138.27172,1138.27172,0,0,1-113.677,8.4716" fill="#1d428a"/><path d="M104.22035,72.00858A428.34064,428.34064,0,0,1,34.23116,59.89222V64.522A443.84943,443.84943,0,0,0,108.20988,76.6384a51.80542,51.80542,0,0,1-3.98953-4.62982" fill="#c8102e"/><path d="M179.47966,72.00858a45.05839,45.05839,0,0,1-4.03879,4.67908A442.1947,442.1947,0,0,0,249.41958,64.5713V59.94148a431.10806,431.10806,0,0,1-69.93992,12.0671" fill="#c8102e"/><path d="M98.11292,43.73709A43.73709,43.73709,0,1,1,141.85,87.47418,43.7326,43.7326,0,0,1,98.11292,43.73709" fill="#fff"/><path d="M141.85,0a43.73709,43.73709,0,1,0,43.73708,43.73709A43.76416,43.76416,0,0,0,141.85,0m31.62072,19.45512a39.48746,39.48746,0,0,1,8.22534,22.36108H165.19615a39.90235,39.90235,0,0,1,8.27458-22.36108m-63.1922,0a39.48746,39.48746,0,0,1,8.22534,22.36108H102.004a39.41293,39.41293,0,0,1,8.27458-22.36108m0,48.56392A39.48745,39.48745,0,0,1,102.0532,45.658h16.49992A40.13188,40.13188,0,0,1,110.27853,68.019m33.49236,15.5641V72.15634h-3.84176v11.4268a39.46,39.46,0,0,1-27.13867-12.55963A43.11435,43.11435,0,0,0,122.34563,45.658V41.8162a43.1143,43.1143,0,0,0-9.55517-25.36554A39.55643,39.55643,0,0,1,139.92913,3.891v11.3283h3.84176V3.891a39.46,39.46,0,0,1,27.13867,12.55964,43.11427,43.11427,0,0,0-9.55517,25.36554V45.658a43.11435,43.11435,0,0,0,9.55517,25.36554,39.46,39.46,0,0,1-27.13867,12.55963M173.47073,68.019A39.136,39.136,0,0,1,165.24539,45.658h16.49992A39.63635,39.63635,0,0,1,173.47073,68.019" fill="#061922"/><polygon points="132.147 25.415 132.147 61.912 151.602 61.912 151.602 56.888 137.319 56.888 137.319 25.415 132.147 25.415" fill="#c8102e"/><path d="M158.25141,37.62965V22.60734c0-2.26566-.88656-3.15222-3.15222-3.15222H128.55157c-2.2164,0-3.103.93581-3.103,3.15222V64.86682c0,2.26567.88656,3.15222,3.103,3.15222h26.54762c2.21641,0,3.15222-.93581,3.15222-3.15222V49.79526h-5.27013v13.594H130.71871V24.0357h22.26257v13.594h5.27013Z" fill="#1d428a"/><path d="M151.60219,55.45941V25.41479H138.944l-.14775,30.04462h5.0731l.09851-9.35816h2.56119l-.04926,9.35816Zm-5.0731-14.33276H143.9679v-10.688h2.56119Z" fill="#c8102e"/></svg>