<?xml version="1.0" encoding="UTF-8" standalone="no"?><svg xmlns:rdf="http://www.w3.org/1999/02/22-rdf-syntax-ns#" xmlns="http://www.w3.org/2000/svg" height="220.78112" width="295.70112" version="1.1" xmlns:cc="http://creativecommons.org/ns#" xmlns:dc="http://purl.org/dc/elements/1.1/" viewBox="0 0 295.70112 220.78112"><defs><style>.cls-1{fill:#8c734b;}.cls-2{fill:#0a2240;}.cls-3{fill:#ce0e2d;}.cls-4{fill:#fff;}</style></defs><title>New Orleans Pelicans logo</title><path class="cls-1" d="M294.0081,84.486l.93121.33862V68.14755a22.52541,22.52541,0,0,0-1.35449-7.78829,27.00025,27.00025,0,0,0-3.89415-7.19571,31.29232,31.29232,0,0,0-5.24864-5.33329,29.95293,29.95293,0,0,0-5.67192-3.47087c-1.26983-.84655-3.80949-2.03172-10.66658-4.82535-5.84121-2.28569-15.238-5.84122-27.42833-9.39674A358.58773,358.58773,0,0,0,199.448,20.48659h0c-.08466-.16931-10.75123-13.4602-26.75109-6.60312-.50794.254-1.10053.50793-1.60845.7619-2.37035,1.18518-4.48674,2.201-8.55019,1.10052-2.37036-.67724-5.41794-2.11638-4.23277-7.44967a5.817,5.817,0,0,1,2.709-3.64018,4.08411,4.08411,0,0,1,3.30155-.42328c2.11638.59259,3.0476,1.77776,2.709,3.55552a2.06063,2.06063,0,0,1-1.26983,1.60846,2.45,2.45,0,0,1-2.20105-.42328,1.7026,1.7026,0,0,0-1.94707,2.79363,5.55556,5.55556,0,0,0,5.41794.7619,5.278,5.278,0,0,0,3.2169-4.14812c.254-1.35448.59259-5.75656-5.07932-7.365a7.59343,7.59343,0,0,0-5.92587.67725A9.35174,9.35174,0,0,0,155.004,7.53433v.1693a18.87014,18.87014,0,0,0-1.69311-2.03172L147.80825,0l-5.50259,5.67191a18.87014,18.87014,0,0,0-1.69311,2.03172v-.1693a9.82115,9.82115,0,0,0-4.23277-5.84122,7.28869,7.28869,0,0,0-5.92587-.67725c-5.67191,1.69311-5.33329,6.09518-5.07932,7.365a5.95373,5.95373,0,0,0,3.2169,4.14812,5.55555,5.55555,0,0,0,5.41794-.7619,1.7026,1.7026,0,1,0-1.94707-2.79363,2.22328,2.22328,0,0,1-2.20105.42328,2.46477,2.46477,0,0,1-1.26983-1.60846c-.33861-1.77776.59259-2.96293,2.709-3.55552A4.08411,4.08411,0,0,1,134.602,4.656a6.50459,6.50459,0,0,1,2.709,3.64018c1.26983,5.33329-1.77777,6.85708-4.23277,7.44967-4.06345,1.10052-6.17984.08466-8.55019-1.10052-.50794-.254-1.10052-.50793-1.60845-.7619-15.99985-6.85708-26.66643,6.43381-26.83574,6.60312a.08291.08291,0,0,1-.08466.08465,366.67955,366.67955,0,0,0-39.788,9.22744A313.54643,313.54643,0,0,0,18.2009,43.76681l-2.201,1.01586v.33862a9.52268,9.52268,0,0,0-2.87828.93121C9.56605,47.661,6.09519,49.43871,2.62432,51.13182L0,52.48631v9.05812A11.02117,11.02117,0,0,0,1.26983,67.047a3.04045,3.04045,0,0,0,.59259.84656v10.074A14.136,14.136,0,0,0,.08466,84.65532a9.07046,9.07046,0,0,0,1.77776,5.67191v20.99453l.254.59258a23.17512,23.17512,0,0,0,13.4602,13.03692l-.254.16931s5.24863,8.46553,13.37554,10.2433l-1.52379.67725s5.75656,9.31208,16.84641,11.25916l-1.60845.76189a33.20548,33.20548,0,0,0,18.3702,9.14278,91.46621,91.46621,0,0,0,174.2207,0,33.20549,33.20549,0,0,0,18.37022-9.14278l-1.60844-.76189c11.08985-1.94708,16.8464-11.25916,16.8464-11.25916l-1.52378-.67725c8.12692-1.77777,13.37553-10.2433,13.37553-10.2433l.50794-.67725a24.06249,24.06249,0,0,0,14.73-21.58711V92.18963A33.823,33.823,0,0,0,294.0081,84.486ZM193.69153,19.64q-9.90468-1.52379-20.31729-2.28569c.16931-.08466.42328-.16931.59259-.254A18.785,18.785,0,0,1,193.69153,19.64Zm-72.211-2.53966a1.3644,1.3644,0,0,1,.59258.33862c-6.94174.50793-13.79882,1.35449-20.40194,2.37036C105.48066,16.84641,112.507,13.20623,121.48052,17.10037Z"/><path class="cls-2" d="M286.30448,77.375l4.91,1.94708V68.14755a21.491,21.491,0,0,0-1.10051-6.51846,24.11251,24.11251,0,0,0-3.30155-6.17985,26.4707,26.4707,0,0,0-4.57139-4.656,24.72521,24.72521,0,0,0-5.164-3.13225c-.93121-.67724-3.47087-1.94707-10.2433-4.57139-5.75655-2.28569-15.06864-5.75656-27.08971-9.31208-19.72468-5.92588-49.43871-12.86761-80.42258-13.29089a6.74034,6.74034,0,0,0-4.82535-4.31742c-.254-4.06346-3.2169-7.1957-3.80949-7.873l-2.87827-2.96294-2.87828,2.96294c-.59259.59258-3.55552,3.80949-3.80949,7.873a6.61753,6.61753,0,0,0-4.82535,4.23277c-30.47593.50793-59.59737,7.28035-78.98344,13.03692A315.89844,315.89844,0,0,0,19.80947,47.23768v2.28569s-.254-.16931-.42328-.254a4.61342,4.61342,0,0,0-1.86241-.42328,7.44968,7.44968,0,0,0-2.79363.67725c-3.47087,1.60845-6.94174,3.30155-10.328,4.99466l-.59259.254v6.85709a6.62835,6.62835,0,0,0,.84655,3.64018A3.98544,3.98544,0,0,0,5.75668,66.5391V78.98343A11.68568,11.68568,0,0,0,3.97892,84.74a5.08836,5.08836,0,0,0,1.77776,4.23277v21.75642a19.64147,19.64147,0,0,0,13.62951,11.42847c.254.08466.50793.08466.7619.16931h.08465a21.308,21.308,0,0,0,5.33329.42327h0c-1.86242.93122-3.64018,1.77777-5.5026,2.79363,0,.08466,5.5026,9.05812,18.53952,7.78829-2.201,1.01586-4.31742,2.11638-6.51846,3.13225,0,.08466,6.26449,8.88881,20.148,8.7195-3.2169,1.60844-5.07932,2.62432-5.07932,2.62432a27.518,27.518,0,0,0,16.67711,6.77243,87.758,87.758,0,0,0,168.12551,0,28.35751,28.35751,0,0,0,16.67712-6.77243s-1.94706-1.01586-5.07932-2.62432c13.79881.254,20.06332-8.5502,20.148-8.7195-2.20105-1.10053-4.31743-2.11639-6.51847-3.13225,13.12158,1.26983,18.53951-7.619,18.53951-7.78829-1.86243-.93121-3.64017-1.86241-5.5026-2.79363a18.69155,18.69155,0,0,0,10.92054-2.53966,20.42359,20.42359,0,0,0,10.75124-17.35434V92.18966C291.72242,85.33258,286.30448,77.375,286.30448,77.375Z"/><path class="cls-3" d="M206.13586,162.03032c1.60845,1.26983,3.30155,2.53966,4.91,3.80949,0-.16932-19.47073,5.33327-33.43886-.7619l-1.5238-.76189a29.50239,29.50239,0,0,1-56.88839,0c-.50794.254-.93121.50794-1.5238.76189-13.88347,6.0952-33.43886.5926-33.43886.7619,1.60845-1.26983,3.30155-2.53966,4.91-3.80949a39.277,39.277,0,0,1-17.35434-1.60845,81.9058,81.9058,0,0,0,151.53306,0A37.04976,37.04976,0,0,1,206.13586,162.03032Z"/><path class="cls-4" d="M139.59675,28.95212a6.602,6.602,0,0,1-3.2169-3.55552C87.27975,26.66643,38.2643,44.27474,38.43362,44.952a4.75769,4.75769,0,0,0-3.30156,3.89414v1.77777A309.48422,309.48422,0,0,1,139.68141,29.714Z"/><path class="cls-4" d="M260.146,46.22181c.08466-.67725-51.30115-19.55538-101.07848-20.82521a6.94213,6.94213,0,0,1-3.2169,3.55552v.67724a317.62386,317.62386,0,0,1,107.59693,22.1797V50.03129A4.76905,4.76905,0,0,0,260.146,46.22181Z"/><path class="cls-3" d="M153.14161,20.06331c-3.21691-.42328-3.72483,4.14811-3.80949,5.6719h-1.01586c0-4.31742,2.11638-6.09518,2.11638-8.97346s-2.62432-5.58725-2.62432-5.58725-2.62432,2.709-2.62432,5.58725,2.03172,4.656,2.03172,8.97346h-1.01586c-.08466-1.5238-.59258-6.09518-3.80949-5.6719-3.47087.42327-3.0476,5.164,0,5.58725,0,0-.59259-2.11638,1.10052-2.11638,1.26983,0,1.60845,1.43913,1.69311,2.201h-1.5238v1.69311h3.38621a3.20872,3.20872,0,0,1-1.5238,2.11638,1.84824,1.84824,0,0,0,1.43914,1.01586,3.3023,3.3023,0,0,0,.84656,2.03173,3.15147,3.15147,0,0,0,.84655-2.03173A1.84824,1.84824,0,0,0,150.094,29.5447a3.20875,3.20875,0,0,1-1.5238-2.11638h3.30155V25.73521h-1.43914c.08466-.7619.42328-2.201,1.69311-2.201,1.69311,0,1.10052,2.11638,1.10052,2.11638,2.963-.42327,3.30158-5.164-.08463-5.58725"/><path class="cls-4" d="M137.39572,53.16355V42.58163a7.67707,7.67707,0,0,0-.84655-3.80949,6.66878,6.66878,0,0,0-2.20105-2.62431,8.35311,8.35311,0,0,0-3.30155-1.43914,16.32342,16.32342,0,0,0-4.1481-.254,13.40015,13.40015,0,0,0-4.14811.84656,11.95592,11.95592,0,0,0-3.38622,1.86241,7.77717,7.77717,0,0,0-2.201,2.96294,9.813,9.813,0,0,0-.84655,3.9788V54.772a2.61762,2.61762,0,0,0-1.94708,2.455,1.98808,1.98808,0,0,0,1.94708,2.03172V71.19513a7.89747,7.89747,0,0,0,.84655,3.80949,6.41679,6.41679,0,0,0,2.201,2.53966,8.143,8.143,0,0,0,3.38622,1.35449,17.286,17.286,0,0,0,8.29621-.50792,10.29621,10.29621,0,0,0,3.30155-1.77777,7.48494,7.48494,0,0,0,2.20105-2.87828,9.40576,9.40576,0,0,0,.84655-3.89415V57.90424a2.43327,2.43327,0,0,0,2.11639-2.28569A2.29457,2.29457,0,0,0,137.39572,53.16355ZM131.5545,69.58668a4.41428,4.41428,0,0,1-.42328,1.94708,4.3071,4.3071,0,0,1-1.10052,1.35449,8.03962,8.03962,0,0,1-1.43914.84655,5.46556,5.46556,0,0,1-1.60845.33862,11.34484,11.34484,0,0,1-1.6931-.08466,4.7625,4.7625,0,0,1-1.5238-.59259,3.74394,3.74394,0,0,1-1.10053-1.18517,4.15082,4.15082,0,0,1-.42327-1.94707V43.68215a4.41442,4.41442,0,0,1,.42327-1.94708,4.307,4.307,0,0,1,1.10053-1.35448A4.43889,4.43889,0,0,1,125.29,39.534a6.01557,6.01557,0,0,1,1.6931-.33863,4.948,4.948,0,0,1,1.60845.16931,3.22118,3.22118,0,0,1,1.43914.67725,4.94832,4.94832,0,0,1,1.10052,1.18517,4.41425,4.41425,0,0,1,.42328,1.94708Z"/><path class="cls-4" d="M24.80411,81.77706c0,.08466,0,.16931-.08465.08466l-.16931-.16931c-.16931-.50793-7.111-23.70349-7.53433-24.71935-.33862-1.10053-.59259-1.60845-.59259-1.69311a.878.878,0,0,0-.50793-.67725,1.18466,1.18466,0,0,0-1.01586.16931c-2.11639,1.01586-4.14812,1.94708-6.2645,2.96294V59.682a2.89412,2.89412,0,0,0,.254,1.43914,1.73285,1.73285,0,0,0,.67725.67725,1.67445,1.67445,0,0,0,.9312.16931v17.693a4.02434,4.02434,0,0,0-1.77776,3.13224,1.27569,1.27569,0,0,0,1.77776,1.35449v24.97333c1.60846-.76189,3.21691-1.5238,4.91-2.28569V75.51257c0-.254,0-.33862.08466-.33862l.08465.08466a16.38052,16.38052,0,0,0,.59259,1.60845c.33862,1.01586,7.1957,23.87281,7.28036,24.04211a7.07674,7.07674,0,0,0,.59259,1.35449.67737.67737,0,0,0,1.01586.16931c1.10052-.42327,2.201-.93121,3.30156-1.35449a2.48881,2.48881,0,0,0,1.01587-.84655,2.11614,2.11614,0,0,0,.33862-1.18517V75.59723a3.727,3.727,0,0,0,1.60845-2.79363,1.40623,1.40623,0,0,0-1.60845-1.5238V53.92546a2.12421,2.12421,0,0,1,.16931-.84656c.08465-.1693.254-.42327.33862-.59258a9.36869,9.36869,0,0,0,.93121-1.35449,3.255,3.255,0,0,0,.42328-1.77777V47.661c-2.2857.93121-4.57139,1.86242-6.85709,2.87828V81.77706Z"/><path class="cls-4" d="M256.67511,82.20034c0,.08466,0,.08466-.08466,0s-.08466-.16931-.16932-.254c-.16932-.59259-.42328-1.69311-.93122-3.38621-.42327-1.69311-1.01587-3.64019-1.60844-5.84122s-1.18517-4.57138-1.86243-6.94173c-.67723-2.455-1.26983-4.656-1.86243-6.68777s-1.10051-3.72483-1.43915-5.164a17.79774,17.79774,0,0,1-.5926-2.20105,2.62371,2.62371,0,0,0-.50793-1.10052,3.04394,3.04394,0,0,0-1.01588-.67724c-2.201-.67725-4.31743-1.43914-6.51847-2.11639v1.94708a5.09112,5.09112,0,0,0,.254,1.69311,3.96012,3.96012,0,0,0,.67723,1.18516,3.60873,3.60873,0,0,0,1.01587.93122V67.38565a1.60474,1.60474,0,0,0-1.86243,1.69311,3.25121,3.25121,0,0,0,1.86243,2.79363V92.105c1.69311.50794,3.38622,1.10052,5.07932,1.60845V66.03116c0-.254,0-.33861.08466-.254,0,.08466.08466.08466.08466.254a19.57011,19.57011,0,0,0,.5926,2.11639c.42328,1.35449.84655,3.04759,1.43915,5.07932s1.18517,4.23276,1.86243,6.60312,1.26983,4.57138,1.86243,6.68776,1.10051,3.89415,1.52378,5.33329q.63492,2.2857.7619,2.53966a16.40527,16.40527,0,0,0,.5926,1.86242A1.97584,1.97584,0,0,0,256.929,97.269l3.30155,1.26983a.8702.8702,0,0,0,1.01588-.08466,1.15633,1.15633,0,0,0,.33861-.93122V78.72946a1.40621,1.40621,0,0,0,1.60845-1.5238,3.59118,3.59118,0,0,0-1.60845-2.79362V60.95184a1.09388,1.09388,0,0,1,.16932-.67724l.33862-.33862a2.85911,2.85911,0,0,0,.93121-.59259,1.84156,1.84156,0,0,0,.42328-1.43913V56.21115c-2.2857-.93121-4.656-1.77777-6.94175-2.62432V82.20034Z"/><path class="cls-4" d="M285.62722,86.60241a26.93591,26.93591,0,0,0-2.62432-4.48673q-1.26983-1.77775-2.79362-3.55552a1.07356,1.07356,0,0,0,.08467-.50794,4.10826,4.10826,0,0,0-2.20105-3.30156,1.55217,1.55217,0,0,0-1.35449-.08466c-.16932-.1693-.33862-.42327-.50794-.59258a37.01393,37.01393,0,0,1-2.62432-3.30155,5.10727,5.10727,0,0,1-1.10051-2.709V58.83547a1.09234,1.09234,0,0,1,.42328-.93121,1.85823,1.85823,0,0,1,1.01587-.42328,6.36467,6.36467,0,0,1,1.26983,0,7.4498,7.4498,0,0,1,1.26983.42328c.33862.1693.7619.42327,1.26984.67724.42327.33862.93121.67725,1.26983,1.01586a6.06672,6.06672,0,0,1,.93121,1.26983,3.12074,3.12074,0,0,1,.42328,1.43914v2.201a5.23565,5.23565,0,0,0,.93121,2.79362,5.473,5.473,0,0,0,2.37034,2.03173c.84655.42327,1.69311.76189,2.455,1.18517V66.20047a14.28108,14.28108,0,0,0-.67723-4.23277,15.9311,15.9311,0,0,0-2.03173-3.72483,14.85385,14.85385,0,0,0-3.04759-3.04759,17.49845,17.49845,0,0,0-3.80949-2.2857,15.01655,15.01655,0,0,0-3.8095-1.18517,5.90529,5.90529,0,0,0-3.04759.254,4.30813,4.30813,0,0,0-2.03173,1.86242,7.636,7.636,0,0,0-.76189,3.72483v7.619a10.60543,10.60543,0,0,0,1.01588,4.57138,20.79487,20.79487,0,0,0,2.62432,4.06346,45.19542,45.19542,0,0,0,3.30155,3.72483,2.50447,2.50447,0,0,0-.16932.84655,3.85982,3.85982,0,0,0,2.201,3.21691,1.50845,1.50845,0,0,0,1.69311-.08466,20.55465,20.55465,0,0,1,2.37034,3.38621,7.78727,7.78727,0,0,1,1.01587,3.80949V99.63932a1.67472,1.67472,0,0,1-.42327,1.18517,3.37874,3.37874,0,0,1-1.10051.59258,4.10133,4.10133,0,0,1-1.43915,0,5.13884,5.13884,0,0,1-1.52379-.42327,7.37477,7.37477,0,0,1-1.52379-.93122c-.50793-.42328-1.01587-.84655-1.43915-1.26983a9.24193,9.24193,0,0,1-1.10051-1.43914,3.44966,3.44966,0,0,1-.42327-1.5238V93.29015a3.78434,3.78434,0,0,0-.7619-2.37035,5.3971,5.3971,0,0,0-2.2857-1.69311c-.93121-.33861-1.77777-.76189-2.709-1.10052v4.40208a10.50337,10.50337,0,0,0,.84655,4.23277,12.31208,12.31208,0,0,0,2.201,3.64018,17.834,17.834,0,0,0,3.21689,2.96293,36.019,36.019,0,0,0,3.89415,2.2857,20.75723,20.75723,0,0,0,3.89415,1.26983,6.74065,6.74065,0,0,0,3.21689-.08466,3.6682,3.6682,0,0,0,2.20105-1.69311,6.02778,6.02778,0,0,0,.84655-3.47088V91.17376A9.852,9.852,0,0,0,285.62722,86.60241Z"/><path class="cls-4" d="M88.88821,61.37512c-.254,2.03172-.50794,4.06346-.67725,6.09518-.254,2.03172-.42327,3.72483-.67724,5.33329-.16931,1.5238-.33863,2.79363-.50793,3.72483-.08466.93121-.16931,1.43914-.254,1.43914q-.76189-4.06346-1.26983-7.365c-.33862-2.201-.7619-4.57139-1.26983-7.28037-.42328-2.709-.93121-5.33329-1.35449-7.9576-.50793-2.62432-.9312-4.99466-1.35448-7.28036-.42328-2.201-.7619-3.97879-1.10052-5.24862-.08466-.42328-.42328-.67725-1.10053-.84656a5.02357,5.02357,0,0,0-1.94707,0,10.82063,10.82063,0,0,0-1.86242.7619,1.88064,1.88064,0,0,0-1.10052,1.35449c-.33862,1.35448-.67724,3.2169-1.10052,5.67191-.42328,2.37035-.84655,4.99466-1.35448,7.87295-.42328,2.79363-.93121,5.6719-1.35449,8.55019s-.84655,5.58726-1.26983,7.9576c-.33862,2.37035-.7619,5.07932-1.26983,8.04226,0,0-.08465-.42328-.254-1.35449s-.254-2.11639-.50793-3.55552c-.16931-1.43914-.33862-3.13225-.59258-4.99467s-.50793-3.80949-.67725-5.75656c-.50793-4.57138-2.455-21.16384-2.455-21.16384L56.4652,47.407v1.77776a2.51365,2.51365,0,0,0,.42327,1.5238,1.98986,1.98986,0,0,0,.84656.67725c.1693.08466.33862.254.50793.33861a1.27513,1.27513,0,0,1,.33862.67725c.59258,4.656,1.10052,8.97347,1.5238,13.03692a3.18178,3.18178,0,0,0-1.43914,2.53966,1.63575,1.63575,0,0,0,1.94708,1.6931v.254c.254,2.20105.50793,4.40208.76189,6.51846s.50794,3.9788.67725,5.67191q.381,2.53965.50793,4.06346a10.54884,10.54884,0,0,1,.16931,1.6931,1.073,1.073,0,0,0,.33862.7619.7495.7495,0,0,0,.93121.1693l6.60312-1.77776a2.03156,2.03156,0,0,0,1.01586-.59259,4.25873,4.25873,0,0,0,.67725-1.26983c1.6931-9.90467,3.30156-19.7247,4.99466-29.54472,1.60845,9.05812,3.21691,18.2009,4.91,27.34368a2.04963,2.04963,0,0,0,.67725.93121,1.31262,1.31262,0,0,0,1.01586.16931l6.60311-1.26983a1.388,1.388,0,0,0,.93122-.59259,2.9169,2.9169,0,0,0,.42327-.93121q0-.127.254-1.77777t.50794-4.31742c.254-1.77777.42328-3.72483.67725-6.01054q.38094-3.30156.76189-6.85709v-.254a2.8035,2.8035,0,0,0,1.94707-2.53966,1.83791,1.83791,0,0,0-1.43913-1.86241c.50793-4.23277,1.01586-8.80416,1.60844-13.71416a2.53522,2.53522,0,0,1,.33862-.84656,3.6812,3.6812,0,0,1,.50794-.59258,2.91872,2.91872,0,0,0,.84655-1.10052,3.57921,3.57921,0,0,0,.42328-1.69311V37.92556c-2.455.42327-4.82536.7619-7.19571,1.26983C91.42787,39.19542,89.48079,56.54977,88.88821,61.37512Z"/><path class="cls-4" d="M234.834,67.555a3.343,3.343,0,0,0-1.94707-2.79363c-.254-1.60844-.50793-3.2169-.84655-4.82535-.33862-2.201-.67723-4.14811-1.01588-5.92587-.254-1.77777-.50793-3.21691-.76189-4.40208-.16932-1.10052-.33861-1.77776-.33861-1.94708a4.30305,4.30305,0,0,0-.93122-2.11638,3.92664,3.92664,0,0,0-2.201-1.35448c-2.62432-.67725-5.24864-1.35449-7.87294-1.94708V43.5975a3.95642,3.95642,0,0,0,1.43915,3.47086.65908.65908,0,0,1,.254.59259,3.17549,3.17549,0,0,1-.08466.84655s-.08466.50793-.254,1.35449-.42327,2.03172-.67723,3.47087-.5926,3.0476-.93121,4.91c-.16933.93122-.33862,1.77777-.50794,2.709a1.78134,1.78134,0,0,0-2.28571,1.77777,3.15973,3.15973,0,0,0,1.43915,2.455c-1.1005,5.6719-3.80949,19.47073-3.80949,19.47073l5.58726,1.26983s1.60845-9.4814,1.69311-9.65071c.08466-.76189.42328-1.10052,1.01587-.93121,2.201.50794,4.48673,1.10052,6.68777,1.69311a1.98492,1.98492,0,0,1,.84655.42327,1.46247,1.46247,0,0,1,.42328,1.10053c0,.1693,1.26983,10.41261,1.26983,10.41261,1.94706.59258,3.89415,1.10052,5.84121,1.6931,0,0-2.37033-14.39141-3.64017-21.50245C234.32608,68.9941,234.834,68.40151,234.834,67.555ZM228.90814,71.957c-.16932.1693-.33861.1693-.67723.08466-1.86243-.50794-3.64017-.93122-5.5026-1.43914a.97978.97978,0,0,1-.5926-.42328.65842.65842,0,0,1-.16932-.67724s.08466-.33862.16932-.93122.254-1.35449.33862-2.28569c.16932-.93121.33862-1.94708.50794-3.13224s.42327-2.37036.67723-3.55553c.5926-3.2169,1.18517-6.43381,1.77777-9.73536h.08466c.5926,3.55552,1.18517,7.02639,1.77777,10.58192.254,1.35449.42327,2.62432.67723,3.89415.16932,1.26983.33861,2.455.50793,3.38621.16933,1.01586.254,1.86242.42328,2.53966a9.57655,9.57655,0,0,0,.16932,1.01586C229.16212,71.61842,229.07746,71.87238,228.90814,71.957Z"/><path class="cls-4" d="M163.55422,73.56548a1.77051,1.77051,0,0,0-.50794-.33861c-.16931-.08466-.16931-.33862-.16931-.7619V62.47564a11.88026,11.88026,0,0,0-.67724-3.9788,5.73564,5.73564,0,0,0-2.03173-2.79363c-.42327-.42327-.50793-.84655-.08466-1.18517a6.47311,6.47311,0,0,0,2.03173-2.455,7.38128,7.38128,0,0,0,.76189-3.38621V44.10544a14.61762,14.61762,0,0,0-.50794-3.9788,8.01947,8.01947,0,0,0-1.6931-3.13224A8.56327,8.56327,0,0,0,157.713,34.878a11.01177,11.01177,0,0,0-4.40208-.84655c-4.1481-.08466-8.21156-.08466-12.35968,0v1.69311a3.55768,3.55768,0,0,0,.42328,1.86241,3.21958,3.21958,0,0,0,.93121.93121.84518.84518,0,0,1,.42328.33862,1.6904,1.6904,0,0,1,.1693.7619V52.9096a2.34785,2.34785,0,0,0-1.86241,2.28569,2.19248,2.19248,0,0,0,1.86241,2.201V77.629h5.84122V58.41219c0-.50793.254-.84655.76189-.84655,1.26983,0,2.455,0,3.72483.08466a3.34083,3.34083,0,0,1,2.79363,1.18517,5.18725,5.18725,0,0,1,.84655,3.21691v12.783a3.095,3.095,0,0,0,.7619,2.11638,3.13251,3.13251,0,0,0,2.28569.84656c1.6931.08466,3.30155.1693,4.99466.254V75.76655a2.51367,2.51367,0,0,0-.42328-1.5238C164.23146,74.07342,163.89285,73.81945,163.55422,73.56548ZM156.9511,48.59216a5.18722,5.18722,0,0,1-.84655,3.2169,3.34083,3.34083,0,0,1-2.79363,1.18517c-1.26983,0-2.53966,0-3.80949-.08466a1.20337,1.20337,0,0,1-.50794-.16931.46556.46556,0,0,1-.254-.42327V39.788a.82542.82542,0,0,1,.93121-.84656c1.18517,0,2.37036,0,3.55553.08466a3.17282,3.17282,0,0,1,2.79363,1.26983,5.35384,5.35384,0,0,1,.84655,3.2169v5.07932Z"/><path class="cls-4" d="M182.26305,62.47564c-.59258.16931-.93121.76189-.93121,1.60845,0,.254.08466,10.074-.08466,10.328a.76855.76855,0,0,1-.59258.254c-1.77777-.1693-3.47088-.33861-5.24863-.50793a.6366.6366,0,0,1-.59259-.42328,2.50448,2.50448,0,0,1-.16931-.84655c0-10.66658,0-21.33315-.08466-32.08438a1.82126,1.82126,0,0,1,.16931-.84655.84525.84525,0,0,1,.42328-.33863,3.22,3.22,0,0,0,.93121-.9312,2.44085,2.44085,0,0,0,.50794-1.60846V35.30126c-3.30155-.33862-6.68777-.59258-9.98933-.7619v1.77776a2.86024,2.86024,0,0,0,.50793,1.69311,12.061,12.061,0,0,0,.93122,1.01586c.16931.16931.33861.254.50793.42328a1.82106,1.82106,0,0,1,.16931.84655v13.2909a2.10817,2.10817,0,0,0-1.86241,2.11638,2.53927,2.53927,0,0,0,1.86241,2.37035V78.30617c5.24863.33862,10.49726.84656,15.7459,1.43914.42328.08466.76189.08466,1.18517.16931a1.9297,1.9297,0,0,0,.93122-.254,1.20678,1.20678,0,0,0,.50793-1.01586V62.645c-.84655-.08466-1.6931-.16931-2.53966-.33862A6.45051,6.45051,0,0,0,182.26305,62.47564Z"/><path class="cls-4" d="M52.48641,48.84612a.311.311,0,0,0-.254.08466h-.08465c-6.09518,1.94707-12.19037,4.06345-18.2009,6.4338v1.69311a2.9829,2.9829,0,0,0,.33862,1.69311,1.22363,1.22363,0,0,0,.84655.59258l.50794.254a.91292.91292,0,0,1,.254.76189V73.56548a3.60474,3.60474,0,0,0-1.77776,2.96294,1.3977,1.3977,0,0,0,1.77776,1.5238v20.148a7.323,7.323,0,0,0,1.43914-.59258c2.62432-1.01586,5.24863-1.94708,7.78829-2.79363,1.10052-.42328,2.201-.76189,3.38622-1.10052.84655-.254,1.6931-.59259,2.53966-.84656.33862-.08466.67724-.254,1.01586-.33861h.08465a1.1278,1.1278,0,0,0,.42328-.254,2.87329,2.87329,0,0,0,.50793-.50794,2.02264,2.02264,0,0,0,.42328-1.18517V84.65534h0V78.30619c-.84656.254-1.60846.50793-2.455.76189a6.51208,6.51208,0,0,0-2.28569,1.18517A2.3016,2.3016,0,0,0,47.915,82.285c0,.254.08466,6.34915-.08465,6.60312a1.1381,1.1381,0,0,1-.59259.50794c-.76189.254-1.43913.50794-2.201.76189l-3.04759,1.01586c-.42328.16931-.67725,0-.67725-.59258V77.03634a1.07532,1.07532,0,0,1,.84655-1.10052c2.2857-.84655,4.57139-1.60844,6.85709-2.37035a1.07532,1.07532,0,0,0,.84655-1.10052V69.16339c0-.33861-.08465-.50793-.33862-.59258a.72307.72307,0,0,0-.59259,0c-2.28569.76189-4.57139,1.5238-6.85708,2.37035-.59258.16931-.84655,0-.84655-.50794V58.24286a.96123.96123,0,0,1,.254-.67725c.1693-.254.33862-.42327.50793-.42327,1.86241-.67725,3.64018-1.26983,5.50259-1.86242.08466,0,.16931.08466.254.16931.16931.16931.08466,6.34915.08466,6.60312,0,.93121.254,1.35449.84655,1.43914a5.97709,5.97709,0,0,0,2.28569-.33862c.84655-.254,1.60845-.50793,2.455-.76189V56.04183h0V49.862a.889.889,0,0,0-.42328-.7619C52.99434,48.93078,52.74038,48.84612,52.48641,48.84612Z"/><path class="cls-4" d="M208.76018,40.12663a.311.311,0,0,0-.254-.08466h-.08466c-6.26449-1.18517-12.529-2.28569-18.79348-3.13224v1.69311a4.07438,4.07438,0,0,0,.33862,1.86241,2.188,2.188,0,0,0,.93121,1.01586l.50794.50793a1.26388,1.26388,0,0,1,.254.84656V56.04183a1.8967,1.8967,0,0,0-1.86242,1.94707,2.73072,2.73072,0,0,0,1.86242,2.455v20.148l1.52379.254,8.12691,1.26983c1.18517.16931,2.2857.42327,3.47087.59258.84656.16931,1.69311.33862,2.62433.50794a4.28872,4.28872,0,0,0,1.1005.16931h.50794a.91452.91452,0,0,0,.5926-.254,1.09237,1.09237,0,0,0,.42328-.93122V69.84064c-.84656-.16931-1.69311-.33862-2.455-.50794a5.17156,5.17156,0,0,0-2.28571,0c-.5926.16931-.84655.67725-.84655,1.60845,0,.254.08466,6.43381-.08466,6.60312a.52347.52347,0,0,1-.5926.16931c-.76189-.16931-1.52379-.254-2.2857-.42328-1.01588-.16931-2.11639-.33862-3.13226-.50794-.50794-.08466-.67724-.42327-.67724-.93121V62.30629c0-.50793.33862-.76189.93122-.67724,2.37034.42327,4.7407.76189,7.111,1.26983.5926.08466.84656-.08466.84656-.67725v-3.2169a.82523.82523,0,0,0-.33862-.7619,4.85518,4.85518,0,0,0-.5926-.33861c-2.37034-.42328-4.656-.84656-7.02638-1.26983-.5926-.08466-.93122-.42328-.93122-.93122V43.5128a.76857.76857,0,0,1,.254-.59258.7143.7143,0,0,1,.5926-.16931c1.86243.33862,3.80949.59258,5.67192,1.01586l.254.254c.16932.254.08466,6.34916.08466,6.60311a2.35617,2.35617,0,0,0,.84656,1.94708,6.11648,6.11648,0,0,0,2.2857.84655c.84655.16931,1.69311.33862,2.455.50794v-12.529a1.54343,1.54343,0,0,0-.42328-.93121C209.35275,40.38059,209.0988,40.21128,208.76018,40.12663Z"/><path class="cls-4" d="M99.97806,172.86622l4.14811,3.97881a3.56478,3.56478,0,0,1,1.43914,2.87827,3.09309,3.09309,0,0,1-.93122,1.69311,2.8113,2.8113,0,0,1-1.77776.93121c-1.18517.16933-2.03173-.59259-2.87828-1.43915l-2.37035-2.2857-2.455,2.53966L93.45959,179.554Zm-1.26983,4.57138,2.11639,2.03172c.50793.50794,1.26983,1.26983,2.11638.33862a1.3409,1.3409,0,0,0,.42328-1.01588c0-.42327-.254-.67723-1.01586-1.35449l-1.86242-1.86242Z"/><path class="cls-4" d="M111.06791,182.51692l7.44967,4.48672-.84656,1.43915-5.41793-3.30155-1.10052,1.77777,5.24862,3.13226-.84655,1.43915-5.24863-3.13226-1.18517,1.94706,5.67191,3.38622-.84656,1.43915-7.70364-4.57139Z"/><path class="cls-4" d="M124.02018,189.45864l2.201.7619-2.37035,7.1957,4.91,1.60845-.50794,1.60844-7.111-2.37034Z"/><path class="cls-4" d="M136.80314,192.92952l2.28569.33861-1.43914,9.22743-2.28569-.33862Z"/><path class="cls-4" d="M156.61248,199.70194a4.04746,4.04746,0,0,1-1.10052,2.03173,6.28012,6.28012,0,0,1-4.31743,1.60844c-3.30155.16932-5.6719-1.52378-5.84121-4.7407-.16931-3.47087,2.62432-5.07932,5.5026-5.164,1.10052-.08466,4.1481.08466,5.50259,2.709l-2.53966.42328a2.94716,2.94716,0,0,0-2.87827-1.35449,3.26278,3.26278,0,1,0,.254,6.51847,2.91163,2.91163,0,0,0,2.87827-1.86243Z"/><path class="cls-4" d="M164.90871,191.575l2.455-.67724,6.94173,7.70365-2.53966.76189-1.26983-1.43915-4.57138,1.35449-.254,1.94706-2.455.76189Zm2.201,2.2857a1.16884,1.16884,0,0,1-.254-.33862.43982.43982,0,0,1-.16931-.33861v.76189l-.50793,3.38622,3.13224-.93122Z"/><path class="cls-4" d="M176.33718,187.42692l2.03172-1.18517,6.60312,2.11638c.84656.254.93122.33862,1.86242.67724-.50794-.7619-.67725-.93122-1.10052-1.60845l-2.455-4.06345,1.94707-1.18517,4.82535,8.04226-2.11638,1.10051-6.68777-2.11638c-.67724-.254-1.01586-.33862-1.77776-.67724a7.31107,7.31107,0,0,1,.84655,1.3545l2.62432,4.40208-1.94708,1.10051Z"/><path class="cls-4" d="M195.55394,181.755a3.37951,3.37951,0,0,0,3.30155-1.10051c.42328-.42328,1.60845-1.69311.84656-2.53966-.50794-.50794-1.01588-.16932-1.43915.16932-.33862.16932-1.94707,1.35449-2.28571,1.60844-.76189.50794-2.53966,1.69311-4.06346.16933a2.4135,2.4135,0,0,1-.67724-1.18517c-.33862-1.43915.67724-2.87828,1.77776-3.89415a7.54968,7.54968,0,0,1,2.96294-1.86243,4.22633,4.22633,0,0,1,2.11639,0l-1.18517,1.94706a1.51325,1.51325,0,0,0-1.10051,0,6.62057,6.62057,0,0,0-1.60845,1.01587c-.76189.67724-1.35449,1.60845-.76189,2.201.42327.42328.93121.16932,1.5238-.16932.33861-.16932,1.94707-1.26983,2.28569-1.52379.93121-.5926,2.53966-1.60844,3.97881-.16932,2.11638,2.11638-.42328,4.74071-1.26983,5.5026-1.10051,1.10051-2.96294,2.53966-5.5026,1.6931Z"/><path class="cls-4" d="M136.97245,137.057s-33.43887-11.1745-18.87815-46.81441c0,0-35.38593,1.43914-83.80879,20.99453,0,0-3.38621,1.43914-5.41794,2.11638a11.34085,11.34085,0,0,1-9.73537-.254S63.40694,89.904,120.38,84.57068c7.53432-.67725,8.46554.42327,6.51846,3.2169C125.29,90.2426,104.97272,116.06248,136.97245,137.057Z"/><path class="cls-1" d="M107.25841,100.31658C78.64491,104.04141,50.624,114.03074,50.624,114.03074c4.7407,8.46553,17.693,4.91,17.693,4.91,24.29608-6.85709,35.132-9.22743,38.60283-9.90467A44.35668,44.35668,0,0,1,107.25841,100.31658Z"/><path class="cls-1" d="M107.42772,114.28471a310.90965,310.90965,0,0,0-45.03664,12.61364s6.34915,7.28036,19.04746,3.64018c10.66657-3.0476,24.29608-7.365,28.35954-8.7195A35.80191,35.80191,0,0,1,107.42772,114.28471Z"/><path class="cls-1" d="M111.91446,125.88249c-4.31743,1.35449-25.90454,8.38087-35.04731,11.93641,0,0,5.24862,7.02639,20.31727,1.10052,10.49726-4.14811,16.33849-6.60312,18.87815-7.619A33.88926,33.88926,0,0,1,111.91446,125.88249Z"/><path class="cls-1" d="M119.44879,134.26337c-3.80949,1.60845-17.77762,7.78829-25.90454,11.68244,0,0,10.2433,4.99466,23.02625-2.87827l7.9576-5.24863A39.36667,39.36667,0,0,1,119.44879,134.26337Z"/><path class="cls-1" d="M128.42225,139.85062c-2.53966,1.60845-13.20624,8.29623-18.37021,12.10572,0,0,8.80415,3.64018,17.86229-4.91,2.96293-2.79363,4.57138-4.31742,5.41793-5.24863A45.404,45.404,0,0,1,128.42225,139.85062Z"/><path class="cls-4" d="M158.4749,137.057s33.43886-11.1745,18.87814-46.81441c0,0,35.38593,1.43914,83.80879,20.99453,0,0,3.38622,1.43914,5.41794,2.11638a11.34083,11.34083,0,0,0,9.73536-.254S232.0404,89.904,175.06734,84.57068c-7.53432-.67725-8.46554.42327-6.51846,3.2169C170.15734,90.2426,190.47462,116.06248,158.4749,137.057Z"/><path class="cls-1" d="M188.18893,100.31658c28.61351,3.72483,56.63443,13.71416,56.63443,13.71416-4.7407,8.46553-17.693,4.91-17.693,4.91-24.29609-6.85709-35.132-9.22743-38.60284-9.90467A44.35673,44.35673,0,0,0,188.18893,100.31658Z"/><path class="cls-1" d="M188.01962,114.28471a310.91,310.91,0,0,1,45.03665,12.61364s-6.34915,7.28036-19.04745,3.64018c-10.66658-3.0476-24.29608-7.365-28.35954-8.7195A35.80308,35.80308,0,0,0,188.01962,114.28471Z"/><path class="cls-1" d="M183.53288,125.88249c4.31743,1.35449,25.90453,8.38087,35.04732,11.93641,0,0-5.24864,7.02639-20.31728,1.10052-10.49726-4.14811-16.33848-6.60312-18.87814-7.619A33.88979,33.88979,0,0,0,183.53288,125.88249Z"/><path class="cls-1" d="M175.99855,134.26337c3.80949,1.60845,17.77762,7.78829,25.90454,11.68244,0,0-10.2433,4.99466-23.02625-2.87827l-7.9576-5.24863A39.3653,39.3653,0,0,0,175.99855,134.26337Z"/><path class="cls-1" d="M167.02509,139.85062c2.53966,1.60845,13.20624,8.29623,18.37021,12.10572,0,0-8.80415,3.64018-17.86228-4.91-2.96294-2.79363-4.57139-4.31742-5.41794-5.24863C163.63888,141.28976,165.332,140.61252,167.02509,139.85062Z"/><path class="cls-4" d="M175.06735,156.44307a27.34368,27.34368,0,1,1-27.34368-27.34368A27.33151,27.33151,0,0,1,175.06735,156.44307Z"/><path class="cls-1" d="M169.39545,162.115a21.67178,21.67178,0,1,1-21.67178-21.67178A21.73172,21.73172,0,0,1,169.39545,162.115Z"/><path class="cls-2" d="M147.72367,126.983a29.54471,29.54471,0,1,0,29.54471,29.54471A29.57155,29.57155,0,0,0,147.72367,126.983Zm24.804,24.71936a26.01288,26.01288,0,0,1-13.29089,16.59244c.50794-3.64017,2.11639-7.19571,3.72483-10.92054,2.37036-5.41793,4.99466-11.25916,3.80949-17.52365A25.9024,25.9024,0,0,1,172.52769,151.70237ZM134.7714,134.856a26.32886,26.32886,0,0,1,11.08986-3.55552v39.70335a26.41091,26.41091,0,0,1-5.84122-1.10051c-.1693-4.91-2.201-9.48141-4.23276-13.96813C132.57037,148.48546,129.77674,142.05166,134.7714,134.856Zm5.07932,38.77215a35.236,35.236,0,0,0,6.09518,1.01587v7.02639a24.98278,24.98278,0,0,1-9.31208-2.53966A10.1871,10.1871,0,0,0,139.85072,173.62811Zm9.73537,1.01585a24.163,24.163,0,0,0,6.09518-1.01588,10.18716,10.18716,0,0,0,3.2169,5.5026,26.68971,26.68971,0,0,1-9.31208,2.53966Zm5.84122-4.74068a22.29631,22.29631,0,0,1-5.84121,1.10051V131.30044A23.8371,23.8371,0,0,1,160.676,134.856c4.99467,7.1957,2.20105,13.71416-1.10052,21.07917C157.62834,160.42187,155.59662,164.99325,155.42731,169.90328Zm-26.75109-29.968c-1.10052,6.26449,1.43914,12.10572,3.80949,17.52365,1.60845,3.72483,3.21691,7.365,3.72483,11.0052a25.31463,25.31463,0,0,1-13.29089-16.6771A24.73179,24.73179,0,0,1,128.67622,139.93528ZM122.835,160.92981a28.75023,28.75023,0,0,0,13.46019,11.51313,1.0737,1.0737,0,0,1-.08466.50794c-.254,1.86242-1.86242,3.38621-2.96294,4.23276A25.3484,25.3484,0,0,1,122.835,160.92981Zm39.28007,16.25381a7.57742,7.57742,0,0,1-2.96294-4.23277,1.0737,1.0737,0,0,0-.08466-.50794,29.23073,29.23073,0,0,0,13.4602-11.51313A25.02551,25.02551,0,0,1,162.11508,177.18362Z"/><path class="cls-2" d="M156.52782,88.63414s-.254.93121-.76189.93121a33.48376,33.48376,0,0,1-5.84121-2.62432c-.7619-.42328-1.77777-1.01586-2.11639-1.18517,0,0-1.5238.76189-2.201,1.18517a33.48412,33.48412,0,0,1-5.84122,2.62432c-.59258,0-.76189-.93121-.76189-.93121s-9.31209,5.58725-9.31209,21.07917c0,11.51313,6.01054,16.76176,6.01054,16.76176l.84655,3.30156h22.51833l.84655-3.30156s6.01054-5.24863,6.01054-16.76176C165.75526,94.306,156.52782,88.63414,156.52782,88.63414Z"/><path class="cls-4" d="M160.92991,105.90383a16.38288,16.38288,0,0,0-4.06346-11.00519s-.08466,1.35449-2.37035-.16931a11.88894,11.88894,0,0,0-6.77243-2.11638,12.1575,12.1575,0,0,0-6.85709,2.11638c-2.201,1.5238-2.28569.16931-2.28569.16931a16.55684,16.55684,0,0,0-4.06346,11.00519c0,3.9788,1.01586,5.92588,1.35449,6.51846a12.43107,12.43107,0,0,0,23.61884.16931C159.66008,112.33763,160.92991,110.47522,160.92991,105.90383Z"/><path class="cls-2" d="M152.71833,116.65506h0a3.32547,3.32547,0,0,1,.76189-4.23277s4.91,1.01586,4.99466-5.41793a4.06422,4.06422,0,0,1,.59259-2.03173s-1.26983-1.10052-3.9788.93122-4.14811,7.78829-5.6719,6.43381c-1.43914-1.35449-.93122-8.88881-1.69311-9.14278h0c-.76189.254-.254,7.78829-1.69311,9.14278s-2.96293-4.40208-5.6719-6.43381-3.9788-.93122-3.9788-.93122a4.06427,4.06427,0,0,1,.59258,2.03173c.08466,6.43381,4.99466,5.41793,4.99466,5.41793a3.39129,3.39129,0,0,1,.84656,4.14811.08292.08292,0,0,1-.08466.08466c-5.84122-6.26449-9.22743-5.41794-7.53432,1.60845,1.60844,6.85708,7.95759,36.31715,8.88881,43.17423-.16931,6.17983-.84656,8.38088-1.01586,8.80416l-.59259,1.26983.67725,1.43915a21.01945,21.01945,0,0,1,2.11638,4.06344l2.37035,6.0952,2.37035-6.0952a21.07913,21.07913,0,0,1,2.11639-4.1481l.76189-1.35449-.67725-1.3545c-.1693-.42327-.84655-2.53966-1.01586-8.46553.84656-6.09518,7.28037-36.48646,8.88881-43.51284C161.86111,111.32177,158.4749,110.47522,152.71833,116.65506Z"/><path class="cls-3" d="M143.74487,147.385c-2.11638-11.00519-3.72483-19.04745-5.07932-24.97332-1.01586-4.48674,1.69311-2.709,3.13225.08466Z"/><path class="cls-3" d="M151.70247,147.385c2.11638-11.00519,3.72483-19.04745,5.07932-24.97332,1.01586-4.48674-1.69311-2.709-3.13224.08466Z"/><path class="cls-3" d="M140.528,110.30591a.67754.67754,0,0,1-.50794-.93121c.08466-.16931.16931-.254.254-.42328a5.53,5.53,0,0,0-1.01586-.93122s-.67725,3.13225,2.11638,2.79363a3.86,3.86,0,0,0-.33862-.67724C140.95124,110.30591,140.69728,110.30591,140.528,110.30591Z"/><path class="cls-3" d="M156.18921,108.02022a5.3148,5.3148,0,0,0-1.01587.93121.71975.71975,0,0,1,.254.42328.80039.80039,0,0,1-.50793.93121.74343.74343,0,0,1-.59259-.08466,3.85863,3.85863,0,0,0-.33861.67725C156.86645,111.23711,156.18921,108.02022,156.18921,108.02022Z"/><path class="cls-3" d="M149.07816,151.4484c.93122-16.93107,2.28569-28.95213,2.28569-30.47593a9.43971,9.43971,0,0,0-.254-1.94707l-1.01587,3.2169-.33861-5.6719a8.7261,8.7261,0,0,0-2.03173-1.86242H147.639a10.33533,10.33533,0,0,0-1.94707,1.86242l-.33862,5.6719-1.01586-3.2169a5.84141,5.84141,0,0,0-.254,1.94707c0,1.5238,1.35449,13.4602,2.28569,30.47593.93122,16.93107-1.18517,20.06333-1.18517,20.06333a39.64017,39.64017,0,0,1,2.53966,4.91,39.63933,39.63933,0,0,1,2.53967-4.91C150.26333,171.59639,148.147,168.46413,149.07816,151.4484Z"/></svg>