<?xml version="1.0" encoding="UTF-8" standalone="no"?>
<!-- Created with Inkscape (http://www.inkscape.org/) by Marsupilami -->
<svg
   xmlns:svg="http://www.w3.org/2000/svg"
   xmlns="http://www.w3.org/2000/svg"
   version="1.0"
   width="693"
   height="768"
   viewBox="0 0 30.017721 33.285252"
   id="svg20780">
  <defs
     id="defs20782" />
  <g
     transform="translate(-359.99114,-515.71956)"
     id="layer1">
    <path
       d="M 375.57901,548.78481 C 387.56901,544.76481 387.16526,528.70606 387.16526,526.07106 C 375.59651,518.08856 364.16401,515.71981 362.74276,515.71981 L 361.18651,517.14106 C 361.18651,517.14106 360.17151,541.69856 373.02651,549.00481 L 375.53151,548.80231 L 375.57901,548.78481 z"
       id="path19597"
       style="fill:#102d5d;fill-opacity:1;fill-rule:nonzero;stroke:none" />
    <path
       d="M 375.52864,548.80206 C 375.52864,548.80206 362.94614,544.33706 362.74364,515.71956 C 364.16364,515.71956 375.59739,518.08831 387.16489,526.07081 C 387.16489,528.70956 387.57114,544.80956 375.52864,548.80206"
       id="path19601"
       style="fill:#bdbcbc;fill-opacity:1;fill-rule:nonzero;stroke:none" />
    <path
       d="M 386.82676,526.27368 C 374.10801,518.15493 363.89301,516.73493 363.89301,516.73493 C 363.89301,544.13368 376.20551,548.25993 376.20551,548.25993 C 376.20551,548.25993 387.17926,545.41993 386.82676,526.27368"
       id="path19605"
       style="fill:#102d5d;fill-opacity:1;fill-rule:nonzero;stroke:none" />
    <path
       d="M 368.28976,535.47443 C 368.28976,535.47443 365.98976,530.13068 365.65101,518.69693 L 367.34226,519.03568 L 369.84601,526.67943 L 369.37226,519.64443 L 371.06351,520.18443 C 371.06351,520.18443 371.94351,530.94193 372.21351,531.82068 L 370.92851,532.70068 C 370.92851,532.70068 368.28976,525.73193 367.88476,525.66443 C 367.88476,525.66443 369.30476,532.90318 369.77851,533.51193 C 369.77851,533.51193 368.42601,535.20443 368.28976,535.47443"
       id="path19609"
       style="fill:#c5161c;fill-opacity:1;fill-rule:nonzero;stroke:none" />
    <path
       d="M 368.28976,535.47443 C 368.28976,535.47443 365.98976,530.13068 365.65101,518.69693 L 367.34226,519.03568 L 369.84601,526.67943 L 369.37226,519.64443 L 371.06351,520.18443 C 371.06351,520.18443 371.94351,530.94193 372.21351,531.82068 L 370.92851,532.70068 C 370.92851,532.70068 368.28976,525.73193 367.88476,525.66443 C 367.88476,525.66443 369.30476,532.90318 369.77851,533.51193 C 369.77851,533.51193 368.42601,535.20443 368.28976,535.47443 z"
       id="path19613"
       style="fill:none;stroke:#c5161c;stroke-width:0.44750002;stroke-linecap:butt;stroke-linejoin:miter;stroke-miterlimit:4;stroke-dasharray:none;stroke-opacity:1" />
    <path
       d="M 383.90776,536.34181 L 384.17151,536.79806 L 384.35276,536.30306 C 384.37526,536.24056 384.90776,534.75556 384.97651,532.77681 C 384.97651,532.73056 384.97776,532.68306 384.97776,532.63681 C 384.97776,531.59681 384.58776,530.58431 384.21026,529.60431 C 383.94276,528.90806 383.68651,528.24306 383.59276,527.62056 C 384.13526,527.95931 385.72026,528.95056 385.72026,528.95056 L 385.72026,526.67806 L 382.59651,524.74306 L 382.45776,524.88181 L 381.45651,525.88306 L 381.38776,524.30681 L 381.35526,524.25306 C 381.29401,524.14931 381.18901,523.97556 378.93776,522.94681 C 377.85651,522.45181 376.78651,521.99306 376.77526,521.98806 L 376.43276,521.84056 L 376.43276,522.68681 C 376.12651,522.22556 375.79776,521.73431 375.79776,521.73431 L 375.79401,521.72806 C 375.73026,521.64306 375.62276,521.50056 374.04776,520.93431 C 373.30026,520.66556 372.56901,520.42681 372.56026,520.42431 L 372.32401,520.34681 L 372.25026,520.58556 C 372.19276,520.76556 372.02276,521.31181 372.65401,526.47306 C 372.96401,529.00056 373.32026,531.42681 373.32276,531.45056 L 373.39026,531.78431 C 375.01276,531.03931 376.70026,531.14931 377.00526,531.18806 L 377.27526,531.20056 L 377.18651,529.07931 C 377.18651,529.07931 375.54401,529.02306 375.20776,529.01181 C 375.17401,528.71681 375.04901,527.65806 374.99901,527.23806 C 375.39026,527.29056 376.48151,527.43931 376.48151,527.43931 L 376.31026,525.73056 L 376.29026,525.68931 C 376.22151,525.55056 376.05401,525.39431 375.30651,525.19056 C 375.09526,525.13306 374.89026,525.08556 374.74901,525.05556 C 374.73401,524.79306 374.67526,523.76556 374.64776,523.27056 C 375.03401,523.43181 375.89901,523.79306 376.84151,524.18806 C 376.86651,524.22556 376.92526,524.31431 376.92526,524.31431 L 376.92526,524.22306 C 377.30901,524.38431 377.78776,524.58431 377.85901,524.61306 C 377.86776,524.91556 378.06151,531.31681 378.06151,531.31681 L 380.18026,532.11181 C 380.18026,532.11181 380.05526,526.10431 380.04401,525.55556 C 380.29401,525.65556 380.70026,525.88306 381.07276,526.13806 L 381.43776,526.39056 C 381.44776,527.24056 381.54026,529.23431 382.15901,530.13431 C 382.53651,530.68431 382.73026,531.37431 382.82901,531.89181 C 382.24276,531.34431 381.42151,530.70931 381.29401,530.61181 L 380.91651,530.32056 L 380.82276,532.57806 C 380.82276,532.57806 382.21526,533.59931 383.90776,536.34181"
       id="path19617"
       style="fill:#c5161c;fill-opacity:1;fill-rule:nonzero;stroke:none" />
    <path
       d="M 368.28976,535.47443 C 368.28976,535.47443 365.98976,530.13068 365.65101,518.69693 L 367.34226,519.03568 L 369.84601,526.67943 L 369.37226,519.64443 L 371.06351,520.18443 C 371.06351,520.18443 371.94351,530.94193 372.21351,531.82068 L 370.92851,532.70068 C 370.92851,532.70068 368.28976,525.73193 367.88476,525.66443 C 367.88476,525.66443 369.30476,532.90318 369.77851,533.51193 C 369.77851,533.51193 368.42601,535.20443 368.28976,535.47443"
       id="path19621"
       style="fill:#ffffff;fill-opacity:1;fill-rule:nonzero;stroke:none" />
    <path
       d="M 377.01714,530.94181 C 377.01714,530.94181 375.09964,530.79806 373.56714,531.39556 C 373.56714,531.39556 372.14714,521.74056 372.48464,520.65806 C 372.48464,520.65806 375.39339,521.60556 375.59714,521.87681 L 376.67964,523.49931 L 376.67964,522.21431 C 376.67964,522.21431 380.94089,524.04056 381.14464,524.37931 L 381.21089,525.93556 C 381.21089,525.93556 380.12964,525.19181 379.79089,525.25931 L 379.92589,531.75306 L 378.30214,531.14431 L 378.09964,524.44681 L 374.37839,522.89181 L 374.51339,525.25931 C 374.51339,525.25931 375.93464,525.52931 376.07089,525.79931 L 376.20589,527.15306 L 374.71714,526.95056 L 374.98714,529.25056 L 376.94964,529.31806 L 377.01714,530.94181 z"
       id="path19625"
       style="fill:#ffffff;fill-opacity:1;fill-rule:nonzero;stroke:none" />
    <path
       d="M 381.07626,532.49756 L 381.14376,530.80631 C 381.14376,530.80631 382.90251,532.16006 383.17376,532.63381 C 383.17376,532.63381 383.10626,531.07631 382.36251,529.99506 C 381.61751,528.91256 381.68501,526.00256 381.68501,526.00256 L 382.63251,525.05631 L 385.47376,526.81506 L 385.47376,528.50631 L 383.30876,527.15256 C 383.30876,528.84506 384.79751,530.80631 384.73001,532.76756 C 384.66126,534.73006 384.12001,536.21881 384.12001,536.21881 C 384.12001,536.21881 382.33376,533.40756 381.07626,532.49756"
       id="path19629"
       style="fill:#ffffff;fill-opacity:1;fill-rule:nonzero;stroke:none" />
    <path
       d="M 365.90001,519.03531 L 366.21501,519.44031 C 366.21501,519.44031 366.21501,527.37906 368.56126,534.23406 L 369.05751,533.64781 L 369.46251,533.64781 L 368.42501,534.91031 C 368.42501,534.91031 366.26126,529.81406 365.90001,519.03531"
       id="path19633"
       style="fill:#bdbcbc;fill-opacity:1;fill-rule:nonzero;stroke:none" />
    <path
       d="M 367.74889,523.72568 L 367.79389,524.62693 C 367.79389,524.62693 370.18014,529.62568 371.02889,532.33443 L 371.93139,531.76068 L 371.62764,531.66318 L 371.17639,531.88943 C 370.94639,531.02068 367.74889,523.72568 367.74889,523.72568"
       id="path19637"
       style="fill:#bdbcbc;fill-opacity:1;fill-rule:nonzero;stroke:none" />
    <path
       d="M 370.50026,528.05531 L 369.95901,520.38781 L 369.68776,520.11781 L 370.18401,527.42406 L 370.50026,528.05531 z"
       id="path19641"
       style="fill:#bdbcbc;fill-opacity:1;fill-rule:nonzero;stroke:none" />
    <path
       d="M 376.19089,523.39568 L 375.96589,522.99068 L 374.38714,522.22318 L 374.38714,522.62943 L 376.19089,523.39568 z"
       id="path19645"
       style="fill:#bdbcbc;fill-opacity:1;fill-rule:nonzero;stroke:none" />
    <path
       d="M 374.06314,530.62593 C 374.06314,530.62593 375.14814,530.41718 376.31814,530.44593 L 376.67939,530.76093 C 376.67939,530.76093 374.58689,530.66468 373.79314,531.04843 C 373.79314,531.04843 372.52939,521.96718 372.66439,521.06468 L 372.98064,521.37968 C 372.82564,521.75843 374.06314,530.62593 374.06314,530.62593"
       id="path19649"
       style="fill:#bdbcbc;fill-opacity:1;fill-rule:nonzero;stroke:none" />
    <path
       d="M 374.65339,526.65706 L 374.60839,526.34081 L 375.64589,526.52206 L 375.91589,526.88331 L 374.65339,526.65706 z"
       id="path19653"
       style="fill:#bdbcbc;fill-opacity:1;fill-rule:nonzero;stroke:none" />
    <path
       d="M 378.62539,524.15006 L 378.84414,530.90756 L 379.62164,531.24631 L 379.62164,531.44881 L 378.53914,531.07631 L 378.35539,524.31506 L 376.94914,523.70006 L 376.91539,522.63381 L 377.11914,522.79006 L 377.15789,523.47256 L 378.62539,524.15006 z"
       id="path19657"
       style="fill:#bdbcbc;fill-opacity:1;fill-rule:nonzero;stroke:none" />
    <path
       d="M 379.70614,524.61556 L 379.77739,524.94056 C 379.77739,524.94056 380.64489,525.23806 380.92864,525.51556 L 380.77364,525.13556 C 380.77364,525.13556 380.00739,524.67056 379.70614,524.61556"
       id="path19661"
       style="fill:#bdbcbc;fill-opacity:1;fill-rule:nonzero;stroke:none" />
    <path
       d="M 382.16926,526.31256 C 382.16926,526.31256 382.16801,527.71381 382.39551,528.50631 C 382.71676,529.62506 383.42926,530.06256 383.68051,532.36256 C 383.74301,532.93506 383.67551,532.91006 383.67551,532.91006 L 383.47801,533.27506 L 383.37676,531.99006 C 383.01801,529.95381 382.47051,529.78881 382.19301,528.77631 C 381.97051,527.97131 381.95551,526.10506 381.95551,526.10506 L 382.16926,526.31256 z"
       id="path19665"
       style="fill:#bdbcbc;fill-opacity:1;fill-rule:nonzero;stroke:none" />
    <path
       d="M 383.30889,526.81093 L 383.30889,526.53468 L 385.03389,527.65343 L 385.00014,527.22093 L 385.23639,527.42968 L 385.27639,528.10468 L 383.30889,526.81093 z"
       id="path19669"
       style="fill:#bdbcbc;fill-opacity:1;fill-rule:nonzero;stroke:none" />
    <path
       d="M 378.39326,532.52043 C 378.39326,532.52043 381.09826,533.91918 381.68576,535.76668 L 382.27201,535.31668 C 382.27201,535.31668 381.14451,533.51293 378.39326,532.52043"
       id="path19673"
       style="fill:#bdbcbc;fill-opacity:1;fill-rule:nonzero;stroke:none" />
    <path
       d="M 382.63214,535.85806 C 382.63214,535.85806 382.54214,536.66931 381.95589,536.71431 C 381.95589,536.71431 382.36214,538.38306 382.22714,538.92431 C 382.22714,538.92431 383.35464,539.28556 383.35464,539.69181 C 383.35464,539.69181 383.93964,537.70681 382.63214,535.85806"
       id="path19677"
       style="fill:#bdbcbc;fill-opacity:1;fill-rule:nonzero;stroke:none" />
    <path
       d="M 383.03876,540.68331 C 383.03876,540.68331 382.27126,543.20956 379.70001,544.42706 C 379.70001,544.42706 381.82001,543.02831 382.18126,539.91706 C 382.18126,539.91706 382.94751,539.64581 383.03876,540.68331"
       id="path19681"
       style="fill:#8d8d8e;fill-opacity:1;fill-rule:nonzero;stroke:none" />
    <path
       d="M 375.37114,542.71281 C 378.21114,542.11781 379.29489,539.55531 381.36989,539.37531 L 381.72989,539.37531 C 381.72989,539.37531 381.68489,543.66031 378.39364,545.01281 C 378.39364,545.01281 377.18614,545.41906 375.77739,545.41906 C 375.77739,545.41906 378.15114,544.90156 378.85739,544.10531 C 380.58239,542.16281 381.18864,539.87156 381.18864,539.87156 C 378.66364,540.05156 378.93364,543.61531 372.39489,543.52531 L 371.67239,543.47906 L 371.38489,543.03781 L 371.67239,543.07406 C 371.67239,543.07406 373.82114,543.03781 375.37114,542.71281"
       id="path19685"
       style="fill:#ffffff;fill-opacity:1;fill-rule:nonzero;stroke:none" />
    <path
       d="M 383.21851,540.18756 C 383.21851,540.18756 383.08351,539.42131 382.04601,539.33006 L 382.18101,539.91756 C 382.18101,539.91756 382.94851,539.64631 383.03851,540.68381 L 383.21851,540.18756 z"
       id="path19689"
       style="fill:#ffffff;fill-opacity:1;fill-rule:nonzero;stroke:none" />
    <path
       d="M 381.11189,539.09456 C 381.09314,538.77206 381.44189,536.88956 380.70314,535.87706 C 380.09689,535.04581 377.21939,532.61956 376.99189,532.52456 C 376.76439,532.42956 376.68814,532.25956 376.68814,532.25956 C 377.23814,532.22081 377.97814,532.50706 377.97814,532.50706 C 379.31939,533.25456 382.06064,535.28581 381.82064,539.28581 L 381.11189,539.09456 z"
       id="path19693"
       style="fill:#ffffff;fill-opacity:1;fill-rule:nonzero;stroke:none" />
    <path
       d="M 381.05364,536.62431 C 378.43739,536.62431 375.41614,533.15181 372.57489,533.15181 C 372.92364,532.94306 373.38739,532.88181 373.38739,532.88181 C 374.06364,532.88181 376.36364,533.82806 378.16739,535.18181 C 379.97114,536.53431 380.96364,536.26306 380.96364,536.26306 L 381.05364,536.62431 z"
       id="path19697"
       style="fill:#ffffff;fill-opacity:1;fill-rule:nonzero;stroke:none" />
    <path
       d="M 382.44026,535.63218 C 382.44026,535.63218 382.22651,536.21843 381.86526,536.26343 L 381.95526,536.71468 C 382.54151,536.66968 382.63151,535.85843 382.63151,535.85843 L 382.44026,535.63218 z"
       id="path19701"
       style="fill:#ffffff;fill-opacity:1;fill-rule:nonzero;stroke:none" />
    <path
       d="M 379.34001,545.19343 C 379.34001,545.19343 377.71626,546.99718 376.27251,547.26843 C 376.27251,547.26843 374.96501,546.45593 374.65001,546.05093 C 374.65001,546.05093 377.76126,546.68218 379.34001,545.19343"
       id="path19705"
       style="fill:#c5161c;fill-opacity:1;fill-rule:nonzero;stroke:none" />
    <path
       d="M 381.05364,536.62431 C 378.43739,536.62431 375.41614,533.15181 372.57489,533.15181 C 372.57489,533.15181 369.91364,534.32431 369.91364,538.24806 C 369.91364,541.26931 371.08739,542.57806 371.08739,542.57806 C 379.79114,542.57806 377.26489,539.15056 381.23489,539.15056 C 381.23489,539.15056 381.31864,537.42056 381.05364,536.62431"
       id="path19709"
       style="fill:#bdbcbc;fill-opacity:1;fill-rule:nonzero;stroke:none" />
    <path
       d="M 381.18914,539.87168 C 378.66289,540.05168 378.93414,543.61543 372.39414,543.52543 L 371.67289,543.47918 C 371.67289,543.47918 372.93539,545.41918 375.77789,545.41918 C 380.08414,545.41918 381.12039,541.30043 381.18914,539.87168"
       id="path19713"
       style="fill:#bdbcbc;fill-opacity:1;fill-rule:nonzero;stroke:none" />
    <path
       d="M 373.83764,532.52043 C 373.83764,532.52043 375.64139,531.97918 376.81389,532.29418 C 377.98764,532.61043 379.45764,534.01543 380.58389,535.68418 L 380.72139,535.90418 C 380.72139,535.90418 379.47514,535.36168 378.88889,535.09168 C 378.30264,534.82043 376.00264,532.79043 373.83764,532.52043"
       id="path19717"
       style="fill:#bdbcbc;fill-opacity:1;fill-rule:nonzero;stroke:none" />
    <path
       d="M 369.91376,538.24806 C 369.91376,541.26931 371.08626,542.57806 371.08626,542.57806 C 372.17501,542.57806 373.08626,542.52431 373.85876,542.43056 L 373.80751,542.36556 C 372.99501,542.09556 371.77751,540.47181 371.77751,540.47181 C 374.16751,538.93806 381.24626,538.89431 381.24626,538.89431 L 381.24001,538.12806 C 372.17501,538.48931 370.92001,539.29931 370.92001,539.29931 L 369.97376,538.17181 L 369.91376,538.24806 z"
       id="path19721"
       style="fill:#8d8d8e;fill-opacity:1;fill-rule:nonzero;stroke:none" />
    <path
       d="M 375.65689,543.15568 C 374.29314,543.59818 372.39439,543.52568 372.39439,543.52568 L 371.67314,543.47943 C 371.67314,543.47943 372.93564,545.41943 375.77689,545.41943 C 378.80439,545.41943 380.21564,543.38443 380.81189,541.67943 L 380.57189,541.86943 C 378.18189,544.07943 375.83689,543.22318 375.83689,543.22318 L 375.65689,543.15568 z"
       id="path19725"
       style="fill:#8d8d8e;fill-opacity:1;fill-rule:nonzero;stroke:none" />
    <path
       d="M 382.15576,537.69681 C 382.23326,538.16181 382.29076,538.66931 382.22701,538.92431 C 382.22701,538.92431 383.35451,539.28556 383.35451,539.69181 C 383.35451,539.69181 383.63076,538.75681 383.38076,537.57306 L 382.15576,537.69681 z"
       id="path19729"
       style="fill:#8d8d8e;fill-opacity:1;fill-rule:nonzero;stroke:none" />
    <path
       d="M 362.74314,515.71993 C 362.94564,544.33618 375.52814,548.80243 375.52814,548.80243 C 387.57189,544.80993 387.16564,528.70993 387.16564,526.07118 L 386.82689,526.27368 C 387.17939,545.41993 376.20564,548.25993 376.20564,548.25993 C 376.20564,548.25993 363.89314,544.13368 363.89314,516.73493 L 362.74314,515.71993 z"
       id="path19733"
       style="fill:#8d8d8e;fill-opacity:1;fill-rule:nonzero;stroke:none" />
    <path
       d="M 389.14314,538.72768 C 386.08814,537.39393 377.12939,537.03018 375.19064,537.03018 C 373.07814,537.03018 363.28064,537.31268 360.66689,538.53393 C 360.39689,538.66018 359.99189,538.98393 359.99189,539.51018 C 359.99189,538.02268 372.16939,537.48143 375.55189,537.48143 C 378.93439,537.48143 389.98439,538.11268 389.98439,540.00768 C 390.15189,539.30643 389.41439,538.84643 389.14314,538.72768"
       id="path19737"
       style="fill:#c5161c;fill-opacity:1;fill-rule:nonzero;stroke:none" />
    <path
       d="M 366.44114,541.67543 C 366.44114,541.67543 359.99114,540.99918 359.99114,539.51043 C 359.99114,538.02293 372.16864,537.48168 375.55114,537.48168 C 378.93364,537.48168 389.98364,538.11293 389.98364,540.00668 C 389.98364,541.04418 383.84989,541.76543 383.84989,541.76543 L 384.16614,541.13418 C 384.16614,541.13418 389.35239,540.68293 389.35239,539.82668 C 389.35239,538.96918 382.09114,537.88793 375.50614,537.88793 C 368.92114,537.88793 361.11864,538.47418 361.11864,539.51043 C 361.11864,540.54793 365.89989,540.90918 365.89989,540.90918 L 366.44114,541.67543 z"
       id="path19741"
       style="fill:#102d5d;fill-opacity:1;fill-rule:nonzero;stroke:none" />
    <path
       d="M 385.90751,537.48893 C 388.16626,538.01518 389.14251,538.72768 389.14251,538.72768 C 386.08751,537.39393 377.12876,537.03018 375.19001,537.03018 C 373.07876,537.03018 363.28126,537.31268 360.66626,538.53393 C 360.66626,538.53393 361.44501,537.91018 363.81126,537.40268 C 366.01751,536.93018 369.60126,536.57143 375.22251,536.57143 C 379.80376,536.57143 383.54626,536.93768 385.90751,537.48893"
       id="path19745"
       style="fill:#ffffff;fill-opacity:1;fill-rule:nonzero;stroke:none" />
  </g>
</svg>
