<?xml version="1.0" encoding="UTF-8" standalone="no"?>
<svg xmlns:rdf="http://www.w3.org/1999/02/22-rdf-syntax-ns#" xmlns="http://www.w3.org/2000/svg" height="198.84202" width="274.31998" version="1.1" xmlns:cc="http://creativecommons.org/ns#" xmlns:dc="http://purl.org/dc/elements/1.1/" viewBox="0 0 274.31998 198.84202"><path d="M110.76,138.48c14.64-2.28,29.4-1.56006,42.24,3.84l1.56-3.48c-20.76-6.6-47.04-6.36-66.36,4.31995l5.52-12.84c-24.6,6.6-40.92,20.52-57.6,34.68,12.12-28.56,38.4-51.96,68.04-60.6l-1.44,4.8c26.04-8.52,54.6-10.2,77.64-6.36l-5.4-7.08,13.32,3.48L196.8,86.4l3.36,15.84,13.08,4.2s-9.48,3.96-9.12,4.2c49.44,20.28,33.6,87.96-13.32,88.2-23.76.24-42.24-21.24005-41.4-43.68005C137.16,147.24,125.16,143.4,110.76,138.48Z" fill="#c2ccd2"/><path d="M101.4,48.36v-.12a7.12789,7.12789,0,0,1,2.4-4.68,8.8,8.8,0,0,1,4.56-1.44s1.44-.12,2.76-.12l4.32-.36v30.6l-3.72.24c-2.28.12-3.6.24005-6.12.36l-4.2.36Zm-20.76-.84a20.57129,20.57129,0,0,1,4.68-13.68,19.94868,19.94868,0,0,1,13.08-6C108.48,27,118.68,26.4,128.76,26.16l7.44-.12v85.8l-.12,7.31995-7.44-.12c-1.32,0-11.28.36-13.08.36h-.24l-7.92.84V120l-5.04.24c-.72,0-12.72,1.2-13.2,1.32L80.64,123Z" fill="#c2ccd2"/><path d="M264.72,139.08s-9.96-3.12-11.4-3.48c-.12,0-.12,0-.12-.11993-4.56-1.32007-8.64-2.4-11.52-3.24005l-5.28-1.32a20.089,20.089,0,0,1-16.68-20.88V54.24c0-5.4,1.68-10.44,5.64-13.56a13.94571,13.94571,0,0,1,9-2.88,27.39832,27.39832,0,0,1,5.28.6c.72.24,2.64.72,5.76,1.56,3,.84,6.84,2.04,10.68,3.12,7.68,2.16,15.24,4.32,15.24,4.32l2.88.84V86.16L249.96,78.6l-.36-2.4s-.72-4.44-1.44-8.52v42.48l.12.24s-.12.12006.72.36c0,0,1.56.36,2.52.6.72-2.75995,1.44-5.75995,1.44-5.75995l.96-4.20007,20.28,6,.12,34.32007Z" fill="#c2ccd2"/><path d="M.12,59.16a14.6508,14.6508,0,0,1,4.44-10.2A20.08053,20.08053,0,0,1,12,44.16c11.16-3.6,27-6,27.72-6.12l4.2-.6a20.6388,20.6388,0,0,1,5.88-2.28c5.4-1.08,22.08-4.2,22.8-4.31995L81.24,29.16V116.4l-.12,6.48-6.48.72c-.48,0-12.6,2.16-13.2,2.28l-9,2.04V113.76l-25.08,6v14.28l-5.52,1.32c-.12,0-1.92.6-3.84,1.2-2.04.6-4.32,1.32-6,1.8a10.05508,10.05508,0,0,0-2.04.72L0,142.68V59.16Z" fill="#c2ccd2"/><path d="M211.2,125.64h-.24c-.12,0-.24-.12-.36-.12a9.47977,9.47977,0,0,1-1.56-.36,35.87961,35.87961,0,0,1-4.32-.72c-3-.48-6.24-1.08-6.48-1.08l-3-.24-3.48-.36V30l7.92.6c.84.12,2.52.36,5.04.84,2.4.36,5.28.84,7.2,1.2a19.67354,19.67354,0,0,1,2.88.48l5.52,1.44v93Z" fill="#c2ccd2"/><path d="M183,121.44c-.84-.12-5.88-.6-11.04-1.08-5.04-.36-10.44-.72-14.04-.96l-3.72-.12c-5.4-.24-10.08-1.92-13.44-5.28-3.36-3.48-4.92-8.16-4.92-13.56V42.36c0-4.56,1.32-8.88,4.56-11.88,3.96-3.72,8.76-4.08,11.76-4.08h3.24c.96,0,2.28.12,4.2.24h2.16l-.12.12c2.16.12,4.68.36,8.16.6,11.28.84,14.28,1.2,15.96,1.56a6.03953,6.03953,0,0,1,1.56.48l4.2,2.04V61.68l-24-3.12-.6-2.76s-.6-3-1.2-5.76h-1.08l.12,10.92v2.4h1.68a17.91636,17.91636,0,0,1,3.12.24c1.44.12006,3.24.24005,5.04.36,3.72.36,7.8.84,9.84,1.08a5.37988,5.37988,0,0,1,1.44.12l5.76,1.32-.12,56.64Z" fill="#c2ccd2"/><path d="M107.04,67.2a23.30356,23.30356,0,0,1,2.88-.24V47.52a9.77278,9.77278,0,0,1-1.08.12q-1.26,0-1.44.36c-.24.12-.24.12-.36.6Zm-24-19.68c-.12-9.72,5.88-16.56,15.72-17.28,9.96-.84,20.16-1.44,30.24-1.68l4.92-.12v88.32l-5.04-.12c-1.32,0-12.72.36-13.56.6l-5.4.48V85.2a23.30356,23.30356,0,0,0-2.88.24v27.72l-.12,4.68005-4.56.12c-.96,0-12.6,1.2-13.44,1.43994l-5.76.84Z"/><path d="M265.56,136.8s-8.76-2.76-11.16-3.36c-.24-.12-.36-.12-.48-.24-4.92-1.44-9.36-2.64-12.36-3.36l-4.68-1.2c-9.48-2.16-14.88-9-14.76-18.6V54.36c0-5.16,1.44-9.12,4.68-11.76a12.00676,12.00676,0,0,1,7.44-2.4,22.83509,22.83509,0,0,1,4.8.6c1.56.36,31.56,9,31.56,9l1.2.24V82.92L252,76.8l-.12-.96s-1.56-9.6-2.16-13.68005c-1.2-.36-2.16-.6-2.76-.72l-.6-.24-.6-.24v49.2a2.37839,2.37839,0,0,0,.36,1.32,3.11854,3.11854,0,0,0,2.16,1.56s2.64.72,5.04,1.32c.72-3.24,1.8-8.16,1.8-8.16l.48-1.68005,16.2,4.92v29.28Z"/><path d="M2.52,59.16c.24-7.08,6.24-11.4,10.2-12.72,10.92-3.48,26.64-5.88,27.48-6l4.68-.84a20.35557,20.35557,0,0,1,5.52-2.16c5.4-1.08,21.96-4.2,22.8-4.44l5.76-.96V116.28l-.12,4.32-4.32.6c-.96,0-12.6,2.04-13.44,2.28L54.96,124.8V56.64h-.12c-1.68.48-2.04.84-2.4,2.76v51.84l-23.76,5.64V62.52a.59252.59252,0,0,1-.36.12,5.48716,5.48716,0,0,0-2.4,1.08,1.73412,1.73412,0,0,0-.72,1.68V128.16L25.08,132l-3.72.84c-.84.24-11.28,3.48-12,3.72l-6.72,2.52V59.16Z"/><path d="M211.68,123.24c-.84-.24-12.48-2.16-13.32-2.28l-3-.24L193.92,120.6V32.64l5.4.48c1.32.12,13.44,2.16,14.76,2.52l3.72.96v87.96Z"/><path d="M162.36,97.56a6.08693,6.08693,0,0,0,.24,1.08c.12.12.36.36,1.56.48a8.08186,8.08186,0,0,1,1.2.12V82.68a20.82878,20.82878,0,0,0-2.16-.12l-.84-.12Zm21,21.48c-2.28-.48-18-1.68-25.2-2.04l-3.84-.24c-4.92-.12-9-1.68-11.76-4.56-2.76-2.76-4.2-6.96-4.2-11.76V42.36c0-4.2,1.2-7.68,3.72-10.2,3.24-3,7.44-3.36,10.2-3.36h3.12c2.04,0,5.88.36,14.16.96,11.4.84,14.4,1.2,15.84,1.44a8.2701,8.2701,0,0,1,.96.36L189.24,33V59.04L169.56,56.4l-.24-1.08s-.96-4.68-1.56-7.56h-1.08c-.12,0-3.12-.24-3.12-.24h-.48a1.29926,1.29926,0,0,0-.72.12V66l4.08-.12h.12c.96,0,5.28.36,9.6.72,4.44.36,8.4.84,9.36.96l3.84.84-.12,51.84Z"/><path d="M112.56,44.76V69.48c-2.04.12006-6,.36-8.28.48V48.36c.24-1.44.72-3.12,4.32-3.36C108.6,45,110.76,44.76,112.56,44.76ZM129,32.04V31.2c-10.08.24-20.04.72-30,1.56-8.52.84-13.32,6-13.2,14.64V117l2.52-.48c.84-.12006,13.08-1.32,13.8-1.44h2.04V82.68c2.04-.12,6-.48,8.28-.6V114.6l2.52-.24005c.6-.12,12-.6,13.68-.6h.12l1.44.12h.84V31.2h-2.28Z" fill="#fff"/><path d="M269.16,111.36,257.64,108l-.12.84s-1.44,6.24-2.04,9c-4.56-1.32007-6.6-1.92-7.68-2.16a6.02794,6.02794,0,0,1-3.96-2.88,7.0478,7.0478,0,0,1-.72-2.64V60.6a4.44325,4.44325,0,0,1,.48-1.8c.24-.36.6-.48,1.32-.48a8.25825,8.25825,0,0,1,1.56.24h.24c.12,0,2.04.6,5.4,1.56.48,2.88,2.28,14.04,2.28,14.04v.6l14.64,4.44v-27l-.6-.24s-28.56-8.16-30.12-8.4a17.7259,17.7259,0,0,0-4.2-.6,9.16589,9.16589,0,0,0-5.76,1.8c-2.52,1.92-3.72,5.28-3.72,9.6v55.68c-.12,8.4,4.32,13.92,12.6,15.96h.48c.96.24,8.88,2.4,16.8,4.56l11.64,3.6,2.76.84Z" fill="#fff"/><path d="M50.88,40.2a15.50256,15.50256,0,0,0-7.8,4.2V42.6l-2.52.36c-.72.12-16.44,2.64-27,6-3.36,1.2-8.16,4.92-8.28,10.2v76.2l3-1.2c.6-.24,11.64-3.6,12.36-3.84l1.08-.24.6-.12V65.4c0-3.24005,3-4.68,5.04-5.4a37.66227,37.66227,0,0,1,3.84-.72V113.52l18.36-4.32V59.16c.48-3,1.8-4.43994,4.56-5.16h0c.48-.12,2.04-.36,3.48-.6v68.16l2.76-.72c.6-.12,12.96-2.28,13.8-2.28l1.2-.12h.84V35.28l-2.64.48S56.28,39,50.88,40.2Z" fill="#fff"/><path d="M199.08,35.76l-1.56-.12-.84-.12v82.56l.72.12,1.32.12c.6.12,12.96,2.04,13.68,2.28l2.76.6V38.52l-1.68-.48C212.4,37.8,200.16,35.76,199.08,35.76Z" fill="#fff"/><path d="M166.56,68.4h-.12l-1.32.11993h-.72V80.04h.72s1.68.12,2.88.24v21.96c-1.8-.24-4.08-.36-4.08-.36a4.37949,4.37949,0,0,1-3.72-1.92,5.35838,5.35838,0,0,1-.6-2.4V47.64a3.14151,3.14151,0,0,1,.6-2.04,3.55361,3.55361,0,0,1,2.76-.84h.96c.36,0,2.4.12,6,.48.48,2.16,1.8,8.16,1.8,8.16l.12.48L186.6,55.8V34.56l-1.32-.6c-.6-.24-1.2-.48-15.96-1.56-8.76-.72-12.48-.96-14.16-.96h-3c-2.4,0-5.76.36-8.16,2.64-2.04,1.92-3,4.68-3,8.28v58.08c0,8.4,4.8,13.44,13.32,13.68h.48c2.16,0,25.8,1.68,29.04,2.28l2.64.48.12-46.44-1.8-.36C183.6,69.84,168.24,68.4,166.56,68.4Z" fill="#fff"/><path d="M266.88,113.04l-7.68-2.28-2.28,9.96c-4.92-1.56006-9.96-2.88-9.96-2.88a8.10267,8.10267,0,0,1-5.28-4.08,7.88278,7.88278,0,0,1-.96-3.6V60.6a5.35757,5.35757,0,0,1,.96-3.12c.72-.96,2.28-2.04,5.28-1.08a73.18442,73.18442,0,0,1,7.08,2.04l2.28,14.52,10.44,3.24V53.88s-27.6-7.92-28.8-8.28c-7.32-1.8-11.04,1.2-11.04,8.76v55.68c0,7.56,3.72,12,11.04,13.8,0-.12,9.24,2.4,17.16,4.68L266.88,132ZM40.92,53.52V45.24s-16.08,2.52-26.64,6c-2.76.84-6.72,3.96-6.72,8.04v72.96c.84-.36,11.76-3.72,12.6-3.96V65.52c0-4.44,3.6-6.6,6.72-7.56,1.68-.48,6.72-1.2,6.72-1.2v54l13.92-3.36V59.04c.48-3.84,2.52-6.36,6.24-7.2,3.6-.6,6.24-.96,6.24-.96v67.8c.72-.24,13.2-2.28,14.04-2.4V37.92s-17.28,3.24-22.68,4.32A13.90212,13.90212,0,0,0,40.92,53.52Zm157.92,62.64c.96,0,13.08,2.04,13.92,2.28V40.32c-.84-.24-13.08-2.28-13.92-2.28ZM87.96,47.52v66.84c.96-.12,13.2-1.32,14.16-1.32V80.64c4.2-.36,8.4-.6,12.6-.84v32.4c.96-.12,13.44-.6,14.28-.6V33.36c-9.96.24-19.92.84-29.88,1.68C91.8,35.76,87.96,40.08,87.96,47.52Zm14.16.84c.12-1.56.96-5.16,6.24-5.52,2.16-.24005,4.2-.36,6.36-.48V71.64c-4.2.24-8.52.6-12.72.84V48.36ZM166.56,78c.84,0,3.72.24,3.72.24v26.28c-2.16-.12006-4.32-.36-6.48-.48-3.12-.24-4.68-1.68-5.4-3a6.71236,6.71236,0,0,1-.84-3.48V60.96c0-6.96-.12-12.12-.12-12.6v-.72a5.5398,5.5398,0,0,1,1.2-3.48c1.08-1.2,2.88-1.8,5.28-1.56,0-.12,3.6.24005,7.92.6l1.92,8.76,10.68,1.44V36.12c-.84-.36-29.76-2.64-29.76-2.28h-.48c-2.4-.12-6.12-.24005-8.52,1.92-1.56,1.44-2.28,3.72-2.28,6.72v57.96c0,7.44,3.72,11.16,11.28,11.52,0-.24,26.04,1.56,29.76,2.28,0-.84.12-41.04.12-41.88-.96-.12-16.92-1.68-17.76-1.68V78Z" fill="#0b77bd"/><path d="M40.92,53.52V45.24s-16.08,2.52-26.64,6c-2.76.84-6.72,3.96-6.72,8.04v72.96c.84-.36,11.76-3.72,12.6-3.96V65.52c0-4.32,3.6-6.6,6.72-7.56,1.68-.48,6.72-1.2,6.72-1.2v54l13.92-3.36V59.04a7.79338,7.79338,0,0,1,6.24-7.2c3.6-.6,6.24-.96,6.24-.96v67.8c.72-.24,13.2-2.28,14.04-2.4V37.92s-17.28,3.24-22.68,4.32A13.90212,13.90212,0,0,0,40.92,53.52Zm157.92,62.64c.96,0,13.08,2.04,13.92,2.28V40.2c-.84-.24-13.08-2.16-13.92-2.28ZM166.56,78c.84,0,3.72.24,3.72.24v26.28c-2.16-.12006-4.32-.36-6.48-.48-3.12-.24-4.68-1.68-5.4-3a7.18735,7.18735,0,0,1-.96-3.48V60.96c0-6.96-.12-12.12-.12-12.6v-.72a5.53976,5.53976,0,0,1,1.2-3.48c1.08-1.2,2.88-1.8,5.28-1.56,0-.12,3.6.24005,7.92.6l1.92,8.76,10.68,1.44V36.12c-.96-.36-29.76-2.64-29.76-2.28h-.6c-2.16-.12-6-.24005-8.4,1.92-1.56,1.44-2.28,3.72-2.28,6.72v57.96c0,7.32,3.72,11.16,11.28,11.52,0-.24,26.04,1.56,29.76,2.28V72.36c-.84-.12-16.8-1.68-17.76-1.68Z" fill="#0b77bd"/><path d="M89.52,22.2a.42627.42627,0,0,1-.24.36c-.12.24-.48.36-.96.48a5.92143,5.92143,0,0,0-1.8.36h-.24c-.24,0-.24-.12006-.24-.12006a.11753.11753,0,0,0-.12-.12V9.48s0-.12.24-.36a1.67592,1.67592,0,0,1,.96-.48c.48,0,1.08-.24,1.56-.24.12,0,.24-.12006.36-.12006A.52541.52541,0,0,1,89.4,8.4a.11752.11752,0,0,1,.12.12Zm4.8-16.8a2.38852,2.38852,0,0,0-1.44-.96,2.58394,2.58394,0,0,0-1.32-.24,9.2632,9.2632,0,0,0-1.8.24c-1.44.24-3,.6-4.44.72a8.03176,8.03176,0,0,0-2.88,1.08,4.60574,4.60574,0,0,0-1.32,1.32,4.96335,4.96335,0,0,0-.6,2.28V24.36a3.14146,3.14146,0,0,0,.6,2.04,2.38867,2.38867,0,0,0,1.44.96h1.08c.72,0,1.32-.12,1.92-.12,1.56-.36,3-.6,4.56-.84A16.196,16.196,0,0,0,93,25.44a6.845,6.845,0,0,0,1.32-1.32,3.70237,3.70237,0,0,0,.6-2.16V7.44A2.77316,2.77316,0,0,0,94.32,5.4Z"/><path d="M162.72,2.52a3.19205,3.19205,0,0,0-1.32-1.2,8.2594,8.2594,0,0,0-3-.72c-3-.24-6-.36-8.88-.36h-.96V22.2h.84c1.32.12,2.64.12,3.96.24h.84V3.96c.6,0,1.2.12,1.8.12,2.16.24,1.8.96,1.92,1.08v17.4h.72c1.32.12,2.52.24,3.84.36l.84.12V4.56A2.58626,2.58626,0,0,0,162.72,2.52Z"/><path d="M175.44,20.4a6.76665,6.76665,0,0,1-.84.12.89927.89927,0,0,1-.6-.12,10.56355,10.56355,0,0,1-2.04-.24005V5.64c.6,0,1.2.12,1.8.12a4.04843,4.04843,0,0,1,1.44.48c.36.24.48.36.48.96V19.8C175.56,20.28,175.56,20.28,175.44,20.4ZM180.6,4.56a4.975,4.975,0,0,0-1.44-1.32,6.77973,6.77973,0,0,0-2.88-.84c-1.2-.24005-7.32-.96-8.88-1.08l-.96-.12V23.4h.72c3,.36,6,.72,8.88,1.08a5.38153,5.38153,0,0,0,1.32.12,5.32584,5.32584,0,0,0,1.56-.24,3.44574,3.44574,0,0,0,1.56-.96,3.595,3.595,0,0,0,.72-2.16V6.72A4.49124,4.49124,0,0,0,180.6,4.56Z"/><path d="M106.92,10.68a1.18515,1.18515,0,0,1-.24.72,7.0673,7.0673,0,0,1-1.56.6,7.08255,7.08255,0,0,0-1.68.24V6a10.50338,10.50338,0,0,0,1.92-.24h.84c.48,0,.72,0,.72.12.12.12,0,0,.12.24V9.84A2.70256,2.70256,0,0,0,106.92,10.68Zm5.64,11.88V15.24a2.35765,2.35765,0,0,0-1.08-2.04c-.12,0-.12-.12-.36-.12a2.77467,2.77467,0,0,0,1.32-2.28V5.16A3.59473,3.59473,0,0,0,111.72,3a3.05989,3.05989,0,0,0-1.44-.96,7.26327,7.26327,0,0,0-1.8-.24,4.50173,4.50173,0,0,0-1.2.12c-2.88.36-5.88.72-8.76,1.08l-.72.12V25.2l.96-.12a37.29383,37.29383,0,0,1,3.84-.48l.72-.12V15.84A11.95937,11.95937,0,0,0,105.24,15.6h.72a1.14756,1.14756,0,0,1,.84.24005c.12,0,.12.12.12.48V24l1.08-.12c1.2-.12,2.52-.24,3.72-.36l.84-.12Z"/><path d="M127.92,17.64V14.76h-.84l-3.36.24-1.32,3.96h-1.44V.6H120c-1.2.12-2.64.24005-3.84.36h-.84v22.2l.96-.12c3.6-.24,7.32-.48,10.92-.6h.72v-4.8Z"/><path d="M139.92,10.2H136.2V4.44c0-.12,0-.24.24-.48a3.40645,3.40645,0,0,1,1.68-.36h1.8ZM144.72,0h-9a7.49941,7.49941,0,0,0-3,.48,4.53493,4.53493,0,0,0-1.44,1.08,3.69244,3.69244,0,0,0-.72,2.28V22.2h.96c1.2,0,2.52-.12,3.84-.12h.84V13.8h3.72v8.16h.84c1.2,0,2.64,0,3.84.12h.96V0Z"/><path d="M192.72,23.16h0v.12a.52538.52538,0,0,1-.36.12006A.44076.44076,0,0,1,192,23.28a8.16458,8.16458,0,0,0-1.8-.24c-.48-.12-.84-.36-.84-.6a.37164.37164,0,0,1-.12-.24V8.4h.84c.48.12,1.08.24,1.56.36a1.78853,1.78853,0,0,1,.96.36.42338.42338,0,0,1,.12.48Zm4.92-15.48a3.47067,3.47067,0,0,0-1.32-1.32,8.21032,8.21032,0,0,0-2.88-1.2c-1.44-.24-3-.6-4.44-.84a8.50117,8.50117,0,0,0-1.68-.12,4.49968,4.49968,0,0,0-1.32.12,3.27443,3.27443,0,0,0-1.56.84,3.95093,3.95093,0,0,0-.72,2.28V21.96a3.70233,3.70233,0,0,0,.6,2.16,4.606,4.606,0,0,0,1.32,1.32,11.53624,11.53624,0,0,0,2.88.96c1.56.24,3,.48,4.44.84a11.96594,11.96594,0,0,0,1.92.24,3.32232,3.32232,0,0,0,1.08-.12,2.50937,2.50937,0,0,0,1.56-.84,3.27586,3.27586,0,0,0,.6-2.16V9.84A4.707,4.707,0,0,0,197.64,7.68Z"/><polygon points="105.96 127.8 108.72 126.48 111.12 128.52 110.64 125.52 113.28 123.96 110.28 123.36 109.56 120.36 108.12 123.12 105.12 122.76 107.28 125.04 105.96 127.8" fill="#fff"/><path d="M199.2,110.64c2.76-1.2,7.8-3.36,7.8-3.36l.36-.12-.36-.12s-8.16-2.76-9.84-3.24c-.36-1.92-1.56-10.8-1.56-10.8l-.12-.36-3,4.8s-1.68,2.76-2.64,4.2c-1.92-.6-10.32-2.64-10.32-2.64l-.48-.24.36.48s3.36,4.32,5.4,7.08a133.28335,133.28335,0,0,0-29.4-2.88c-3.72,0-7.56.12-11.64.36a163.02551,163.02551,0,0,0-44.76,9l1.68-5.04-.36.12c-22.56,7.08-47.28,28.32-58.2,49.2l.24.12c15.36-14.4,36.36-26.04,55.08-30.24l-4.92,11.4.36-.12c8.64-4.2,20.16-6,31.68-6,11.88,0,23.76,1.92,33,5.28l-3.48,7.68c-8.4-3.84-20.52-6.36-30.72-6.36-1.8,0-3.48,0-5.16.12v.36c12,3.36,24.24,7.2,34.08,15a17.723,17.723,0,0,0-.12,2.52c0,20.52,17.76,39.24,38.76,39.24h.48c22.92-.24,40.08-21.36,40.08-43.44C231.36,136.56,222.12,119.88,199.2,110.64Z"/><path d="M186.6,148.44c-8.4,0-17.04-3.12-25.56-6.24a34.48866,34.48866,0,0,0-3.36,14.88,31.60086,31.60086,0,0,0,.96,8.16h2.16a96.74205,96.74205,0,0,0,48.12-12.96,83.15183,83.15183,0,0,0-5.76-8.64A30.22245,30.22245,0,0,1,186.6,148.44Z" fill="#c2ccd2"/><path d="M160.2,168.36h-.6c5.16,13.44,17.04,22.2,31.44,22.44,4.68-11.4,9.72-23.76,21.48-29.64-.6-1.92-1.32-3.96-2.16-6A99.53378,99.53378,0,0,1,160.2,168.36Z" fill="#c2ccd2"/><path d="M195.84,126.6a40.56707,40.56707,0,0,0-8.64-2.64c-1.44.24-3.48.36-5.04.6,8.76,3.48,15.24,7.68,21.6,15a31.90365,31.90365,0,0,0,8.28-9.24c-5.88-5.76-17.04-12.84-45-15,11.76,2.76,22.56,6.6,28.92,11.04Z" fill="#c2ccd2"/><path d="M117.72,122.64h5.52c19.8,0,50.28,2.28,62.16,16.32l-.24.24c-4.08-2.16-12.24-6-17.4-6h-.36a41.01378,41.01378,0,0,0-4.8,6.24c7.92,3,15.96,5.88,23.88,5.88a27.65013,27.65013,0,0,0,14.88-4.08c-13.8-15-36.96-21.6-58.92-21.6A108.94435,108.94435,0,0,0,117.72,122.64Z" fill="#c2ccd2"/><path d="M211.32,150.72a48.03282,48.03282,0,0,0,10.2-8.88,35.26533,35.26533,0,0,0-7.56-9.6,34.12664,34.12664,0,0,1-8.4,9.72A52.53866,52.53866,0,0,1,211.32,150.72Z" fill="#c2ccd2"/><path d="M194.4,190.68a34.74163,34.74163,0,0,0,18.72-7.8,36.03424,36.03424,0,0,0,1.2-9.48,45.69874,45.69874,0,0,0-.84-9C202.92,169.44,198.6,180.48,194.4,190.68Z" fill="#c2ccd2"/><path d="M217.32,175.44v3.12a37.20782,37.20782,0,0,0,7.44-17.4,43.682,43.682,0,0,0-8.76,1.8A55.167,55.167,0,0,1,217.32,175.44Z" fill="#c2ccd2"/><path d="M212.88,153.6c.84,2.03992,1.68,4.2,2.52,6.36a44.76657,44.76657,0,0,1,9.72-1.8v-.72a32.92854,32.92854,0,0,0-2.16-12.24A61.40924,61.40924,0,0,1,212.88,153.6Z" fill="#c2ccd2"/><path d="M225.12,158.16a45.83714,45.83714,0,0,0-9.84,1.8,58.39716,58.39716,0,0,0-2.52-6.36,63.36558,63.36558,0,0,0,10.2-8.4,39.23357,39.23357,0,0,1,2.16,12.24Z" fill="#c2ccd2"/><path d="M213.96,132.12a37.94275,37.94275,0,0,1,7.56,9.72,51.09407,51.09407,0,0,1-10.2,8.76,82.09515,82.09515,0,0,0-5.64-8.64A34.46825,34.46825,0,0,0,213.96,132.12Z" fill="#c2ccd2"/><path d="M167.16,115.2c27.84,2.16,39,9.36,45,15a32.08683,32.08683,0,0,1-8.28,9.24,54.2695,54.2695,0,0,0-21.6-14.88,37.469,37.469,0,0,1,4.92-.72,68.04472,68.04472,0,0,1,8.76,2.64l.12-.24C189.72,121.8,178.92,117.96,167.16,115.2Z" fill="#c2ccd2"/><path d="M160.8,165.24h-2.16a32.51447,32.51447,0,0,1-.96-8.28,33.97486,33.97486,0,0,1,3.36-14.76c8.52,3.12,17.04,6.24,25.56,6.24a31.26114,31.26114,0,0,0,16.56-4.8,50.592,50.592,0,0,1,5.76,8.52A96.86161,96.86161,0,0,1,160.8,165.24Z" fill="#c2ccd2"/><path d="M191.04,190.8c-14.4-.24-26.28-9-31.44-22.44h.6a99.85458,99.85458,0,0,0,50.16-13.2,50.92413,50.92413,0,0,1,2.16,6C200.76,167.04,195.6,179.4,191.04,190.8Z" fill="#c2ccd2"/><path d="M217.32,178.56v-3.12A55.167,55.167,0,0,0,216,162.96a42.03214,42.03214,0,0,1,8.76-1.8A36.18674,36.18674,0,0,1,217.32,178.56Z" fill="#c2ccd2"/><path d="M201.36,141.24a27.25705,27.25705,0,0,1-14.76,4.08c-8.04,0-16.08-2.88-23.88-5.88a40.32838,40.32838,0,0,1,4.68-6.24h.48c5.04,0,13.32,3.72,17.4,6l.24-.24c-11.88-14.04-42.36-16.32-62.16-16.32h-5.64a103.63108,103.63108,0,0,1,24.84-2.88C164.4,119.76,187.68,126.24,201.36,141.24Z" fill="#c2ccd2"/><path d="M213.12,182.88a34.74173,34.74173,0,0,1-18.72,7.8c4.2-10.2,8.52-21.24,18.96-26.28a45.8803,45.8803,0,0,1,.96,9A36.03389,36.03389,0,0,1,213.12,182.88Z" fill="#c2ccd2"/><polygon points="185.52 113.64 191.64 111.6 196.2 116.76 195.72 109.92 201.6 107.4 195.12 105.24 194.16 98.52 190.8 104.04 184.32 102.36 188.64 107.88 185.52 113.64" fill="#c2ccd2"/><polygon points="153.36 118.56 157.56 116.4 161.04 119.64 160.32 114.96 164.4 112.56 159.72 111.84 158.76 107.16 156.6 111.36 151.92 110.88 155.16 114.24 153.36 118.56" fill="#fff"/><polygon points="105.96 127.8 108.72 126.48 111 128.52 110.64 125.52 113.28 123.96 110.16 123.36 109.56 120.36 108.12 123.12 105.12 122.76 107.16 125.04 105.96 127.8" fill="#fff"/><path d="M210.72,169.68v-.48l-3.84,6.48,1.08-5.76-.24-.12c-5.76,6.96-7.92,11.88-9.72,18v.36l.24-.12a37.812,37.812,0,0,0,11.16-5.88c.96-2.04,1.32-6.24,1.32-11.4Z" fill="#0b77bd"/><path d="M197.76,154.56a111.71437,111.71437,0,0,1-20.28,2.04,22.19163,22.19163,0,0,1-2.88-.11993L188.88,152.16v-.24c-9.48-.48-16.8-.6-26.04-4.92l-.12-.12-.12.12a21.23529,21.23529,0,0,0-2.16,9.48,19.3627,19.3627,0,0,0,.84,5.87994h1.08c4.08,0,21.12-.36,35.4-7.56Z" fill="#0b77bd"/><path d="M200.88,166.2c-7.2,5.4-12.72,9.72-23.28,11.64,9.84-5.04,16.44-8.64,22.68-15l-.24-.24005c-11.04,6.48-25.44,9.24005-35.52,9.6h-.36l.24.24c8.28,13.2,18.84,14.4,22.32,14.4h1.2V186.72c4.56-7.08,7.44-13.92,13.2-20.4Z" fill="#0b77bd"/><path d="M193.44,122.16a4.54808,4.54808,0,0,0-1.56-.72c8.52,2.52,14.28,5.76,17.52,8.28a13.817,13.817,0,0,1-1.68,2.04A43.99554,43.99554,0,0,0,193.44,122.16Zm26.28,47.88v-.6a33.3153,33.3153,0,0,0,.84-6.84,4.97466,4.97466,0,0,1,1.92-.36A42.9437,42.9437,0,0,1,219.72,170.04Zm3.6-15a21.37926,21.37926,0,0,0-3.12.48,32.55649,32.55649,0,0,0-1.08-4.92,18.551,18.551,0,0,0,3.24-2.88A24.518,24.518,0,0,1,223.32,155.04ZM219.6,141c-1.08.96-1.92,1.92-2.88,2.75995a33.32089,33.32089,0,0,0-3.6-6.36c.72-.96,1.44-1.8,2.04-2.75995A30.52467,30.52467,0,0,1,219.6,141Z" fill="#fff" fill-rule="evenodd"/></svg>