<?xml version="1.0" encoding="UTF-8" standalone="no"?>
<svg xmlns:rdf="http://www.w3.org/1999/02/22-rdf-syntax-ns#" xmlns="http://www.w3.org/2000/svg" height="219.91632" width="219.91632" version="1.1" xmlns:cc="http://creativecommons.org/ns#" xmlns:dc="http://purl.org/dc/elements/1.1/" viewBox="0 0 219.91632 219.91632"><path d="M219.91632,109.95816A109.95816,109.95816,0,1,1,109.95816,0,109.93764,109.93764,0,0,1,219.91632,109.95816" fill="#fff"/><path d="M215.86926,109.95816A105.9111,105.9111,0,1,1,109.95816,4.04707a105.91295,105.91295,0,0,1,105.9111,105.91109" fill="#006bb6"/><polygon points="20.388 128.017 22.564 134.928 29.895 134.928 23.977 139.242 26.115 146.038 20.388 141.877 14.585 146.038 16.761 139.242 10.805 134.928 18.135 134.928 20.388 128.017" fill="#fff"/><polygon points="199.566 128.017 201.743 134.928 209.111 134.928 203.155 139.242 205.332 146.038 199.566 141.877 193.801 146.038 195.978 139.242 190.021 134.928 197.314 134.928 199.566 128.017" fill="#fff"/><polygon points="46.121 165.052 48.298 171.924 55.628 171.924 49.672 176.277 51.848 183.073 46.121 178.911 40.318 183.073 42.494 176.277 36.538 171.924 43.869 171.924 46.121 165.052" fill="#fff"/><polygon points="176.239 165.052 178.415 171.924 185.745 171.924 179.827 176.277 182.004 183.073 176.239 178.911 170.435 183.073 172.65 176.277 166.694 171.924 173.986 171.924 176.239 165.052" fill="#fff"/><polygon points="86.248 189.143 88.387 196.054 95.755 196.054 89.799 200.368 91.975 207.164 86.248 203.003 80.445 207.164 82.621 200.368 76.665 196.054 83.996 196.054 86.248 189.143" fill="#fff"/><polygon points="135.004 189.143 137.18 196.054 144.511 196.054 138.555 200.368 140.731 207.164 135.004 203.003 129.201 207.164 131.377 200.368 125.421 196.054 132.752 196.054 135.004 189.143" fill="#fff"/><path d="M189.37239,110.4545a79.41423,79.41423,0,1,1-79.41423-79.41423,79.40212,79.40212,0,0,1,79.41423,79.41423" fill="#fff"/><path d="M35.27824,126.07009a76.31348,76.31348,0,0,0,90.29551,59.06434,74.8205,74.8205,0,0,0,48.22124-32.9111,77.64055,77.64055,0,0,0,10.8431-57.38441A76.36406,76.36406,0,0,0,94.38076,35.73641a76.31347,76.31347,0,0,0-59.10252,90.33368" fill="#006bb6"/><path d="M135.92051,51.00837c.26726,2.978-1.1454,5.87971-4.12343,8.62867C117.47961,49.13756,103.84937,43.98327,90.4864,43.90691a54.52894,54.52894,0,0,0-8.3614.64906,72.77636,72.77636,0,0,1,13.21026-4.12343,71.28147,71.28147,0,0,1,35.431,1.56537c2.48169,2.40533,4.887,5.53609,5.15429,9.01046" fill="#fff"/><path d="M120.99216,174.25314C136.035,160.432,143.022,130.84258,147.18358,113.16527l.64906-2.749c2.13808-9.01046,5.91789-15.73013,10.00315-19.739,15.08106,23.44247,13.05753,47.64855,9.23954,62.84415A71.70715,71.70715,0,0,1,109.92,182.00365a48.94635,48.94635,0,0,0,11.07216-7.75051" fill="#fff"/><path d="M148.329,73.84c6.10879-5.11611,10.99581-9.01047,14.47018-11.56852a71.22646,71.22646,0,0,1,16.07375,29.01673c-2.82531-3.77981-6.41422-7.36872-10.30858-8.1705-3.35982-.68724-6.796.26726-10.04131,2.55806A97.95706,97.95706,0,0,0,148.329,73.84" fill="#fff"/><path d="M39.82165,107.24739C46.7704,88.61559,72.23641,80.9796,81.81956,78.11611l.42-.11454a116.60124,116.60124,0,0,1,12.90481-2.59624c12.33211-2.09989,27.5659-4.69613,36.76725-11.56852a139.88283,139.88283,0,0,1,11.49216,9.81224C122.59572,91.32637,90.41,121.03034,56.0863,157.49216a70.88083,70.88083,0,0,1-16.11193-32.41475,70.10732,70.10732,0,0,1-1.52719-14.58473c.80178-1.909,1.37447-3.24529,1.37447-3.24529" fill="#fff"/><path d="M145.92365,71.511a143.7547,143.7547,0,0,0-11.454-9.85042c3.47438-3.398,5.07793-7.06329,4.73431-10.95764a14.07149,14.07149,0,0,0-2.36716-6.49058,72.98843,72.98843,0,0,1,23.63337,15.65376c-3.58891,2.6726-8.51412,6.60513-14.54654,11.64488" fill="#fff"/><path d="M129.12448,61.77511c-8.62866,5.95607-22.90795,8.39958-34.55282,10.34676a129.86769,129.86769,0,0,0-13.28661,2.67259l-.42.11454c-9.20137,2.749-32.33839,9.65952-41.88337,26.34415A71.519,71.519,0,0,1,50.09206,71.28191,74.95537,74.95537,0,0,1,69.25837,51.23745c16.95188-7.13965,35.96548-6.64331,59.86611,10.53766" fill="#fff"/><path d="M167.8771,86.363c5.00157,1.03086,10.34676,9.43044,12.90481,14.2411a70.76316,70.76316,0,0,1-8.66685,45.205c.3818-2.40533.68724-4.96339.91632-7.636a79.19717,79.19717,0,0,0-12.63756-49.71025c2.59624-1.83264,5.19249-2.55806,7.48328-2.09989" fill="#fff"/><path d="M145.8091,75.978a88.31452,88.31452,0,0,1,10.11768,11.83577c-4.887,4.65795-9.04865,12.37029-11.30126,21.83892l-.64906,2.78713c-4.08526,17.33368-10.91946,46.31223-25.19875,59.408a41.87285,41.87285,0,0,1-16.83734,9.73588,71.36393,71.36393,0,0,1-31.15482-11.26308,72.83012,72.83012,0,0,1-12.48483-10.34676C92.9681,123.09205,125.26831,93.42626,145.8091,75.978" fill="#fff"/><path d="M129.69718,131.68253l1.94718-.53451c1.18358-.30544,1.94718-.68724,1.94718-2.40533,0-1.41267-.3818-3.97071-2.0999-3.97071-1.79446,0-1.79446,3.05439-1.79446,4.69612Z" fill="#fff"/><path d="M106.4456,130.6135c0-6.10879-.22908-11.37761-4.3525-11.37761-3.35983,0-3.97071,5.26882-3.97071,11.37761s-.1909,11.41579,3.97071,11.41579c3.47437-.03818,4.3525-5.307,4.3525-11.41579" fill="#fff"/><path d="M129.69718,131.68253l1.94718-.53451c1.18358-.30544,1.94718-.68724,1.94718-2.40533,0-1.41267-.3818-3.97071-2.0999-3.97071-1.79446,0-1.79446,3.05439-1.79446,4.69612Z" fill="#fff"/><path d="M97.62605,116.60146h.07636c1.98536-3.09257,5.76517-4.58159,9.46861-4.58159,8.39958,0,13.55387,7.25419,13.55387,16.99007,0,11.53034-7.82688,18.40272-17.4864,18.40272-14.852,0-20.27353-11.98849-20.27353-25.886,0-15.99738,6.94875-29.20763,24.24424-29.20763,6.75785,0,12.29394,4.3525,12.29394,10.99581a6.229,6.229,0,0,1-6.52877,6.41422c-4.65795,0-6.147-3.89436-6.8342-7.33055-.26726-1.45083.26726-4.658-2.13808-4.658-5.03975,0-5.84152,9.85042-6.0706,13.47751Z" fill="#fff"/><path d="M106.4456,130.6135c0-6.10879-.22908-11.37761-4.3525-11.37761-3.35983,0-3.97071,5.26882-3.97071,11.37761s-.1909,11.41579,3.97071,11.41579c3.47437-.03818,4.3525-5.307,4.3525-11.41579" fill="#fff"/><path d="M16.37919,92.92992c2.82531.34361,3.97071,2.329,3.55073,5.99425l-.30544,2.67259,1.52719.1909c1.94718.22908,2.6726.1909,2.90168-1.37448l1.79445.22908-.83995,7.25419-1.79446-.22908c.15272-1.60356-.5727-1.79446-2.51987-2.02353l-5.65063-.64907c-1.94718-.22908-2.6726-.1909-2.90168,1.37448l-1.79445-.22908.9545-7.94142C11.75942,94.3044,13.47751,92.5863,16.37919,92.92992Zm1.52719,7.71234c.26726-2.40533-.42-3.70345-2.13807-3.89435-1.489-.1909-2.55806.7636-2.78714,2.55806-.15272,1.25993.30544,1.52719,1.67992,1.67991l3.13075.3818C17.83,101.1386,17.8682,100.90952,17.90638,100.64226Z" fill="#fff"/><path d="M26.9932,84.91213c.5727-1.489-.03818-1.87081-1.83264-2.63441l-5.23064-2.17625c-1.79446-.7636-2.51988-.91632-3.16894.53451l-1.67992-.68724,2.82532-6.71966,1.64174.68724c-.5727,1.489.03818,1.87081,1.83263,2.63441l1.3363.5727,2.0999-5.03975-1.3363-.5727c-1.79446-.7636-2.51987-.91632-3.16894.53452L18.67,71.35826l2.82531-6.71967,1.67992.68724c-.5727,1.489.03818,1.87081,1.83264,2.63441l5.23064,2.17626c1.79446.76359,2.51988.91631,3.16894-.53452l1.67991.68724L32.262,77.00889l-1.64174-.68724c.5727-1.489-.03818-1.87082-1.83263-2.63442l-2.2908-.95449L24.397,77.77248l2.2908.9545c1.79445.7636,2.51987.91632,3.16893-.53451l1.64174.68724-2.82531,6.71966Z" fill="#fff"/><path d="M34.01831,49.21391c-.91632,1.29812-.42,1.83264,1.1454,3.01621l4.5434,3.398c1.56538,1.18358,2.21444,1.489,3.20711.26726l1.45084,1.069-4.35251,5.80335-1.45083-1.069c.91631-1.29812.42-1.83264-1.18358-3.01621l-4.54341-3.398c-1.56538-1.18358-2.21444-1.5272-3.20712-.26726l-1.45084-1.069,4.35252-5.80335Z" fill="#fff"/><path d="M50.43567,50.05387l-1.14539-1.37448c1.18358-1.069.80178-1.67991-.45816-3.16893L45.16684,41.158c-1.25994-1.489-1.79445-1.98535-3.05439-.99268l-1.1454-1.37448,5.57427-4.65795,1.1454,1.37448c-1.18358,1.069-.84,1.67992.42,3.20711L52.192,43.56328c.9545,1.10722,1.37448,1.29812,2.51988.34362,1.5272-1.29812,2.17625-3.58891,1.64174-6.49059l1.60355-.34361,1.64174,5.34518Z" fill="#fff"/><path d="M67.73117,36.72908l-.7636-1.64174c1.37448-.84,1.29812-1.75627,1.25994-3.35983l-.3818-11.26308L70.90011,19.09l8.39958,8.20868c.95449.91632,1.489,1.37447,2.71077.9545l.7636,1.64173-6.6433,3.01622-.72542-1.60356a.28945.28945,0,0,0,.15272-.07636c.91632-.42,1.25994-.80177.99268-1.37447a1.721,1.721,0,0,0-.3818-.53452l-1.5272-1.5272-4.27615,1.94718.26726,2.09989a1.61128,1.61128,0,0,0,.11454.45816c.30544.64906.91632.68724,1.94718.22908L73.42,34.13284Zm5.42155-10.2704L70.022,23.09885l.26726,4.69613Z" fill="#fff"/><path d="M90.181,25.8478c1.56538-.26726,1.60356-.99267,1.3363-2.93985l-.80178-5.61245c-.26727-1.94717-.49634-2.63441-2.0999-2.44351l-.26726-1.79446,7.33054-1.03085c5.65063-.80178,9.01047,1.41265,9.6977,6.0706.64906,4.69614-1.94718,7.71235-7.5978,8.55231l-7.33055,1.03085Zm5.26882-2.59623c.1909,1.45084.45817,1.83264,1.98536,1.60356,2.90168-.42,4.50523-2.71078,3.97071-6.22333-.49633-3.51255-2.63441-5.26883-5.57427-4.84885-1.52719.22908-1.64173.64906-1.45083,2.0999Z" fill="#fff"/><path d="M115.79968,23.70973c1.56538.1909,1.83264-.49634,2.0999-2.44352l.80178-5.61244c.26726-1.94718.26726-2.6726-1.29811-2.93986l.26726-1.79445,12.103,1.75627,1.3363,4.69614-1.45084.49634c-1.18358-2.44352-2.86349-3.85618-5.1161-4.16162-1.45084-.22908-1.7181.1909-1.909,1.60356L122.32848,17.41l.68723.11455c1.5272.22907,1.98536-.1909,2.329-1.98536l1.52719.22908-.95449,6.567-1.5272-.22908c.03818-1.7181-.45816-2.59624-1.64173-2.74895l-.68724-.11455-.49633,3.398c-.1909,1.41265-.07637,1.87081,1.41266,2.06171,2.13808.30544,4.658-.72541,6.6433-3.09257l1.25994.9545-2.93986,4.69613-12.40847-1.83264Z" fill="#fff"/><path d="M138.63128,30.16213l.72542-1.64173c1.489.61088,1.87081,0,2.67259-1.83264l2.2908-5.19247c.80178-1.79445.99268-2.48169-.45817-3.16893l.72542-1.64174,6.6433,2.90167-.72541,1.64174c-1.489-.61088-1.87082,0-2.6726,1.79446l-2.55806,5.80334c-.5727,1.3363-.53451,1.79446.84,2.40534,1.83263.80178,4.19979.3818,6.52876-1.41266l1.03087,1.25994-4.04708,3.85617Z" fill="#fff"/><path d="M176.00942,40.96705c-1.79446,2.21444-4.08526,2.13808-6.98692-.1909l-2.0999-1.67991-.9545,1.18358c-1.22176,1.5272-1.60356,2.17625-.38179,3.20711l-1.1454,1.41265L158.79029,40.318l1.14539-1.41265c1.25994.9545,1.83263.49634,3.0544-1.03086l3.55072-4.42887c1.22177-1.52719,1.56538-2.17625.3818-3.20711l1.1454-1.41266,6.22332,5.03975C177.30753,36.27092,177.84205,38.67626,176.00942,40.96705Zm-7.36872-2.86349c1.87081,1.5272,3.35983,1.60355,4.42887.26726.9545-1.18358.72542-2.55806-.68723-3.70345-.99268-.80178-1.45083-.5727-2.329.49634L168.068,37.60722C168.29707,37.79812,168.488,37.95084,168.6407,38.10356Z" fill="#fff"/><path d="M177.11663,54.21548c.9545,1.29812,1.60356.99268,3.20711-.15271l4.658-3.2453c1.60356-1.10721,2.13806-1.64174,1.25993-2.978l1.489-1.03086,4.16162,5.95607-1.45083,1.03086c-.9545-1.29812-1.60357-.99268-3.20713.15271l-1.18356.84,3.13075,4.46705,1.18357-.84c1.60356-1.10721,2.13807-1.64173,1.25993-2.978l1.45084-1.03086,4.16162,5.95607-1.489,1.03086c-.9545-1.29812-1.60356-.99268-3.20712.15272l-4.658,3.24529c-1.60356,1.10721-2.13806,1.64174-1.25993,2.978l-1.489,1.03086-4.16159-5.95606,1.45083-1.03086c.9545,1.29811,1.60356.99268,3.20712-.15272l2.02353-1.41265-3.13075-4.46705L182.5,57.19352c-1.60356,1.10722-2.13807,1.64174-1.25993,2.978l-1.45083,1.03085-4.16162-5.95607Z" fill="#fff"/><path d="M203.57532,79.22333c-.61087-1.489-1.33629-1.3363-3.16893-.64906l-5.307,2.02354c-1.83263.68724-2.44353,1.069-1.94717,2.59623l-1.67993.64906-2.59622-6.796L190.556,76.398c.61087,1.489,1.3363,1.29811,3.16893.61088l5.307-2.02354c1.83263-.68724,2.48169-1.069,1.94716-2.558l1.67993-.64906,2.59623,6.796Z" fill="#fff"/><path d="M194.06851,91.8227l1.79447-.22908c.38179,1.56538,1.29812,1.75628,2.82532,2.17626l10.88127,2.93986.42,3.32165L199.681,105.64385c-1.18357.64906-1.75627.99268-1.7181,2.329l-1.79446.22909-.9545-7.216,1.75627-.22908v.15272c.11453.99268.42,1.45083,1.03086,1.37448a2.20515,2.20515,0,0,0,.64906-.22908l1.909-1.03087-.61087-4.65795-2.09989-.3818a2.17711,2.17711,0,0,0-.49634-.03818c-.68723.07636-.91633.68723-.80177,1.79446l-1.75626.22908Zm8.24688,8.1705,4.12343-2.02353-4.54342-1.10722Z" fill="#fff"/><path d="M154.59048,119.73222a5.03511,5.03511,0,0,0-3.818,1.75628c-.11453-.22908-.1909-.45816-.30543-.64906l-.80178-1.56538-11.4158,3.35983v6.2615h2.0999c.1909,0,.30543.03818.34361,0a6.626,6.626,0,0,1,.26727,2.6726v7.25418l-2.0999.30543V146h15.80649V139.1276l-2.06172-.30543v-2.13808a28.71078,28.71078,0,0,1,.5727-4.92521,6.697,6.697,0,0,0,2.06172.30544c2.82531,0,4.81067-2.55806,4.81067-6.18515C160.08839,122.21392,157.874,119.73222,154.59048,119.73222Z" fill="#fff"/><path d="M174.40586,127.02459a3.28386,3.28386,0,0,1-.1909-.99268c0-1.87081-.7636-6.22332-7.67417-6.22332-3.818,0-11.33944,2.93986-11.33944,9.77406a8.99561,8.99561,0,0,0,1.83263,5.727,5.31717,5.31717,0,0,0-2.44351,4.7343c0,2.44352,1.22176,6.567,9.5068,6.567,7.10146,0,11.14854-3.66527,11.14854-10.07949C175.284,130.4226,174.74949,128.39906,174.40586,127.02459Z" fill="#fff"/><path d="M90.8682,90.2955a2.29448,2.29448,0,0,0-1.71809-.80178c-1.03087,0-1.87082.64907-2.8635,1.7181a17.70115,17.70115,0,0,1-13.17207,5.45972c-6.87238,0-14.12657-3.16893-19.89174-8.66684a2.36884,2.36884,0,0,0-1.67991-.68724c-2.82531,0-3.55074,4.50523-3.55074,4.58159v22.64069l1.79446.26726a44.16147,44.16147,0,0,0,18.09728-.64906c-5.80335,5.19247-18.86088,19.319-18.67,32.75838.03818,2.48169,1.56538,2.749,2.21444,2.749a2.49055,2.49055,0,0,0,1.71809-.72542c.11454-.07637.22909-.1909.34362-.26726a14.43159,14.43159,0,0,1,8.285-2.17626,18.33328,18.33328,0,0,1,7.67417,1.56537,3.07893,3.07893,0,0,0,1.41265.3818,2.278,2.278,0,0,0,1.67992-.72541,2.93018,2.93018,0,0,0,.5727-2.44351c-.9545-9.77407,1.18358-20.42626,5.34518-26.57323l.61089-.91632c3.55073-5.23065,10.91945-16.1501,12.29393-25.16056A2.73438,2.73438,0,0,0,90.8682,90.2955Z" fill="#fff"/><path d="M143.442,133.55335l-.11453-1.7181a16.5862,16.5862,0,0,0-.49634-3.20711l-.07636-1.98536-.3818.5727a10.84825,10.84825,0,0,0-10.42311-7.48327c-7.33055,0-12.44666,5.80335-12.44666,14.08839,0,6.376,3.74163,12.79027,12.02668,12.79027a13.2072,13.2072,0,0,0,11.41579-6.2615l.30543-.53452-.22908-6.147Zm-8.89592,3.97072a1.91283,1.91283,0,0,1-1.67992-1.10722l4.04708-1.10721A7.83024,7.83024,0,0,1,134.546,137.52407Z" fill="#fff"/><path d="M116.14331,113.50889c-.42-.5727-.87813-1.25993-1.25993-1.83263a8.15909,8.15909,0,0,0,6.75785-8.32322c0-7.48327-6.18515-13.09571-14.39383-13.09571-16.49373,0-26.38233,11.72124-26.38233,31.30754,0,17.79184,8.1705,27.98587,22.37344,27.98587,11.53034,0,19.58629-8.43776,19.58629-20.50262C122.863,123.0157,118.81591,117.28871,116.14331,113.50889Z" fill="#fff"/><path d="M134.58421,139.66213c-2.55806,0-4.08526-2.329-4.31433-4.69612l10.99581-2.978c-.30543-5.38337-3.43619-10.11768-9.27771-10.11768-6.22332,0-10.34676,4.84885-10.34676,11.98849,0,5.57427,3.20711,10.6522,9.92678,10.6522a10.97031,10.97031,0,0,0,9.58316-5.23066l-2.17626-2.59623C137.944,138.364,136.6841,139.66213,134.58421,139.66213Zm-4.84886-10.15585c0-1.64173,0-4.69612,1.79446-4.69612,1.67992,0,2.0999,2.55806,2.0999,3.97071a2.13909,2.13909,0,0,1-1.94718,2.40533l-1.94718.53451Z" fill="#006bb6"/><path d="M152.6433,143.90011H141.03661v-2.93986l2.0999-.30544V131.568c0-3.2453-.42-4.81067-2.749-4.81067v-2.55806l8.24686-2.40533a15.29509,15.29509,0,0,1,1.37448,5.99425h.07637c.84-2.4817,1.87081-5.95607,4.5434-5.95607,2.36716,0,3.398,1.83263,3.398,4.04707,0,2.25261-.99269,4.08526-2.71078,4.08526a7.9257,7.9257,0,0,1-2.749-.68724c-1.489-.49633-1.98536,6.03243-1.98536,7.40691v3.9707l2.06171.30544v2.93985Z" fill="#006bb6"/><path d="M172.15324,126.07009c0,1.79446-1.56537,2.71078-3.20711,2.71078a4.032,4.032,0,0,1-3.77981-3.55073c-.84,0-1.45083.42-1.45083,1.87081,0,3.35983,9.5068.9545,9.5068,9.46862,0,6.376-4.61977,7.9796-9.04865,7.9796-2.71077,0-7.4069-.34362-7.4069-4.46706,0-1.87081,1.03086-3.28347,2.90168-3.28347,2.86349,0,3.35983,2.63441,3.85617,4.50522a.861.861,0,0,0,.9545.5727c1.5272,0,2.63441-.61088,2.63441-1.64173,0-3.818-9.73588-2.329-9.73588-10.65219,0-5.26883,6.22333-7.636,9.23955-7.636,3.398,0,5.53607,1.1454,5.53607,4.12344" fill="#006bb6"/><path d="M107.24739,112.05806c-3.70346,0-7.48327,1.489-9.46862,4.58159h-.07636l.3818-5.34519c.22908-3.62709,1.03086-13.47751,6.0706-13.47751,2.40533,0,1.87081,3.20711,2.13808,4.658.64906,3.398,2.13807,7.33055,6.8342,7.33055a6.24935,6.24935,0,0,0,6.52877-6.41423c0-6.6433-5.53609-10.99581-12.29394-10.99581-17.2955,0-24.24425,13.21026-24.24425,29.20764,0,13.89749,5.38337,25.886,20.27354,25.886,9.65952,0,17.4864-6.87239,17.4864-18.40273C120.80126,119.31224,115.647,112.05806,107.24739,112.05806Zm-5.15429,29.97123c-4.12343,0-3.97071-5.307-3.97071-11.41579s.5727-11.37761,3.97071-11.37761c4.1616,0,4.3525,5.26882,4.3525,11.37761C106.48379,136.72229,105.60565,142.02929,102.0931,142.02929Z" fill="#006bb6"/><path d="M50.09205,92.09v20.61716c11.53033,1.7181,25.31329.5727,35.08735-13.66841.42-.61088.64906-.19089.3818.34362-2.71078,5.53609-9.16318,10.6522-14.73745,15.04289-5.34519,4.19979-19.70084,19.24267-19.50994,32.49111,0,1.03086.03818.72541.95449.07636,4.35251-3.24529,12.86664-3.32165,18.09728-.84.72542.34362.80178.22908.68724-.68723-.99268-10.2704,1.29812-21.45712,5.68881-27.98589,3.01621-4.50523,11.18671-16.11193,12.59938-25.19875.15271-.95449-.34362-.80178-1.5272.45817-9.23954,9.77406-25.92416,9.5068-36.72908-.80178-.64906-.72543-.9545-.42-.99268.15271" fill="#ed174c"/><circle cx="70.10722" cy="79.72921" r="19.77635" fill="#fff"/><polygon points="70.098 60.668 70.747 62.768 73 62.768 71.167 64.066 71.816 66.128 70.098 64.868 68.304 66.128 68.991 64.066 67.158 62.768 69.411 62.768 70.098 60.668" fill="#006bb6"/><polygon points="83.232 68.342 83.919 70.404 86.172 70.404 84.339 71.74 84.988 73.802 83.232 72.542 81.476 73.802 82.163 71.74 80.331 70.404 82.583 70.404 83.232 68.342" fill="#006bb6"/><polygon points="77.582 62.424 78.269 64.486 80.521 64.486 78.689 65.822 79.338 67.884 77.62 66.624 75.863 67.884 76.513 65.822 74.68 64.486 76.933 64.486 77.582 62.424" fill="#006bb6"/><polygon points="85.408 75.558 86.058 77.658 88.31 77.658 86.478 78.994 87.165 81.056 85.408 79.796 83.652 81.056 84.301 78.994 82.507 77.658 84.721 77.658 85.408 75.558" fill="#006bb6"/><polygon points="84.454 83.232 85.141 85.332 87.356 85.332 85.561 86.668 86.21 88.73 84.454 87.432 82.698 88.73 83.347 86.63 81.552 85.332 83.805 85.332 84.454 83.232" fill="#006bb6"/><polygon points="80.216 89.341 80.865 91.441 83.118 91.441 81.323 92.777 81.972 94.839 80.254 93.579 78.46 94.839 79.147 92.777 77.314 91.441 79.567 91.441 80.216 89.341" fill="#006bb6"/><polygon points="73.573 92.777 74.26 94.877 76.474 94.877 74.642 96.213 75.329 98.275 73.573 97.015 71.816 98.275 72.465 96.213 70.671 94.877 72.885 94.877 73.573 92.777" fill="#006bb6"/><polygon points="56.697 67.655 56.01 69.755 53.796 69.755 55.59 71.053 54.941 73.115 56.659 71.855 58.453 73.115 57.766 71.053 59.599 69.755 57.346 69.755 56.697 67.655" fill="#006bb6"/><polygon points="62.195 62.424 61.508 64.486 59.293 64.486 61.088 65.822 60.439 67.884 62.195 66.624 63.951 67.884 63.302 65.822 65.097 64.486 62.882 64.486 62.195 62.424" fill="#006bb6"/><polygon points="54.101 74.642 53.452 76.742 51.199 76.742 53.032 78.04 52.383 80.14 54.101 78.842 55.857 80.14 55.208 78.04 57.041 76.742 54.826 76.742 54.101 74.642" fill="#006bb6"/><polygon points="54.826 82.278 54.139 84.378 51.887 84.378 53.719 85.714 53.07 87.776 54.788 86.516 56.544 87.776 55.895 85.714 57.69 84.378 55.475 84.378 54.826 82.278" fill="#006bb6"/><polygon points="59.026 88.539 58.377 90.639 56.124 90.639 57.957 91.975 57.27 94.037 59.026 92.739 60.821 94.037 60.133 91.975 61.928 90.639 59.713 90.639 59.026 88.539" fill="#006bb6"/><polygon points="65.669 92.51 65.02 94.61 62.768 94.61 64.6 95.946 63.951 98.008 65.669 96.748 67.464 98.008 66.777 95.908 68.609 94.61 66.357 94.61 65.669 92.51" fill="#006bb6"/></svg>