<?xml version="1.0" encoding="UTF-8" standalone="no"?><svg xmlns:rdf="http://www.w3.org/1999/02/22-rdf-syntax-ns#" xmlns="http://www.w3.org/2000/svg" height="257.97553" width="379.89548" version="1.1" xmlns:cc="http://creativecommons.org/ns#" xmlns:dc="http://purl.org/dc/elements/1.1/" viewBox="0 0 379.89548 257.97553"><path d="M379.89548.1262,342.78941,79.76541H193.98649L147.16218,180.22947H105.13387a67.5855,67.5855,0,0,1,2.90286-14.89291,60.94446,60.94446,0,0,1,21.07725-29.281,69.49215,69.49215,0,0,1,6.8154,9.21342c.37863.50483,1.00969.50483,1.13589,0h0L204.84064,0H379.89548Z"/><path d="M35.46533,211.40362a61.45306,61.45306,0,0,1-17.66956,21.20347A74.29536,74.29536,0,0,1,0,188.4332H41.77587a59.53036,59.53036,0,0,1-6.31054,22.97042"/><path d="M69.41612,188.4332v69.54233A73.80693,73.80693,0,0,1,23.7277,238.539a68.36452,68.36452,0,0,0,19.18409-23.47528,66.55361,66.55361,0,0,0,7.194-26.63055Z"/><path d="M38.74681,165.33656a56.5623,56.5623,0,0,1,2.90286,14.89291H0A74.24159,74.24159,0,0,1,17.79577,136.1818a59.00686,59.00686,0,0,1,20.951,29.15476"/><path d="M69.41612,110.81336v69.41611H49.97961a70.74566,70.74566,0,0,0-3.4077-17.54333,68.44121,68.44121,0,0,0-22.97043-32.56248,73.01982,73.01982,0,0,1,26.75675-15.77639,76.83812,76.83812,0,0,1,19.05789-3.53391"/><path d="M96.93015,180.22947H77.61984V110.81336a73.30527,73.30527,0,0,1,45.81464,19.3103,67.12085,67.12085,0,0,0-23.09663,32.56248,71.87412,71.87412,0,0,0-3.4077,17.54333"/><path d="M123.43448,238.66523a73.88429,73.88429,0,0,1-45.94085,19.3103V188.4332H96.80394a70.95458,70.95458,0,0,0,7.194,26.63055,69.49738,69.49738,0,0,0,19.4365,23.60148"/><path d="M147.16218,188.4332a73.63971,73.63971,0,0,1-17.922,44.17389A60.862,60.862,0,0,1,105.13387,188.307h42.02831Z"/></svg>