<?xml version="1.0" encoding="UTF-8" standalone="no"?>
<svg xmlns:rdf="http://www.w3.org/1999/02/22-rdf-syntax-ns#" xmlns="http://www.w3.org/2000/svg" height="121.67999" width="280.80001" version="1.1" xmlns:cc="http://creativecommons.org/ns#" xmlns:dc="http://purl.org/dc/elements/1.1/" viewBox="0 0 280.80001 121.67999"><path d="M237,107.16l29.16-66.72H131.04L125.4,53.28l-3.96-12.84h-27S76.56,81.12,71.4,92.88a36.97938,36.97938,0,0,0,.84-7.32V84.6c1.92-4.56,17.76-40.8,21-48.12H167.4L183.36,0H95.28L66.36,66.24A36.02124,36.02124,0,1,0,36,121.68a36.07493,36.07493,0,0,0,29.4-15.12l-6.12,14.16H74.04L82.8,100.8H99.36l6,19.92H261L266.88,107.16ZM88.56,87.12l3.96-9,2.64,9Zm51.72,15.6L125.52,53.88h36.24C150.96,78.24,144.36,93.36,140.28,102.72ZM196.2,107.16H179.16L202.32,54h17.16C207,82.44,200.04,98.28,196.2,107.16Z" fill="#fff"/><path d="M2.16,87.24A34.0732,34.0732,0,0,0,12.36,109.92,31.71911,31.71911,0,0,0,23.4,87.24Z" fill="#0d2240"/><path d="M26.4,87.24a35.39266,35.39266,0,0,1-11.76,24.72A34.185,34.185,0,0,0,34.56,119.52V87.24Z" fill="#ffa400"/><path d="M2.16,84.24H23.4A32.07126,32.07126,0,0,0,12.36,61.2,34.1575,34.1575,0,0,0,2.16,84.24Z" fill="#0d2240"/><path d="M14.64,59.28A34.77531,34.77531,0,0,1,26.4,84.24h8.04V51.6A35.092,35.092,0,0,0,14.64,59.28Z" fill="#ffa400"/><path d="M69.84,87.24H48.6a31.71884,31.71884,0,0,0,11.04,22.68A34.63612,34.63612,0,0,0,69.84,87.24Z" fill="#0d2240"/><path d="M45.6,87.24H37.44V119.4A32.65935,32.65935,0,0,0,57.36,111.84,34.4145,34.4145,0,0,1,45.6,87.24Z" fill="#2b5134"/><path d="M57.36,59.28A35.1263,35.1263,0,0,0,37.44,51.6V84.24H45.6A34.77526,34.77526,0,0,1,57.36,59.28Z" fill="#2b5134"/><path d="M96.6,2.16,66.6,71.04a38.00518,38.00518,0,0,0-7.08-9.84A32.29157,32.29157,0,0,0,48.48,84.24H69.84L91.56,34.32h63.6L169.2,2.16Z" fill="#0d2240"/><polygon points="165.84 34.32 179.88 2.16 173.88 2.16 159.84 34.32 165.84 34.32" fill="#2b5134"/><path d="M106.92,118.56h25.32L109.44,42.6H95.76L62.4,118.56H72.48s3.72-8.52,8.76-19.92h19.68ZM85.32,89.28c2.52-5.64,5.04-11.64,7.56-17.28l5.28,17.28Z" fill="#0d2240"/><polygon points="134.52 110.88 138 102.84 119.76 42.6 113.76 42.6 134.52 110.88" fill="#2b5134"/><path d="M222.96,109.2l29.28-66.6h-42.6l-4.08,9.24h17.28c-8.88,20.16-29.28,66.6-29.28,66.6h66l4.08-9.24Z" fill="#0d2240"/><polygon points="177.72 105 204.96 42.6 198.96 42.6 171.72 105 177.72 105" fill="#2b5134"/><polygon points="235.56 105 262.8 42.6 256.8 42.6 229.56 105 235.56 105" fill="#2b5134"/><path d="M194.4,42.6H132.36l-4.08,9.24H165c-8.88,20.16-29.28,66.6-29.28,66.6h53.52l3.96-9.24H165.24Z" fill="#0d2240"/><path d="M191.16,29.4h-7.8l12-27.24h-5.88L177,30.24c-.96,2.16,0,3.96,2.28,3.96H190.8a7.0786,7.0786,0,0,0,5.76-3.96L209.04,2.16h-5.76Z" fill="#0d2240"/><polygon points="234.48 2.16 214.2 2.16 212.04 7.08 219.96 7.08 207.96 34.32 213.72 34.32 225.72 7.08 232.32 7.08 234.48 2.16" fill="#0d2240"/><path d="M242.64,10.2l-3.48,14.04h-5.52Zm6.48-8.04h-5.76L221.64,34.32h5.4l3.24-4.92h7.68l-1.08,4.92h5.76Z" fill="#0d2240"/><polygon points="275.04 2.16 269.04 15.72 261.24 15.72 267.24 2.16 261.36 2.16 247.2 34.32 252.96 34.32 258.96 20.64 266.88 20.64 260.88 34.32 266.64 34.32 280.8 2.16 275.04 2.16" fill="#0d2240"/></svg>