<?xml version="1.0" encoding="UTF-8" standalone="no"?><svg xmlns:rdf="http://www.w3.org/1999/02/22-rdf-syntax-ns#" xmlns="http://www.w3.org/2000/svg" height="300.79999" width="300.79999" version="1.1" xmlns:cc="http://creativecommons.org/ns#" xmlns:dc="http://purl.org/dc/elements/1.1/" viewBox="0 0 300.79999 300.79999"><defs><style>.cls-1{fill:#c8102e;}.cls-2{fill:#fff;}</style></defs><title>Atlanta Hawks logo</title><path class="cls-1" d="M150.4,300.8C67.5,300.8,0,233.3,0,150.4S67.5,0,150.4,0,300.8,67.5,300.8,150.4,233.3,300.8,150.4,300.8"/><path class="cls-2" d="M150.4,293.9C71.3,293.9,6.9,229.5,6.9,150.4S71.3,6.9,150.4,6.9,293.9,71.3,293.9,150.4,229.5,293.9,150.4,293.9"/><path class="cls-1" d="M150.4,286.9A136.5,136.5,0,1,1,286.9,150.4,136.61138,136.61138,0,0,1,150.4,286.9"/><path class="cls-2" d="M243.7,150.4a93.3,93.3,0,1,1-93.3-93.3,93.272,93.272,0,0,1,93.3,93.3"/><path class="cls-1" d="M150.4,63.9a86.45372,86.45372,0,0,0-69.7,35c2.3.7,6.7,1.9,12.1,3.5h0c8.5,2.5,36.8,10.8,42.1,12.5,15.4,5,19.5,6.9,23.8,11.5,4.3,4.7,10.9,10,17.4,14.5s9.6,9.4,9.6,17.2-6,14.4-9.7,16.6c0,0,1.3-3.7-.5-5.4s-7.5-4.8-22-3.8c-14.5,1.1-34,8.1-47.2,15.2,0,0,6.3-9.9,15.7-14.4,0,0-7.8,0-51.3,19A86.95634,86.95634,0,1,0,150.4,63.9m0,154.8A67.34416,67.34416,0,0,1,102,198.3c35.1-18.1,57-13.4,57-9.9,0,3.6-5.4,12-5.4,12,28.6-4,49.5-21.3,49.5-44.5,0-23.3-21.8-34.5-27.3-37.9-5.9-3.7-3.1-8.7-22.6-16-11.9-4.5-28.5-8.9-35-10.5a67.72116,67.72116,0,1,1,32.2,127.2"/><path class="cls-1" d="M149.7,128.3a21.50439,21.50439,0,0,1-10.1-2.1c-5.1-2.5-12.9-8.2-19.6-2,0,0,5.7-.7,5.2.8s-1,10.2,6.7,13.5c7.9,3.3,16.9.8,17.8-10.2"/><path class="cls-2" d="M48.2,219.9l.9,1.2,12.5-9.6-.9-1.2,2.8-2.2,4,5.2c3,3.9,2.7,6.8-.3,9.1-2.1,1.6-4,1.7-5.9.7.8,2.6.1,4.3-2.4,6.2-3.3,2.5-6.6,1.5-9.4-2L45.4,222Zm4.3,5.6c1.1,1.4,2.6,1.7,4.4.3s1.8-2.8.6-4.2l-.8-1-5,3.9Zm7.5-6.2c1.1,1.4,2.5,1.5,4.1.3s1.8-2.6.6-4.1l-.6-.8-4.8,3.7Z"/><path class="cls-2" d="M63.1,237.9l.9.8,16.4-11.5,3.3,2.9-9.2,17.8.8.7L73,251.2l-5.6-4.9,2.2-2.5L71,245l1.2-2.2-3.3-2.9-2,1.5,1.4,1.2-2.2,2.5-5.4-4.7Zm10.8,2.3,3.8-6.7-6.2,4.6Z"/><path class="cls-2" d="M84.8,257l-.8,1.5L81.4,257l3.8-6.6,2.9,1.7c-1.4,2.7-1.1,4.3.5,5.2,1.5.9,2.6.6,3.4-.8,1.9-3.3-5.4-8.3-1.9-14.1,1.9-3.3,5.2-3.9,7.9-2.3,1.6.9,2.5,2.1,2.3,3.6l.8-1.5,2.6,1.5-3.6,6.3-3-1.7c1.1-2.2,1.1-3.6-.3-4.4a2.04932,2.04932,0,0,0-3.1.7c-1.8,3.1,5.3,8.2,1.9,14-2.1,3.6-5.4,3.9-8.4,2.2-1.4-1.00006-2.5-2.2-2.4-3.8"/><polygon class="cls-2" points="105.1 265.5 106.5 266 111.4 251 110 250.5 111 247.2 117.7 249.3 116.7 252.6 115.4 252.2 113.2 259.2 119.2 253.4 118.4 253.1 119.4 249.8 125.5 251.8 124.4 255.2 123 254.7 118.2 259.1 118.9 270 120.1 270.3 119 273.6 112.5 271.5 113.5 268.3 114.7 268.7 114.2 262.1 111.4 264.8 110.6 267.4 111.8 267.7 110.8 270.9 104.1 268.8 105.1 265.5"/><polygon class="cls-2" points="132.5 272.7 134 272.9 135.4 257.2 133.9 257.1 134.2 253.5 147.9 254.7 147.2 261.9 143.3 261.6 143.6 257.7 139.7 257.3 139.2 263.4 142.7 263.8 142.4 267.3 138.9 267 138.3 273.4 142.3 273.8 142.6 269.4 146.6 269.8 146 277.4 132.2 276.2 132.5 272.7"/><polygon class="cls-2" points="162.7 273.3 164.6 273 162.5 257.2 160.1 257.5 160.6 261.4 157.3 261.9 156.3 254.7 172 252.6 173 259.8 169.7 260.2 169.2 256.3 166.8 256.6 168.9 272.5 170.8 272.2 171.2 275.6 163.1 276.7 162.7 273.3"/><path class="cls-2" d="M187.5,268.4l1.4-.5-5.6-14.7-1.4.5-1.3-3.3,6.2-2.3c4.6-1.8,7.3-.6,8.6,2.9.9,2.4.5,4.3-1,5.8,2.7-.1,4.2,1.2,5.3,4.1,1.5,3.9-.5,6.8-4.7,8.4l-6.3,2.4Zm2.8-11.5c1.7-.6,2.2-2,1.5-3.8-.7-1.9-1.9-2.4-3.7-1.8l-.9.3,2.1,5.6Zm3.7,9c1.7-.6,2.4-2,1.6-4.1s-2.1-2.5-3.9-1.8l-1.2.5,2.3,5.9Z"/><path class="cls-2" d="M208,259.9l1-.6-6.1-19,3.8-2.3L221,252l.9-.6,1.8,2.9-6.3,3.9-1.8-2.8,1.6-1-1.7-1.8-3.8,2.3.8,2.4,1.6-1,1.8,2.8-6.1,3.7Zm5.3-9.7-5.3-5.6,2.5,7.3Z"/><polygon class="cls-2" points="229.6 245.3 230.7 244.3 219.9 232.8 218.8 233.8 216.4 231.2 221.9 226.1 224.3 228.7 223.1 229.8 233.9 241.4 236.6 238.9 233.6 235.8 236.5 233 241.7 238.6 231.9 247.8 229.6 245.3"/><polygon class="cls-2" points="245.6 229.2 246.4 228 233.8 218.7 232.9 219.8 230.1 217.7 234.5 211.7 237.4 213.8 236.4 215.2 249.2 224.6 251.3 221.7 247.8 219.1 250.2 215.9 256.3 220.5 248.3 231.3 245.6 229.2"/><path class="cls-2" d="M45.9,122.8l.4-1.2L29.5,110.7l1.5-4.2,19.9,1.9.4-1,3.2,1.1-2.4,7-3.2-1.1.6-1.7-2.5-.3-1.5,4.2,2.1,1.3.6-1.8,3.2,1.1-2.3,6.7ZM44,111.9l-7.6-1,6.5,4Z"/><polygon class="cls-2" points="55.6 98.9 56.6 97.3 42.9 89.1 41.6 91.2 45 93.2 43.3 96.1 37.1 92.4 45.2 78.7 51.4 82.4 49.7 85.3 46.3 83.3 45.1 85.4 58.8 93.6 59.8 91.9 62.8 93.7 58.6 100.7 55.6 98.9"/><polygon class="cls-2" points="66.8 82.1 67.8 81 56.3 70.3 55.3 71.3 52.7 68.9 57.8 63.4 60.4 65.9 59.3 67.1 70.9 77.9 73.4 75.3 70.2 72.3 72.9 69.4 78.5 74.6 69.4 84.4 66.8 82.1"/><path class="cls-2" d="M81.6,67.1l1-.7L75.3,47.8l3.6-2.6L94,58.3l.9-.6,2,2.8-6,4.3L89,62.1,90.5,61l-1.8-1.7-3.6,2.5,1,2.3L87.6,63l1.9,2.7-5.8,4.1Zm4.8-10-5.6-5.3,3,7.1Z"/><polygon class="cls-2" points="102.1 53.7 103.4 53.2 97.5 38.6 96.1 39.1 94.8 35.8 100.2 33.6 110 43.3 106.5 34.9 105.3 35.4 103.9 32.1 110.2 29.5 111.6 32.8 110.2 33.4 117.5 51.1 113.9 52.6 103.4 42.5 107.2 51.6 108.4 51.1 109.7 54.3 103.4 56.9 102.1 53.7"/><polygon class="cls-2" points="127.5 45 129.4 44.7 126.6 28.9 124.2 29.3 124.9 33.2 121.6 33.8 120.3 26.7 136 23.9 137.2 31 133.9 31.6 133.2 27.7 130.8 28.1 133.6 43.9 135.5 43.6 136.1 46.9 128.1 48.4 127.5 45"/><path class="cls-2" d="M144.4,42.5h1.2l5.1-19.3,4.4.1,4.4,19.5h1.1l-.1,3.4-7.4-.1.1-3.3H155l-.4-2.5-4.4-.1-.6,2.4h1.9l-.1,3.3-7.1-.1Zm9.7-5.2-1.4-7.6-1.8,7.5Z"/><polygon class="cls-2" points="177.1 45.7 178.5 46.1 183.6 31.2 182.2 30.8 183.4 27.4 190.4 29.8 189.2 33 187.8 32.5 185.9 38 190.5 39.6 192.4 34.1 190.9 33.6 192 30.3 199 32.7 197.9 36.1 196.4 35.6 191.4 50.5 192.8 51 191.7 54.2 184.7 51.8 185.8 48.7 187.3 49.2 189.3 43.2 184.7 41.6 182.6 47.6 184.1 48.1 183 51.3 176 48.9 177.1 45.7"/><path class="cls-2" d="M200.2,54.5l1,.6,14.3-14,3.8,2.3-6.2,19,.9.6-1.8,2.9L205.9,62l1.8-2.8,1.6,1,.9-2.3-3.8-2.3-1.8,1.8,1.6,1-1.8,2.8-6.1-3.8Zm11,.5,2.7-7.2-5.4,5.5Z"/><polygon class="cls-2" points="230.1 55.6 229.1 54.6 231.6 52.1 236.6 57 234.2 59.5 233.2 58.5 227.1 66.8 238.4 58.8 241 61.4 233.2 72.9 241.4 66.6 240.5 65.7 242.9 63.2 247.6 67.9 245.1 70.4 244.1 69.4 228.2 80.8 225.4 78 233.5 66.1 221.7 74.4 218.9 71.6 230.1 55.6"/><polygon class="cls-2" points="237.2 86.1 238 87.3 251.3 78.9 250.5 77.7 253.5 75.7 257.3 81.7 254.3 83.5 253.6 82.4 247.4 86.4 255.7 85.8 255.3 85 258.2 83.2 261.6 88.6 258.6 90.5 257.8 89.2 251.3 89.5 245 98.3 245.6 99.4 242.7 101.2 239 95.4 241.8 93.6 242.5 94.7 246.4 89.2 242.5 89.6 240.2 91 240.9 92.1 238.1 93.9 234.3 87.9 237.2 86.1"/><path class="cls-2" d="M248.1,109.2l-1.6.6-1.1-2.8,7.1-2.7,1.2,3.1c-2.8,1.2-3.5,2.7-2.9,4.4.6,1.6,1.7,2.1,3.1,1.5,3.6-1.4,1-9.8,7.3-12.2,3.5-1.4,6.5.2,7.6,3.1.6,1.7.7,3.2-.4,4.2l1.6-.6,1.1,2.8-6.8,2.6-1.2-3.2c2.2-1,3.1-2.1,2.5-3.7a2.04906,2.04906,0,0,0-2.8-1.4c-3.3,1.3-1,9.7-7.2,12.1-3.9,1.5-6.7-.4-7.9-3.6-.50006-1.4-.6-3.1.4-4.2"/></svg>