<?xml version="1.0" encoding="UTF-8" standalone="no"?>
<svg xmlns:rdf="http://www.w3.org/1999/02/22-rdf-syntax-ns#" xmlns="http://www.w3.org/2000/svg" height="197.71383" width="163.91692" version="1.1" xmlns:cc="http://creativecommons.org/ns#" xmlns:dc="http://purl.org/dc/elements/1.1/" viewBox="0 0 163.91692 197.71383"><path d="M32.955,187.27806a4.16812,4.16812,0,0,0-4.15371-4.1537H21.04315v14.58947h3.39849v-4.56564h3.15819a1.88459,1.88459,0,0,1,1.81939,1.85373v2.67759H32.8177v-2.67759a5.22061,5.22061,0,0,0-1.06417-3.1582,4.17951,4.17951,0,0,0,1.20149-2.95221v-1.61345Zm-4.15371-.7552a.76193.76193,0,0,1,.75522.75522v1.64775a.84987.84987,0,0,1-.85821.8582H24.44164v-3.22685h4.35968Z" fill="#12173f"/><polygon points="109.438 197.714 97.355 197.714 97.355 183.124 100.753 183.124 100.753 194.315 109.438 194.315 109.438 197.714" fill="#12173f"/><polygon points="143.08 186.523 143.08 183.124 130.996 183.124 130.996 197.714 143.08 197.714 143.08 194.315 134.395 194.315 134.395 191.947 141.878 191.947 141.878 188.548 134.395 188.548 134.395 186.523 143.08 186.523" fill="#12173f"/><polygon points="66.665 197.714 53.552 197.714 61.07 186.523 54.376 186.523 54.376 183.124 67.455 183.124 59.937 194.315 66.665 194.315 66.665 197.714" fill="#12173f"/><polygon points="87.743 197.714 74.629 197.714 82.147 186.523 75.453 186.523 75.453 183.124 88.532 183.124 81.014 194.315 87.743 194.315 87.743 197.714" fill="#12173f"/><rect x="117.9172" y="183.12436" width="3.39848" height="14.58946" fill="#12173f"/><rect x="41.98333" y="183.12436" width="3.39848" height="14.58946" fill="#12173f"/><rect x="41.98333" y="183.12436" width="3.39848" height="14.58946" fill="#12173f"/><path d="M99.72328,151.16485H87.29648v26.70731h6.14474v-8.582h6.282a7.5011,7.5011,0,0,0,7.48354-7.48353V158.6484A7.50109,7.50109,0,0,0,99.72328,151.16485Zm1.3388,10.64173a1.34044,1.34044,0,0,1-1.33879,1.3388H93.44124v-5.83579h6.28205a1.34043,1.34043,0,0,1,1.33879,1.3388Z" fill="#12173f"/><path d="M90.62631,177.87216h-.51492V153.97977h9.61189a4.67351,4.67351,0,0,1,4.66863,4.66863v3.15819a4.6735,4.6735,0,0,1-4.66863,4.66862h-9.097Zm0-11.91187h9.097a4.1461,4.1461,0,0,0,4.1537-4.15371v-3.15819a4.1461,4.1461,0,0,0-4.1537-4.15371h-9.097Z" fill="#5d76a9"/><polygon points="52.213 157.31 52.213 151.165 31.96 151.165 31.96 177.872 52.179 177.872 52.179 171.762 38.104 171.762 38.104 167.608 50.016 167.608 50.016 161.463 38.104 161.463 38.104 157.31 52.213 157.31" fill="#12173f"/><polygon points="52.213 154.495 52.213 153.98 34.774 153.98 34.774 175.057 52.179 175.057 52.179 174.577 35.289 174.577 35.289 164.793 50.016 164.793 50.016 164.278 35.289 164.278 35.289 154.495 52.213 154.495" fill="#5d76a9"/><path d="M76.55177,151.19918H55.3713v26.673h6.14475V157.34393h5.11489V177.9065h6.14474V157.34394h3.77609a1.34044,1.34044,0,0,1,1.3388,1.3388v19.18944h6.14474V158.68275a7.50111,7.50111,0,0,0-7.48354-7.48357" fill="#12173f"/><path d="M76.55177,154.0141H58.18621v23.85806h.51492V154.529H69.44584v23.37746h.51492V154.529h6.591a4.1461,4.1461,0,0,1,4.15371,4.15371v19.18944h.51492V158.68273a4.6735,4.6735,0,0,0-4.66863-4.66863" fill="#5d76a9"/><path d="M21.18047,151.19918H0v26.673H6.14474V157.34393h5.11489V177.9065h6.14474V157.34394h3.7761a1.34043,1.34043,0,0,1,1.33879,1.3388v19.18944H28.664V158.68275a7.5011,7.5011,0,0,0-7.48353-7.48357" fill="#12173f"/><path d="M21.18047,154.0141H2.81491v23.85806h.51492V154.529H14.07454v23.37746h.51492V154.529h6.591a4.14611,4.14611,0,0,1,4.15371,4.15371v19.18944h.51492V158.68273a4.6735,4.6735,0,0,0-4.66863-4.66863" fill="#5d76a9"/><rect x="133.94845" y="151.16485" width="6.14474" height="26.70731" fill="#12173f"/><rect x="136.76336" y="151.16485" width="0.51492" height="26.70731" fill="#5d76a9"/><polygon points="123.856 151.165 123.856 161.463 116.201 161.463 116.201 151.165 110.09 151.165 110.09 177.872 116.201 177.872 116.201 167.608 123.856 167.608 123.856 177.872 129.966 177.872 129.966 151.165 123.856 151.165" fill="#12173f"/><polygon points="126.637 151.165 126.637 164.278 113.386 164.278 113.386 151.165 112.905 151.165 112.905 177.872 113.386 177.872 113.386 164.793 126.637 164.793 126.637 177.872 127.151 177.872 127.151 151.165 126.637 151.165" fill="#5d76a9"/><path d="M11.91187,197.71383H4.15371A4.16812,4.16812,0,0,1,0,193.56013v-6.282a4.16811,4.16811,0,0,1,4.15371-4.15369H7.75816a4.16811,4.16811,0,0,1,4.15371,4.15369v.68657H8.51338v-.68657a.76192.76192,0,0,0-.75522-.75522H4.15371a.76192.76192,0,0,0-.75522.75522v6.282a.76192.76192,0,0,0,.75522.75522H8.51338v-1.3388H6.488v-3.3985h5.42385Z" fill="#12173f"/><path d="M11.91187,197.71383H4.15371A4.16812,4.16812,0,0,1,0,193.56013v-6.282a4.16811,4.16811,0,0,1,4.15371-4.15369H7.75816a4.16811,4.16811,0,0,1,4.15371,4.15369v.68657H8.51338v-.68657a.76192.76192,0,0,0-.75522-.75522H4.15371a.76192.76192,0,0,0-.75522.75522v6.282a.76192.76192,0,0,0,.75522.75522H8.51338v-1.3388H6.488v-3.3985h5.42385Z" fill="#12173f"/><path d="M159.66024,197.71383h-3.63878a4.16812,4.16812,0,0,1-4.15369-4.1537v-.51492h3.39849v.51492a.76192.76192,0,0,0,.75523.75522h3.63877a.76192.76192,0,0,0,.75522-.75522v-.6179l-6.31638-1.68209a3.13168,3.13168,0,0,1-2.197-2.98655v-.89253a4.25594,4.25594,0,0,1,4.2567-4.2567h3.53579a4.16812,4.16812,0,0,1,4.1537,4.1537v.68657h-3.3985v-.68657a.76192.76192,0,0,0-.75522-.75522h-3.5358a.84985.84985,0,0,0-.8582.8582v.68657l6.31639,1.68208a3.13171,3.13171,0,0,1,2.197,2.98656v.82388a4.14614,4.14614,0,0,1-4.15372,4.1537" fill="#12173f"/><path d="M156.36473,177.83782H143.76629v-8.47906H149.911v2.36865h6.45369a1.39207,1.39207,0,0,0,1.40744-1.40744v-1.23581l-10.02382-3.08953a5.59228,5.59228,0,0,1-3.98207-5.35519v-1.92238a7.5523,7.5523,0,0,1,7.5522-7.5522h12.59844v8.82234h-6.14475v-2.67759h-6.45369a1.39208,1.39208,0,0,0-1.40744,1.40746v1.54476l9.98948,3.05521a5.63341,5.63341,0,0,1,4.0164,5.42384v1.54477a7.57432,7.57432,0,0,1-7.55219,7.55217" fill="#12173f"/><path d="M156.36473,175.02293H146.5812v-5.69847h.51492V174.508h9.26861a4.21933,4.21933,0,0,0,4.22235-4.22236v-1.54477a2.39,2.39,0,0,0-1.68208-2.26565l-10.33277-3.19251a2.79071,2.79071,0,0,1-1.991-2.67759v-1.92238a4.74678,4.74678,0,0,1,4.73728-4.73728H161.102v6.00742h-.54925v-5.4925h-9.2686a4.21934,4.21934,0,0,0-4.22236,4.22236v1.92238a2.2867,2.2867,0,0,0,1.61343,2.197l10.33277,3.19252a2.87387,2.87387,0,0,1,2.02537,2.74625v1.54477a4.64571,4.64571,0,0,1-4.66864,4.73726" fill="#5d76a9"/><path d="M146.78718,32.83572a21.80013,21.80013,0,0,0,2.71194-10.29845A22.71978,22.71978,0,0,0,139.30365,4.06872c-8.30742-5.62981-20.7342-6.41936-29.55654,4.11938A56.06145,56.06145,0,0,0,82.01,11.65525,55.98732,55.98732,0,0,0,54.27281,8.1881C45.45048-2.35064,32.98936-1.56109,24.71627,4.06873A22.633,22.633,0,0,0,14.52081,22.53727a22.20841,22.20841,0,0,0,2.71193,10.29845C10.57307,42.41327,5.9731,53.81021,5.9731,65.3788c0,13.93724,5.9731,21.14615,8.20443,24.23568l1.78507-1.78507C22.279,103.895,33.058,112.54568,46.10271,120.40683c0,0,.27463-1.5791.54926-3.02088,14.04021,12.15217,20.7342,9.16562,35.32367,25.67746,14.55513-16.44319,21.42076-13.62828,35.32366-25.67746.27462,1.40746.54926,3.02088.54926,3.02088,5.80145-3.50148,22.176-12.28948,30.14011-32.57742l1.78507,1.78507c1.37312-1.88805,8.20443-9.5089,8.20443-24.23568.06864-11.56858-4.53134-22.9312-11.191-32.54308" fill="#707271"/><path d="M142.77079,33.04169c13.388-20.56257-16.99244-41.949-31.68488-21.24913A52.21129,52.21129,0,0,0,82.01,15.36269a52.21127,52.21127,0,0,0-29.076-3.57013C38.20723-8.90731,7.86115,12.47912,21.24913,33.04169,6.00743,53.98186,7.51787,74.64741,14.58947,84.36227l2.91789-2.91789s4.15371,20.18494,26.12373,33.46994l.78955-4.35968c13.52529,14.45216,25.88343,14.10888,37.555,27.32521,11.67157-13.182,24.0297-12.87305,37.555-27.32521l.78955,4.35968c21.97-13.25067,26.12372-33.46994,26.12372-33.46994l2.91789,2.91789c7.17458-9.74919,8.685-30.34609-6.591-51.32058" fill="#12173f"/><path d="M82.14727,109.90242s-10.53875.17164-12.11784,1.13283c0,0-1.81938,3.12386,12.11784,3.08953,13.25067-.06866,11.294-2.47163,11.39695-2.84923a42.47676,42.47676,0,0,0-11.39695-1.37313" fill="#5d76a9"/><path d="M73.016,97.64727s1.64774-4.77161,3.39848-3.26118c2.4373,2.094,5.59549,6.35071,5.59549,6.797v5.66415l-3.84476.206a86.60744,86.60744,0,0,0-9.33726,1.75074C59.01007,84.49959,64.46825,66.134,67.07719,59.543c-9.71487,2.094-11.294-9.57755-11.294-9.57755a7.69024,7.69024,0,0,1,4.188,1.02984,48.60987,48.60987,0,0,1,8.10145,5.25221h0c.72089.54925,1.37312,1.0985,1.991,1.61342,6.62533,5.56116,11.98053,4.42833,11.98053,4.42833V86.07868C82.01,86.113,62.71753,84.60257,73.016,97.64727" fill="#5d76a9"/><path d="M91.10692,97.64727C103.39639,85.18615,83.34875,85.907,82.07862,86.113c2.05968.103,17.576.206,9.0283,11.53426" fill="#5d76a9"/><path d="M99.24268,59.955c11.05367,29.7625-2.95222,48.91762-3.0552,49.0206,8.685-22.79389,3.12386-41.70871-.68656-48.746a31.07163,31.07163,0,0,1-4.291.06866,39.61723,39.61723,0,0,0,4.84027-3.5358c.13731-.13731.27462-.2403.44626-.41194a28.19727,28.19727,0,0,1,8.27309-5.28653h0a17.71891,17.71891,0,0,1,4.22236-1.06418s-1.02985,9.81785-9.7492,9.95517" fill="#5d76a9"/><path d="M116.75,21.43877s4.497-11.25963,18.33123-8.54771c0,0-12.70141-8.34174-21.52375,6.72832,0,0-12.66709-5.93877-31.54757,2.23133,0,0-17.74766-6.24773-31.23862-2.71193,0,0-7.86115-13.6626-18.94914-8.03279S26.53566,29.71185,28.458,33.11034c0,0-18.36556,18.70884-11.4656,41.81169l3.70744-4.6s5.28653,25.19687,18.88048,33.12667l.82388-6.17906S54.61609,114.39941,71.29957,121.677c1.5791.75523,10.43576,5.14923,10.71039,7.3119V117.00835s-11.56859.96119-14.65813-4.394c-2.094-3.63878-15.41334-27.39386-8.82233-52.28177,0,0-6.41936-.96119-7.62085-11.77456A22.67884,22.67884,0,0,0,40.19827,46.7043s10.60739-3.32983,20.56256.51492,12.63276,13.66261,19.36108,9.33726l1.85372-27.63416L84.001,56.55648c6.72832,4.32535,9.40591-5.45817,19.36107-9.33726,9.95517-3.84475,20.59689-.51492,20.59689-.51492a31.838,31.838,0,0,0-11.088-4.35967c-5.69847-1.13283-14.07454,2.50595-14.07454,2.50595s1.16716-7.82682,4.97758-12.01485C107.06951,29.23126,114.48438,28.44171,116.75,21.43877Zm-85.889,9.5089c-.41194-3.7761,4.35967-7.48354,4.35967-7.48354-1.9567-2.02536-5.38952-.27463-5.38952-.27463C32.9207,17.11342,39.88931,20.1,39.88931,20.1c-2.64327-3.22685-8.20443-3.02088-8.20443-3.02088,6.9-6.86562,15.2417,3.60446,15.2417,3.60446C39.5117,22.36563,30.861,30.94767,30.861,30.94767Z" fill="#5d76a9"/><path d="M68.07273,56.28184c-1.06418-.34328-2.81492.75522-3.81043,2.6776-3.29551-.96119-4.42833-4.53131-4.291-7.9298h0a48.6098,48.6098,0,0,1,8.10145,5.2522" fill="#fb2"/><path d="M100.4785,58.95944c-1.02985-2.02536-2.91789-3.12386-3.98207-2.60894a28.19727,28.19727,0,0,1,8.27309-5.28653h0c.13731,3.39848-.99552,6.96861-4.291,7.89547" fill="#fb2"/></svg>