<?xml version="1.0" encoding="UTF-8" standalone="no"?>
<svg xmlns:rdf="http://www.w3.org/1999/02/22-rdf-syntax-ns#" xmlns="http://www.w3.org/2000/svg" height="262.44" width="258.55321" version="1.1" xmlns:cc="http://creativecommons.org/ns#" xmlns:dc="http://purl.org/dc/elements/1.1/" viewBox="0 0 258.55321 262.44"><path d="M258.09662.72a2.17874,2.17874,0,0,0-1.68-.72h-162.12c-19.32,0-31.2,8.4-35.28,24.72L.09661,259.68a2.19361,2.19361,0,0,0,.36,1.92,2.09942,2.09942,0,0,0,1.68.84h176.64c10.08,0,20.16-8.16,22.44-18l57.24-241.8A2.19369,2.19369,0,0,0,258.09662.72Z" fill="#63727a"/><path d="M2.13661,260.28h176.64c9.12,0,18.36-7.43994,20.4-16.31995l57.24-241.92h-162.12c-15,.12-28.68,5.04-33.24,23.28Z"/><path d="M38.49662,164.76h153.24c7.68,0,15.24-6.12,17.04-13.68l32.16-139.2h-140.4c-17.16,0-24.84,5.4-28.32,19.68Zm153.24,1.92h-155.64l34.2-135.6c4.44-17.52,15.24-21,30.24-21h142.8l-32.76,141.48C208.65662,159.84,200.25661,166.68,191.73662,166.68Z" fill="#63727a"/><polygon points="61.537 242.64 65.857 248.52 98.137 248.52 111.217 196.68 98.017 196.68 86.737 241.2 74.977 241.2 86.257 196.68 69.577 196.68 68.497 197.52 71.857 202.08 61.537 242.64" fill="#fff"/><polygon points="62.617 214.8 65.737 202.32 61.417 196.44 35.017 196.44 27.817 202.32 23.377 219.72 45.697 229.08 42.697 241.2 31.057 241.2 32.377 235.56 20.737 230.16 17.617 242.64 21.817 248.52 48.337 248.52 55.537 242.64 59.977 225.12 37.657 215.76 40.657 203.76 52.297 203.76 50.857 209.52 62.617 214.8" fill="#fff"/><polygon points="153.817 202.32 149.497 196.44 117.337 196.44 104.257 248.28 117.457 248.28 128.617 203.76 140.377 203.76 129.217 248.28 145.777 248.28 146.857 247.32 143.617 242.88 153.817 202.32" fill="#fff"/><polygon points="194.737 214.8 197.857 202.32 193.537 196.44 167.137 196.44 159.937 202.32 155.497 219.72 177.817 229.08 174.817 241.2 163.057 241.2 164.497 235.56 152.857 230.16 149.737 242.64 153.937 248.52 180.457 248.52 187.657 242.64 192.097 225.12 169.777 215.76 172.777 203.76 184.417 203.76 182.977 209.52 194.737 214.8" fill="#fff"/><polygon points="20.737 230.16 25.537 237.36 24.457 241.56 26.857 244.8 45.577 244.8 49.297 241.92 55.537 242.64 48.337 248.52 21.817 248.52 17.617 242.64 20.737 230.16" fill="#bec0c2"/><polygon points="42.697 241.2 49.297 241.92 53.017 227.16 30.457 217.68 34.177 203.04 27.817 202.32 23.377 219.72 45.697 229.08 42.697 241.2" fill="#bec0c2"/><polygon points="56.377 200.04 38.137 200.04 34.177 203.04 40.657 203.76 52.297 203.76 50.857 209.52 57.817 207.36 58.897 203.4 56.377 200.04" fill="#bec0c2"/><polygon points="152.857 230.16 157.657 237.36 156.577 241.56 158.977 244.8 177.697 244.8 181.417 241.92 187.657 242.64 180.457 248.52 153.937 248.52 149.737 242.64 152.857 230.16" fill="#bec0c2"/><polygon points="174.817 241.2 181.417 241.92 185.137 227.16 162.577 217.68 166.297 203.04 159.937 202.32 155.497 219.72 177.817 229.08 174.817 241.2" fill="#bec0c2"/><polygon points="188.497 200.04 170.137 200.04 166.297 203.04 172.777 203.76 184.417 203.76 182.977 209.52 189.937 207.36 190.897 203.4 188.497 200.04" fill="#bec0c2"/><polygon points="68.497 197.52 78.817 200.04 68.377 241.56 70.777 244.8 92.377 244.8 98.137 248.52 65.857 248.52 61.537 242.64 71.857 202.08 68.497 197.52" fill="#bec0c2"/><polygon points="98.017 196.68 103.657 200.04 92.377 244.8 86.737 241.2 98.017 196.68" fill="#bec0c2"/><polygon points="123.097 200.04 117.337 196.44 104.257 248.28 117.457 248.28 111.697 244.8 123.097 200.04" fill="#bec0c2"/><polygon points="136.537 244.8 146.977 203.4 144.577 200.04 123.097 200.04 128.617 203.76 140.377 203.76 129.217 248.28 145.777 248.28 146.857 247.32 136.537 244.8" fill="#bec0c2"/><path d="M41.13662,180.84l-3.48.96,1.08-4.56h3.24Zm-6.24-6.24-.36.24,1.08,1.43994-3.36,13.68005h4.68l.24-.36-1.08-1.32007.84-3.6,7.2-2.28,1.44-6-1.44-1.8Z" fill="#fff"/><polygon points="73.057 174.6 69.577 174.6 68.257 180.12 64.897 180.96 66.457 174.6 61.897 174.6 61.537 174.84 62.617 176.28 59.257 189.96 62.737 189.96 64.177 183.84 67.537 183.12 65.857 189.96 70.417 189.96 70.777 189.6 69.697 188.28 73.057 174.6" fill="#fff"/><path d="M93.57661,187.44h-3.24l2.52-10.32h3.24Zm-1.56-12.84-2.28,1.8-2.88,11.64,1.44,1.92h6.24l2.28-1.92,2.88-11.64-1.44-1.8Z" fill="#fff"/><polygon points="152.737 176.4 151.297 174.6 143.017 174.6 139.297 189.96 142.777 189.96 145.897 177.12 149.137 177.12 146.017 189.96 150.577 189.96 150.937 189.6 149.857 188.28 152.737 176.4" fill="#fff"/><polygon points="174.097 174.6 169.417 174.6 169.057 174.84 170.257 176.28 166.897 189.96 171.457 189.96 171.817 189.6 170.737 188.28 174.097 174.6" fill="#fff"/><polygon points="198.697 188.4 196.897 182.4 203.017 174.6 199.657 174.6 196.177 179.28 194.977 174.6 190.417 174.6 190.057 174.84 191.857 176.28 193.657 182.52 187.897 189.96 191.137 189.96 194.497 185.4 195.697 189.96 200.257 189.96 200.617 189.6 198.697 188.4" fill="#fff"/><polygon points="121.537 187.44 117.577 187.44 118.537 183.48 121.777 183.48 122.377 180.96 119.137 180.96 120.097 177.12 123.817 177.12 124.777 178.44 125.137 178.2 125.977 174.6 116.137 174.6 115.777 174.84 116.857 176.28 113.497 189.96 122.497 189.96 123.337 186.36 123.097 186.12 121.537 187.44" fill="#fff"/><polygon points="42.697 162.24 130.177 114.36 70.777 162.24 142.897 120.84 141.697 129.24 153.697 122.52 180.817 148.2 195.217 104.76 216.097 103.44 205.537 77.16 224.377 62.4 199.897 52.8 206.137 26.52 185.377 36 174.577 13.44 157.897 30 127.897 16.56 123.817 43.32 97.057 49.2 112.897 58.68 96.937 66.72 110.497 67.92 54.817 111.12 110.857 81.36 50.857 127.08 114.697 93.84 46.417 145.08 121.657 105 42.697 162.24" fill="#f9a01b"/><path d="M202.77662,77.52a43.53726,43.53726,0,1,1-41.76-45.36A43.59886,43.59886,0,0,1,202.77662,77.52Z" fill="#e56020"/><path d="M164.61661,113.28a43.53075,43.53075,0,0,1-29.52-73.8,43.60247,43.60247,0,0,0,22.32,79.8,43.85615,43.85615,0,0,0,33.12-13.2A42.56906,42.56906,0,0,1,164.61661,113.28Z" fill="#b95915"/><path d="M202.77662,76.2a28.57134,28.57134,0,0,0-.12-4.56,20.07515,20.07515,0,0,0-9-3.6c-.72,0-1.32-.12-2.04-.12a51.49376,51.49376,0,0,0-1.92-8.52,5.38141,5.38141,0,0,0,1.32.12c3.12.24,6.12.6,9.12,1.08a28.29635,28.29635,0,0,0-1.44-3.36c-3.24-.48-6.72-.84-10.2-1.08h0a51.20456,51.20456,0,0,0-3.96-8.16,11.43052,11.43052,0,0,0,5.76-2.88c-.84-.84-1.68-1.56-2.52-2.4a9.19706,9.19706,0,0,1-5.28,2.28c-.36-.48-.72-.96-.96-1.32a49.34627,49.34627,0,0,0-10.2-9.84,41.24222,41.24222,0,0,0-10.32-1.68005h-.48a42.72409,42.72409,0,0,1,17.28,12.84,86.27118,86.27118,0,0,1-15-3.48c-1.56-.48-3-.84-4.44-1.32a61.68609,61.68609,0,0,0-20.64-2.4,44.376,44.376,0,0,0-10.2,8.04c5.52-2.28,16.56-6.12,30-2.4,1.44.36,2.88.72,4.44,1.2,5.88,1.8,12.6,3.72,18.36,3.72a57.18475,57.18475,0,0,1,4.08,7.56,32.58185,32.58185,0,0,0-3.36-.12c-28.08-.48-51.96,7.8-65.28,21.24a41.95118,41.95118,0,0,0,.84,7.8c3.72-5.4,9.36-10.32,16.56-14.4,13.44-7.56,31.44-11.52,50.52-11.28.72,0,1.32.12,2.04.12a52.1404,52.1404,0,0,1,2.16,8.52c-12.36.6-20.28,8.16-29.52,16.44-8.16,7.32-18.24,14.64-32.88,19.08a42.0002,42.0002,0,0,0,4.56,4.68c13.8-5.52,22.92-14.16,30.72-21.12,8.88-7.92,16.44-15.48,27.48-15.84a40.69479,40.69479,0,0,1,0,9.36c-1.44,17.04-11.4,31.56006-24.84,38.76a44.526,44.526,0,0,0,9.96-2.16c1.08-.96,2.16-1.92,3.12-2.88a52.91921,52.91921,0,0,0,15.48-33.36,42.80011,42.80011,0,0,0,0-9.6c.6.12,1.2.12,1.68.24005A16.38278,16.38278,0,0,1,202.77662,76.2Z"/></svg>