<?xml version="1.0" encoding="UTF-8" standalone="no"?>
<svg xmlns:rdf="http://www.w3.org/1999/02/22-rdf-syntax-ns#" xmlns="http://www.w3.org/2000/svg" height="226.76372" width="198.76852" version="1.1" xmlns:cc="http://creativecommons.org/ns#" xmlns:dc="http://purl.org/dc/elements/1.1/" viewBox="0 0 198.76852 226.76372"><defs><clipPath id="clip-path"><rect x="0.00065" width="198.76855" height="226.76372" fill="none"/></clipPath></defs><g clip-path="url(#clip-path)"><path d="M198.76852,0,170.32176,28.55851,146.54751,4.81432,122.66413,28.56178,98.92975,4.81432,75.20386,28.55851,51.46228,4.81432,27.741,28.57092,0,.5692V127.02167c0,54.9951,44.12024,99.74205,99.08333,99.74205a99.8231,99.8231,0,0,0,99.68519-99.74206Z" fill="#fff"/></g><g clip-path="url(#clip-path)"><path d="M8.87319,144.34066a90.95526,90.95526,0,0,0,13.83847,33.29179C26.845,170.38321,35.115,161.378,51.35708,157.55177c-1.24752-4.17061-2.35912-8.6046-3.30212-13.21176H8.87319Z" fill="#5c6670"/></g><g clip-path="url(#clip-path)"><path d="M29.19239,186.20111a92.10974,92.10974,0,0,0,69.47269,32.605c-2.5127-1.28346-4.97115-2.69634-7.33616-4.217-11.29506-7.30087-26.82348-21.50922-36.85008-47.84976-15.78066,3.43936-22.46072,12.38511-25.28645,19.46182" fill="#5c6670"/></g><g clip-path="url(#clip-path)"><path d="M64.20158,165.35649c7.11659,17.89082,17.86859,31.63844,31.98088,40.86649a71.94249,71.94249,0,0,0,24.1683,10.14686,92.2862,92.2862,0,0,0,39.94049-20.60413c-8.99932-.98547-18.2267-6.16445-27.9671-11.62636-15.2082-8.53664-34.14787-19.15925-59.71793-19.15925-2.761,0-5.58218.1333-8.40464.37639" fill="#5c6670"/></g><g clip-path="url(#clip-path)"><path d="M102.65011,97.80705H69.76873v39.14779H83.42879V105.553H93.69067v31.40252H106.709V103.29055c-.00066-2.98256-1.82327-5.4835-4.05889-5.4835" fill="#5b2b82"/></g><g clip-path="url(#clip-path)"><path d="M112.46435,97.80705V131.3903c0,2.9891,1.80758,5.56519,4.03665,5.56519h32.84873V113.18713l-13.115-.015v16.02768h-10.2573v-23.837h23.373V97.80706h-36.886Z" fill="#5b2b82"/></g><g clip-path="url(#clip-path)"><polygon points="33.415 97.807 25.985 113.616 21.694 113.616 21.694 97.807 8.097 97.807 8.097 136.955 21.694 136.955 21.694 121.203 25.985 121.203 33.415 136.955 46.999 136.955 37.418 117.409 46.999 97.807 33.415 97.807" fill="#5b2b82"/></g><g clip-path="url(#clip-path)"><rect x="50.61667" y="97.80705" width="14.07634" height="39.14778" fill="#5b2b82"/></g><g clip-path="url(#clip-path)"><path d="M190.70895,108.39436V97.807H154.61758V115.692c0,2.98191,1.81084,5.40443,4.03534,5.40443h18.38943v8.53206H154.61823v7.327h36.109V118.985c0-2.78063-1.53573-5.39332-3.6034-5.39332H168.16393v-8.19748h9.48487V108.395h13.06015Z" fill="#5b2b82"/></g><g clip-path="url(#clip-path)"><polygon points="152.314 58.103 140.789 58.103 164.559 34.322 146.548 16.343 122.664 40.086 98.93 16.343 57.202 58.103 45.678 58.103 69.407 34.286 51.462 16.343 27.741 40.086 8.098 20.587 8.098 59.549 8.098 90.623 190.706 90.623 190.706 60.486 190.706 19.683 152.314 58.103" fill="#5b2b82"/></g><g clip-path="url(#clip-path)"><path d="M47.9896,83.09812a1.84733,1.84733,0,0,0,1.83764,1.84548H60.08911V82.1865H51.72564V73.244h8.36347V70.49346H47.9896Z" fill="#fff"/></g><g clip-path="url(#clip-path)"><path d="M31.26006,70.4928V84.94294h3.73278V81.16245h4.63v3.78049h3.736V72.33435a1.88544,1.88544,0,0,0-2.052-1.84155Zm8.36347,7.921H34.99284V73.24664h4.63069Z" fill="#fff"/></g><g clip-path="url(#clip-path)"><path d="M182.09126,70.4928h-8.466a1.83461,1.83461,0,0,0-1.83176,1.82914V83.09877a1.847,1.847,0,0,0,1.83176,1.84351h8.466a1.85033,1.85033,0,0,0,1.83176-1.8494V72.32194a1.83292,1.83292,0,0,0-1.83176-1.82914m-1.91933,11.67213h-4.61435V73.24076h4.61435Z" fill="#fff"/></g><g clip-path="url(#clip-path)"><path d="M14.5168,77.25389a1.84423,1.84423,0,0,0,1.84025,1.83829h6.52256v3.093H14.5168v2.7571H26.61631V78.176a1.83046,1.83046,0,0,0-1.64289-1.82588l-.102-.00916H18.24631V73.24336h8.37V70.49279H14.5168Z" fill="#fff"/></g><g clip-path="url(#clip-path)"><path d="M91.40212,70.4928H81.14678V84.94294h3.736V81.16245h4.63068v3.78049h3.73866V72.33435a1.85165,1.85165,0,0,0-1.85005-1.84155m-1.88927,7.921H84.88217V73.24664h4.63068Z" fill="#fff"/></g><g clip-path="url(#clip-path)"><polygon points="155.517 73.24 159.706 73.24 159.706 84.942 163.434 84.942 163.434 73.24 167.618 73.24 167.618 70.493 155.517 70.493 155.517 73.24" fill="#fff"/></g><g clip-path="url(#clip-path)"><path d="M116.78463,70.4928h-18.577V84.9436h3.7354V73.24534h4.58037V84.9436h3.78571V73.24534h4.5771V84.9436h3.7367V72.33175a1.84694,1.84694,0,0,0-1.83829-1.83895" fill="#fff"/></g><g clip-path="url(#clip-path)"><path d="M149.89082,70.4928H139.63417V84.9436h3.73344V73.24534h4.63069V84.9436h3.73605V72.33175a1.8472,1.8472,0,0,0-1.84353-1.83895" fill="#fff"/></g><g clip-path="url(#clip-path)"><path d="M123.70908,83.09812a1.84368,1.84368,0,0,0,1.8383,1.84548h10.25206V82.1865h-8.35431V79.08891h8.35431V76.34423h-8.35431V73.244h8.35431V70.49346H123.70907V83.09812Z" fill="#fff"/></g><g clip-path="url(#clip-path)"><path d="M74.4909,79.68555h1.99775V72.33109a1.89521,1.89521,0,0,0-2.052-1.83829H64.38848V84.94294h3.73278V79.6862H70.83l2.23562,5.25674H76.7043Zm-1.739-2.748h-4.63V73.244h4.63Z" fill="#fff"/></g><g clip-path="url(#clip-path)"><path d="M70.61305,155.42661c19.45528-.39538,38.69491,4.4758,63.24551,18.46588,18.14632,10.33963,26.119,13.47577,31.56,12.13675,5.01363-1.23315,9.66392-4.19481,17.86924-21.53667a90.31361,90.31361,0,0,0,6.47421-20.14733H57.77443c.91882,3.99809,1.8213,7.97462,3.02831,11.63292a88.45539,88.45539,0,0,1,9.81031-.55155" fill="#5c6670"/></g></svg>